/* XPM */
static char *_1955_c49d023a4a42df7baf15cb85f1bcbc045a096602b8313dc93b763033bc334f75[] = {
/* columns rows colors chars-per-pixel */
"70 70 199 2 ",
"   c #050402",
".  c #090604",
"X  c #0A0A06",
"o  c #090408",
"O  c #07080A",
"+  c #0D0C0B",
"@  c #100E0B",
"#  c #13120D",
"$  c #19160E",
"%  c #0F0F19",
"&  c #151412",
"*  c #191613",
"=  c #141915",
"-  c #1C1A16",
";  c #18151C",
":  c #161C1B",
">  c #1D1B1A",
",  c #201B17",
"<  c #231E1B",
"1  c #1F201D",
"2  c #212117",
"3  c #25211D",
"4  c #29231E",
"5  c #2A281F",
"6  c #0A0D20",
"7  c #0F1223",
"8  c #111421",
"9  c #171925",
"0  c #1C1C22",
"q  c #281F21",
"w  c #1E232A",
"e  c #1E2834",
"r  c #1B2738",
"t  c #262422",
"y  c #2A2522",
"u  c #272827",
"i  c #2C2A25",
"p  c #23242A",
"a  c #2C2628",
"s  c #2D2B29",
"d  c #312D25",
"f  c #332D2B",
"g  c #2F312D",
"h  c #313126",
"j  c #33312B",
"k  c #222836",
"l  c #2E2D33",
"z  c #382F31",
"x  c #353232",
"c  c #393532",
"v  c #3C3936",
"b  c #35363A",
"n  c #3B3C3D",
"m  c #42413D",
"M  c #3A3B43",
"N  c #34374C",
"B  c #2D365C",
"V  c #373B55",
"C  c #2C3863",
"Z  c #3F4242",
"A  c #474644",
"S  c #45464C",
"D  c #48474A",
"F  c #45484C",
"G  c #4B4D4D",
"H  c #52514F",
"J  c #464654",
"K  c #4B4E50",
"L  c #504F50",
"P  c #4D5152",
"I  c #555655",
"U  c #5C5956",
"Y  c #595C5D",
"T  c #615C5B",
"R  c #64615E",
"E  c #4A4F65",
"W  c #515264",
"Q  c #5A5C66",
"!  c #4F5672",
"~  c #535B79",
"^  c #696969",
"/  c #6C6F71",
"(  c #6C6D7A",
")  c #706E71",
"_  c #6B7679",
"`  c #74757C",
"'  c #71787B",
"]  c #76787B",
"[  c #82817F",
"{  c #4C5B85",
"}  c #525E84",
"|  c #687A80",
" . c #798285",
".. c #718389",
"X. c #79ADC9",
"o. c #4DA6F5",
"O. c #5AB3F7",
"+. c #6BB9F1",
"@. c #5EC3FB",
"#. c #6BC6FB",
"$. c #67CAFC",
"%. c #6DCBFF",
"&. c #79C6F7",
"*. c #76C6FB",
"=. c #7CCBF8",
"-. c #7BD3FF",
";. c #78D4FC",
":. c #868685",
">. c #8F8E8B",
",. c #92918F",
"<. c #868E92",
"1. c #8E9295",
"2. c #8D9098",
"3. c #939495",
"4. c #919599",
"5. c #999999",
"6. c #959BA3",
"7. c #95A0A6",
"8. c #9CA2A5",
"9. c #9DA5AA",
"0. c #A9A8A6",
"q. c #A4B0B7",
"w. c #ABB3B6",
"e. c #ACB4B8",
"r. c #B7B6B3",
"t. c #C6C2BF",
"y. c #B2BCC2",
"u. c #B8C0C4",
"i. c #B6C4CB",
"p. c #BCC6CC",
"a. c #A6C5D5",
"s. c #B7C9D1",
"d. c #82C3E8",
"f. c #84CDF6",
"g. c #84C6F8",
"h. c #82CEFD",
"j. c #8ED2F5",
"k. c #85D4FD",
"l. c #8CD4FD",
"z. c #8DD9FE",
"x. c #94D3FC",
"c. c #99D7FE",
"v. c #94DAFE",
"b. c #9DDCFD",
"n. c #A5D9F8",
"m. c #A3DDFD",
"M. c #A8DEFB",
"N. c #B7DEF7",
"B. c #95E0FF",
"V. c #9AE1FF",
"C. c #A5E2FE",
"Z. c #ACE3FE",
"A. c #B4E5FE",
"S. c #BBE6FE",
"D. c #B6E8FF",
"F. c #BDE8FE",
"G. c #C6C5C5",
"H. c #C2CCD3",
"J. c #CCD1D5",
"K. c #C6D2DC",
"L. c #CDD7DE",
"P. c #C7D9DF",
"I. c #CDD9DF",
"U. c #D9D7D4",
"Y. c #D1D7DC",
"T. c #D2D9DE",
"R. c #E0DCD9",
"E. c #C2D5E0",
"W. c #C6DAE5",
"Q. c #CDD9E1",
"!. c #CCDEE9",
"~. c #D3DCE3",
"^. c #DADFE4",
"/. c #CDE1EC",
"(. c #D4E0E6",
"). c #DCE2E7",
"_. c #D3E1EA",
"`. c #DAE4EB",
"'. c #C6E1F1",
"]. c #CAE4F3",
"[. c #C3E6FC",
"{. c #C4EAFE",
"}. c #CCECFF",
"|. c #D5E7F2",
" X c #D5E9F6",
".X c #DCECF6",
"XX c #D3EEFF",
"oX c #D9EFFE",
"OX c #CEF1FF",
"+X c #D6F0FF",
"@X c #DBF1FF",
"#X c #E2EEF6",
"$X c #E8F1F7",
"%X c #E3F3FF",
"&X c #EAF6FF",
"*X c #E5F8FE",
"=X c #EEF8FF",
"-X c #F0F6FC",
";X c #F3FAFF",
/* pixels */
"%X%X&X;X;X;X=X&X&X&X&X%X%X%X%X@X%X@X%X%X@XoXoXoXA.}.+X@X&X%X@X+X+X+X+X+XXX+X+XXX+X@X+X{.}.}.XX+X+X+X+X+X+X+X+X@X%X@X%X@X@X@X%X%XA.}.{.+X@X=X",
"&X%X%X%X&X&X&X&X%X}.&X&X&X&X%X&X%X&X%X%X@X@XoXXXXX+X@X%X%X%X%XoXXXv.l.b.}.XX@X}.c.A.S.S.{.F.A.XX+XoX}.v.}.+X+X+X+X@X+X%X%X*X+XOX%X%X%X&X&X%X",
"%X=.A.%X%X@X@X%X&X%XoX@X%X%X&X&X&X&X&X%X%X@X+X+XoX+X%X%X@X@X@XXXS.}.XXXXZ.+X+X+X&X%X@X}.}.%X@X}.}.{.{.{.{.C.&X=X+X@X{.+X%X+X+X+X%X@X%X*X*X%X",
"}.oXoXZ.%X&X%X%X%X&X%X%X%XXX}.%X&X%X@X%X@X@X+XoXXXoXA.{.+X+X+XXX+XXXXXC.{.%X@X}.}.}.}.}.}.}.XXXX}.}.+XXX{.{.{.}.+X+X+X%X+X}.=X%X%X%X@X%X%XXX",
"+X%X@X+Xz.b.c.l.l.x.@X{.oX+XXX{.%X+X@X@X+X+XoXoX}.+XoXoXXX{.}.+XXX{.{.k.{.@X+X@X+X+X+X+X+X{.{.{.XX+XXXXX+XXX}.v.+XoX+X@X@X@X@X%X@X@X%X%XoXZ.",
"XX}.}.S.A.S.S.F.{.F.j.{.{.}.}.XX}.XXoX+X+X+X}.+X+X+X@X+XoX}.{.{.{.F.S.S.+X+X@X+XXXXXoX}.{.}.{.{.{.}.XXXXoX+X+Xb.A.}.+X+X@X@X@X@X%X%X%X@Xk.oX",
"}.}.{.+X[.F.F.S.S.Z.}.{.{.{.{.oX+X}.}.}.}.}.}.oX@X+X@XoXXX+XS.S.F.S.{.{.{.XX+X@X+XoX{.}.XX}.}.}.Z.{.}.XXXX+X}.Z.}.XX+X+X+X@X@X%X%X%X@X}.}.}.",
"}.Z.}.{.{.S.A.F.M.F.F.{.{.{.{.oX}.}.{.}.{.}.oXoX@X@X@X@X+XoXXXC.}.{.A.{.XXXXoXoX+XoXXX}.}.XXXXXXXXb.v.oXoX+XOXZ.}.XX+X+X+X@X@X@X%X%X*X+X}.}.",
"{.+X}.}.}.F.A.b.S.A.S.F.{.XX%XoX@XoX}.}.}.oX@X@X@X@X@X+X+X@XoX].'.W.d.'.'.].XXXXXX}.{.{.}.XX}.XX}.}.m.F.+X{.v.+X}.}.}.+X+XoX+X+X%X%X{.+X}.}.",
"}.XX}.}.{.F.S.A.C.A.A.F.{.%XZ.oX+X@X@X}.}.XXoX+X@X%X@X@X@X@X@XoX{.[.}.{.XXXXoXXX}.}.{.}.}.oX+X+X+X+X@Xv.n.A.+X+X+X+X}.XXXXXX+X+X+X}.}.}.}.{.",
"F.}.}.}.{.S.A.A.A.A.D.{.oX}.XXoXoX@X+X+XoX+X+X+X@X%X@X%X%X%XoX@X+XA.S.{.}.XX}.oXXX}.}.}.XX}.oXoX@X+X+XO.}.+X%X%X+X+X+XXXXXXXoXXXXX}.oXoX{.}.",
"XX{.}.}.{.F.A.A.A.A.F.{.}.XX}.XXoX@X%Xv.}.+XoX+X@X@X@X@X%X%X%X%X@Xv.[.{.{.{.{.}.}.}.}.+XXXXX}.%X%XXXO.%X+X+X+X+X@X@X+XoXXX+XXX+X}.}.oX+X+XXX",
"OXF.}.}.{.{.A.A.S.v.{.}.}.XXXXXX+X+XC.{.}.oX+X@X%XoX+X%X@X%X%X%X+Xm.F.{.{.F.F.[.F.{.}.}.oX+XXX{.XXm.@X@X+XoX+X+X+X+XXX+X+X}.oX+X+XXXZ.S.}.{.",
"+XF.F.}.}.{.F.{.F.V.A.}.XX}.XXoXoX+XC.{.}.oX+X@XoX+X.X.X%X#X%X@Xl.F.}.{.{.{.F.{.}. X.X%X%X%X@XXX+X@X@X%X%X+XoX}.XX+X+XXXXX}.{.XXb.+X+X+XF.}.",
"+X{.F.{.{.{.{.}.}.}.F.S.OX}.}.+X+XZ.S.}.oX+X@XoX@X_.D u u x i.k.A.{.}.{.{.{.{.'.b p p x a.%XXX}.oXoX@X%X%X+X}.}.XXXXXXoX+XXX%XV.}.+X@X+X}.+X",
"+X+XoX{.{.{.}.}.}.XXx.Z.}.XX}.XX+Xv.}.}.oXoX@X+X@X(.w # & & | s.XXXX+XXX{.}.E.<.< & & O G.oX}.+X@X@X+X@X@X+XoXXXM.C.XXXX}.%Xv.+XoXoXoX@X+X+X",
"+X@XXX{.{.{.}.}.}.XX}.b.@X+XXXXXA.F.+XXXXXoX+X+X+X_.t * 3 g @ A /.oX.XoX}.].^ @ u t t + i.%XXX+X@X@X@X+X%X+XF.XXXXXX+Xz.@Xm.[.oXXXoX+X+X+X@X",
"oX+XXXXXXX}.}.}.}.}.}.b.C.+XXX-.M.}.}.}.}.XX+XoX+X(.> > j y 3 3 S K K G G K q < y s t O p.@XXX}.@X@X@XS.f.oXXXXXXXXXoXXXZ.F.F.oXXXXXXX+X+XoX",
"oX+X+XXXoX}.XXXXXXoX+X+X@.k.v.@XoXoX}.}.}.XXXXoXoX/.3 = 3 3 4 3 & + & & * @ < y i t - + i.XX}.+X%X{.l.}.@XoX+XoXoXoX@X%X{.+X}.+XXXXXoXoXoXoX",
"%X@XXXXXXXXX}.oX+X}.F.*.o.}.oX+X@X+X+XoXXX}.XXXX+X/.t - u 3 < 4 a u < d t < y , 3 y y @ i.A.@X[.%.F.+X+X@X+X+X%X@X%X@X@XC.+XoX+XXXXXoXoX+X%X",
"&X+XXXXXXXXXXX}.oXD.f.b.XX+X+XoX%X+X+XXXoXXXXXXXoX!.1 t z < < < < t < < , 4 < < , j y @ i.C.C.A.oXXXXX+X+X@X@X@X%X@X%X@XC.f.[.+XoX+X+X@X@X&X",
"&X%XXXXXXX}.@X+XA.b.@XoXoXXXXXoX+XXXoXXXXXXX}.oX|.q.t t d t < t < < t < 4 4 , 4 4 y t - 5.~.A.+XXX}.XXoX@X+X@X@X@X@X@X@X}.oX+.XX+X+X+X@X&X%X",
"&X%XXXoX@X%XF.Z.{.+X+X@X+XXXXX}.oXXXXXXXXXXX}.XX .: y t < d * 4 < < < , < < < < 4 < d f < Q .XXXXXXXXXF.oX+X+X%X%X@X%X@X$X}.@XXX+X+X+X@X&X&X",
"&X%XoX@X%X+X{.}.@X@X%X@X+X+XXX}.}.XXXXXXXXXX+X+X_ X j a - < y < < 3 < 4 , 4 y , < < < c & S %X%X@X%X{.oXXXXX+X%X@X@X@X@X%XS.[.XX@X+X@X=X%X%X",
"%X%X%X%XXX{.oXoXXX+X@X%XoXXXF.}.XX}.XX+X}.oX+XC.' + s y < < 3 t < < 4 < < 3 < 4 , < < d < L #X%X&X%X@XXXXXoXXX*X+XoX}.+X@X{.oXXX+X+X@X%X%X%X",
"%X@X@XoXXX+X+X@XoX}.+X@XoXXX}.}.{.Z.}.XX+X}.C.@X' X j 3 < < 4 < 4 < < < 3 4 < < y < < v - D $X%X%X%X%X%X+X+X}.}.}.+XoX+X+XoXXXXXoX@X@X@X%X%X",
"@X%X@XXX+X+X+XXX+XXX&X@X}.+XoX{.}.}.S.+X{.&.@XXX' # g t t < < t 3 < < < 4 < 4 4 - y t t - K %X&X&X%X%X@X+X+X+X}.+X}.+X+X+X}.*XoX+X+X@X@X@X@X",
"%X@XoX+X+XXX}.+XoX%X{.[.{.XXXXXX}.XXb.z.C.k.oX+X7.G 1 y f < < - 3 3 t 3 4 < < < < < d t A :.$X%X%X%X%X%X@X%X&X@X}.XXXXXXXX}.@XXXoX+X@X%X%X%X",
"%X+X+X@XoX}.+XoXF.A.XX}.}.}.XXXXXX+X+XF.%XXXXX}.XXE.u 3 j 3 t < < t t < < < 3 < < c f X e.%X%X%X%X%X%X%X@X}.@X+X+X+X+X}.XXA.@X+XXX+XoX+X%X%X",
"+XoX+X+XoX+X%XS.}.oXXXXXoX+X@X@X@X+X{.XXXXXXXXXXXX!.- u c 3 - q q < < < < 4 3 < < i x & X.XX@X%X*X%X%X@X}.%X@X+XXX}.}.+X{.Z.XX{.oX@X@X+X@X@X",
"%X@X+X+X+XA.oX}.oXXX+X+X+X@X@X@X@X+Xg.}.{.XXXXXX+X!.j t f v y t > : * ; - - < a x c s > H.=Xv.%X@X%X%XV.&X%X%X+X+XXX}.+Xm.+X}.+X}.+X%X+X&X&X",
"%X%XoX}.b.+XXXXXXXXXoXXX+X@X@X@X@XoXk.S.XXXXoXXX+X|./ p p ) D & 9 8 8 9 8 % 0 l ` b > Q I.%X%XF.{.@XoXS.%X%X@X&XoXXXoX}.m.}.XX}.XXoX%X+X%X%X",
"%X%X&XM.XXoXXXoXXXXXoXoXoX%X@X@X@X+Xg.%X}.}.XXXXoX|.I M J I V V B C B B B V V N W J Z S K.%X%X@X%XZ.l.@X+X&X=X%X%XXX+X}.}.D.+X}.XXoX+X;X%X&X",
"%X%XZ.oXXX}.}.}.}.XXXX+X@XoX@XoX+XoXoX{.}.XXXXoXoX/.w Q ( 7 M ! } { { { } ~ ! E 6 W | 9 i.%X%X%X%XoX&.oX&X+X=X&X&X}.}.}.}.}.V.}.}.XX+X%X%X%X",
"%X&XoX@X{.}.S.[.}.}.oX@X+X@XoXoX@X+X@X{.}.XXoX+X+X`.p l J w w k r r r r e e e w 1 Z n X p.%X@X%X%X+Xk.%X%XXX%X%X@X+X+XXX}.}.}.oXoX+X&X@X@X%X",
"%X}.@XoX%XoXXX}.}.}.{.@X+XoXXXXX@X+X}.{.+XoXoX@X%X_.> s M p w > 9 : = = = = - 1 5 c s = p.%X@X@X@X].{.&X%X%X@X+X@X+XXXXX+XXX+X{.XX+X*X%X%X%X",
"%Xg.@X+X@X%XXX}.}.}.}.XXXX}.}.{.%XF.XX[.XXoX+X+X%X~.a y h 2 j i 5 < $ $ 1 5 5 1 3 j j # y.@X+X+X+X}.}.&X%X%X%X%X@X@XoXoXXX}.+X}.m.+X@X@X@X%X",
"%Xb.oX+X@X@X+XXX}.{.{.{.}.}.XXXXoXF.C.XX}.oX+X+Xy.Y + = h h 2 i d 5 < < 5 d h 5 f 3 s   P 8.@X+X+X{.XX%X%X%X%X%X%X@X+XoXXXXXXXXX}.F.@X@X%X%X",
"@X+X}.XX+X@X+X+X}.{.{.{.{.XX}.}.}.}.XXXXoXXX+X@X] X + $ 4 d j h d d f a d d j j f p 0 O O F oX+X+X}.}.&X&X&X&X&X%X%X+X+XoX+X+X+X+XXX}.@X@X%X",
"%X%X}.XX+X@X+X+X+X@X}.F.}.}.}.XX}.h.}.XXoXoX+X@X]   . - 4 h j d z z f f z z z f f s - O   K  X+X@XXX}.%X&X&X&X%X&X%X@X+X+X@X@X%X@X%XF.&X+X%X",
"%X@X+X}.+X@X+X}.XX}.{.{.XX}.}.{.{.+XXXXXXX+XoX+X` o o - q d f f z f z f z f f h z 5 - X   G  XXX+Xx.%X+X%X%X%X&X&X%X%X+X+X@X%X%X%X%X@XZ.%X%X",
"%X@X+X+X+X+X{.}.{.{.{.XX}.}.}.C.{.}.c.XX+XXX+X@X6.l o < y f f d f f j f h h j j d 4 , . t ] XXXX}.$.%X%X%X%X%X&X&X%X%X@X%X%X@X%X%X@X%X@X{.%X",
"@X@X%X%XoX}.XXoX@X}.{.{.{.}.{.{.}.}.{.XX+XoXXX+X_.6.- > a f z c h h h h d h f d j i , # | W.&XoX+XC.@X%X%X%X%X*X%X%X%X@X@X%X%X%X%X%X%X%X+XoX",
"%X}.%X@XZ.}.@XoX+X}.{.{.{.{.z.oX{.XXXXXX@X+X@X#X_.e.; : q a s s j h h j j h f d d 3 , X 2.~..X.X[.}.+X%X@X%X%X%X%X&X%X@XoX@X%X@X%X%X@X%X@X{.",
"%X@X%X}.XX%X+X.X@XoX{.}.{.D.C.oX{.}.}.XX+XoX$XQ.Q.e.- - y i f z j h d d f z z d y t p + 2.~.Q. X+X+X*XS.%X%X%X%X%X%XoXoXoX@X@X%X%X%X%X%X%X%X",
"%X%X%X@X+X%X.X&X%X%X}.}.{.{.S.{.{.{.}.oX+X%X@XW.Q.e.= $ < < i f f d < a d f f f t < - . 2.~.E. X@XXX}.@X%X@X%X%X%X@X+XoX+X+X+X%X%X%X%X%X%X&X",
"%X%X%X%XoXoXc.&X%X+X{.{.{.}.}.{.}.}.}.XXoX*X.XW.P.e.- 1 j 3 4 y y a < < < a d f < i i . 2.Q.L. X[.A.@X%X%X%X%X%X%X%X%XoX+XoX%X%X%X%X%X%X%X%X",
"+X&X&X%X{.[.%X%X+XXX{.{.{.{.{.F.}.}.}.+X@X@X@XL.I.w.= 3 c 3 < 4 q q q q < < < < 4 z j X 3.~.Y..XC.#.+X+X@X%X%X%X%X@X%X@X@X@X%X@X%X%X&X&X&X%X",
"XX&X%X&XS.@X%X+X+XXX{.{.{.{.{.{.}.{.XX+X+X@X@XI.T.e.$ y v 4 < 4 3 y i g i < < 3 3 v s X 3.~.T.#X].$.+X+X+X@X%X%X%X%X%X%X@X@X%X%X%X%X%X%X%X+X",
"&X%X%X+X}.%X+X+XoX}.}.{.}.{.{.}.}.}.oXoX@X@X@XL.L.e.- v T f 4 $ - 3 h h 3 $ = 3 j G D & 3.~.L.#X{.*.OX+X+X+X+X@X@X@X@XoX@X%X%X%X%X+X;X%X&XXX",
"XX{.}.S.@X+XXXoXXX}.}.}.{.{.{.OXm.XX+X+X@X@X@XL.I.e.> R 5.T d     $ g h > +   = U :.[ # >.~.T.#XS.b.XX+X}.+X}.oXoX+X+X+X@X+X@X%X%X@X+XoXXXXX",
"&XoX*X}.@XXXXXoXXXXX}.{.{.{.}.}.{.{.oX+X+X%X%XL.I.e.> [ t.,.A . X = s s $ X   j >.r.0.& 3.~.Y..X}.}.+XoXXX+XXXXXoXXX+X%X%X@X%X&X=X%X@XoX+X%X",
"&X@X+X@X%X+XXX+X+XXX}.}.}.}.}.XX+XS.}.+X@X%X*X|.(.w.= ,.U.G.U .   $ 1 3 > .   v r.U.r.= 3.^.`.n.{.+X+XoXXX&X}.XXoXoXoX%X&X&X&X;X;X;X%X+X@X&X",
"%X%XoX@X@X+XoX@XXXXX}.}.+X}.XX+X%XZ.+X+X+X@X@X%X`.w.u ,.R.R.^     = 3 3 $ .   m U.R.0.3 1._.+XZ.+X+XoXoX&XXX}.oX+X@X%X%X&X&X;X&X&X&XoXoX&X&X",
"%X%XoX+X@XXX+X@XXXXX}.+XXXXXoX+X@X{.+XXX@X@X@X%X`.p.8./ H I  .8.9.^ = > I 8.8.,.I H ^ 5.G.(.A.XX+X@XoXoX+X@XXXoX+XoX%X%X&X&X&XXXz.@XoX@X%X%X",
"&X%XoX[.@X+X+X+X+X}.XXXXXXoX+X+X+X+Xb.oX+X@X@X@X.X(.Q...A n 8.Q.~.1.# $ ] T.~.u.P v ) T.^.N.+X+X+X+X%X@X%XXX+X+XoX+XoX%X&X&X&X&X@X@XoXoX&X%X",
"%X%X+XD.+XXXoX@X+XXXXXXX+X+X@XoX@X@XS.{.+X+X@X%X*X@XQ.a.H.s.K.L.I.1.  O / I.T.T.J.J.J.T.$X}.@X@XoX&X&X&X%XoXoX@X@X+X+X@X%X&X&X;X%X@XoXoX%X%X",
"&X&X%XF.%XXXoX@XoXXXXXXX+X+X+X@X@X@X@X{.+X%X@X%X@X%X@XA..XQ.I.Q.I.u.1.4.e.L.T.T.T.$X-X-X-X%X%X@X+X;X%X&X%X@X+X+XoX@X+X+X%X&X&X%X&X&X%X%X%X&X",
"&X&X%XF.@XoX@X+X}.}.+X+XoX+X@XoX+X%X@X{.+X@X@X@X@X%XZ.Z.*X`.~.(.(.(.(.(.~.(.).).).-X-X%X&X%X@X@X%X@X&X&X%XoXoX+X@XoXoXoXoX%X;X%X&X&X%X%X%X%X",
"%X%X%XS.@XXX+X+XXX}.XXoXoXoX@X+X+X+X+XF.S.&X%X%XoXZ.k.%X+X@X@X+X@X%X%X%X%X%X%X=X=X=X;XOX&X%X%X@X%X%X+X%X%X%XoXoXoX+X+XoXoXoXoX%X&X&X%X%X%X&X",
"&X%X%XS.+X+XXX}.}.}.}.XXoX+X+X@X@X+X+X%Xh.S.oXXXZ.c.@X@X@X+X+X@X%X@X%X%X%X%X&X=X;X&XF.&X%X%X%X@X%X%XoX@X%X@X%X@X@X+XoXoXXX+X}.+X%X&X%X%X%X%X",
"&X[.%XF.@XXX}.}.}.}.XXoX+X+X@X@X@X@X+X%X%X=.g.Z.A.@X%X@X@X@X@X@X@X%X@X%X%X%X%X;X=X%X}.[.@X@X@X%X@XoX+X@XoX@X%X%X%X+XXXoX+X}.}.}.+X%XS.%X&X&X",
"XX{.%X}.@X+X}.}.}.XXoX+X@X@X@X@X@X@X@X+X=Xm.F.Z.%X%X%X%X%X@X@X@X@X@X%X@X%X%X%X;X&X}.%XXX%X@X%X@XoX@X%XoXoX@X@X@X%X@X+X}.XXoX}.[.{.@X{.@X%X%X",
"v.%X%X+X%XXXXX+X}.XX+XoXoX+X@X%X%X@X%XoXB.;.oX%X%X%X&X%X%X%X%X%X@X%X@X%X@X%X%X%X%X[.@X%X%X@X@X+XoX%X%X@X@X+XoXoX%X%X@XA.}.}.A.%X%XC.}.%X+X{.",
"%X&X&Xk.@XXXXXXXXXXXXX}.+X+X@X%X%X%X@X{.m.*X%X%X%X%X*X%X&X%X%X@X@X%X@X@X%X%X%X&X@X%X[.@X@X@X=X@XoX%X%XoXoXoX@XoX@X%X%XoX}.}.&X%X%X%XF.@X{.Z.",
"&X%X%Xl.@X+X}.XXXXXXXXoXoX+X@X%X%X+XOXZ.@X%X%X%X%X@X%X%X%X%X%X@X@X%X%X%X%X%X%X&XXXS.+X&X@X+X+X@X@X%X%X@X+X@X+X@X@X%X%X@X%XA.%X%X%X%X*.n.A.&X",
"%X&X%Xv.@XXXXXXXXXoXXXoXXXXX&X&X@XF.C.@X@X@X@X%X@X%X%X%X%X%X%X%X%X@X@X%X@X%X%X+X}.@X}.%X%X&X&X@XoX%X%X@X@XoXoX@X@X@X%X&X{.A.#.@XS.A.XXF.;X%X",
"%X&X&X-.@XXXXXXXXXXXoXoXoXXX+X}.+XF.=X%X%X%X%X@X@X@X@X%X%X%X@X%X%X@X@X%X%X%X%X%X+X+X*X@X%X;XXX@X%X%X%X%XoX@X+XoX%X&X{.A.v.;. X{.%X&XoX}.;X%X",
"%X&X%XA.{.+X+X+XXXXX#XO.+X+XXXXX{.&X&X%X%X%X@X@X@X@X@X%X@X%X@X%X@X@X@X@X@X%X%X;XF.D.oX;.}.XX&X%X;X%X%X%X@X%XoX&XF.A.S.@X%X%X@X+X%X%X@XA.%X%X",
"&X%X&X}.v.n.[.F.[.k.%X%X@X+XXXF.$X&X&X=X%X%X%X%X@X@X+X@X%X@X%X@X%X%X+X+X+X@X%X[.[.%X;X%X}.{.XX%X&X%X%X+X+X&X@XS.F.%X%X%X%X%X%X%X%X@X+X+X;X%X"
};
