/* XPM */
static char *_0400_38507806193aaee39ec04b87d58b8aa2b70b239f50b8c4f7521c3259785a3e69[] = {
/* columns rows colors chars-per-pixel */
"70 70 210 2 ",
"   c #7D7666",
".  c #8C836D",
"X  c #97846A",
"o  c #8B8677",
"O  c #878078",
"+  c #9A8671",
"@  c #9D8D77",
"#  c #938B7C",
"$  c #9A8E7A",
"%  c #9D9178",
"&  c #A2937C",
"*  c #AB977A",
"=  c #4DA6F5",
"-  c #5BB3F7",
";  c #73B7E7",
":  c #62BCF9",
">  c #5EC3FB",
",  c #6BC6FB",
"<  c #67CAFC",
"1  c #7FC2F6",
"2  c #75C6FB",
"3  c #7CC6F8",
"4  c #75CAF8",
"5  c #7CCCF8",
"6  c #76D2FB",
"7  c #7BD3FF",
"8  c #7ED9FF",
"9  c #9C8F82",
"0  c #969283",
"q  c #9B9183",
"w  c #99918D",
"e  c #9B988E",
"r  c #9B9A93",
"t  c #A39684",
"y  c #A39982",
"u  c #AC9C83",
"i  c #A49589",
"p  c #A39B8A",
"a  c #AA9B8C",
"s  c #B59B80",
"d  c #ACA184",
"f  c #AEA38D",
"g  c #B4A285",
"h  c #B4A48B",
"j  c #B8A68C",
"k  c #B8A988",
"l  c #BBAB8D",
"z  c #A5A397",
"x  c #ABA496",
"c  c #A7A39A",
"v  c #ACA59C",
"b  c #ADAA9D",
"n  c #B5A193",
"m  c #B3AB96",
"M  c #BCAB92",
"N  c #B2A699",
"B  c #B3A99C",
"V  c #BBAA9C",
"C  c #BEB296",
"Z  c #BCB29C",
"A  c #ACA6A1",
"S  c #A5AEA3",
"D  c #ACABA3",
"F  c #ADADA8",
"G  c #B3ACA3",
"H  c #BBAEA1",
"J  c #B4AEAA",
"K  c #AEB0AE",
"L  c #BBB0A4",
"P  c #B2B4B4",
"I  c #BCBBB3",
"U  c #B8B8B5",
"Y  c #B4BABA",
"T  c #BBBCBB",
"R  c #C2AD8C",
"E  c #CAB38E",
"W  c #C3AF93",
"Q  c #C4AF98",
"!  c #C4B294",
"~  c #CAB393",
"^  c #C9B997",
"/  c #C5B59B",
"(  c #CBB59B",
")  c #C7B99B",
"_  c #CCBB9C",
"`  c #D0B896",
"'  c #D3BC9D",
"]  c #C6B5A1",
"[  c #CCBBA2",
"{  c #C7BAAA",
"}  c #CBBCAA",
"|  c #D3BDA3",
" . c #D2BEAA",
".. c #C9BFB0",
"X. c #C0BFBD",
"o. c #CAC0AE",
"O. c #D5C2A4",
"+. c #DAC5A5",
"@. c #D5C5AC",
"#. c #DBC6AC",
"$. c #D9C8A8",
"%. c #DCCAAD",
"&. c #CDC3B3",
"*. c #C1C0BE",
"=. c #CCC3B9",
"-. c #D2C4B3",
";. c #D9C6B5",
":. c #D6C8B5",
">. c #DDCBB3",
",. c #D1C5B9",
"<. c #D6C9B9",
"1. c #DDCDBC",
"2. c #DED0B2",
"3. c #DED1BA",
"4. c #E2CAAE",
"5. c #E2D0AF",
"6. c #E0C7B3",
"7. c #E3CDB4",
"8. c #E2CEBB",
"9. c #E4D1B5",
"0. c #E9D5B7",
"q. c #E4D2BC",
"w. c #EAD5BD",
"e. c #E7D9BF",
"r. c #ECDABE",
"t. c #F1DCBF",
"y. c #A7C2C9",
"u. c #BEC3C3",
"i. c #B3D7DF",
"p. c #9BCDEA",
"a. c #87C5F7",
"s. c #84CDF6",
"d. c #81CDFD",
"f. c #8ED2F5",
"g. c #85D4FD",
"h. c #8CD5FD",
"j. c #8DDAFF",
"k. c #91D3FC",
"l. c #9AD7FD",
"z. c #94DAFE",
"x. c #9DDCFD",
"c. c #A7DCF6",
"v. c #A5D6FC",
"b. c #A3DDFD",
"n. c #AADEFB",
"m. c #B0DFFD",
"M. c #95E0FF",
"N. c #9BE0FF",
"B. c #A5E1FE",
"V. c #ACE3FE",
"C. c #B4E5FE",
"Z. c #BBE6FE",
"A. c #B5E8FF",
"S. c #BDE8FF",
"D. c #C4C6C4",
"F. c #CACBC6",
"G. c #CACCCB",
"H. c #C6CED1",
"J. c #C4D0D3",
"K. c #CBD3D4",
"L. c #C9D5DA",
"P. c #CADADE",
"I. c #D2D4D3",
"U. c #D3DADD",
"Y. c #E4D4C2",
"T. c #EBD6C3",
"R. c #E7D9C2",
"E. c #ECDAC3",
"W. c #E9D7CA",
"Q. c #ECDCCB",
"!. c #F1DCC5",
"~. c #F1DCCC",
"^. c #ECDED1",
"/. c #ECE1C5",
"(. c #EEE0CA",
"). c #F4E0C7",
"_. c #F5E1CC",
"`. c #EEE0D1",
"'. c #F2E1D1",
"]. c #CBDDE5",
"[. c #C8DEE9",
"{. c #D1DDE3",
"}. c #CCE2EC",
"|. c #DBE3E5",
" X c #D4E3EA",
".X c #DAE7EE",
"XX c #C7E5F5",
"oX c #CDE5F3",
"OX c #C2E6FD",
"+X c #C4EAFE",
"@X c #CCECFF",
"#X c #D3E6F2",
"$X c #D3E9F5",
"%X c #DDEDF5",
"&X c #D3EEFF",
"*X c #D9EFFE",
"=X c #CCF1FF",
"-X c #D6F0FF",
";X c #DBF1FF",
":X c #E1E6E8",
">X c #E1EDF5",
",X c #E8EFF3",
"<X c #E0EFFC",
"1X c #EBF2F7",
"2X c #E3F4FF",
"3X c #EAF6FF",
"4X c #E4F8FE",
"5X c #EEF8FF",
"6X c #F0F5FC",
"7X c #F2F9FF",
/* pixels */
"2X2X3X7X6X7X3X5X3X3X3X2X3X2X2X;X2X;X2X2X;X*X*X*XC.@X-X;X2X2X;X-X-X-X&X&X*X-X;X@X-X;X&X+X@X&X*X&X*X-X;X;X;X-X-X;X;X;X;X;X;X;X4X2XC.+X+X;X;X3X",
"3X2X2X2X3X3X3X3X3X@X3X3X3X2X2X3X2X3X2X2X;X;X;X@X*X&X;X2X2X2X2X-X&Xz.j.x.@X&X;X-Xx.C.A.S.+XZ.C.&X&X&X+Xz.@X-X*X-X;X;X;X4X2X2X-X=X2X2X2X3X3X4X",
";X5 C.2X2X;X*X2X3X2X*X;X2X2X3X3X3X3X3X2X;X;X;X*X&X;X2X2X;X;X;X*XZ.@X-X&XV.*X=X;X2X2X;X@X@X2X*X@X@X+X+X+X+XB.3X5X-X;X+X;X;X;X-X-X2X2X2X4X2X2X",
"@X*X*XV.2X3X2X2X2X2X2X2X2X&X@X2X3X;X2X;X2X;X-X&X-X-XC.OX&X*X;X&X-X&X@XB.+X2X;X@X@X@X@X@X@X@X&X&X@X@X;X&X+X+X+X@X-X-X-X;X;X@X3X2X2X;X2X;X2X-X",
";X;X;X-Xh.x.l.h.h.k.2X+X*X*X&X+X2X;X;X;X;X-X-X-X@X;X*X-X&X+X@X&X&X+X+Xg.+X;X*X-X-X;X-X;X*X+XS.+X@X-X-X*X-X&X@Xz.-X&X-X;X;X;X;X2X;X;X2X2X*XV.",
"-X@X@XA.C.A.S.S.+XS.f.+X+X@X@X&X@X&X*X-X-X&X&X-X;X-X;X-X&X@X+X+X+X+XA.C.-X;X;X&X&X&X&X@X+X@X@X+X+X@X@X*X*X;X;XM.C.@X&X-X;X;X;X;X2X2X2X;Xg.*X",
"@X@X=X$X+XOXS.Z.Z.V.+X+X+X+X+X&X-X@X@X@X@X+X+X%X;X*X;X-X&X-XS.S.S.S.+X+X+X&X*X-X;X&X+X@X@X@X@X&XV.+X@X@X@X-X@XV.@X-X-X-X-X;X;X2X4X2X;X@X@X@X",
"@XV.+X@X+XS.C.S.n.S.OX+X+X+X+X*X@X@X+X+X@X@X*X;X;X;X;X*X*X-X&XB.@XS.C.@X@X&X*X*X-X*X&X@X@X&X&X@X*Xx.z.*X-X-X-XB.@X&X-X-X;X;X;X;X2X2X2X-X&X+X",
"+X*X@X@X@XZ.Z.x.Z.C.C.S.@X@X2X*X;X*X@X+X@X*X*X;X;X;X;X;X;X;X*X@X@X+X4 &X+X&X-X&X-X&X+X+X@X@X&X&X&X@Xl.Z.;XOXj.-X@X@X&X-X&X&X-X;X;X2X+X-X@X@X",
"@X&X@X@X+XZ.Z.C.B.C.C.+X+X2XV.*X;X;X;X@X@X&X&X;X;X2X;X;X;X;X;X;X+XOX+X+X@X&X&X-X@X+X+X+X@X*X*X-X-X-X;Xz.x.C.;X;X-X&X@X&X&X-X-X-X;X@X@X@X@X+X",
"S.@X@X@X+XA.C.C.C.C.C.+X&X&X&X*X*X;X;X-X*X-X-X;X;X2X;X;X;X2X;X;X-XC.Z.+X@X@X&X&X&X@X@X@X&X@X*X*X;X&X$X: @X;X;X2X;X-X*X@X@X-X&X&X&X@X*X*X+X@X",
"&X+X@X@X+XS.C.C.A.C.S.+X+X&X@X&X;X;X;Xz.@X-X*X-X;X;X;X2X;X2X2X;X;Xz.+X+X+X+X+X&X&X@X@X-X&X&X&X2X2X@X: ;X-X-X-X-X;X;X-X-X-X&X*X-X@X@X*X;X-X&X",
"-X+X@X@X+X+XZ.C.C.z.OX@X&X&X&X&X;X*XB.+X@X&X;X;X2X&X;X;X2X2X2X2X;Xx.Z.+X+XS.S.OXS.+X@X@X*X*X@X+X&Xb.*X2X;X*X&X-X-X-X&X*X-X@X*X-X;X@XB.A.@X+X",
"=XS.S.@X@X+XS.+XZ.B.A.@X&X@X&X*X-X@XB.+X@X*X-X;X;X-X;X2X2X2X2X2Xg.+X@X+X+X+X+X+X+X*X2X2X2X2X2X@X;X;X;X2X;X-X&X&X&X-X-X&X&X@X+X&Xx.&X-X;XS.@X",
";X+XS.+X+X+X+X@X+X@XZ.Z.@X&X@X*X*XV.A.@X&X-X;X;X;X;X2X2X2X2X;Xg.C.+X&X+X+X+X+X+X&X*X;X2XC.2X&X@X XP w r K  X@X@X&X&X-X*X&X&X2XN.@X;X;X-X@X;X",
"*X*X*X+X+X+X@X@X@X-Xz.V.@X@X&X@X*Xz.&X@X*X*X;X;X;X;X2X2X2X2XN.&X&X@X*X&X+X@X+X@X+X*X;X2X6X;X@XL.O L =.&.p o  X@Xn.V.@X&X&X2Xj.;X&X*X-X*X;X-X",
"-X-X-X+X+X+X&X@X&X@X@Xx.;X&X&X*XC.Z.&X=X*X*X-X-X;X;X2X2X3X2X&X&X@X-X*X;X@X@X@X+X+X+X*X<X2X2XoX# =.Q.Y.R.[ d S &X&X@X;Xj.;Xb.+X&X&X&X-X;X*X-X",
"*X-X-X@X&X+X@X@X@X@X@Xb.B.-X@X7 n.@X@X@X+X*X*X*X;X-X;X2X;X*X&X@X&X&X&X-X-X@X@X@X@X+X+Xc.;X;XY B W.(.E.E.( W z -X&X&X*X&XV.Z.S.*X&X&X*X-X-X*X",
"&X-X-X-X&X&X&X&X@X&X-X-X> g.z.;X-X*X@X@X@X&X&X&X*X-X;X&X+X&X@X&X&X@X@X@X@X-X@X@X+X@XOXn.@X&Xe } W.Q.'.q.} i u.*X-X;X;X;X+X*X&X*X&X&X&X&X*X&X",
"2X;X@X*X&X@X&X&X;X&XZ.5 = @X*X;X;X;X-X*X&X@X&X*X*X-X;X@X*X&X@X&X@X-X-X@X@X@X&X-XS.&X&X*X-XXXe <.Q.W.'.-.Q w %X*X2X;X2X;XB.;X&X&X*X&X*X*X-X2X",
"3X;X&X&X&X&X@X&X-XA.s.x.&X-X;X*X;X;X-X&X&X&X&X&X*X&X@X;X;X;X+X@X&X&X&X@X@X&X@X-X+X2Xv.&X-Xi.$ Y.(.R.q.:.a G.*X<X;X;X;X;XB.s.+X*X*X-X-X;X2X2X",
"2X2X&X*X*X@X*X;XV.x.;X-X*X*X@X&X-X*X-X&X*X&X&X&X-X&X-X;X;X3X*X&X-X*X&X&X@X&X*X;Xb.B.: k.3XF V Y./.R.%.o.i U {.G.U K.2X;X@X-X; @X-X-X;X;X3X3X",
"3X2X&X&X*X2XS.V.+X;X;X;X-X&X&X&X&X&X&X&X*X@X@X&X*X*XV.@XC.C.&X2X2X-X@X;X-XC.V.V.-X;X;X4XL.  <.E.2.2.%.@.;.n a Q { i e %X3X@X;X@X-X-X;X;X3X2X",
"3X2X*X;X2X;X+X+X;X;X;X;X-X-X@X&X&X-X*X@X&X&X&X-XZ.S.;X-X;X&XC.x.S.@XS.z.C.@X2X&X;X;X;XJ.0 $ R.R.$.O.2.q.~.T.~.~.w.3.y b 2XZ.+X&X-X-X;X5X2X3X",
"2X2X2X2X&X+X*X*X@X-X;X;X*X@XS.@X@X@X&X-X@X-X-XV.;X;X;X-XC.;X*X;X+Xz.A.@X&X*X*X@X*X*X*.x B } _.9.| 6.!.~.!.~.~.r.r.>./ # %X@X&X@X-X;X;X;X2X2X",
"2X;X;X*X@X-X;X;X*X&X;X2X*X&X@X@X+XV.@X&X-X@XB.*X&X;X-X;X-X;X*X;X-X;X;X;X;X*X*X;X#XF L &.-.R.q.7.w.w.T.T.T.T.t./.t.r.>.% {.*X&X*X&X;X;X;X;X2X",
";X;X;X&X-X;X-X*X*X&X2X;X@X;X&X@X@X+XA.*X+X3 ;X@X&X&X;X;X-X;X;X;X-X;X2X3X2X2X;X].x ..&.1.(.e.0.w.w.8.T.!.T.9.9.0.5.$._ % }.@X;X;X-X-X;X;X2X;X",
"2X2X&X-X;X-X+X&X&X2X+XS.+X&X&X&X@X&Xx.z.B.g.-X&X&X&X*X*X*X;X-X-X;X2X3X2X2X2XD.n ,.-.3.Q.w.9.0.7.6.6. .[ [ | _ ^ _ _ M q $X@X2X-X*X;X;X;X;X2X",
"2X-X-X*X*X@X*X*XS.Z.&X@X@X@X@X&X*X;X-XA.2X*X&X&X&X&X&X*X*X&X;X;X2X2X3X3X:XB L -.1.T.~.q.8.0.' | ( ( ( ( ) C C l l g % Y -XC.;X*X&X-X*X;X2X2X",
";X*X&X;X-X-X2XA.&X&X&X&X*X-X;X;X;X-X+X*X*X@X&X&X&X&X*X;X&X;X2X2X2X3X1XG.a } 8.E.T._.q.w.0.' ' ' | Q i @ . . o 0 0 e Y $X+XC.&XS.*X;X;X-X;X2X",
"2X2X;X-X;XC.&X@X&X&X*X*X-X;X;X;X;X*X1 @X+X&X&X&X*X*X&X;X2X2X2X2X3X:XG H 1.Y.E.E.~.w.6.| ( ' ~ s + 9 G y.|.,X>X-X-X&X@X-Xb.-X&X&X@X;X;X*X3X2X",
"2X;X&X@Xx.&X*X&X&X&X&X&X;X;X;X;X;X*Xg.A.&X&X*X&X*X-X;X2X3X3X3X3XG.B &.Q.Q.T.!.!.w.|  .( M s @ F {.<X*Xm.4X2X;X3X*X&X*X@Xb.@X&X@X&X*X2X;X2X2X",
"2X;X3Xm.&X&X&X&X@X*X&X*X;X;X;X;X;X;Xa.;X@X@X&X&X-X;X3X3X3X1X:Xb { Y.~.Q.T.T.0.4.' ! l d q *.%X;X3XV.h.*X;X4X3X3X2X@X-X@X@XA.=X&X&X*X;X7X2X2X",
"2X2XV.-X*X@X@X&X@X@X&X;X;X*X;X;X*X*X;X+X@X&X&X*X;X2X3X3X,XI m 3.E.W.Q.T.0.7.$.~ l g & I %X2X2X2X2X*X4 *X2X;X5X3X2X-X@X@X@X@Xx.@X@X&X;X2X2X2X",
"2X3X*X*X+X@XZ.+X@X@X*X;X;X-X*X*X;X=X;X+X@X-X&X*X;X2X3XG.N <.W.E.q.w.T.0.%.( R j & G .X;X2X2X;X4X2X;Xd.2X2X-X;X2X;X-X&X-X@X@X@X-X&X-X3X;X;X;X",
"2X@X2X;X<X*X&X+X@X@X+X;X-X*X&X*X;X*X&X+X&X&X*X;X3X|.b { W.q.Y.8.q.q.%.' ( W u f U.2X2X;X;X2X;X;X;X@X+X3X2X2X;X;X;X;X&X@X-X-X@X@X&X-X2X2X2X2X",
"2Xd.;X*X;X;X&X@X@X@X@X-X&X@X@X+X2XS.@X+X*X&X-X XJ L e.e.q.w.8.w.9.' ! ~ j & =.oX;X2X;X*X*X;X;X;X*X@X&X3X2X2X2X2X;X;X&X&X&X@X-X@XB.&X;X;X2X;X",
";Xb.&X*X-X;X;X&X@X+X+X@X@X@X&X&X*XZ.V.*X&X$XT G <.Q.E.e.7.4.7.| E R W u t U.2X;X2X;X*X;X;X-X*X-X;XS.@X3X2X2X2X2X2X;X;X*X&X&X&X&X@XZ.;X;X2X2X",
"2X-X+X*X*X;X-X&X@X+X+X+X+X&X@X@X@X@X@X$Xu.b :.W.~.~.T.>.4.4.' ` R ~ & H >X2X3X2X;X;X;X&X*X&X;X-X-XXX@X3X3X3X3X3X2X2X*X-X*X-X;X;X;X&X@X;X;X2X",
";X2X@X&X-X-X;X;X;X#X}.[.}.oX$X$X$Xp.u.G o.E.~.E.W.q.6.6.4.' E R k @ F.3X2X2X2X2X2X;X*X;X;X&X&X-X;X&X@X2X2X3X3X2X3X2X;X-X;X;X;X;X;X2XS.3X;X;X",
"2X;X&X&X-X;X;X].A v G H B B b A J L ,.`.(.q.R.E.q.#.6.%.( ~ ` * @ ].3X3X3X2X2X2X2X2X;X2X&X&X-X*X&Xz.2X;X2X2X2X3X2X2X;X;X;X;X2X2X2X;X2XV.2X;X",
"2X;X-X-X-X-XXXA Y.W.~.'.`.^.Q.^.W.^.Q.R.w.r.E.4.O.4.+.| ' R X N %X2X3X3X3X2X2X3X3X2X2X2X@X@X&X@X@X< 2X;X2X2X2X3X3X2X2X;X;X2X;X2X2X;X2X;XS.3X",
";X;X2X2X*X@XH.N Y.W.Y.T.E.E.Q.W.Y.1.:.3.E.E.r.4.4.+.| _ j X T *X-X3X2X3X3X3X3X2X2X2X2X2X&X@X2X;X&XB.;X2X;X2X2X2X2X2X2X;X;X2X2X2X2X2X2X2X;X*X",
"2X@X2X;XV.@XD...q.w.E.!.!.E.E.e.e.>.O.:.T.7.7.%.O.O.! u . K.*X*X2X2X2X3X2X3X3X3X3X3X2X2X2X2X2X;X+X+X;X;X2X2X2X2X2X3X2X;X;X;X2X;X2X;X2X2X;X+X",
"2X;X2X@X@X2XK.N <.>.7.0.E.E.E.E.>.9.>.q.w.T.T.7.#.! & # |.;X;X-X2X3X3X4X3X3X3X2X3X2X3X2X3X2X;X;X;X;X;XA.2X2X2X2X2X;X*X;X-X;X;X;X2X;X2X2X2X2X",
"2X2X2X;X;X;X|.q ] _ @.#.%.$.%.;.2.w.w.w.w.0.6.[ Q & c 1X2X;X;X2X;X2X2X2X3X3X3X2X3X3X3X2X3X2X*X*X;X%X@X2X;X2X2X2X2X;X-X*X;X-X;X2X2X2X2X2X2X3X",
"2X2X2X2X*X;Xl.I.q @ * s l W [ @.Q.T.7.9.4.#.| Q $ X.3X2X2X;X2X;X2X2X2X3X4X2X3X3X3X2X3X3X3X2X2X&X+XC.;X;X2X2X2X2X2X2X;X*X;X;X;X2X2X2X2X2X2X2X",
"*X3X3X2X+X+X2X2X%X XJ.P a h @.!.W.8.>.9.%.| ! t I.2X2X3X2X;X*X;X;X3X4X2X,X2X3X3X3X3X5X3X3X2X3X;Xn.< ;X;X;X2X;X2X2X2X2X;X;X;X2X;X2X2X3X3X3X2X",
"@X3X2X3XS.;X2X-X&X@X@X+X}.i 8.Q.T.W.9.#._ _ * F.;X;X4X2X2X;XOX2X2X3X2X2X3X3X3X3X3X3X3X3X3X3X3X2XOX< -X-X-X;X2X2X2X2X2X;X;X;X2X2X;X2X2X2X2X;X",
"3X2X2X-X+X2X;X*X&X&X+X@X+XA 8.~.~.~.T.#.O.C z 2X4X4X3X2X2XC.2X2X2X2X2X3X3X3X2X3X3X3X7X6X3X3X3X2XOX4 &X&X*X-X;X-X;X;X;X*X;X2X2X2X2X;X5X4X3X@X",
"@X@X@XZ.;X-X&X&X&X@X@X+X@Xz T.Q._.q.).@.) %  X2X2X2X2X2X+X2 ;X2X2X2X2X2X4X3X3X2X3X3X3X3X3X3X5X2XA.x.&X&X@X-X@X*X*X-X;X;X*X;X;X2X2X;X*X&X&X&X",
"3X;X2X@X2X&X@X*X*X@X@X@X}.a ~.!.E.E.2.O.C b 2X;X;X2X2X2XC.&X;X;X;X2X2X2X2X2X2X2X3X3X5X3X5X5X5X;X@X@X;X-X&X-X&X&X&X&X;X;X;X2X2X2X5X2X;X*X-X2X",
"3X;X;X;X;X-X&X;X-X&X@X@XP.Z q.E.r.r._ [ y U.;X2X2X2X2X;XB.;X;X;X2X2X2X3X2X2X3X3X3X3X7X5X5X5X3Xx.OX;X*X*X@X3X@X&X*X*X*X2X3X3X5X5X7X6X2X;X;X3X",
"2X2X*X;X;X-X*X;X*X&X@X@XK.m O.2.0.O._ f D ;X2X;X2X2X2X@Xx.;X;X;X2X;X2X2X2X2X2X3X3X6X5X5X5X3X-Xc.&X;X;X*X3X-X@X&X;X;X2X2X3X3X7X3X3X3X;X*X3X2X",
"3X>X;X-X;X&X-X;X&X@X@X&X}.d f C ! ! M e .X;X;X2X;X2X;X@XC.;X+X;X2X2X3X2X2X3X3X3X3X3X5X5X3X*XV.&X-X;X*X*X-X;X&X*X*X;X2X2X3X3X3X&Xj.;X;X*X2X2X",
"2X2X;XS.;X-X;X-X-X-X&X=X-Xu.q q d u # U.;X;X;X;X2X2X2XV.@X;X2X2X2X2X2X3X3X2X3X3X3X5X7X5X7XZ.@X*X;X-X;X;X3X@X;X-X*X*X*X2X2X3X5X3X;X;X*X*X3X2X",
"3X2X;XA.*X&X*X;X&X&X&X&X-X-X XT b I [.+X;X-X;X2X2X;X;XB.;X;X;X2X2X2X2X2X3X3X2X3X3X5X7X7X7X+X;X;X;X3X3X3X2X*X*X;X-X-X-X;X3X3X3X7X2X;X;X*X2X2X",
"2X2X2XS.;X&X&X;X-X&X&X&X;X;X;X;X;X;X-X+X-X2X;X2X;X;X;XA.4X;X;X2X;X2X2X2X2X3X3X7X5X5X5X7X7X;X2X;X;X7X2X2X;X;X-X*X*X;X*X-X;X3X3X2X3X3X2X2X2X2X",
"3X3X2XZ.2X&X-X;X&X@X-X-X*X-X*X-X;X;X;X+X-X2X;X;X2X;XV.V.2X2X;X;X2X2X2X2X2X2X2X5X7X5X7X4X3X2X;X;X;X;X5X3X2X*X-X;X;X-X*X&X*X2X7X2X3X3X<X2X2X3X",
"2X2X3XA.;X&X-X*X@X@X&X*X*X-X*X;X-X;X-XS.A.2X2X2X;XV.g.;X;X;X;X-X;X2X2X;X2X2X2X7X5X5X5X=X3X2X;X2X2X2X;X2X2X;X*X*X*X*X-X*X*X*X-X2X3X3X2X3X2X3X",
"3X2X2XZ.;X&X@X&X&X+X@X&X&X-X;X*X;X;X@X2Xd.Z.;X@XV.x.;X;X;X;X;X;X2X;X2X;X2X2X3X5X5X3XS.3X2X2X2X;X2X2X;X;X;X;X2X;X;X-X*X*X&X-X@X@X2X3X2X2X2X2X",
"3XOX2XS.;X&X@X@X@X&X=X&X-X;X;X;X;X;X-X2X2Xd.3 V.A.;X2X;X;X;X;X;X;X2X;X2X2X2X2X5X5X2X@XXX;X;X;X2X;X*X*X;X*X;X2X2X;X;X&X*X&X&X@X@X;X2XC.2X3X2X",
"&XOX2X@X2X&X&X@X@X&X&X;X;X;X;X;X;X;X;X;X3Xb.S.C.2X2X2X2X;X;X;X;X;X;X2X2X2X2X2X5X3X@X2X&X2X;X;X;X*X*X;X;X;X*X;X;X2X;X;X+X&X*X@XOXS.;X+X2X2X2X",
"M.2X2X-X;X&X&X&X@X&X-X*X*X-X;X2X2X2X;X-XN.6 &X2X2X2X2X2X2X2X2X2X;X2X;X;X2X;X2X3X2XOX;X2X2X;X;X*X;X2X2X;X;X;X%X;X2X2X;XC.@X@XZ.2X2XB.@X;X-X+X",
"2X3X2Xg.;X&X&X&X&X&X&X@X-X;X;X2X2X;X;X+Xb.4X2X2X2X2X4X3X2X2X;X2X;X2X;X;X2X2X2X3X;X2XOX;X2X*X3X;X*X2X2X*X*X;X;X*X;X2X2X*X@X+X3X2X2X2XOX;X+XV.",
"3X2X3Xh.2X&X&X@X@X&X*X*X-X-X;X2X2X;X=XV.2X;X2X;X;X2X2X2X2X2X2X;X;X2X2X2X;X2X2X3X@XS.;X5X;X-X;X;X;X2X2X;X;X*X*X;X2X;X;X2X3XC.2X2X2X<X2 b.C.3X",
"2X2X2Xz.;X&X&X@X&X*X&X*X&X*X3X2X;XS.B.;X;X2X;X2X;X2X2X2X2X2X2X;X2X;X;X2X2X;X2X;X@X;X@X;X3X2X3X2X*X2X2X;X;X*X-X;X2X;X2X5X+XC., ;XOXC.@XS.7X2X",
"2X3X3X7 ;X&X&X*X&X*X-X*X*X@X;X@X-XS.5X2X2X;X2X;X;X;X;X2X;X2X2X2X;X2X;X;X2X2X2X2X;X-X4X;X2X5X&X;X2X2X;X2X*X;X*X*X2X3XA.C.z.6 $X+X2X3X2X+X7X;X",
"2X3X2XC.+X*X*X@X$X&X<X- ;X&X&X&X+X3X2X4X2X2X2X;X;X;X;X2X2X;X;X2X;X;X;X;X;X2X2X7XA.A.*X8 @X@X2X2X7X2X2X;X;X;X;X3XZ.C.Z.;X2X2X2X-X2X2X;XC.2X2X",
"3X2X3X&Xz.b.+XZ.OXg.2X2X;X;X@XS.1X3X5X3X2X2X;X2X;X;X;X;X;X2X;X2X2X;X;X-X-X;X2XOX+X2X5X2X&X+X$X2X2X2X2X;X-X3X2XC.+X;X2X2X2X2X2X2X2X;X;X;X7X2X"
};
