/* XPM */
static char *_5457_01d1fd2b65208c62991322009282fab387e5a5aae0c514f9c30042255b327485[] = {
/* columns rows colors chars-per-pixel */
"70 70 253 2 ",
"   c #040101",
".  c #0B0201",
"X  c #0C0A04",
"o  c #080708",
"O  c #130402",
"+  c #140A03",
"@  c #1B0B03",
"#  c #1A0906",
"$  c #130C0A",
"%  c #0C1009",
"&  c #1C1204",
"*  c #17130B",
"=  c #1D130B",
"-  c #1C1511",
";  c #1C1712",
":  c #250D03",
">  c #23140C",
",  c #26190B",
"<  c #2B1A0D",
"1  c #32190B",
"2  c #271815",
"3  c #251B14",
"4  c #2B1C14",
"5  c #331D14",
"6  c #321E1A",
"7  c #2D2215",
"8  c #2C231B",
"9  c #342414",
"0  c #392B11",
"q  c #382817",
"w  c #34241C",
"e  c #3A251B",
"r  c #3B2B1C",
"t  c #2D2923",
"y  c #342622",
"u  c #342B24",
"i  c #3B2C23",
"p  c #372B28",
"a  c #343224",
"s  c #3E3225",
"d  c #35332C",
"f  c #3B332B",
"g  c #3C3B2D",
"h  c #3E2E31",
"j  c #373732",
"k  c #3B3532",
"l  c #3E3B34",
"z  c #43271C",
"x  c #422B1D",
"c  c #43321A",
"v  c #432C23",
"b  c #4A2C23",
"n  c #442D2A",
"m  c #443224",
"M  c #4B3425",
"N  c #493925",
"B  c #43332A",
"V  c #4A342B",
"C  c #443A2C",
"Z  c #4D3A2C",
"A  c #51352B",
"S  c #563D29",
"D  c #533C2C",
"F  c #422E30",
"G  c #443D33",
"H  c #4B3C32",
"J  c #463938",
"K  c #533C32",
"L  c #553A36",
"P  c #5A3E32",
"I  c #3E4436",
"U  c #47412E",
"Y  c #54422C",
"T  c #5C422B",
"R  c #434234",
"E  c #4B4335",
"W  c #484936",
"Q  c #46433B",
"!  c #4B453B",
"~  c #4C4A3D",
"^  c #544334",
"/  c #5B4434",
"(  c #5A4936",
")  c #54443A",
"_  c #5C453A",
"`  c #534B3D",
"'  c #5C4A3C",
"]  c #57513D",
"[  c #634A2E",
"{  c #644736",
"}  c #644B3C",
"|  c #6B4C3C",
" . c #724C3C",
".. c #66533E",
"X. c #6C523D",
"o. c #72543D",
"O. c #494742",
"+. c #4D4C43",
"@. c #534C42",
"#. c #564945",
"$. c #5C4C42",
"%. c #4E5146",
"&. c #535244",
"*. c #5B5545",
"=. c #55544B",
"-. c #5A554A",
";. c #5D5B4C",
":. c #575B54",
">. c #5D5B52",
",. c #644D43",
"<. c #634944",
"1. c #6A4E43",
"2. c #6B4F4B",
"3. c #645244",
"4. c #6B5343",
"5. c #6F5B44",
"6. c #64544B",
"7. c #6C544B",
"8. c #615A4C",
"9. c #6C594B",
"0. c #745443",
"q. c #735A43",
"w. c #745B4C",
"e. c #785A49",
"r. c #625E52",
"t. c #695E53",
"y. c #785D51",
"u. c #5D6159",
"i. c #65614C",
"p. c #74634B",
"a. c #7D634D",
"s. c #646254",
"d. c #6A6455",
"f. c #6A6956",
"g. c #65655A",
"h. c #6A665B",
"j. c #67695A",
"k. c #6C6A5B",
"l. c #756354",
"z. c #7B6353",
"x. c #796758",
"c. c #726D5D",
"v. c #7B6B5B",
"b. c #6F705F",
"n. c #73725E",
"m. c #7E725E",
"M. c #6D6C61",
"N. c #696E68",
"B. c #726E61",
"V. c #6E7168",
"C. c #757363",
"Z. c #797464",
"A. c #7A7966",
"S. c #74746B",
"D. c #797769",
"F. c #7C7B6B",
"G. c #787C74",
"H. c #86664D",
"J. c #836553",
"K. c #836A54",
"L. c #8B6B54",
"P. c #8C6A57",
"I. c #83665B",
"U. c #846C5C",
"Y. c #8B6D5B",
"T. c #966D50",
"R. c #897158",
"E. c #8C735C",
"W. c #93735A",
"Q. c #896E61",
"!. c #897766",
"~. c #8C7464",
"^. c #827C6C",
"/. c #947A63",
"(. c #957968",
"). c #847E71",
"_. c #7C8175",
"`. c #84826E",
"'. c #97826B",
"]. c #848374",
"[. c #87857A",
"{. c #8C8A7B",
"}. c #998776",
"|. c #91917E",
" X c #A48A78",
".X c #AF9174",
"XX c #A9937B",
"oX c #7C8889",
"OX c #7E95A1",
"+X c #58B5F8",
"@X c #73C8F7",
"#X c #898B84",
"$X c #958D82",
"%X c #8D9289",
"&X c #969688",
"*X c #9B9B8B",
"=X c #8C9694",
"-X c #979B95",
";X c #A89887",
":X c #A49B8F",
">X c #B39A87",
",X c #9DA19A",
"<X c #A3A294",
"1X c #ACA692",
"2X c #A4A59B",
"3X c #AAA899",
"4X c #949CA1",
"5X c #9CA4A4",
"6X c #96A7AB",
"7X c #A8ABA6",
"8X c #AEAFA6",
"9X c #A5ACAB",
"0X c #AAB1AD",
"qX c #B5B4A6",
"wX c #B6B5A8",
"eX c #BBBAAB",
"rX c #ACB6B6",
"tX c #B9BCB4",
"yX c #C1BCAB",
"uX c #BDC0B2",
"iX c #C4C3B4",
"pX c #C9C8B6",
"aX c #CAC9BA",
"sX c #B5BFC2",
"dX c #B9C4C7",
"fX c #BACED6",
"gX c #8DD5FC",
"hX c #99DAFC",
"jX c #AFD9F0",
"kX c #A8E2FE",
"lX c #B3E5FF",
"zX c #BBE6FE",
"xX c #B7E9FF",
"cX c #BDE9FE",
"vX c #D1D2C7",
"bX c #C2CED4",
"nX c #C4D3D8",
"mX c #C7DCE6",
"MX c #CBE1EB",
"NX c #D7E5EA",
"BX c #CEE7F6",
"VX c #C4EAFF",
"CX c #CCECFF",
"ZX c #D4EEFE",
"AX c #D9EDF9",
"SX c #C9F0FF",
"DX c #D5F0FF",
"FX c #DBF1FF",
"GX c #E1ECEF",
"HX c #E3F4FF",
"JX c #E9F6FF",
"KX c #EDF8FF",
"LX c #F1F8FE",
/* pixels */
"JXJXJXLXLXLXLXKXJXJXHXHXHXHXHXFXFXDXFXHXJXFXDXZXCXAXFXFXHXHXHXZXAXDXZXZXDXZXHXJXHXHXDXcXSXDXDXDXDXFXFXDXFXFXDXFXFXFXFXFXDXFXDXFXcXhXCXFXJXKX",
"JXHXHXHXJXHXJXHXJXHXHXJXHXHXJXHXHXHXJXHXFXFXFXzXCXDXFXJXHXHX9X-X#X=X%X#X-X7XdXZXSXxXkXkXSXxXVXDXDXCXCXzXVXDXDXFXFXFXDXFXDXDXZXSXcXJXKXJXKXFX",
"zXHXZXZXHXHXHXFXHXHXAXHXHXFXHXJXJXKXKXKXJXFXFXDXZXFXAX-X=X7XqXaXvXaXiX1X3XeXqX9X,XuXuXDXSXSXSXSXCXVXVXVXkXVXDXJXFXHXDXFXFXCXDXDXHXHXJXHXFXHX",
"hXHXCXkXVXHXZXkXHXHXHXHXAXZXZXHXKXKXFXFXFXFXDXbX4XsX-XN.2X8X<X*X1XwX<X[.[.^.{.8XuXuX%X_.4XnXZXZXCXCXZXCXVXVXVXDXDXFXFXFXAXVXCXHXHXFXFXHXHXkX",
"AXFXZXzXlXCXVXhXBXgXZXCXAXZXCXFXJXFXFXFXAXMXdX{.O.:._.<X*X,XC.C.F.A.f.k.C.i.k.&X<X|.3XW b.dXAXMXfXDXDXDXCXDXSXcXCXFXDXFXJXFXFXFXFXFXHXHXDXkX",
"ZXZXCXZXVXzXcXcXCXhXhXzXVXCXCXZXSXAXDXnXbX%X&XiX$X! A.&Xh.D._.A.A.A.A.n.f.f.f.;.f.i._._.uXvXuX0X5XZXMXDXDXFXBXxXCXCXZXDXFXFXFXHXHXFXFXHXCXZX",
"CXCXVXVXzXcXVXzXzXzXVXcXVXVXVXZXSXMXfX_._.XXqXaX3Xu.g _.].F.F.C.f.`.Z.k.n.b.f.f._.i.U |.pX*XA.&XeX0X=XmXCXDXVXlXDXCXDXDXDXFXFXFXHXHXJXzXVXCX",
"CXkXCXCXVXVXlXzX@XCXcXkXVXVXCXZXdXV._.|.uXuX|.n.&X].*.C.D.S.F.D.f.A.A.n.f.f.n.i.i.W ] 1X|._.b.b.j.F.8X=XMXAXZXlXDXDXDXDXFXFXFXHXHXJXSXcXCXCX",
"BXZXCXZXCXVXlXlXxXzXlXVXCXZXZXsX:.G.vXyX].^.n.`.n.&X*Xf h.d.F.Z.^.Z.Z.k.s.h.s.i.&.a <XwX[.b.A.F.A.F.C.2XG.nXkXDXCXCXCXZXDXDXZXDXFXHXHXZXZXCX",
"HXCXCXCXVXzXzXlXkXzXlXcXCX9XG.M.-.>.yX).A.Z.n.f.n.1X&Xs f r.c.i.f.d.B.h.r.r.8.;.g a *X{.h.k.C.F.n.F.f.W u.=XMXFXZXZXZXCXZXZXDXDXCXlXzXCXCXCX",
"AXVXZXVXVXzXzXlXhXlXlXVX9XD.wXaX[.E F.F.{.c.f.A.A.k.$X&Xf -.d.G C f h B k G -.r.f ! qX{.B.C.M.F.F.A.A.g =.wX9XbXFXZXDXZXZXDXDXZXZXZXDXCXVXZX",
"VXVXCXCXVXcXlXlXlXzXcX,XM.<XvXwXF.r.~ A.^.F.n.n.C.s.[.<Xp B G i f p w f u u B g s -.3X&X).C.h.B.C.d.W j.3X<XwX8XdXFXAXDXZXZXDXZXZXZXCXZXCXVX",
"CXVXCXCXVXVXlXzXlXhX-Xg.:X<X|.F.B.h.f k.F.c.h.h.s.-.G O.i s f u y i p f f p d p u G ;.S.C.M.B.M.n.f.a 1X*XA.{.<X,XsXFXDXZXCXCXZXZXZXCXZXCXVX",
"ZXVXVXVXCXVXVXcXxX6X>.*X2XA.c.`.c.B.;.E C.h.M.=.O.d 8 y 6 3 i w w t w 4 2 w p 6 8 8 ; G O.r.B.k.k.W *X*Xn.n.A.].<X7XrXFXZXCXZXCXcXDXDXZXSXZX",
"ZXCXVXCXCXVXVXCX9X=.&X*X`._.n.c.C.M.B.g >.*.=.d - - O . = J n 4 # + # + 2 B f 3 + $ . = y #.@.@.k.k.aX^.n.n._.A.F.*X7XdXZXDXFXlXZXDXDXFXDXFX",
"ZXZXCXVXVXVXCXCXu._.aX`.f.n.m.n.C.M.k.;.! E f t $     . O $.V 6 O   .   2 ) J > .     . w ! y f -.].*XF.n.n.A.C.b.G.2X=XmXFXkXDXFXZXDXFXFXZX",
"ZXAXCXCXVXCXCXdX%.<X<X_.b.j.C.S.N.S.:.-.i / L e $       # ) K w .       3 _ V 2 .     O w _ B > t &.M.M.h.k.B.c.B.s.[.tXG.hX+XZXDXDXFXFXZXFX",
"DXAXZXZXZXCXfX:.I ~ ] j.j.C.B.M.g.g.&.w . / A e +       . t.V 4 +   .   2 3.m <         s ,.e >   a &.j.M.c.k.C.g.g.b.-X:.BXhXZXZXZXZXAXFXZX",
"FXZXZXZXZXbX#XeX~ I ~ i.s.s.j.k.h.@.i + : ( $.q & + & * 3 $.^ r @ + + & r $.Z 7 # + # = C $.m 3 + + s ;.d.r.d.k.=.=.*.&.%.oXkXZXZXZXZXZXZXDX",
"HXAXZXZXZXbXS.pX3Xn.R U *.;.;.f.8.C ^ 3.x.7.E m Z Y ] f.v.l.Z 9 c ' 9.x.v.8.B w Z ( l.x.x.-.v i H #.6.! t.l.t.*.] ~ ,XuXtXG.jXZXAXZXZXFXFXHX",
"HXHXZXZXZXfXB.tX[.uXC.A.] C 8.E C ^ 4.1.7.^.#.,.5.5.5.p.l.^.) 3.p.X.X.p.Q.D.) 1.q.q.o.5.Q.l.) 6.6.$.6.) H $.6.*.n.aXqX_.G.eXoXCXZXFXFXFXHXJX",
"JXHXZXZXbX%X3XD.k.].eXvX`.U C C C Z D L E #.y Z / { / ( ` ~ r K Y } [ T ) J p #.T T } ( #.J p ) ) ) Z K V m m Z.eX|.{.b.D.iXV.MXDXDXZXFXJXJX",
"HXHXZXZXsX[.qXB.C.k.`.{.wXc.a s 4 w e y y y F F v z z r f i n i e V r B h h F y n z v r p F F i p e y w w n B 8.|.n.b.`.n.wX].MXDXAXZXHXJXJX",
"JXHXAXAXNX<X{.h.C.k.B.^.$X$.m w > $ O # # #.#.B > # @ # > $._ n > O # @ 2 2.<.i O : # # F 2.J 6 # O @ # B H B ` m.A.C.A.A.|.3X7XBXFXFXHXJXHX",
"HXHXHXmXvXwX].n.n.n.^.^.*.) B w -   . . O 6.7.V > . O . : B.<.i O . . . 6 x.#.6 O . . . Z y.D 4 . . . . E #.u f 8.k.].C.h.D.aX#XbXAXAXHXHXHX",
"AXHXHX0X<XeX_._.n.A.B.F.! ^ ^ s -       . w.3.n # o . . : I.1.v O     . w U.D r . .   . K z.S 5 .     . $.@.w 8 G F.C.k.f.s.:X:XrXAXFXFXFXFX",
"FXHXAX5X_.*Xn.n.s.;.h.B.H #.) r ,       O 5.o.M = . . . : J.| m O       e x.{ r       . K K.S 1 . . . . #.` f 8 G h.k.;.r.f.k.eX%XdXFXFXHXFX",
"HXHXZXrX;.i.f.i.r.>.S.-.H ` ` i * * * , 0 o.q.N < # 6 5 M J.X.x > ; 3 7 ^ a.| q ; * 7 7 { z./ 5 @ , 3 7 $.$.i w ~ r.r.=.-.;.6.&XG.rXFXFXHXFX",
"FXFXFXmX{.H U g &.@.#.J h.r.) v Z ' l.m.'.'.q.S _ x.(.$X X(.q.Y ] x.}. XXX/.| Y 5.x.{.}.XXR.{ S ..c.!.!.^.6.f J g g &.] @.;.*.D.M.9XAXAXFXHX",
"AXFXbX-X:XiX{.g g p O.k L B.6.^ 7.5.p.z.E.XXw.z.(.Q.Q.~.;X>XX.z./.E.E.W.XX X| R.~./.R./.;XE.X.U.U.x.x.!.'.9._ 6.` 8 g g D.vXaXvX2X:.sXZXFXHX",
"HXFXNX&Xc.^.|.iX7Xr.p p h J y v / { { { ' 9.H ^ e.0.H.0.<.w.v 4.X.o.H. .0.1.M 9.X.0.0.0.t.^ K 9.X.} ../ _ z B $.C u ` wXqX*X{.`.F.N.rXFXFXJX",
"HXFXNX*Xm.`.`.{.[.8Xj t 8 2 n v e z z z s m ) K V b b b A b $.V A M b b V A <.n A b M n Z L P v m M r z v M v r 8 7 ~ qX].A.c.`.S.M.rXJXHXHX",
"FXFXNX&Xk.C.n.F.M.M.d $ . i ) n 2 o X + # 1.w.Z 2 # O : 1 J.2.V : $ . # i Q.<.n # + # O K Q.{ 6 O $ + . ) 6.i 2 . * O.7XS.B.k.!.S.g.9XHXHXJX",
"FXZXjX*Xg.A.`.n.r.g.h O O N $.i ;     . . z.y.Z 2     . : (.e.A $       e (.} e .     . P I.P 5 O     . $.6.B =   $ O.wXS.S.^.B.S.M.0XJXHXJX",
"HXHXAX,XC.C._.A.c.C.k . . m $.f -   . . O e.H.S $ $   . : I.q.m +     . 0 W.0.v X       Y E.{ e     . . 1.3.B > . X ~ eXg.g.^.Z.C.r.0XFXHXHX",
"FXKXGX,XM.h.f.b.k.M.k + . m ) B -     . O a.o.N +     . : W.X.M O   . . 0 W.{ e         Y E._ < O . . O { 1.V @   X ] wXS.r.h.B.h.;.9XHXFXHX",
"HXKXAX%X-.s.i.;.M.r.f 2 7 ^ ) B 4 2 4 9 V J.0.T q < q a Y E.X.M 5 5 0 c [ T.X.M 3 w r 0 5.x./ v , 1 9 x w.1.b < , , ~ eXF.s.b.M.u.&.9XFXHXFX",
"HXJXNX|.+.s.k.*.8.+.J =.8.x._ v m } x.!.}. X0./ ..v.'.XX>X Xp.T 5.(./.XX.X'.X.S l.!.}.XXXX~./ ^ p.R.(.'.}.,.m Z ] ( W wXC.s.F.u.=.+.9XFXHXHX",
"HXFXnX_.&.;.j.&.;.J d O.` 9.$._ w.w.y.y.Q.(.y.z.'.L.E.E.(. Xe.Y.Y.E.W.(.(.}.w.~.(.E.Y./.XX'.y.Q.U.U.a.Y.).6.,.l.X.3.E |.i.;.u.I +.Q 6XFXFXHX",
"FXDX=XW W W W g R j p h s B r e L L { { _ 7.v D X.o.o.o.0.2.z 1.1.e.0.2.w.<.v 0.| 0.0.| q.Y b 2.,.} { D $.y m A Z C f R U R g I R l 5XZXHXHX",
"FXFXNXuXuXiXeXuX8Xs.k 3 7 4 v v 5 y y i v v { L n n v b z A 2.A b n n b v A <.b b V v z A P { v i n z e e K v e w 8 O.wXyXpXwXwXyX$X9XkXFXAX",
"HXHXNX3X[.{.|.|.F.r.J O . r ) B > O   . O 7.| L 2 o O O 1 P.2.b @ . + O v Y.1.z O $ O O S L.<.5 O   O O _ } B > . * %.eX-X[.).`.#XB.rXCXZXFX",
"FXFXNX,Xk.s.n.C.h.r.k . . B ' v >       O H.e.S ; o   . : (.0.F $       e /. .v o o   . T W._ y .     . | 0.b >     %.8XN.j.U.!.Z.M.0XHXAXCX",
"FXFXGX*XM.n.n.n.k.g.h o . N ` n =       O o.o.M %       : L.y.n O o     0 T.| v o       T E.P 6       .  . .v =   X %.uXN.V.U.U.F.M.0XHXFXlX",
"FXDXNX#Xh.D.k.j.;.g.k . . m ) v ,       O a.o.Y *     . : /.7.V O   X   0 W.o.z o o   . T L.3.6 .     . | 0.A @   % ~ iXG.V.n.Z.B.g.0XHXFXJX",
"FXHXGX%Xs.h.i.i.k.h.G 8 w / ` i < 3 w J D U.X.M 9 r s U | ~.3.m e e C Y 5.E.{ e y p N Y a.a._ e w r m Z 0.| M < 7 8 W iX_.j.c.C.h.>.9XJXFXJX",
"HXJXGX*X;.u.;.j.^.B.J +.6.l.$.N T X.y.~.}.(.l.} e.T./..X>X X9.| a.T.'.XX>X'.6.,.y.W. X.X>X~.$.$.p.K./.'.).t.C Y 3.( ] yX`.i.s.:.g.;.9XJXJXHX",
"FXJXGX[.W ;.k.i.N.M.d J ) t._ D X.o.0.w.B.|.6.l.T.T.T.T.W.XX<.Q.T.L.W.L.}.$X$.~.P.T.T.T..X!.9.U.Q.a.H.H.^.*.( 5...' W 3Xl.*.j.:.>.>.0XJXJXFX",
"HXKXvX_.W ] &.u.j.R j p f f 5 e D A A / ) ) i / |  . .|  .P b { |  .1.} 6.L B | |  . .| ' Z M ' ' / { { J n n D M m E ].6.] =.%.+.+.9XJXJXFX",
"VXFX,XO.U s U W R d j 3 - w i n 4 6 p y w B _ A e z z z z P | b 6 b v n n ) / b z e v e M _ / v w e i 5 n V n e w w p Q E C E g G J 7XKXFXzX",
"VXCXmXdXqXiXiXuX*Xg.k . . f H i 3   . . . w.4.D >   . . : Q.2.V : . . . 5 Q.{ z # . . . ^ I.P 6 .   . . ) 1.V = . + @.tXuXeXeXeXyX#X9XFXCXCX",
"HXFXBX2X_.].{.].G.@.f . . n ) B *       # 0.0.M $   o   , Q.7.B . o     v Q.{ z o     . P I.<.6       . ,.6.F #   % O.wXG.].!.`.).h.9XFXAXKX",
"JXHXNX-Xb._.n.A.B.&.a X . B ) w *       O | 0.D *       & U.7.V . X     0 P. .z o       S J.} 6         $.,.B =   % %.qXS.j.i.n.S.r.9XFXFXJX",
"JXHXMX,Xn.f.n.n.C.g.d .   i ( m =     . O J.o.S ;     X @ ~.1.V @       z W. .z         } R.P 6 o     O ' 4.B @     ~ uX_.b.A.A.F.M.9XFXHXHX",
"HXHXMX-Xn.n.m.f.h.g.k y f ) ^ w 3 7 B J { y.w.x w s U ( q.J.w.x 9 N Y ..e.J.X.x r 0 W ] a.v./ w e c D / 7.' r 9 9 a ~ uXb.F.].C.M.-.9XAXFXHX",
"JXHXjX%Xn._.i.f.h.s.f ! r.7.` C Z ,.y.Q.(.(.9.} q.R./.'.XXXXq.| e.W.(.}.>X'.4.X.p.`.'. XXX!.3...z.K.W.(.(.9.D / ' ( W qXZ.k.k.S.h.:.5XAXHXJX",
"HXHXjXoXk.n.;.k.B.M.j k H 6.H H { 7.1.3.l.(.} 5.Y.K.J.H.Y. X{ a.L.L.J.I.(.(.{ U.J.I.Y.y.}.!.} x.K.q.o.e.Q.3.K 5.( ( ! qXm.s.j.>.s.=.5XAXHXJX",
"HXHXMXoX&.j.k.;.M.%.d p y p 6 e V V V H Z H z D / _ { { { T m ' T { } _ / K c { } P } { / M N ( Y T { A Z x z V Y s ~ 8XZ.8.M.;.-.:.0XHXHXHX",
"JXJXfXG.W &.&.&.=.k p - > y i e 4 2 2 8 9 Z S D w p y 5 z S / v q q p y s ( Y 0 6 e y i V / P e w t 8 2 x A n 4 3 ; ! $Xg.~ s.*.G ! 5XHXJXJX",
"JXHX4X%.~ R C U O.d d . . y H n = . o   O { q.M - o . O 1 y.9.f + .     w l.p.0 O $ O . L z.} 5 .     + ^ ,.n >   - d O.l l ( m E G 5XHXHXHX",
"HXJXfX9XqX3XeXqX:Xh.g .   B H i ;   o X + 4.4.m 2   o $ : Y.7.B & X   X w v...r + o $ O { I.D w o o % $ ,.$.i = o $ O.2X0X<X1XqX1XS.5XHXHXHX",
"LXBXfX=Xf.f.n._.S.r.l $ . h H i 3   o X # 7.X.N 3 . - O < Q.,.v = % X X r U.{ r = X $ O L I.P 4 X % %   $.*.i 2 o - +.8XS.M.l.t.D.:.5XHXJXFX",
"ZXVXmX_.;.;.;.s.g.>.d + . f H r = + O O : 3.} C < + & + 9 I.2.B > * & + V I.{ v & & & & D z._ r + & # & #.$.r , O * ! 8Xr.&.-.:.r.@.5XHXFXJX",
"cXZXmXG.] ~ ;.8.=.=.G f f ) H r 7 r H #.6.x...m m Y } l.z.U.1.b M Y 6.w.I.I._ v N ] ..q.!.z.D r N ( } 4.t.$.r q s m ! <X8.8.:.:.=.Q 5XFXZXlX",
"HXHXfXN.+.+.O.#.&.%.G E @.t.` m D } 9.x.!.}.3.X.w.I.Q./.}.;X9.4.z.L.~./. X}.6.6.a.L.W.(.;X).} 5.w.K.z.Y.}.9.Z ) $.` E ;Xr.r.>.:.#.l 4XZXlXgX",
"HXJXdXM.Q +.! ! ~ Q d k G #.H m / ( _ 6.9.v.( { I.y.a.v.a.'._ 7.y.w.H.e.E.!.L x.q.H.z.z.!.l./ a.q.q.5.w.x./ A ' _ E ) :X-.@.=.=.%.j =XgXhXHX",
"HXJXfXu.G O.R l O.Q d t 4 u w q r m i f i H N A P P L Y U Y Z K / Y S / S Z B ^ T S P D ^ K M D Y N N m Z v i B B p ! :X+.l O.Q O.j OX+XAXHX",
"JXJXbXr.d G d l l l t 3 = w y w < w w y w m D M z n n r c Z _ b r m m M m Y #.v c r m v m ' K r r r r r m B r 9 7 8 H {.! d j j j j 4XlXFXHX",
"JXHXdX%.d d d g d l u 8 3 s J r 7 a p d G 6.1.B V H G U ^ m...M V U H Z $.Q.<.i C ^ E B 9.x.L n C C C C #.*.v w u f Q N.Q j j j j d -XFXFXFX",
"KXJX=Xd t d d g d k d 8 8 J Z w 7 g g l H 9.3.m H ) ~ ~ ] v.1.n ! ~ O.#.1.z.$.i W ] @.! l.l.Z i E W E H 6.@.u p d d t I j t d d j t 4XHXLXHX"
};
