/* XPM */
static char *_8259_3c8c6e9d73a07cdf2182e641e56eb55909027dae80dd1ea43b53968d32cda61f[] = {
/* columns rows colors chars-per-pixel */
"70 70 253 2 ",
"   c #040201",
".  c #0B0201",
"X  c #080707",
"o  c #0C0A05",
"O  c #0D0C0A",
"+  c #130401",
"@  c #130A04",
"#  c #1A0C02",
"$  c #1A0A06",
"%  c #120D0A",
"&  c #1B1204",
"*  c #14120D",
"=  c #1A150A",
"-  c #1C140C",
";  c #101010",
":  c #151412",
">  c #1B1612",
",  c #1C1A15",
"<  c #15181A",
"1  c #1D1B19",
"2  c #2A1307",
"3  c #24170C",
"4  c #2C1B0D",
"5  c #231B14",
"6  c #261814",
"7  c #2B1C14",
"8  c #231E1B",
"9  c #331E18",
"0  c #1E201B",
"q  c #2B2317",
"w  c #25211D",
"e  c #2B231C",
"r  c #372914",
"t  c #362718",
"y  c #34241C",
"u  c #3A251B",
"i  c #3C2B1C",
"p  c #0D0F21",
"a  c #171922",
"s  c #281F21",
"d  c #1E242A",
"f  c #1D2835",
"g  c #262421",
"h  c #2A2522",
"j  c #2D2A25",
"k  c #25242A",
"l  c #2D2C29",
"z  c #372724",
"x  c #332C24",
"c  c #3B2C23",
"v  c #332D2B",
"b  c #323125",
"n  c #3E3125",
"m  c #34322C",
"M  c #3B342B",
"N  c #3C3B2D",
"B  c #2F2D32",
"V  c #363432",
"C  c #3B3533",
"Z  c #3D3A34",
"A  c #3B3A3A",
"S  c #432A1D",
"D  c #43321D",
"F  c #432D23",
"G  c #452E28",
"H  c #443224",
"J  c #4B3425",
"K  c #493925",
"L  c #43332A",
"P  c #4A352B",
"I  c #443A2C",
"U  c #4D3A2B",
"Y  c #553B29",
"T  c #523C2C",
"R  c #422E30",
"E  c #443D33",
"W  c #4B3C33",
"Q  c #463C39",
"!  c #533C32",
"~  c #593E34",
"^  c #3E4436",
"/  c #45412E",
"(  c #57412D",
")  c #434234",
"_  c #4B4335",
"`  c #45433B",
"'  c #4B453B",
"]  c #46493A",
"[  c #4C4B3D",
"{  c #544335",
"}  c #5B4334",
"|  c #5A4936",
" . c #54443A",
".. c #5B453A",
"X. c #534B3D",
"o. c #5C4A3C",
"O. c #55513E",
"+. c #644738",
"@. c #634B3B",
"#. c #69533E",
"$. c #74543E",
"%. c #353951",
"&. c #2C3863",
"*. c #474746",
"=. c #4A4541",
"-. c #4D4C43",
";. c #49494F",
":. c #534C42",
">. c #554A46",
",. c #5C4C42",
"<. c #535244",
"1. c #5B5444",
"2. c #55544B",
"3. c #5B554A",
"4. c #5B5948",
"5. c #5D5B4C",
"6. c #575853",
"7. c #5D5B53",
"8. c #674B42",
"9. c #644E43",
"0. c #645244",
"q. c #6A5344",
"w. c #63544B",
"e. c #6D5748",
"r. c #615A4C",
"t. c #6C594B",
"y. c #735A43",
"u. c #775946",
"i. c #745B4D",
"p. c #625D52",
"a. c #685D55",
"s. c #795D51",
"d. c #5D6159",
"f. c #63614E",
"g. c #7B634D",
"h. c #646254",
"j. c #6A6455",
"k. c #6A6956",
"l. c #65645A",
"z. c #6A665B",
"x. c #67695A",
"c. c #6C6A5C",
"v. c #746354",
"b. c #7B6353",
"n. c #716D5D",
"m. c #796859",
"M. c #6F705F",
"N. c #73725E",
"B. c #7C715E",
"V. c #52566C",
"C. c #6D6C61",
"Z. c #696D67",
"A. c #726E61",
"S. c #796F67",
"D. c #6E706C",
"F. c #757363",
"G. c #797464",
"H. c #777865",
"J. c #7A7966",
"K. c #74746B",
"L. c #7A766A",
"P. c #7C7B6B",
"I. c #787B75",
"U. c #815F56",
"Y. c #85664E",
"T. c #836A54",
"R. c #856858",
"E. c #846C5C",
"W. c #897259",
"Q. c #866E62",
"!. c #897666",
"~. c #827C6C",
"^. c #947A68",
"/. c #847D71",
"(. c #7C8175",
"). c #83816E",
"_. c #97836C",
"`. c #848374",
"'. c #878579",
"]. c #8C8A7B",
"[. c #988777",
"{. c #91917E",
"}. c #A48C78",
"|. c #4E5C85",
" X c #7C8889",
".X c #7E95A1",
"XX c #58B5F8",
"oX c #73C8F7",
"OX c #8A8B84",
"+X c #968D82",
"@X c #8D9289",
"#X c #969588",
"$X c #9B9B8B",
"%X c #8C9694",
"&X c #979A95",
"*X c #A59988",
"=X c #A79C90",
"-X c #9DA19A",
";X c #A2A18E",
":X c #A3A294",
">X c #A3A59B",
",X c #AAA899",
"<X c #B3B09E",
"1X c #949CA1",
"2X c #9CA4A4",
"3X c #96A7AB",
"4X c #A8ABA6",
"5X c #AEAFA6",
"6X c #A5ACAB",
"7X c #AAB1AD",
"8X c #B5B4A6",
"9X c #B6B5A8",
"0X c #BBBAAB",
"qX c #ACB6B6",
"wX c #B5B8B7",
"eX c #BBBCB2",
"rX c #C1BCAB",
"tX c #BDC0B2",
"yX c #C4C3B4",
"uX c #C9C8B6",
"iX c #C9C8BA",
"pX c #B5BFC2",
"aX c #B9C4C7",
"sX c #BACED6",
"dX c #8DD4FC",
"fX c #99DAFC",
"gX c #AFD9F0",
"hX c #A8E2FE",
"jX c #B3E5FF",
"kX c #BBE6FE",
"lX c #B7E9FF",
"zX c #BDE9FE",
"xX c #CFD0CC",
"cX c #D7D5C6",
"vX c #C2CED4",
"bX c #C4D3D8",
"nX c #E0DCD9",
"mX c #C7DCE6",
"MX c #CBE1EB",
"NX c #D7E5EA",
"BX c #CEE7F6",
"VX c #C4EAFF",
"CX c #CCECFF",
"ZX c #D4EEFE",
"AX c #D9EDF9",
"SX c #C9F0FF",
"DX c #D5F0FF",
"FX c #DBF1FF",
"GX c #E2E9EB",
"HX c #E3F4FF",
"JX c #E9F6FF",
"KX c #EDF8FF",
"LX c #F1F8FE",
/* pixels */
"JXHXJXLXLXLXLXJXJXJXHXHXHXHXHXFXFXFXFXHXHXFXFXCXCXFXDXFXHXHXFXDXDXDXDXDXDXDXHXJXJXHXSXzXSXSXZXZXFXFXFXDXFXFXDXFXFXFXFXFXDXFXFXFXVXfXSXFXJXKX",
"JXJXHXHXJXJXJXHXJXHXHXJXJXHXHXHXHXHXKXHXFXFXFXkXCXDXFXJXJXHX4X&X@X#X@X].&X4XvXCXSXlXjXhXVXzXVXDXFXCXCXkXVXDXDXFXFXFXDXFXDXDXSXSXzXJXJXKXKXFX",
"kXHXZXZXHXHXHXJXHXHXAXHXHXFXHXJXJXJXKXKXJXFXFXDXZXFXAX&X%X4X7XiXxXiXyX,X,XeX<X6X3XtXtXAXDXDXSXSXCXkXVXVXhXVXDXJXFXJXDXDXFXDXAXDXHXHXHXHXFXHX",
"fXHXCXhXVXHXCXfXHXHXHXHXFXZXZXHXKXKXFXFXFXFXDXvX1XwX&XD.>X5X:X$X:X8X:X`.`./.'.<XtXtX{.(.%XmXCXSXCXCXZXZXVXVXVXDXDXFXFXFXAXVXCXHXFXFXHXHXJXhX",
"AXFXZXkXjXCXVXfXBXdXZXCXFXZXCXFXHXFXFXFXAXMXaX`.-.6.(.>X&X-XF.F.J.J.c.k.F.f.k.+X;X$X,X] M.aXDXMXsXDXDXDXCXDXCXzXCXFXDXFXHXFXFXFXFXFXHXHXDXhX",
"ZXZXCXCXVXkXzXVXBXfXfXkXVXCXCXCXZXDXDXbXsX@X$XyXOX[ P.@Xz.H.`.H.J.J.J.N.c.k.k.5.k.f.(.(.tXcXtX7X2XAXMXDXZXDXCXkXCXCXZXFXFXFXFXHXHXHXHXFXCXZX",
"CXCXVXCXkXzXzXzXzXkXVXzXCXVXCXCXSXMXbX(.(.}.0XuX,Xf./ P.`./.J.F.k.).J.n.N.M.k.k.(.f./ {.uX$XH.#XeX7X%XMXAXAXVXjXDXCXDXDXFXFXFXFXHXHXHXkXVXCX",
"CXhXCXCXVXVXjXkXoXCXkXhXVXVXVXFXaXM.(.{.tXtX{.N.#X`.4.F.J.K.L.J.c.J.H.N.k.k.F.f.4.O.O.;X{.(.N.N.x.H.5X%XMXDXZXhXDXDXDXDXDXDXFXHXHXHXSXVXVXCX",
"BXCXZXCXCXVXkXjXjXzXjXVXCXZXZXaX2.I.cXrX`.~.N.).n.$X#XM z.j.~.F.~.F.G.n.h.j.j.r.1.b ;X0X'.M.F.P.J.P.N.,XI.bXhXDXCXCXCXZXZXDXDXFXFXHXHXZXCXCX",
"HXCXCXCXVXkXkXjXhXjXjXkXCX6XI.z.5.7.rX/.J.J.N.k.n.,X#XM n p.n.p.j.j.n.z.p.7.5.5.N b #X].k.c.F.P.N.P.x.] d.%XMXFXZXZXZXCXZXZXDXDXZXjXjXZXCXZX",
"FXCXCXCXVXkXjXjXfXjXjXVX2XI.9XiX'.' L.P.].n.k.J.J.k.+X#Xn 5.j.E I M M L Z E 3.p.m ' 8X].C.K.A.P.P.B.J.I 4.5X6XvXFXZXZXZXZXZXZXDXCXZXZXZXVXZX",
"VXVXCXCXVXkXkXjXjXkXVX-XC.:XcX9XL.p.X.J.P.P.N.n.F.k.'.:Xc M _ x M z z M z x L M n 3.,X$X/.F.z.A.H.k.] x.,X>X8X5XaXFXFXZXZXDXZXZXZXZXCXCXCXVX",
"CXVXCXCXVXzXkXjXjXfX-Xz.;X;X+XP.A.z.N c.P.A.z.z.h.3.E =.M L M c z z v M M z I v x E 5.K.S.z.A.C.F.j.b ,X;XF.].>X-XaXDXDXZXVXCXZXDXZXCXZXZXVX",
"ZXkXVXCXCXVXzXVXlX3X7.#X,XJ.c.).n.A.5.) F.x.C.<.=.m Q ' Q C u y e z 9 7 6 z z 8 e e > E :.7.A.c.x.] $X*XM.F.J.).:X2XwXFXZXCXZXZXkXZXDXDXCXZX",
"ZXCXkXCXCXVXVXCX6X6.#X$X).P.N.N.A.C.N.N 7.1.3.M > Q l > > 0 p.9 # # # @ 6 M M 6 @ % o > x :.:.:.c.k.uX).N.N.P.J.(.$X4XaXZXDXFXjXDXFXDXFXDXZX",
"AXZXCXVXVXVXCXCXd.(.iX`.k.N.G.N.F.F.z.5.' ' M j O V : ; > : >.>.+     . 7  .W 3 1 > >   e ' z M 3.(.=XH.N.N.P.H.M.H.>X%XmXFXhXDXZXZXFXFXFXZX",
"ZXFXZXCXVXCXCXpX<.;X-XH.H.x.A.K.D.K.6.5.z } ! u * V > , w l % j V       7  .P * j g h X y  .G 3 y <.C.C.c.c.A.A.F.d.'.wX XfXXXFXZXZXFXFXZXFX",
"ZXFXZXZXCXCXsX6.^ [ O.x.x.H.F.A.l.l.<.y + } T u % C O 1 m h w , g h g > h Q , 8 s l g X Q @.c 3   b <.x.c.A.c.A.z.h.M.&X6.mXfXZXZXZXZXFXFXZX",
"FXZXZXZXZXvXOX0X-.^ [ f.h.h.x.z.z.:.c @ # | o.u & E * : g w g w > % : : * % w h j g 1 X p.9.R 7 + # b r.h.p.j.c.1.4.2.2.2. XhXZXZXZXZXZXZXFX",
"FXFXZXZXZXbXS.iX,XM.) / 4.5.3.z.5.I { 0.m.t.! n K j.0 , h g w w h k s j g w g , w h h ; L.,.G z _ :.3. .t.v.j.w.<.[ $XtXwXI.gXZXZXZXFXZXFXFX",
"HXHXZXZXZXsXS.0X].tXF.H.[ / r._ U  .q.@.e./.,.9.e.!.> w V 8 w 8 w h 8 8 5 g 8 8 1 m h O /.z.~ w.w.1.w...W o.1.1.N.iX9XJ.P.tX.XBXZXFXFXFXHXHX",
"JXFXZXZXvX@X>XK.z.`.0XcX)._ I I I U T ~ ! >.z E v.z.w w v g 5 w 8 8 g 8 g w 5 g g h g > p.7.z .. . .W ! P L P G.0X{.].N.H.tXZ.MXZXZXFXFXJXJX",
"HXHXZXZXpX'.8XA.F.c./.].9XB.i n 7 y 9 F z z R M :.< h h 8 l > g 8 8 8 , 8 8 8 s g 5 v v 6 Q R G z c u u y G L r.{.B.M.(.N.0X).MXZXZXZXJXJXJX",
"JXHXZXFXnX:X].c.F.k.F.~.+XO.n y > $ + + $ >.>.R A X m h , 8 h 8 8 w w w 5 e h 5 8 w 8 v > B W 9 $ + # + L W L ' N.J.H.H.H.{.<X>XAXFXFXHXJXHX",
"HXHXHXNXxX0X).N.B.M.P.~.1. .P i >   . . + w.w.P Q O l g 8 1 w w 8 w g 8 8 w e e 8 w w v , Z ~ 2 . . . . W ,.z M r.n.`.F.k.L.iXOXvXFXFXFXHXHX",
"FXFXFX6X-X0X(.(.N.H.F.P.'  .W n >       . v.q.G A O V g 8 s g w w 8 8 8 w w 9 8 h 8 8 C 1 M Y 9 .   .   ,.X.x e E J.F.k.z.h.=X=XqXAXFXFXFXFX",
"FXHXFX2X`.$XN.N.h.7.z.A.E  . .i 3       + y.$.J A ; l g g 5 8 g w 8 8 8 w 8 8 g > h s h 1 C ~ 4 . .   . >.,.M 9 E z.c.7.h.k.k.0X@XaXFXFXHXFX",
"HXFXZXqX4.f.k.f.p.7.S.3._ :.o.z & & = 3 r #.$.K -.m 1 g v w 8 , 8 g g w w 8 8 8 8 8 v s V w.} 4 # 3 6 q ,.,.c h [ p.p.2.3.r.3.#XI.qXFXFXHXFX",
"FXFXZXNX'.U / N <.-.>.Q C.w. .G U O.j.E._._.y.( +./.w g v 8 g 8 w g g 8 8 w g 8 8 V l X +XW.+.( #.n.!.!.!.,.L W N N <.[ :.2.1.P.C.7XFXFXFXHX",
"AXFXvX&X;XyX{.H N v =.M Q S.9.~ e.e.g.g.W.}.i.b.^.[.: j C 8 , s w 8 8 1 8 w 8 8 s l V ; *XW.#.E.E.m.m.!.[.t.,.3.X.y N / J.cXiXcX-X6.qXDXFXHX",
"HXFXNX#Xn.~.{.yX<Xp.v M v Q z F ..+.+.+.@.t.W ~ u.Q.s g v A h s a 1 > 1 1 1 8 h B V k > S.! ! i.#.@.@.} | S P o.I x X.9X0X{.'.].P.Z.wXFXFXJX",
"HXHXNX$XF.).).].'.4XV h 9 7 P F u S S S H H  .! P 8.Q 1 k D.;.: a p p a p < a B I.A > A z.~ ~ F F K i S F J c u e q [ 8X`.(.n.J.K.Z.qXJXHXHX",
"FXHXAX#Xc.F.N.J.C.C.v % . c  .G > O o @ # q.i.T 6 Q v B *.V.%.%.&.&.&.&.%.&.%.%.V.;.%.k a.Q.+.u + $ @ .  .9.M 6 . * -.>XL.F.c.G.F.l.6XJXFXJX",
"HXSXgX#Xk.F.).F.a.l.M @ . P ,.M 1     . . s.b.Y > C < V.D.a %.V.|.|.|.|.|.V.V.V.p V.D.< a.Q.+.9 .       9.w.G -   % ` wXK.K.~.G.L.l.7XJXHXJX",
"HXFXNX-XA.K.).H.c.F.R . . J ,.z >   . . + u.u.Y $ %.< B ;.d f f f f f f f f f d 0 ^ ^   A.W.8.9 .   . . 8.w.L 3 . o [ 9XC.l.~.G.F.l.7XHXFXHX",
"HXKXHX-XC.c.k.M.c.C.V @ . H o.F -     . + g.$.Y # M o l %.d 0 < < < < < : < 0 < k V l * v.W.~ 4 . . . + +.8.P # . . O.0XK.p.z.n.z.7.6XFXHXHX",
"HXKXNX@X3.h.5.5.A.p.V 8 q { { L 9 3 7 t ~ R.u.Y r 1., h l 0 m j h w * > 0 w w w w m m ; F.b...G 2 4 r S i.8.J 4 & 4 X.0XL.h.c.C.5.2.6XFXHXFX",
"HXJXNX{.[ x.M.4.5.-.Q >.r.m.o.F H +.m.!.^.+Xu.~ A.Q * : b b w j b e e 8 r b b b v g j   ' G.} ! g.W.^._.[.8.H U O.| ] 9XF.x.L.d.2.-.6XFXHXHX",
"FXFXbX(.[ 5.k.[ 3.` M Q X.t.9...s.s.s.s.!.^.s.s.r.o o - q b m m j v v z z v b m v g a X X A Q.Q.T.T.b.E./.w.9.i.y.#._ ].f.4.d.] -.` 2XFXFXHX",
"FXFX@X] [ [ ] / ) M V R c I u u ! ! +.~ ~ w.F ~ 3.    1 w b b x M v v v B v V l B j , X X m 8.8.9.9.+.( ,.z F T U I N ) / / N ^ ) E 3XZXFXHX",
"FXFXNXtXtXtX0XtX<Xh.Z s e 4 L c 9 u y z F G +.! =.X . > s v v v V B v v m m v v M h , o   m i.G z R i u i W F y e e -.9XyXuX0X8XiXOX6XhXZXFX",
"HXHXNX,X].].{.{.P.p.C + . i  .G 3 +   . + e.+.~ *.5 X 1 h v v z v v m v l m m m e h , o > 3.q.9 + . + + ..8.G 2 . * -.wX@X'.!.).'.S.7XCXZXFX",
"HXFXNX:Xz.k.F.F.z.p.C . . H ,.c >       + Y.U.J 8 %.: 1 k v V V l b m b b x x v m j , O ,.[.~ z .     + +.u.G 2   o -.5XZ.x.B.!.S.C.7XHXFXCX",
"FXFXNX-XC.c.N.N.z.j.C + . J o.G -       + $.u.J ; *.O < s h B z m b b m b m m x j w , o w.W.~ s     . + +.$.F $   o <.tXZ.D.!.E.~.A.7XHXFXjX",
"FXDXNX].k.F.n.x.5.p.V . . n ..c =       + b.$.( * *.o , j l v v m l x x v v v v h h s O 3.W.w.9 .     . +.u.J 2   o [ yXD.D.N.B.A.j.7XFXFXHX",
"FXHXGX@Xl.x.r.h.x.C.Q h i |  .F 4 4 x L T T.$.K r r.* * 8 5 l v m j g g l v B v g 0 1 X a.g.~ y t i H U y.q.G 4 q q ) yX(.M.n.F.j.7.6XJXFXJX",
"FXJXGX$X5.5.f.h./.F.Q :.3.i.,.J ( #.s.!.[./.v.@.$.~.: 0 l g h j h h s 8 s h z j w l j   ~.!.8.9.v.W.^._./.t.I ( #.| O.yX).k.h.6.x.6.4XHXJXHX",
"HXJXAX'.[ h.k.f.A.C.l Q  .a...T $.$.u.i.m.+X0.v.W.!.* w V 8 8 8 g s s s 8 8 s 8 w m m o S.Q.t.Q.T.u.Y.Y.~.3.| y.#.O._ ,Xk.O.M.6.7.p.7XJXJXFX",
"HXKXnXI.] O.4.f.x.` C v M M 9 u T Y P ~ >. .z } +.m.% h A s s s 0 g l l l w 1 g g C B X 3.U P o.@.} +.+.! R G Y P F _ '.0.O.2.-.-.<.6XJXJXFX",
"VXFX-X] N K / ) ) m C 5 - y c G 7 9 z z 9 F +.P S w.* A a.B 8 > 0 w b b w : , 0 V >.*.; >...} F u y S 9 G R G u t y M ` _ I ` N ) Q 6XKXFXkX",
"VXCXmXaX<XyXyXtX$Xl.C . . c W F 5   . . . s.#.Y 6 A : a.&Xd.v     * b m , O   > 6.OX'.O ,.R.~ 9 .   . . ~ w.P - . @ <.9XeX0XrXrXrX'.6XFXCXBX",
"HXFXBX-X(.].`.`.I.<.M . . M  .L *       # u.u.G % C ; OXrX&X=..   , l l ,     m OXwX4X; o.R.9.9     X   9.w.L $   O *.8XP.).~.).`.z.6XFXFXKX",
"HXHXNX&XN.(.N.J.c.<.m . . P { y =       + $.u.T : l o %XnXrX6.. o * 0 j 5 X   A wXnX9X% ..Y.9.9         ,.8.L -   O -.8XK.x.j.N.L.p.6XFXFXJX",
"JXHXMX-XN.k.N.N.F.x.M . . c  .n >     . + s.$.Y 5 < 1 @XnXnXC.X   : 0 w > 2 o Q xXGX5X; #.W.~ 7 .     + | q.H #   o ] tX(.M.J.G.L.z.6XFXHXHX",
"HXHXMX-XN.N.B.k.z.x.C x M  .{ u 4 q R W +.i.i.D r i 5.6.6.7.a.,.{ _ , 0 Y.U.+.S 6.2.>.0.T.m...t t D T +.t.,.S 9 r b X.tXM.P.`.F.C.6.2XFXHXHX",
"HXHXgX@XN.(.f.k.C.p.M ' p.r.o.I W 9.i.Q.^.^.e.@.e.W.^.z.C B s.8.g.W.0 * *X^.q.#.v.!._.[.}.!.1.#.b.T.W.^.^.t.T { | | _ 8XG.k.x.I.l.3.6XFXHXHX",
"JXHXgX Xc.n.h.z.C.l.M Z Q w.! W +.q.q.q.b.^.@.y.E.R.Y.Y.W.}.+.b.T.Y.W X ^.^.@.T.R.R.R.b.[.!.@.b.Y.u.u.u.Q.8.T e.o.| _ 8XG.h.x.7.h.<.2XFXHXHX",
"HXJXmXOX<.x.j.5.C.2.m z z x 9 u P P P Q U W S ( } ..+.+.+.( H +.+.+.@...~ ! D +.+.~ @.+.} K K } ( ( +.J T S S P ( n X.8XF.t.C.5.3.7.7XHXHXHX",
"JXHXgXI.[ O.<.<.3.C v > 3 z c y 9 6 8 e q U ( J y z u 9 S Y ~ F r t c z n | ( r z 9 z z P ~ } u e j w 7 H T G 7 > > [ OXz.[ p.1.E ' 2XHXJXHX",
"JXJX%X;.[ ) ) ^ ` V v @   z W G $ . .   + +.y.J > % . + 2 U.t.L @     . t m.y.r + + + + ! U.@.9 .     @ ! @.G 3   > m [ A Z | H ) Z 4XHXJXHX",
"HXJXsXqX8X,X0X<X:Xz.M . . L ! x >   X X + q.#.H > X X + 2 E.8.L & o   o y B.@.i @ O X + +.R.! 9   X O X 0.,.c >   : =.,X7X>X,X<X,XK.2XHXJXHX",
"LXBXsX%Xk.k.H.P.K.7.Z *   R W c 3   O o # i.#.U 5 o > + 2 Q.8.L = * o o i W.} i = o % + ~ R.~ y * * O   ,.,.c 6 . : -.4XK.z.v.v.F.5.2XHXHXHX",
"DXVXsX X5.f.4.h.h.7.m + . L ! i 3 @ . + $ q.0.I 3 & & + t R.e.G 3 # @ # F S.@.F & & & & T v.| u # & & & ,.,.i 3 + = ' 5Xh.<.4.6.d.:.2XHXFXKX",
"kXFXbXI.O.X.4.5.2.3.E M M  ._ t q i W ,.w.m.@.D H ( @.b.b.E.8.F P { q.i.R.R.+.F I | #.y.!.b.U i K | @.q.a.1.i t i I ' :X5.5.7.6.2.[ 2XFXDXhX",
"JXHXsXD.-.[ [ <.<.<.Z _ :.a. .P T @.t.m.Q.[.0.#.s.R.Q.^.[.}.v.q.b.R.W.^.}.}.w.w.Y.Y.W.^.*X^.@.q.i.b.b.B.[.e.T { ,.X.W $Xr.a.p.7.-.A 2XZXhXdX",
"JXJXsXd.` -.' _ ' ` m C E :.W F | } o.1.t.m.| @.U.s.b.m.g._...e.v.u.Y.u.W.!. .b.u.Y.s.R.!.m.| g.g.y.y.i.b.| ! o.o.!  .=X3.<.2.2.*.A %XdXfXJX",
"HXJXsX7.Z [ Q Z [ ` m j 7 y y r S F G M c _ J Y ~ ~ ~ ( U ( U } | Y Y ( T U P  .( Y } T ! W P T ( D K U U c i L H x ' *X-.Z ' *.` C .XXXFXHX",
"HXJXvXl.M Z N Z E Z j 5 5 y x t 4 t e z y P P J S G F i H U } F S H H P H {  .c D i H F P | ! i i i i r H P c 7 y e Q OX` m V V A m 2XjXFXFX",
"HXJXaX2.v m m N N C x q 6 L I z q b x M E w.8.J U W _ / _ B.#.F P E _ W ,.Q.,.F K { _ I t.m.~ F I _ I I o.,.L y b M ` C.] V Z m V l &XFXFXHX",
"LXHX%Xm b m m M m C m e e E W t q M N Z W t.w.H W  .'  .O.B.q.F _ X. .>.0.s.8.z [ O.[  .v.v.P c _ _ W _ w.:.z x b m b ^ V l m l B l 1XJXLXHX"
};
