/* XPM */
static char *_672_944b22c664bb481a6287763557cad4f6ce8303fbdc9a10308e34218269972284[] = {
/* columns rows colors chars-per-pixel */
"70 70 256 2 ",
"   c #040201",
".  c #070704",
"X  c #0B0201",
"o  c #0C0A05",
"O  c #0D0C0A",
"+  c #130301",
"@  c #130A04",
"#  c #1A0C02",
"$  c #1A0A06",
"%  c #120D0B",
"&  c #1B1306",
"*  c #14110D",
"=  c #1C130C",
"-  c #050B14",
";  c #151413",
":  c #1B1512",
">  c #1B1915",
",  c #1A141A",
"<  c #1D1C1A",
"1  c #2A1307",
"2  c #27180C",
"3  c #231B15",
"4  c #261915",
"5  c #2B1C13",
"6  c #221E1B",
"7  c #331E17",
"8  c #32220B",
"9  c #2D2215",
"0  c #23221E",
"q  c #2C231B",
"w  c #372717",
"e  c #34241C",
"r  c #3A251B",
"t  c #3B2B1C",
"y  c #0C1327",
"u  c #271E29",
"i  c #1C212A",
"p  c #262422",
"a  c #2A2521",
"s  c #2D2A25",
"d  c #2D2A2A",
"f  c #342622",
"g  c #342B24",
"h  c #3B2C23",
"j  c #3A2A27",
"k  c #322D2A",
"l  c #3A3125",
"z  c #35322D",
"x  c #3B342B",
"c  c #3C3A2D",
"v  c #2D2F38",
"b  c #3B3532",
"n  c #383734",
"m  c #3D3B34",
"M  c #432B1E",
"N  c #43321D",
"B  c #432D24",
"V  c #442C28",
"C  c #443224",
"Z  c #4B3425",
"A  c #473825",
"S  c #43332A",
"D  c #4A352B",
"F  c #443A2C",
"G  c #4C3A2B",
"H  c #553B2B",
"J  c #533C2D",
"K  c #422E30",
"L  c #443C33",
"P  c #4B3C33",
"I  c #493A37",
"U  c #433D3A",
"Y  c #533D33",
"T  c #593E33",
"R  c #3E4436",
"E  c #45412E",
"W  c #56412D",
"Q  c #434234",
"!  c #4B4335",
"~  c #45423C",
"^  c #4B443C",
"/  c #46493A",
"(  c #4C4A3D",
")  c #544335",
"_  c #5B4334",
"`  c #54443A",
"'  c #5B453A",
"]  c #554B3B",
"[  c #5C4A3C",
"{  c #57523E",
"}  c #644738",
"|  c #634B3B",
" . c #69533E",
".. c #74533E",
"X. c #343D4E",
"o. c #413C42",
"O. c #384355",
"+. c #364860",
"@. c #4A4642",
"#. c #4D4B43",
"$. c #484846",
"%. c #534C43",
"&. c #564844",
"*. c #5C4C42",
"=. c #534D49",
"-. c #504E4E",
";. c #535244",
":. c #5B5545",
">. c #55534B",
",. c #5B544B",
"<. c #5D5B4C",
"1. c #5A5651",
"2. c #5D5B53",
"3. c #5A5B57",
"4. c #664B43",
"5. c #644E43",
"6. c #6B4F4B",
"7. c #645245",
"8. c #6A5344",
"9. c #63544B",
"0. c #685849",
"q. c #6C594B",
"w. c #765945",
"e. c #745B4D",
"r. c #625D53",
"t. c #685C55",
"y. c #785D52",
"u. c #5D6159",
"i. c #63614E",
"p. c #7C624D",
"a. c #646254",
"s. c #6A6455",
"d. c #6A6956",
"f. c #65645B",
"g. c #6A655B",
"h. c #67695B",
"j. c #6C6B5C",
"k. c #746354",
"l. c #7B6353",
"z. c #7C6757",
"x. c #74655C",
"c. c #716D5D",
"v. c #7C6B5B",
"b. c #6F705F",
"n. c #73725E",
"m. c #7D715E",
"M. c #4C5A72",
"N. c #5A6376",
"B. c #6C6B62",
"V. c #686865",
"C. c #726E62",
"Z. c #786A66",
"A. c #6C706D",
"S. c #757363",
"D. c #7A7464",
"F. c #777865",
"G. c #7A7966",
"H. c #74746B",
"J. c #7A756A",
"K. c #7C7B6B",
"L. c #7A7A75",
"P. c #815F56",
"I. c #84654C",
"U. c #846856",
"Y. c #846C5C",
"T. c #88715B",
"R. c #94715C",
"E. c #836C66",
"W. c #887667",
"Q. c #837C6C",
"!. c #957B68",
"~. c #867C74",
"^. c #947C74",
"/. c #7C8175",
"(. c #84826E",
"). c #848374",
"_. c #84827B",
"`. c #898579",
"'. c #8C8A7B",
"]. c #968677",
"[. c #958873",
"{. c #A38879",
"}. c #7C8889",
"|. c #7E95A1",
" X c #58B5F8",
".X c #73C8F7",
"XX c #8A8984",
"oX c #948E86",
"OX c #8D9289",
"+X c #969588",
"@X c #9C9B8B",
"#X c #8C9695",
"$X c #999B96",
"%X c #AA8E83",
"&X c #A4988A",
"*X c #A39E97",
"=X c #9DA19A",
"-X c #A3A294",
";X c #A9A795",
":X c #A4A49C",
">X c #AAA79A",
",X c #949CA1",
"<X c #9CA4A4",
"1X c #96A7AB",
"2X c #A9AAA5",
"3X c #A5ACAB",
"4X c #B1ADA7",
"5X c #AAB1AD",
"6X c #B5B4A6",
"7X c #B4B3AB",
"8X c #B9B5A9",
"9X c #BBBAAB",
"0X c #A6ABB2",
"qX c #ACB6B6",
"wX c #BAB9B4",
"eX c #C0B9A9",
"rX c #C3BEB7",
"tX c #BDC0B2",
"yX c #C4C3B4",
"uX c #C9C8B6",
"iX c #C8C5BB",
"pX c #B5BFC2",
"aX c #B9C4C7",
"sX c #BACED6",
"dX c #8DD5FC",
"fX c #99DAFC",
"gX c #AFD9F0",
"hX c #A8E2FE",
"jX c #B3E5FF",
"kX c #BBE6FE",
"lX c #B7E9FF",
"zX c #BDE8FE",
"xX c #C9C7C5",
"cX c #D2CDC8",
"vX c #CCD3CD",
"bX c #D6D3C9",
"nX c #C2CED4",
"mX c #C4D3D8",
"MX c #D9D8D5",
"NX c #E3E0DE",
"BX c #C7DCE6",
"VX c #CBE1EB",
"CX c #D7E5EA",
"ZX c #CEE7F6",
"AX c #C4EAFF",
"SX c #CCECFE",
"DX c #D4EEFE",
"FX c #D9EDF9",
"GX c #C9F0FF",
"HX c #D5F0FF",
"JX c #DBF1FF",
"KX c #E3EAEB",
"LX c #E3F4FF",
"PX c #E9F6FF",
"IX c #EDF8FF",
"UX c #F1F8FE",
/* pixels */
"PXPXPXUXUXUXUXPXPXPXLXLXLXLXLXFXJXJXJXPXJXJXJXHXGXFXJXJXLXLXJXJXHXHXHXHXHXJXJXIXIXLXHXzXGXGXSXHXJXJXJXHXJXJXHXJXJXJXJXJXHXJXHXJXAXfXGXJXPXIX",
"PXLXLXLXPXLXPXPXPXLXLXPXPXLXLXPXLXLXPXLXLXJXJXlXSXHXJXPXLXLX3X$XOX+XOXXX=X<XxXSXGXlXhXhXGXzXAXHXHXSXZXkXAXHXHXJXJXJXHXJXHXHXGXDXzXPXIXPXIXJX",
"kXLXDXDXPXLXLXPXLXLXDXLXLXJXLXPXPXPXIXIXLXJXJXHXDXHXFX$X#X2X6XiXxXuXyX:X>X9X6X3X<XtXtXFXHXSXGXSXSXkXAXAXhXAXHXPXJXPXHXHXJXSXFXHXLXLXIXLXJXLX",
"fXLXSXhXAXLXSXfXLXLXLXLXJXDXDXLXIXPXJXLXJXJXHXnX<XwX#XA.:X4X-X@X;X6X;X).).(.'.2XtXtX}.'.#XVXGXHXSXSXDXDXAXAXAXHXHXJXJXJXJXAXSXLXJXLXJXLXLXhX",
"FXJXDXzXjXSXAXfXZXdXDXSXHXDXSXJXPXFXJXJXJXVXaX'.$.<./.=X@X*XS.S.G.K.b.d.F.a.d.OX;X'.;X/ b.tXHXVXsXHXFXHXGXHXSXkXDXJXJXJXLXJXJXLXLXJXLXLXJXfX",
"DXFXSXSXAXzXzXAXSXfXfXkXAXSXSXDXGXGXFXmXsXOX+XtXOX/ K.+Xh.J.).S.G.G.n.n.d.d.d.<.d.i././.tXbXtX3X1XFXVXHXHXJXSXlXSXSXSXHXJXJXJXJXJXLXJXJXSXDX",
"SXSXSXSXkXzXAXkXkXkXAXzXAXAXAXDXGXzXmX/./.{.6XuX>Xi.c K.)./.K.S.d.(.m.b.n.n.d.d./.i./ '.uX@XF.+XtX5X#XBXHXHXAXlXHXSXHXHXHXJXJXLXLXLXPXkXAXSX",
"SXfXSXSXAXzXjXkX.XSXzXhXAXAXSXDXtX/./.[.tXtX[.m.+X).<.S.J.H.K.D.b.G.G.n.d.d.n.i.<.{ { ;X'./.F.b.d.F.5X#XBXJXFXhXHXDXDXHXJXJXJXJXLXLXGXAXSXSX",
"ZXSXSXSXSXAXjXjXlXkXkXzXSXHXDXaX1.L.bXyX(.K.n.(.n.+X@Xl g.a.K.D.Q.S.D.j.a.s.s.r.;.l -X6X).b.S.K.G.G.S.>XL.mXhXHXSXSXSXDXDXHXHXHXJXLXLXDXSXSX",
"LXSXSXSXAXkXkXjXhXjXjXzXSX0XL.h.<.9.9X).G.m.n.d.n.;X+Xl x a.x.a.s.s.x.j.r.2.<.<.c g @X'.j.j.S.K.n.K.d./ u.#XVXJXDXDXDXSXDXDXHXHXDXjXjXDXSXDX",
"JXSXSXSXAXkXjXjXfXjXjXAX<XJ.7XiX`.~ K.K.'.d.d./.G.j.oX+Xl 9.a.L F ~ ^ ! F U ,.r.l ( 6X'.C.S.B.K./.n.G.c >.6X3XnXJXDXHXDXDXDXDXHXSXDXDXDXAXDX",
"AXAXSXSXAXAXkXjXjXzXAX$XB.-XbX8XJ.r.] G./.G.n.n.B.s.`.;Xg c P g x z . , U g F x x ,.;X+X).S.g.C.F.d./ d.>X-X6X5XaXJXJXDXDXHXDXDXDXDXSXDXSXAX",
"SXkXSXSXSXzXkXkXjXdX#Xh.-X-X'.(.C.g.c j.K.c.j.h.s.,.L #.k S x h f p - ; =.g F g g L <.J.C.B.C.j.n.d.g ;X@XF.'.>X$XaXJXHXDXSXSXDXDXDXSXDXSXSX",
"DXAXAXSXAXAXzXzXzX1Xf.@X;XG.d.(.C.B.<.Q S.g.B.;.@.z q f 7 4 h e j s * O ^ q k 5 q q > L @.r.C.j.s.( @X@Xj.F.F.).;X2XqXHXDXSXSXDXzXDXDXDXSXDX",
"DXSXAXSXAXSXSXSX1X<.@X@X(./.n.n.S.c.C.c 2.:.>.x : * @ X = D V &.k > < ; s =.z 4 @ @ X = g ] %.=.j.j.uX(.n.n.G./.K.@X2XaXDXHXJXjXDXJXHXHXHXDX",
"DXDXSXAXAXAXSXSXu._.uX(.d.n.m.n.S.B.j.<.^ ! x f %       + *.K ^ . < > > * p I 4 X   X   e ^ f x :./.&XK.n.n.G.F.b.H.>X#XBXJXhXHXHXHXJXJXJXHX",
"DXHXDXSXAXAXSXpX;.@X=X/.F.d.S.H.B.H.3.,.h _ Y e *       $ ` Y ~ . q 0 a O p F 4 X     X e ` C = s ;.b.b.j.h.C.C.S.a./.wX}.fX XHXHXDXHXJXFXHX",
"FXHXDXDXDXSXsX1.R ( ;.d.h.S.C.B.V.f.;.e X _ J r @       X q.r.b * 0 s a 0 s ,.I       X h 5.h 2   g ;.h.c.c.j.C.h.a.b.$X3.BXfXDXDXDXFXHXHXFX",
"HXDXDXDXDXnXXX9X( R ( i.a.u.d.j.h.] h @ # ' | r & @ & & 4 g.  < k k z s s < . R # @ # = F 5.V 5 @ @ l 2.s.r.s.c.>.>.:.;.>.}.hXDXDXDXHXHXHXHX",
"LXJXDXDXDXmXH.iX>Xn.Q E :.<.<.d.<.F ) 7.v.0.) h G W { d.g.~ p < s q s z s d > d =.q.k.z.x.,.x h P %.,.) q.s.s.:.{ ( =XtXwXL.gXDXFXHXHXHXJXLX",
"PXJXHXDXDXsXH.9X`.tXS.G.( E 9.! F ` 8.| 0.~.[ 5.8.8.p.n.0 O p s z g s z p d k <   c...q.W.B.Y 6.9.*.9.` P [ 9.:.n.uX6X/.K.tX}.SXHXJXHXJXLXPX",
"PXLXSXDXnXoX>XJ.j.).8XbX(.! F F F G J T Y &.f L 0.a 0 > O ; 0 z s s s k s d d < . > 0 0 -.I j T ` ` P Y G S S D.9X'.'.F.H.tXA.VXDXDXHXJXPXPX",
"PXLXDXHXaX`.4XC.S.c.Q.'.8Xn.h l 5 e f B f f K S ] . > O ; < ; 0 k k k s k s > < ; > ; O m K K V j h r r 7 S S 9.[./.n.(.n.tX(.VXJXJXHXLXPXPX",
"LXLXHXHXMX*X'.j.S.j.n.Q.oX{ C e 4 $ + + $ &.&.K I - p n z 0 O : 0 q 0 0 p 0 O O n z n O n 6.I 7 $ + # + S I S ` n.n.n.n./.'.;X2XZXDXJXLXLXPX",
"LXLXJXCXvX6X(.n.m.b./.Q.:.` A t *   X X + 0.6.D @.: =.V.t.$.a , * ; > > * % q z t.f.3.u @.y.T 2 X X X X P &.h l i.d.).S.h.G.uXXXnXJXJXJXLXLX",
"JXLXJX3X-XtX/./.n.F.S.G.^ ` P l :       X k.8.S $., u.~.L.3.k 6 * * * * * > k #.A.J.L.v @.l.H 7 X     X *.] g q Q G.S.j.s.a.*X@XqXFXJXJXJXJX",
"JXLXJX<X(.@Xn./.a.2.g.c.I ` ` h :       @  ...Z =.> 3.V.f.-.z k q 0 s k s k s / V.V.V.q U U.T 1 X X X   &.&.x q P g.j.<.s.h.x.9XOXaXJXJXLXJX",
"LXLXDXqX<.<.i.i.a.r.C.,.! ] ] h & & & 2 t ....Z =.% o.1.>.#.~ z c k s z k b n ~ >.1.>.< @.I.T 8 # 2 4 9 *.:.h q ( r.r.,.>.9.:.@XL.qXJXJXLXJX",
"JXJXDXNX_.Q E c %.#.=.U t.t.` V G { s.Y.[.[.8.W x.% p U U ~ @.U m s a s l m #.^ @.L b % <.T.} H  .c.W.W.Q.5.S I c c ;.( ;.<.<.K.h.5XJXJXJXLX",
"FXHXnX$X-XyX[.c c k ~ b I Z.5.T q.8.p.p.T.{.e.J.,.> L >.1.2.1.1.>.z a s @.1.r.1.-.-.=.u z S.l.Y.Y.k.v.W.[.6.*.,.] e c E G.uXuXbX=X3.qXHXJXLX",
"LXHXCX+Xc.Q.[.yX4Xa.k x x I f B } } } } | q.) > * k 3.V.V.V.&.Z.V.m k k 1.B.,.t.Z.V.t.n 6 . t.e. .}  ._ } M D *.F g ( 8X6X@X).'.J.A.qXJXJXPX",
"LXLXCX@Xn.(.).'.).4Xz a q 5 D B 7 M M M N B ' > s 2.oX2X*XZ.6 1.L.#.~ I V.L.s m *X2X$XV.$.. t.B C C M t C Z t e q 9 ( 6X).K.c.K.K.B.qXPXLXLX",
"LXJXFX+Xj.n.n./.c.B.x % + l ` V : O @ @ # 6.t.> u Z.*XrXpXE.K Z.`.%.=.=.J.~.o.1.7XwX8X~.$.% t.7 + % % + ` 7.x 2 X ; $.:XJ.S.s.Q.H.f.0XPXLXPX",
"JXSXgX@Xj.n.(.G.r.V.k @ X D [ x ,     X X y.Y.> j Z.eXbX4X4X,X%XoXB.&.1._.$X$X*XwXxXcXL.@.O y.7 X     X *.9.S = X o $.7XH.H.Q.n.G.g.5XPXJXPX",
"LXLXCX=Xb.S./.n.c.C.K   X C *.j :     X + w.I.: o.oXxXMX4X4X4X4X2XOX_.XX*XqX4X0X4XxXvX:XA.. c.7 X   X X 5.6.S 1 X o ( 8XV.f.Q.D.H.a.5XJXLXLX",
"JXIXJX-XB.j.d.n.j.B.b @ X C ' S =     X + I.w.a 1.0XxXcX4XwXrXxXrX>X*X<XpXxXxXrX2XiXMX7XL.< s.5 X X X X } 4.D # X . { 9XH.r.g.c.h.1.5XLXJXLX",
"LXIXCXOX>.a.i.<.C.2.z 6 9 ) ' C 7 2 5 9 V I.w.s.&.o.2XMXxXxXcXxXwXI K u ^.cXxXxXiXbXbX1.~ E.x.B 1 8 w M e.4.C 5 1 2 ( 9XK.s.B.h.i.;.3XJXLXJX",
"LXPXFX'.#.s.j.:.9.;.I >.r.k.' h C | z.W.{.{.w.z.6.. XXwXcXcXxXwX%XV f u Z.wXxXcXcXiX*Xs x ].6.T e.T.!.!.].5.Z Z { { / 8Xn.d.K.u.>.#.<XJXLXLX",
"LXJXmX/.( <.d.{ <.~ k ^ %.q.*.' e.y.y.y.E.^.y.^.x.% % o.wXxXcXXXy.{.{.{.^.Z.wXxXcXC.= o ~ ].E.E.Y.U.l.T.W.9.5.k. . .! '.i.<.u./ #.~ 1XJXJXLX",
"JXJXOX/ ( / / F Q b k K h A r e H Y } } ' 6.V t.t.  % b L._.L.Z.P.^.{.^.E.E.E.E.K.#.6 O d x.t.6.5.| } W *.j C G W F x Q E E c R Q m <XDXLXLX",
"JXJXCXtXtXyX9XtX4Xa.b 6 9 5 C V 7 f e j B B } y.#.. d z O ; , &.E.E.~.Z.E.Z.u % O u n O k x.Z.1.j K t r h P V e q q $.7XyXuX9X6XiXXX3XhXDXJX",
"LXLXCX>X`.'.'.'.K.2.U + + t ' S = + X   + 6.4.Z.$.O < d   d V.o.u u u u u v V.-.  , d O k ^.E.6.+ X + + _ | S 1 X * #.9X+X_.(.(.'.H.5XDXHXHX",
"JXJXCX=Xh.d.F.F.s.a.b X X Z *.h 4       + p.w.x.@.  ; p p $.A.v y y y y y y N.N.i 0 > O k ].x.1.  X X X } w.V 1   . #.5XV.h.v.W.C.B.5XLXJXSX",
"JXJXKX@Xj.S.n.n.g.g.b X X C [ j =       + ..w.e.@.. < n #X3.u X.N.M.M.M.N.M.u v #XN.d O j ^.x.1.    X + } w.V $   o ;.9XV.A.E.T.Q.B.5XLXJXjX",
"JXHXCX'.h.S.b.d.<.f.b + X C ` V &       X p...k.U   < R *X_.-.O.+.+.+.X.+.O.O.N.<XV.< . k [.E.1.      X } w.D 1   o ( yX/.A.n.m.S.f.5XLXJXLX",
"JXLXKXOXa.g.i.a.j.g.U 6 t ` [ t 8 2 g F W Y. .q.&.o 0 @.XX0XMX-.- y y - - i 0XxX$X3.s % m W.Z.1.r t C G w. .Z 1 9 9 / yX/.h.c.n.h.1.2XLXLXPX",
"JXPXKX@X<.2.<.a.Q.S.U &.:.s.*.D W  .e.W.].^.k.k.9.O 6 -.,X0XrXo.y y.~.^.o., 0XwX:XV.L % x `.J.E.e.T.!.[.^.i.A E  .] ] yX(.i.d.<.s.<.3XPXLXLX",
"LXPXFX'./ i.j.i.C.V.k U ` q.' J ....w.e.x.oX9.v.B.  m 1.*X2X,X$.o.P.R.U.V.f ^.2X2XZ.@.% m ].W.`.T.I.I.w.Q.,._ w. .{ ( ;Xd.:.h.3.2.2.5XPXPXJX",
"LXIXMX/.( { { i.h.~ m g x j r r J J D T ` ` h _ 9.O $.H.wX_., t...} 6.4.5.Z.z #.7XXX1.> k x.t.Z.| _ _ } I V V H D C ! `.9.{ :.#.#.=.2XPXIXJX",
"AXJX=X$.c E E / Q z b 3 : 7 h S 7 5 j f 7 S ' H =.O @.XXrXZ.4 ` 7 M M V V *.a m rX$XV., a Z.Z.6.r e M 7 K D V r e r l ~ ! c ~ c Q ~ <XUXJXkX",
"zXSXBXtX6XeXyXtX@X3.b . X x P V 4   X X X y. .H o.O V.$XcXXX: Y 1 X X X e E.p ~ vX2X_.a z ~.Z.1.X   X X Y 9.P =   @ ;.7X9X9X9XeXeX_.3XJXSXSX",
"LXJXZX<X/.'.(.(.K.>.x X X j ` S *       $ w.w.V $.O ~.4XMX_.* I X X   . M E.s ~ cXxX$Xa k ^.E.=.      X 5.7.V $ X O $.6XL.(.(.(.`.g.3XDXJXIX",
"PXLXCX=Xb./.n./.b.;.z X X A ` e =       + ....J U ; OXcXNX_.: D X .     w U.e ~ MXMXwXk k ~.E.=.        *.5.S =   O ;.6XH.h.d.v.H.r.3XLXJXPX",
"LXLXVX$Xd.d.n.n.S.s.x X X h ` l :     . + y...H ~ , <XNXNXXX4 D $   .   M R.5 @.MXMXxXm z ^.6.7     X + ' 8.S #   . / tX/.b.F.F.K.g.3XHXJXLX",
"LXIXVX=Xn.n.m.d.h.h.x g x ` ) t 2 9 S G } y.e.N ` z L.7X0XZ.*.B 8 Z W { I.I.&.&.2X7X<X$.,.W.*.w r C J H q.[ t 7 w g ] tXb./.).S.B.<.<XJXLXLX",
"LXLXgXOXn./.i.d.V.r.z ^ t.9.] D G 5.e.Y.^.^.q.| q.T.#.6 f E.w.| I.T.!.{.%X^.8.t.; ; a ~.;X].{  .z.I.R.[.!.q.J _ [ ] ! 6Xn.j.h.J.f.,.3XHXLXPX",
"LXLXgX}.b.j.a.g.C.f.z U I 9.P G | 6.7.5.l.^.| w.Y.U.U.0.U.{.} l.I.U.I.U.^.!.' Y.t.t.t.W.oXW.| z.I.w.w.w.E.7.Y 8.[ W ^ 6Xn.a.h.3.a.>.<XJXLXPX",
"LXLXBXXX;.d.s.i.B.>.z f f h 7 r D D G P G G t H _ ' } } } _ N ' } } | ' T T N | } T 4.' ' Z Z _ W W } Z H M M D E N ] 6XD.0.j.<.>.1.5XLXLXLX",
"PXLXgXL.( #.;.;.>.m k : 4 f j r 7 4 6 5 9 A W H e j f 7 M H Y C w w h f l ] W w e e f j D T T w e a q 4 M J V 5 9 : ( XXh.( s.*.Q ^ <XLXLXPX",
"PXLX,X#.( Q Q Q ^ z k @   f I S $ + .   + } w.Z * % X + 1 I.e.l @ X   X w p.w.w + $ X + T U.4.7 .     @ ) | S 1   : z ( m m ] C L L 2XLXPXLX",
"PXPXsX0X6X;XtX>X*Xg.b X X F Y g =   O . + 8. .C 4   O + 1 T.6.S & .   o t v. .w @ O X + &.U.T e . . - o *.5.h :   * $.>X5X:X;X6X;XH.<XLXLXLX",
"UXZXsX#Xd.d.n.(.S.2.m * X j P h 3   O . # 0. .G 3 . ; + 1 E.4.V & @ O o t T.} w = o % + T U.T 5 % * o . *.5.j 3 . ; ;.2XH.h.k.e.S.<.<XLXLXLX",
"DXAXBX/.<.<.<.a.a.2.l @ X x Y t = @ + + $ 8. .F 2 # & + w U.8.V 2 & @ # V U.| B & & # & H p.' t # & # 1 %.*.t 2 @ & ( 2Xa.;.<.3.u.=.<XLXJXPX",
"kXHXmX/.{ ( <.<.,.>.L x x ` P w 9 h P *.9.z.7.N C W | l.l.Y.8.V D ) 0.e.Y.z.4.h A {  .w.W.l.J t A W | 7.t.*.t w l C ! -X9.2.3.>.>./ <XJXHXjX",
"LXLXsXB.#.#.( ;.;.=.m ~ %.t.` C W [ q.x.E.[.7. .e.Y.W.W.{.{.e. .l.U.R.!.{.[.9.6.p.T.R.[.&X!.| 8.p.z.z.T.[.0.J _ *.[ ! @Xr.r.2.2.-.m $XDXhXdX",
"LXPXsXu.^ #.^ ! ( ~ l c L ] P C _ } ' 7.q.v.| } P.y.l.z.p.[._ e.y.e.I.w.R.W.Y x.w.I.I.p.W.k.' l.p. . .p.l._ J *.' ! ` &X,.=.>.>.$.m |.dXfXLX",
"LXPXsXu.m ( ~ m @.~ g e 5 g r 9 t N C x h G C H T T T W E W D _ _ W H _ W E F ` W H H J W P D J W A A G D B t S S h @.@X#.m ~ @.$.n |..XJXLX",
"PXPXnXf.z L x c L R s 3 : e g w 5 e e f e D J Z M V V t A G _ V M N M D C W ' h N t C B Z ' Y t t t w w C F h 5 7 q ! '.^ z n z m k <XhXHXLX",
"LXLXaX>.k x z c x n k 0 4 S L t 9 l z z L 7.8.C D P P E W v. .C S Q Y L *.Y.*.V A ) ! F 0.z.Y V F L F F [ *.S f l z ~ B./ n n z z d $XJXJXLX",
"IXLX#Xz s z x x z m x q q F L w 9 x c m I q.7.C P ^ ( ( { v.8.V ! ] @.*.7.y.4.h ( { ] ^ e.k.P h ! ! ! G 9.%.g g z z g R z s z z z d ,XPXUXLX"
};
