/* XPM */
static char *_814_278c6eca964f747292d68eb424420d3121ccc859009ac67bcfa2fb9439d064ef[] = {
/* columns rows colors chars-per-pixel */
"70 70 252 2 ",
"   c #040201",
".  c #070706",
"X  c #0B0201",
"o  c #0C0A05",
"O  c #0C0C0A",
"+  c #0A0C0E",
"@  c #120502",
"#  c #140A03",
"$  c #1B0C03",
"%  c #110D0B",
"&  c #1A0B08",
"*  c #181208",
"=  c #1C130C",
"-  c #141312",
";  c #1B1512",
":  c #1C1A15",
">  c #18171A",
",  c #1D1B1A",
"<  c #260F07",
"1  c #26180C",
"2  c #241914",
"3  c #2C1C14",
"4  c #221D1B",
"5  c #341F18",
"6  c #2B2215",
"7  c #25211D",
"8  c #2B231C",
"9  c #352718",
"0  c #33251C",
"q  c #3A251C",
"w  c #3B2B1C",
"e  c #1B1B22",
"r  c #231E22",
"t  c #1B222F",
"y  c #242222",
"u  c #2A2522",
"i  c #2C2925",
"p  c #26262C",
"a  c #2D2B29",
"s  c #352724",
"d  c #342B24",
"f  c #3C2C23",
"g  c #322D2A",
"h  c #2E302B",
"j  c #3B3125",
"k  c #35322C",
"l  c #3B342C",
"z  c #3C3B2D",
"x  c #282A35",
"c  c #353432",
"v  c #3A3633",
"b  c #3D3A34",
"n  c #363739",
"m  c #3D3C3A",
"M  c #432B1D",
"N  c #44321D",
"B  c #432D23",
"V  c #462C27",
"C  c #443224",
"Z  c #4B3425",
"A  c #473825",
"S  c #43332A",
"D  c #4A342B",
"F  c #443A2C",
"G  c #4D3A2C",
"H  c #563B2A",
"J  c #523C2D",
"K  c #433C33",
"L  c #4B3D33",
"P  c #423D3A",
"I  c #483C38",
"U  c #533D33",
"Y  c #5A3E33",
"T  c #3F4339",
"R  c #45412E",
"E  c #55412E",
"W  c #434234",
"Q  c #4B4335",
"!  c #45423C",
"~  c #4B453C",
"^  c #45493A",
"/  c #4C4A3C",
"(  c #544334",
")  c #5A4334",
"_  c #54443A",
"`  c #5B453A",
"'  c #554A3A",
"]  c #5C4B3C",
"[  c #58513E",
"{  c #644736",
"}  c #634B3B",
"|  c #784E3E",
" . c #68543E",
".. c #293040",
"X. c #3B3C46",
"o. c #3A4147",
"O. c #454241",
"+. c #4A4642",
"@. c #4D4B44",
"#. c #4A4A4A",
"$. c #534C43",
"%. c #554B47",
"&. c #5C4C43",
"*. c #535244",
"=. c #5A5545",
"-. c #55524C",
";. c #5A554B",
":. c #5D5B4C",
">. c #4C4D53",
",. c #595754",
"<. c #5D5B53",
"1. c #674C43",
"2. c #644E43",
"3. c #645244",
"4. c #6A5444",
"5. c #63544B",
"6. c #69594A",
"7. c #755945",
"8. c #745B4C",
"9. c #625C53",
"0. c #655C56",
"q. c #785C53",
"w. c #5D6159",
"e. c #63614E",
"r. c #78624D",
"t. c #646254",
"y. c #6A6455",
"u. c #6A6956",
"i. c #65655A",
"p. c #6A655B",
"a. c #67695A",
"s. c #6C6A5B",
"d. c #7C6353",
"f. c #786758",
"g. c #716D5D",
"h. c #6F705F",
"j. c #73725E",
"k. c #7E725E",
"l. c #4D536C",
"z. c #5E6578",
"x. c #666665",
"c. c #6C6A63",
"v. c #6D6D6A",
"b. c #726D62",
"n. c #766C65",
"m. c #6D706A",
"M. c #757363",
"N. c #797564",
"B. c #777865",
"V. c #7A7966",
"C. c #74736C",
"Z. c #7A756B",
"A. c #7C7B6B",
"S. c #777874",
"D. c #7C7C73",
"F. c #825F53",
"G. c #866C54",
"H. c #846958",
"J. c #846E62",
"K. c #887465",
"L. c #837C6C",
"P. c #8B7A6C",
"I. c #947A67",
"U. c #837D76",
"Y. c #7C8175",
"T. c #84826E",
"R. c #99836D",
"E. c #848374",
"W. c #87857B",
"Q. c #8C8A7B",
"!. c #968677",
"~. c #91907E",
"^. c #A48A78",
"/. c #6E7289",
"(. c #7C8889",
"). c #7E95A1",
"_. c #58B5F8",
"`. c #8A8A84",
"'. c #928D86",
"]. c #8D9289",
"[. c #979687",
"{. c #95938C",
"}. c #9B9B8B",
"|. c #8C9694",
" X c #989A95",
".X c #AD9583",
"XX c #A49889",
"oX c #A39D97",
"OX c #9DA19A",
"+X c #A3A18E",
"@X c #A3A295",
"#X c #A4A49C",
"$X c #AAA799",
"%X c #B3B09E",
"&X c #949CA1",
"*X c #A39DA1",
"=X c #9CA4A4",
"-X c #96A7AB",
";X c #A7AAA6",
":X c #ADABA4",
">X c #A5ACAB",
",X c #B2AEA5",
"<X c #AAB1AC",
"1X c #B5B4A6",
"2X c #B4B3AA",
"3X c #B9B6A8",
"4X c #BBBAAB",
"5X c #A5A8B7",
"6X c #ACB6B6",
"7X c #B6B6B5",
"8X c #BCBBB2",
"9X c #C0BBA8",
"0X c #C2BCB4",
"qX c #BDC0B2",
"wX c #C4C3B4",
"eX c #C9C8B6",
"rX c #C9C5BB",
"tX c #B0B8C2",
"yX c #B9C4C7",
"uX c #BACED6",
"iX c #8DD5FC",
"pX c #99DAFC",
"aX c #AFD9F0",
"sX c #A8E2FE",
"dX c #B3E5FF",
"fX c #BBE6FE",
"gX c #B7E9FF",
"hX c #BDE9FE",
"jX c #C9C8C4",
"kX c #D3CEC5",
"lX c #D8D4C8",
"zX c #C2CED4",
"xX c #C4D3D8",
"cX c #D7D7D3",
"vX c #E3DCD5",
"bX c #EBE4DC",
"nX c #C7DCE6",
"mX c #CBE1EB",
"MX c #D7E5EA",
"NX c #CEE7F6",
"BX c #C4EAFF",
"VX c #CCECFF",
"CX c #D4EEFE",
"ZX c #D9EDF9",
"AX c #C9F0FF",
"SX c #D5F0FF",
"DX c #DBF1FF",
"FX c #EAEBE9",
"GX c #E3F4FF",
"HX c #E9F6FF",
"JX c #EDF8FF",
"KX c #F1F8FE",
/* pixels */
"HXGXHXKXKXKXKXHXHXHXHXGXDXGXGXDXDXDXDXGXGXDXDXCXVXSXSXDXGXGXDXDXSXSXSXSXSXSXDXJXJXGXAXhXAXAXVXSXDXDXDXSXDXDXSXDXDXDXDXDXSXDXDXDXBXpXAXDXGXJX",
"HXHXGXGXHXHXHXGXHXGXGXHXHXGXHXGXGXGXJXGXDXDXDXgXVXSXDXHXGXGX;X X].|.].Q. X;XyXCXAXgXdXsXAXhXBXSXSXVXVXfXBXSXSXDXDXDXSXDXSXSXAXAXhXGXJXJXJXDX",
"fXGXCXCXGXGXGXHXGXGXZXGXGXDXGXHXGXJXJXJXGXDXDXSXCXDXZX X|.;X2XrXeXeXwX@X$X4X1X>X=XqXqXZXSXCXAXAXVXfXBXBXsXBXSXHXDXGXSXDXDXVXSXDXHXGXGXGXDXGX",
"pXDXVXsXBXGXVXpXGXGXGXGXSXCXCXGXJXJXDXDXGXDXSXzX=X6X Xv.#X:X@X}.$X4X@XQ.W.E.Q.:XqXqX(.Y.|.nXAXCXVXVXCXCXBXBXBXSXSXDXDXDXZXBXVXGXDXDXGXGXHXsX",
"ZXGXCXfXdXVXBXpXNXiXCXCXSXCXVXSXGXDXDXDXDXmXyXQ.@.;.Y.OX{.@XM.M.Y.j.s.u.M.e.u.[.+X~.%X^ h.yXSXmXuXSXSXSXVXSXAXhXVXDXSXDXGXDXDXGXDXDXGXGXCXsX",
"CXCXVXCXBXfXhXBXBXpXpXdXVXVXVXCXAXCXZXxXuX].[.wX]./ A.{.c.A.E.M.k.Y.k.j.u.u.u.=.u.e.Y.Y.qXlXqX<X=XZXmXSXSXDXVXgXVXVXCXDXDXDXDXGXGXGXGXDXVXCX",
"VXBXVXBXfXhXhXhXBXfXBXBXBXBXVXVXCXmXxXY.Y.~.%XeX$Xe.z A.Y.D.V.M.u.Y.B.g.j.h.u.u.Y.e.R ~.eX}.V.[.8X<X|.nXSXZXBXdXSXVXSXCXDXDXDXDXGXGXGXfXBXVX",
"VXsXVXVXBXBXdXfXiXBXfXsXBXBXVXSXyXB.Y.~.wX9X~.j.[.E.=.B.B.Z.A.V.j.k.V.j.u.u.B.e.:.[ [ +X~.Y.h.j.a.B.<X|.nXDXZXsXSXSXCXSXDXDXDXDXGXGXAXBXVXVX",
"VXVXCXVXVXBXfXdXsXfXfXhXVXCXSXtX,.D.lX0XT.L.j.T.j.[.}.l p.y.L.N.Y.j.N.g.9.u.y.9.*.j +X3XW.h.M.V.V.A.M.$XY.xXsXSXVXVXVXCXCXSXSXDXDXGXGXSXCXVX",
"GXVXVXVXBXfXfXdXsXdXdXhXVX>XD.c.;.:.4XE.B.k.j.u.j.$X[.l j 0.u.9.y.y.g.s.9.<.:.:.F d }.Q.u.s.M.V.j.A.u.^ w.|.mXDXCXVXVXCXCXCXSXSXCXdXdXVXVXVX",
"DXVXVXVXBXfXdXdXiXdXfXBX=XA.2XrXW.! A.V.Q.u.e.T.k.h.'.[.j :.y.K K j l S K K ;.9.k / 1XQ.v.M.b.V.A.j.V.z -.1X;XzXDXDXCXCXCXCXCXSXCXCXCXVXBXCX",
"BXBXVXVXBXfXfXdXdXfXBX Xc.@XlX3XZ.t.' V.Y.Y.j.j.j.t.W.@Xd F L d l d s f d d S v j =.#X[.E.Z.u.b.B.u.^ u.#X@X1X<XyXDXSXCXCXSXCXCXCXCXVXCXVXBX",
"VXBXVXVXVXhXfXfXdXpX Xi.@X+X~.Y.b.p.z s.A.g.s.u.i.-.K $.g S l f d f f S l g l s d W ;.Z.M.s.b.c.M.y.j @X}.M.Q.$XOXyXDXSXCXVXVXCXCXCXVXCXVXBX",
"CXfXBXVXBXBXhXhXgX-X<.}.$XB.u.T.b.b.:.W M.i.c.-.~ l 4 s 5 2 s 0 0 0 8 3 2 5 g 5 8 8 : K $.<.b.s.u./ +X}.h.M.B.E.@X;X6XSXCXVXCXVXgXSXCXSXVXCX",
"CXVXBXBXVXBXBXVX-X,.}.}.T.Y.j.j.M.c.b.z <.=.;.l ; - # X = D S 5 & @ & # 2 l l 2 # # X = s @.$.$.c.s.eXL.M.j.Y.V.V.}.;XyXCXCXDXdXCXDXCXDXSXDX",
"SXCXVXBXBXBXVXNXw.W.eXT.u.j.k.j.M.b.u.:.~ Q l 8 %     X @ &.S 5 @   X   I -.P P c O.. X 8 _ 0 l v.<.<.a.V.j.V.B.h.A.$X|.nXDXsXSXSXCXDXDXDXCX",
"SXSXCXVXBXVXVXtX*.+XOXY.h.a.b.Z.v.C.<.;.f Y U s %       & _ U 5 X       ~ , . - > v v 4 0 _ L f <.:   k D.u.b.b.m.t.Y.qX(.pX_.CXSXCXSXDXSXZX",
"ZXSXCXCXVXVXuX<.W ^ [ a.a.B.M.m.i.i.*.8 @ ) J q *       X 6.Z 3 o   X X ~ 4 p -.v.x., O.l 2.` c s @.g y L.g.u.M.i.t.j. X,.mXpXCXCXCXZXSXSXSX",
"SXZXCXCXCXzX`.4X@.T / e.t.w.u.u.i.' f # < ` ] q * # * * 2 &.( w $ # # $ ;.4 c x.v.<.o v p.n.9.v +.-.i g Z.9.y.s.=.=.*.-.-.(.sXCXCXCXSXCXSXZX",
"GXDXCXCXCXxXC.rX$Xh.W R =.:.=.u.:.R ( 3.f.6.Q M A E [ u.k.y.G 9 N ] 6.d.U.: ! S.x.@.%   o % : ,.c.U.k g Z.r.0.:.[ @. XqX8XS.aXCXZXSXSXSXDXHX",
"HXDXCXCXCXuXb.8XQ.qXM.V./ L :.Q F _ 4.1.6.P.$.2.4.7.6.r.u.L.' 3.r. . .7.!., k ,.O.c : : 4 7 s @.<.x.p 8 5.&.3.=.k.eX1XY.Y.qX(.AXCXDXDXDXGXHX",
"HXGXCXCXzX{.$XC.s.L.4XlXT.Q F F F D U Y U $.s D ) { ) ) ' Q w U E } {  .n.4 y #.b k z k l v v +.-.0.a u 5.D S N.1X~.Q.j.M.qXm.mXCXCXSXDXHXHX",
"GXGXCXCXqXW.1Xb.M.g.T.Q.3Xg.w j 3 0 5 q s s K l V M M B S d V f q S N ' y : k c -.;.^ @.O.I %.%.-.c.p 4 $.V v 6.~.k.h.Y.j.3XE.mXCXCXSXGXHXHX",
"GXGXSXDXmXoXQ.s.M.s.g.L.'.[ C 9 ; & & @ & %.%.V 1 $ @ @ 1 2.%.V 1 @ 2 k O u b -.c.v.i.$.O.#.%.,.c.n.;.%.0.q.S ~ j.B.B.B.B.~.%X#XZXSXDXGXHXGX",
"GXHXDXMXkX4XY.j.j.h.Y.L.;._ S w ;   X X @ 5.6.D ; X X @ $ q.1.B @   : h . h :.E.'.'.q.,.O.+.O.x.S.'.5XS.y ;.S l e.s.W.M.i.A.eX`.zXDXSXDXHXGX",
"DXDXDX>X+XqXY.Y.j.V.b.V._ Q Q f ;       @ r.4.V & @ X X < H.1.f @ m T i i c D.2X0XoXg P v.%.#.0.-.I '.W.a @.K 8 K A.M.u.y.t.oX}.6XZXDXDXDXDX",
"DXGXDX;XT.}.j.Y.t.:.s.g.L ' ( f 1       #  . .Z & X X X < F. .B @ O.. : a #.@XbXlX$Xr U '.0.>.#.l - `.'.g #.I 8 K p.s.:.t.s.g.3X].yXDXDXGXDX",
"GXDXCX<Xe.=.e.e.t.9.n.;.I $.` f * * * 1 w  .| A 3 = 3 3 Z H.| w 1 +.  , ^ #XkXbXlX0X*X,X7X`.n.,.c.c.;X,Xu %.K 0 / 9.t.-.=.:.5.[.S.6XDXDXGXDX",
"DXDXZXMXW.Q R j $.@.%.I p.0.U S G [ r.k.R.R.7.E { f.I..XI.I.7.J 1.c.. e #.8XvXFXvX0XlXkXjX,X{.Z.S.oX0X*Xi -._ L z z *.[ $.:.=.A.a.<XSXDXDXGX",
"ZXDXxX{.XXwX~.z z k O.v I n.5.Y 6.4.d.d.K.^.8.d.I.K.H.I..X.X4.F.I.U.. > >.2XvXFXbXvXvXlXjXrXrX,X7XrX0X*Xy -.5.;.' 8 z z A.rXeXlXOX<.6XDXDXGX",
"GXDXMX{.g.L.~.wX:X9.g l f U q B { Y { { ] 6.G ) 7.F.F.| 1.q.0.c.p.,.x p X.U.0XbXbXbXkXvXvXkX0Xp.>.0.x.U., ~ Q ] D g / 1X4X~.Q.Q.D.m.6XDXDXHX",
"GXDXMX}.N.T.T.Q.W.:Xc 8 u 3 S f q M M M C C _ U V V M Z D 5.n + + X.z.n x ,.oXbXbXbXkXlXlXvX0Xu X % S >.> %.D q 8 6 [ 1XE.Y.s.V.V.x.6XJXGXGX",
"GXDXMX[.s.M.j.V.c.c.g & X f _ V ; o # @ $ N.! m c n g c c P k h x z./.P p X.n. X0XjXjXjXkXbXrX5.O.X.s p c.f.f 2 X - @.#XZ.M.u.V.Z.i.>XHXGXHX",
"DXAXaX}.u.B.Y.B.t.p.g @ @ S &.f ,   . % 2 n.- o O % % O - , a n x x.v.#.x g >.x.|. X{.:XjXkX0XU.0.>.n P f.5.V ;   % ! 7XC.C.L.N.Z.i.<XGXDXHX",
"GXGXZX@Xc.M.Y.k.g.M.v X X S &.f ;   @.c 4 r c n v m b v v g a u p p x >.>.p p X.x c t /.*X,X,X*Xx.> O.& 5.1.D < X o / 2Xx.i.L.N.n.t.<XDXDXGX",
"GXJXZX@Xc.s.u.h.s.s.v @ @ S ` S ;   m 4 , r h a c c v c m v a y r x p X.>.>.o.X.t t e ..0.x.v.v.%.> O.@ { 1.D $ X X [ 4XM.9.s.g.s.<.>XDXGXGX",
"DXJXZX].;.t.e.:.c.t.k 4 6 ( _ S 3 3 v % k i 7 u u a g a u 8 7 7 y r > e X././.z.t t t t t t t e p > 0.V 8.1.C 3 1 1 / 4XA.t.h.c.e.-.>XDXGXDX",
"GXJXMX~./ t.h.=.9./ I ;.6.f.] f 5.%.k : i 7 7 , 4 u u 8 u s 8 y r 4 p p p X.>.z.l.l.l.l.l.l.l.l.X.> !.I.!.1.C G ] [ Q 3XM.t.A.w.-.@.>XDXGXGX",
"DXDXxXY.*.:.a.[ :.! g I ' 6.&._ s.  : y 7 : y 7 8 8 7 4 4 u u 4 8 7 r r e x X.l./.l././././././.#.+ P.H.P.5.2.8. . .^ Q.e.=.w.^ +.^ =XDXDXGX",
"DXDX|.W / ^ W F W v s v j +.7 y 7 : 4 4 u k 7 7 8 a g u u 7 2 4 7 7 , y r e t ..l./.5X5X5X5X5X5Xx.+ n.Y &.s C J R F j ^ R R z T W W -XSXDXGX",
"GXDXmXqXwXwX4XqX,Xt.v a _ p O O u I -.,.>.P 4 u u b b #.I b P K l j k 7 y y p p >.x.&X5X7X7X7X7Xv.O 5.q s U B q 9 8 @.2XwXwX4X1XrXQ.>XsXCXGX",
"GXDXMX$XW.Q.~.~.V.9.K v % 4 y y O.<.oX,XU.-.g 4 u P ,.n.S.n.0.;.:.-.! k u u 4 u #.0.U.{.7X,X3X,XS.% O.@ ` } S 1 X * @.2X{.Q.P.T.Q.C.<XVXCXSX",
"GXDXMX@Xu.t.M.B.p.t.v O.. , a >.U. X,.+.D.,.i i P 0.U.{.:X,X,X7X,X$X@XC.9.#.P g l ,.'.oX0X9XoX9.#.O.4 X | 4.V <   . @.<Xc.a.k.K.n.c.<XGXDXVX",
"DXDXMX+XM.h.j.h.c.0.l v y > n ,.]. Xs > D.,.s g P C.'.{.,X0XrX0XkX0X8X`.C.p.$.v K %.XX$XXX3XoX; P O X @ { | M <   o *.qXm.m.N.G.L.c.<XGXDXdX",
"DXSXMXQ.i.M.j.y.:.i.v X % v O > : : % a '.S.v P +.C.0.; 2 i a u u i 7 ; P  X`.x.{.*X7XS.a W.oX> P X   @ { 7.D < . o / wXS.m.j.k.M.t.<XGXDXHX",
"DXDXFX].t.i.e.t.i.p.K u q 9.c v c k v I c.0.O.O.#.-.v X : 4 X ; l c K l ~ C.W.`.*X2X`.O.. U.*Xr #.q S D 7. .V 1 6 6 ^ qXY.a.s.M.p.<.>XGXDXHX",
"GXHXGX[.:.:.:.u.L.M.P %.=.f.6._ } f.P.U.y s x.,.#.;   o ,.v.4 S P.!..XoX'.: @.$X8X'.: o % D. Xr y.G.I.R.P.y.A E  ./ [ wXT.e.a.:.t.:.>XHXHXGX",
"DXHXMXQ./ w.u.e.C.p.g I _ 0.` Y q.H.H.Z.% P S.v.-.% X X ,.U.> I !.I.I.P.U.- *. X,X{.*   o D.*X: y.F.G.r.L.=.' 7. .] Q $Xy.=.h.,.<.<.<XHXHXDX",
"GXKXcXD.^ [ =.w.u.W c d S f q q J ` 2.q.> O.|.v.-., o O x.U.x I J.q.q.q.c.- #. X#X{.4 % O U. X> 5.Y { { I S V D D C Q W.3.[ -.@.@.$.>XHXHXDX",
"BXDXOXO.z R R W W k c 4 ; 0 s S 3 q I ,.O x.rX@.u 0.+.  v.U.U.x.p 5.s V 0.; #.oX#.k 5.O.o U.Q.4 @.q q 5 V D V q q q j ! ~ z Q z W K ;XJXDXfX",
"BXAXmXqX3X9XwXqX X0.b X X S L B 2   - O.% x.jX@.> +.#.g ,.U.S.x.n O.X X 5.> 0.5Xv , #.O.% W.P.-.>.b 4 X U 5.D =   % $.4X8X9X4X9X0XW.>XGXVXVX",
"GXDXNX=XY.E.Q.E.A.*.l X X f _ S -   - +.> x.jX! : O.O.P I % - P 2 % - ; 0.% ,.:Xa 7 O.P X !.q.+.S.> m X 1.5.S & X O ^ 2XS.E.L.T.E.p.>XSXDXHX",
"GXGXMX}.h.Y.j.V.M.*.k X X S _ q -   % O.% x.cX{.x.! O.m / <.0.%.X .   O 5.> v.oX{.x.o.P &.c.v.C.-.m c   &.1.S = . o *.1XC.a.y.j.Z.9.>XDXDXHX",
"HXGXNX Xj.u.j.j.M.a.j X   f _ j =   % O., x.jX8X X4 b d 1 K.4.Z &   .   &.4 v.'.0.S.7 b n.' o   c P 4 @ ` 4.B $   . ^ qXY.h.B.k.A.p.>XCXGXGX",
"GXGXmXOXj.j.k.u.i.i.l d l _ _ 9 1 9 S 0.n.0.v b +.9.y.[ 7.H.7.V q Z E } H.K.9.m ! #.t.g.I.L.p.:.5.U E { 6.2.w 5 9 d / wXs.Y.E.j.c.<.;XSXDXHX",
"GXGXaX].j.Y.e.u.s.9.l ~ 0.5.' G G 2.q.J.P.L.k g ! P.I.R..X^.7.} 8.G.R.R..X!.0.s a %.~.XX$X!.n.k.P.H.G.R.I.6.J ) [ ' W 1Xk.h.a.S.i.;.=XDXGXGX",
"HXGXaX(.g.g.t.a.v.i.k K I 5.L G { 4.1.5.J.!.f.f.P.H.G.F.G.^.{ d.G.G.F.H.I.I.4.P.P.U.!.P.[.P.} f.G.| 7.7.K.2.Y 4.{ E / 1Xk.e.i.<.t.-.=XDXGXGX",
"GXGXnX`.*.a.t.:.c.-.k s s d 5 q D D D L G U M E ) ) { { { ) B { { { } ` Y U M 6.q.n.q.6.{ D Z ) E ) { Z G M M D E j ' ,XM.9.s.:.;.<.<XGXHXGX",
"HXHXaXD./ / *.*.*.b g ; = s f s 3 3 4 4 9 D E Z q g q 5 M Y Y C 9 9 f s N ] E N U V s s D ` Y q 8 8 7 3 M J B 3 1 : ^ `.p./ y.=.W ~ =XHXGXGX",
"HXGX|.#./ ^ W W ~ k k # X s L S & X o   @ { 7.Z = % X @ < F.0.V $ X   X 9 r. .9 @ & X @ Y q.1.5 o     # U 1.D &   : k / m b ' C W K =XGXGXHX",
"HXHXuX5X1X$X4X1X Xs.k X X S I f =   O X @ 4.4.C ; . o & < G.4.S * . . X w k.} w # O @ @ ` H.J 5 . . + O &.2.f ;   % +.$X:X#X+X%X$XM.=XGXGXGX",
"KXNXuX|.u.u.B.V.N.9.b & X f U f 2   O o @ 8. .Z 4 X ; X 1 J.4.V * * o o j H.{ 9 * # % @ Y H.Y 9 O % o o &.&.f 2 o : @.:XC.c.g.r.B.<.=XGXGXGX",
"CXAXuX(.:.e.:.t.i.<.k # X l L f 1 o @ X < 4.2.F 1 $ $ # 9 d.7.V < * $ $ V H.} B * * * $ U q.] 9 $ * $ $ &.&.w 1 # * ~ :Xw.*.-.,.t.@.=XGXGXGX",
"gXDXxXY.[ / =.:.=.;.K l l _ U 9 6 w L &.5.f. .C N ( } r.f.H.1.B G ( 6.y.H.q.1.B A ]  .r.K.d.H w A ' } 4.y.*.w 9 f C ^ @X5.e.<.,.-.! =XDXSXdX",
"HXGXuXv.@./ / *.*.%.b Q $.0._ C E { 6.f.J.!.3. .q.H.K.I.R.^.r.6.d.H.I.I.^.^.6.5.F.G.I.I..XP.} 6.7.d.d.G.!.6.E _ 2.' L [.9.y.<.<.#.T &XSXdXiX",
"HXHXuXw.! @.~ ~ ~ ! k z K $.L C ) ] ` 5.6.k.] { F.q.d.f.d.R.` 6.r.7.q.7.K.K.I d.7.F.F.F.K.f.) d.r.7.4.r.f.) J ] ` Q _ oX;.$.-.-.@.b |.iXpXGX",
"GXHXuX<.b +.W b / ! k 8 3 d 0 9 w C f S f G C H Y Y H J G E D Y ) H H ) E R D ( E H E E U L D J E N A Z D f f S C f _ }.$.b ~ +.O.c )._.DXGX",
"GXHXzXi.z K l z W b i 6 = q d 9 1 9 8 s q S H C B D B f N G ` B N C M G N E ` f N w N N D ` H f w w w w C G w 3 8 8 W W.! k c k m k =XdXDXDX",
"GXGXyX*.g j k z c v g 7 2 S S f 9 j j k L =.1.D D L W Q ' k. .C F L I I 2.J.&.f A ( Q F 6.f.U S F R F F ] &.S d g j ! c.^ c c c c a  XDXDXGX",
"KXGX|.k a k z k j b j 8 8 K L 0 9 k c v I 6.4.C L _ ~ ' [ f.1.B ( / / _ 1.q.2.f Q [ ' / r.y.G B Q Q I F 5.$.f d j k k T b i k k k h &XGXKXGX"
};
