/* XPM */
static char *_4570_7b96d5c2a621986f785bb8750d7dca29c4ed552172b94e212ab5083c46276e30[] = {
/* columns rows colors chars-per-pixel */
"70 70 252 2 ",
"   c #040201",
".  c #070707",
"X  c #0B0201",
"o  c #0C0A05",
"O  c #0C0B0A",
"+  c #120502",
"@  c #140B03",
"#  c #1A0B02",
"$  c #190807",
"%  c #120D0B",
"&  c #1B1406",
"*  c #12110D",
"=  c #1C130C",
"-  c #080F13",
";  c #151514",
":  c #1A1512",
">  c #1C1915",
",  c #1C1C1B",
"<  c #2A1309",
"1  c #27180C",
"2  c #261815",
"3  c #241B14",
"4  c #2B1C14",
"5  c #231E1B",
"6  c #321E17",
"7  c #1E2116",
"8  c #2D2215",
"9  c #25221D",
"0  c #2B231C",
"q  c #37261A",
"w  c #33241C",
"e  c #3C2B1C",
"r  c #181D2C",
"t  c #1C242C",
"y  c #252423",
"u  c #2A2622",
"i  c #2C2A25",
"p  c #24252B",
"a  c #292C2A",
"s  c #342B24",
"d  c #382825",
"f  c #3B2C24",
"g  c #332D2B",
"h  c #393125",
"j  c #34322C",
"k  c #3B332B",
"l  c #3D3B2D",
"z  c #2E2F33",
"x  c #282C35",
"c  c #353636",
"v  c #3B3532",
"b  c #3D3A34",
"n  c #3D3D3A",
"m  c #422B1E",
"M  c #43321E",
"N  c #432D24",
"B  c #452E27",
"V  c #443325",
"C  c #4A3425",
"Z  c #463824",
"A  c #43342A",
"S  c #4A352B",
"D  c #44392C",
"F  c #4C3B2C",
"G  c #553B2A",
"H  c #533C2D",
"J  c #422E30",
"K  c #443C33",
"L  c #4B3C33",
"P  c #433E3A",
"I  c #493938",
"U  c #533D32",
"Y  c #583E36",
"T  c #3D413B",
"R  c #47412E",
"E  c #57412D",
"W  c #434234",
"Q  c #4B4335",
"!  c #45423D",
"~  c #4B443B",
"^  c #464A3A",
"/  c #4C4A3D",
"(  c #534335",
")  c #5C4433",
"_  c #54443A",
"`  c #5A463B",
"'  c #574B3B",
"]  c #5B4A3C",
"[  c #55513E",
"{  c #60442E",
"}  c #63483A",
"|  c #634C3C",
" . c #6A523C",
".. c #262F45",
"X. c #373B44",
"o. c #453F44",
"O. c #3C4247",
"+. c #454342",
"@. c #4A4642",
"#. c #4D4B43",
"$. c #474949",
"%. c #534C43",
"&. c #534A47",
"*. c #5C4C42",
"=. c #4D5046",
"-. c #535244",
";. c #5B5445",
":. c #54534C",
">. c #5A544B",
",. c #5D5B4C",
"<. c #484B57",
"1. c #5D5B53",
"2. c #585955",
"3. c #654D43",
"4. c #645245",
"5. c #6A5344",
"6. c #63534B",
"7. c #69594A",
"8. c #755B48",
"9. c #625D53",
"0. c #675C55",
"q. c #745A51",
"w. c #5D615A",
"e. c #65614D",
"r. c #646254",
"t. c #6A6455",
"y. c #6A6956",
"u. c #65645B",
"i. c #6A665B",
"p. c #67695A",
"a. c #6C6A5C",
"s. c #776653",
"d. c #746354",
"f. c #7B6353",
"g. c #766559",
"h. c #726C5D",
"j. c #7B6B5B",
"k. c #73725E",
"l. c #7D705F",
"z. c #4F5669",
"x. c #5A6572",
"c. c #6C6B62",
"v. c #686965",
"b. c #726D62",
"n. c #796C66",
"m. c #6E7268",
"M. c #757363",
"N. c #7A7464",
"B. c #777863",
"V. c #7A7966",
"C. c #74736C",
"Z. c #7A766A",
"A. c #7C7B6B",
"S. c #696D75",
"D. c #7D7B73",
"F. c #787A76",
"G. c #815F56",
"H. c #82634B",
"J. c #82695B",
"K. c #88725B",
"L. c #836E64",
"P. c #857767",
"I. c #8B7B6C",
"U. c #947B68",
"Y. c #857D74",
"T. c #907D73",
"R. c #7C8175",
"E. c #84826E",
"W. c #848374",
"Q. c #87847B",
"!. c #8C8A7B",
"~. c #938B77",
"^. c #968778",
"/. c #A58E79",
"(. c #6C7189",
"). c #8A7D86",
"_. c #7C8689",
"`. c #7E95A1",
"'. c #58B5F8",
"]. c #73C8F7",
"[. c #898A84",
"{. c #968D86",
"}. c #8D9289",
"|. c #969589",
" X c #9B9B8B",
".X c #8C9694",
"XX c #969896",
"oX c #9D9B94",
"OX c #A08F86",
"+X c #A59788",
"@X c #A49C96",
"#X c #9DA19A",
"$X c #A3A294",
"%X c #A9A795",
"&X c #A4A49B",
"*X c #AAA799",
"=X c #949CA1",
"-X c #9CA4A4",
";X c #98A4AE",
":X c #A7A9A6",
">X c #ADABA4",
",X c #A5ACAB",
"<X c #B3ADA7",
"1X c #AAB1AB",
"2X c #B7B5A6",
"3X c #B5B3AB",
"4X c #BBBAAB",
"5X c #A6A9BB",
"6X c #ACB6B6",
"7X c #B7B7B6",
"8X c #BCBBB3",
"9X c #C0BBA8",
"0X c #C3BCB6",
"qX c #BDC0B2",
"wX c #C6C5B7",
"eX c #C9C8B6",
"rX c #B3BBC3",
"tX c #B9C4C7",
"yX c #BACED6",
"uX c #8DD5FC",
"iX c #99DAFC",
"pX c #AFD9F0",
"aX c #A8E2FE",
"sX c #B3E5FF",
"dX c #BBE6FE",
"fX c #B7E9FF",
"gX c #BDE9FE",
"hX c #CAC8C4",
"jX c #D2CDC7",
"kX c #CCD3CD",
"lX c #D7D4CA",
"zX c #C2CED4",
"xX c #C4D3D8",
"cX c #DAD8D3",
"vX c #E1DED6",
"bX c #E9E4D9",
"nX c #C7DBE6",
"mX c #CBE1EB",
"MX c #D7E5EA",
"NX c #CFE7F6",
"BX c #C4EAFF",
"VX c #CCECFF",
"CX c #D4EEFE",
"ZX c #D9EDF9",
"AX c #C9F0FF",
"SX c #D5F0FF",
"DX c #DBF1FF",
"FX c #EAECE9",
"GX c #E3F4FF",
"HX c #E9F6FF",
"JX c #EDF8FF",
"KX c #F1F8FE",
/* pixels */
"HXHXHXKXKXKXKXHXHXHXGXGXGXGXGXDXDXDXDXHXDXDXDXSXVXZXDXDXGXGXDXSXSXSXSXSXSXSXDXHXHXGXSXgXAXAXSXSXDXDXDXSXDXSXDXDXDXDXDXDXSXDXDXDXBXiXAXDXHXJX",
"HXGXGXGXHXHXHXGXHXGXGXHXHXGXGXGXGXGXHXGXDXDXDXfXAXCXDXHXHXGX:XXX}. X}.[.XX:XtXSXSXfXaXaXAXgXBXSXSXVXVXdXVXSXSXDXDXDXSXDXSXSXAXAXgXHXJXHXJXDX",
"dXGXCXCXGXGXGXHXGXGXZXGXGXDXGXHXHXHXHXJXHXDXDXSXCXDXZXXX.X:X1XeXhXeXwX%X*X4X2X,X-XqXqXZXSXAXAXVXVXBXBXBXaXBXSXHXSXGXSXSXDXAXSXDXGXGXHXGXDXHX",
"iXGXVXaXBXGXVXiXGXGXGXGXDXCXCXGXJXHXDXDXDXDXSXxX=XrXXXm.*X>X&X X%X2X$XW.W.W.!.>XqXqX_.R..XmXAXVXVXVXCXVXBXBXBXSXDXDXDXDXGXBXNXGXDXDXGXGXGXaX",
"ZXDXCXdXsXVXBXiXNXuXCXVXDXCXVXDXGXDXDXDXSXmXqX!.#.>.R.$X X#XM.M.A.V.a.y.M.r.y.|.%X!.%X^ p.tXSXmXyXCXCXSXAXSXVXgXVXDXSXDXGXDXDXDXGXDXDXGXCXaX",
"CXCXVXCXBXdXgXBXVXiXiXdXBXVXVXVXSXZXSXkXyX.X XqX}./ V.|.p.A.W.M.V.V.B.k.y.y.y.,.y.e.R.R.qXlXqX1X-XZXmXSXZXDXVXfXVXVXCXDXDXDXDXGXDXGXGXDXVXCX",
"VXBXVXBXdXgXgXdXdXdXBXBXBXBXVXVXAXpXxXR.R./.%XeX*Xr.T R.Y.A.Z.M.y.E.B.h.k.k.y.y.R.e.T ~.eX XB.|.8X1X.XmXVXSXBXsXSXVXCXCXDXSXDXDXGXGXGXdXBXVX",
"VXaXVXVXBXBXfXdXuXBXdXaXBXBXBXDXtXR.R.~.9XqX~.R.|.W.[ k.V.C.A.A.h.B.V.k.y.y.k.e.e.[ [ %X~.R.k.k.r.A.1X.XmXZXZXaXSXSXSXCXDXDXDXGXGXGXVXBXVXVX",
"NXVXVXVXVXBXsXsXaXdXfXdXVXCXDXrX:.Y.lX0XE.R.k.E.k.|. Xh y.r.A.N.P.M.N.a.r.y.r.9.-.h $X2XW.k.B.A.V.A.M.*XR.yXaXSXVXVXVXCXSXSXSXCXDXGXGXDXVXVX",
"GXVXVXVXBXdXdXsXaXsXfXBXVX,XF.c.>.1.4XW.l.k.k.s.k.%X Xk k r.g.r.a.r.h.h.9.9.,.,.D s  X!.a.a.M.A.k.A.t.^ w..XMXZXCXCXCXVXCXCXSXSXCXsXfXVXVXVX",
"DXVXCXVXBXdXfXsXiXaXdXBX-XZ.3XwXQ.Q Z.A.~.y.e.R.B.a.{.|.h ,.t.K D k k k k W >.9.h / 2X!.c.M.b.A.A.k.V.l :.3X1XzXDXCXCXCXCXSXSXCXVXCXSXCXBXVX",
"BXBXVXVXBXdXfXsXsXdXBXXXc.$XlX2XA.9.%.Z.R.R.k.k.h.t.Q.$Xs A I s k d d h s s D k h >.*X|.Y.C.y.b.V.y.^ p.*X$X1X1XtXDXDXCXCXCXCXSXCXCXVXVXVXVX",
"BXBXVXVXVXgXfXdXfXuXXXp.$X$X~.R.M.y.l y.Z.h.a.a.p.:.K _ h k A f d d s v k d v s s P ,.Z.n.a.b.a.M.y.h %X XB.!.*XoXtXDXSXCXVXVXCXSXCXVXCXVXBX",
"CXBXBXVXVXBXBXgXfX;X1. X*XV.y.E.h.b.,.W M.p.c.&.@.k 9 s 6 4 d 8 w u 6 4 4 u d 4 9 0 > K @.1.b.a.t./  X Xa.B.B.W.&X:X6XSXCXVXCXVXdXCXSXCXVXCX",
"CXVXdXVXBXBXBXVX;X,. X XE.R.k.k.M.c.h.l ,.>.>.l : ; + X = A B 4 $ + # @ 2 J f 3 @ # X = s @.%.%.a.a.eXP.k.k.V.A.R.|.:XtXCXSXDXsXSXDXSXDXSXDX",
"DXCXVXBXBXBXVXNXw.Q.eXE.y.k.l.k.M.r.9 , > j k 0 %     X . : * O X X X X 4 %.I 1 X     X w / s A ,.R. XA.k.M.V.B.k.V.*X.XnXDXaXSXSXCXSXDXDXCX",
"CXDXVXVXBXBXVXrX[  X$XR.k.y.M.C.m.2.,   * w F w *       O . .         X 2 ` S 2 X     X w _ B 1 i -.c.k.a.a.b.h.M.w.R.qXF.iX'.SXCXCXDXCXDXCX",
"CXCXCXCXCXVXyX1.T ^ -.p.p.B.b.c.v.:., y * * = w o   . * O g 3 .         1 4.V 1       X f ] d 1   s -.p.b.k.a.b.y.r.m.oX2.mXiXSXCXCXCXDXDXCX",
"DXCXCXCXCXzX[.4X[ T / e.r.r.p.a.p.W p t 9 u g 0 > & , * c P g >   @ @ & f 3.F 6 # # # & L *.A 2 + @ h ,.t.9.t.a.>.:.-.=.:._.aXCXCXDXCXCXCXDX",
"GXDXCXCXCXxXZ.wX%Xk.T R ;.,.,.t.6.l y c 1.#.#.; o * . O ! u.u.P > D 7.g.j.6.A w F ` d.g.g.6.f f Q %.6.~ 7.t.t.6.[ / oXwX8XF.pXSXCXCXDXCXDXGX",
"HXDXSXCXCXyXn.8X!.qXM.B./ K ,.Q R / z t 2.w.=.z 9 7 9 9 j ! 9.s , R  .8.L.L.@.4.8. . .8.L.g.( 6.4.*.6.` L ] 4.;.k.eX2XR.R.qX_.CXCXCXDXDXGXGX",
"HXGXVXCXzX}.*XC.a.R.4XlXE.Q Z D R T a a x.=.n T c j j j j K ! s 9 Z ) { Y I d *.E E { | *.I f Y _ _ L Y S A A N.2X~.~.k.m.qXm.mXCXDXDXDXHXHX",
"GXGXSXSXtXW.<XM.M.h.W.[.2Xj.e k 8 v r a w.2.:.#.+.@.@.@.u.@.Q 0 9 9 3 V J J J d B m C e d J J B d f e 6 w B A 6.~.R.k.R.k.qXR.mXCXCXCXHXHXHX",
"GXGXSXSXcX@X!.a.M.a.h.P.~.;.V w a +.$.2.S.v.:.:.@.P :.1.m.n.@.K 9 * 5 $ 2 6.*.d + < # # J 6.I 6 $ + # + S L A ~ k.k.k.k.R.~.%X:XZXCXDXGXGXHX",
"GXGXGXMXkXqXR.k.k.k.E.A.;._ Z f O.a -X:X{.F.0.&.o.@.:.0.{.{.F.:.j * g X 8 g.*.6 + X X X S d.G 1 X X X X L %.f k e.y.W.M.p.A.eX[.xXDXSXDXGXHX",
"GXDXDX,X%X9XR.R.k.k.M.A.~ _ Q k n a 7X|.J &.0.@.:.v.o.z @X0X0X).b 9 y j 4 L.U e X   X X H f.G 6 X   X X *.%.s 8 W A.M.a.t.r.@XoX6XZXDXDXDXDX",
"GXGXDX-XE. Xs.R.r.,.y.b.I ' _ h O.u 3XY.: k &.&.v.).o.s @XcXvXOX:.a , . 0 J.) N       X Y H.) < X   X   %.*.h 0 D y.c.>.r.a.y.4X}.tXSXGXGXDX",
"DXDXCX6X;.,.y.e.r.1.n.;.L %.` k n u 3X>Xn.g.0.g.Y.0X<X@X0XlXFXlXoX+., . >.8. .q 1 = 3 8 } f.) 6 # 1 2 4 *.*.f 0 / r.9.>.;.6.;. XD.6XDXDXDXGX",
"GXDXZXMXQ.R T h -.#.&.I i.7._ k O.u >X8XoXP.n.OX<XhX0XlXhXcXFXvX7X<., O Y.U. .G 5.j.^.~./.K.{ E  .h.I.I.P.4.A L l l [ / %.,.,.A.p.,XSXDXDXGX",
"ZXCXzXXX+XeX~.T l g o.v I n.3._ 2.i XX8XhX8X<XhXhXjXlXcXvXbXbXvX7Xo.,   Y./.} K.K.U.K.U.%XK. .J.K.d.g.K.T.7.*.6.' s h T A.eXeXjXoXw.6XSXDXGX",
"GXDXMX|.h.E.~.qX>Xr.g k k I d N O.7 R.C.&.>.v.0XcXcXlXlXbXbXbX0X).o.p X.2.v.0.>.} 8.8.5.8.Y U q. .| | ) } m A ] Z s / 2XqX/.!.!.C.m.7XDXDXHX",
"GXDXMX XM.E.E.!.Q.>Xj u 0 2 S f x - z.c X X 5 0XvXcXjXcXbXbXbX+X<.x x x.X.. - c } N C N S Y Y B N C e m V C N q 0 0 / 2XR.R.y.A.A.v.6XHXGXGX",
"GXDXMX|.a.M.M.V.a.v.g $ X f _ B , t x x o.o.2.hXcXjXhX0XjX8X.XS.O.x X.(.v.z x g g g g g P @.g % X % % X ` 6.h 1 X * #.&XZ.M.y.P.Z.u.,XGXGXHX",
"DXAXpX Xp.M.E.B.r.i.v + X S *.h , - X.X.<.2.).0XjXhX<X@X:X|.S.O.x x X.S.x.c v z , * % % % % % % :     X 3.6.A =   % +.3XC.C.P.M.Z.u.6XHXDXHX",
"GXGXMX#Xb.M.R.B.h.b.v X X C *.h :   O o.$ C.@X>X<X-X0.a x c ....x <.z.z p p g p c b P b v v v v , ,   X 3.3.A < X o / 4Xa.r.P.Z.C.9.1XDXGXGX",
"DXJXGX#Xc.a.y.k.a.c.v + X Z ` B =   X c , $.v.x.v.v.o.p p ....<.<.<.n y p p y u j v v c v c g p u , ,   } 3.S # X X -.4XC.w.a.c.a.>.,XGXDXGX",
"GXJXZX}.;.r.e.,.b.r.j 5 8 ( _ V 6 2 4 @.r r ..r r r r r r ..x.(.(.o.t , p 5 > y j 0 u j s y 5 y g z * c 5.3.S 1 1 1 / qXA.w.a.a.w.-.,XDXGXDX",
"GXHXMX!./ r.a.;.,.#.I :.9.d.] N V } f.n.r ..<.z.z.<.z.z.<.<.x.z.X.y p , 5 s i 5 9 9 9 i i 9 5 5 y 9 9 i k A V Z | [ R 2XM.y.A.w.:.#.,XDXGXGX",
"GXSXxXR./ 9.p.[ ,.^ g I *.7.3.` q.q.q.0.- <.(.(.(.(.(.(.x.(.z.O.i y 5 9 5 u y 0 9 i 0 9 5 9 y 5 9 0 7 9 O s _ 3.| [ Q !.e.[ w.T ^ Q -XDXDXGX",
"DXSX|.^ / ^ ^ D W v g J f A q w H H } &.- (.5X5X5X5X5XrX(.<.x t , 0 5 9 9 9 3 9 9 9 9 i s u 9 9 9 i i > > u 5 3 & Z l Q R R T T W T ;XCXGXGX",
"GXSXMXqXwXwX2XqX>Xr.b 5 8 4 B N 6 d w v - m.6X7XrX7X5XXXS.o.p y 9 u 5 k K v g n P b @.P g i y u b &.1.:.b i . ; i 9 n 3XwXwX4X2XwX[.,XaXCXDX",
"GXGXZX*XE.Q.~.~.P.9.b + + e ` B < +   , - C.8X<X<X<XOXY.0.2.u 5 i i i @.@.9.1.9.Z.C.c.1.@.i 0 y &.[.&X@X0.P u 5 9 o j 4X{.Q.I.E.!.M.6XCXCXDX",
"DXDXZX$Xp.r.B.B.u.9.v X X Z *.f :     . s p.:.>X0X0X*X).o.J w I P 0.F.@X:X3X>X<X<X<XXXD.1.b k p 9.D.@.>.oXD.:.g , O n 1Xv.u.l.K.N.v.6XGXDXCX",
"GXSXMX Xk.m.M.k.h.u.v X X C ` h =       X 6., XX0X@X@X@X6.J J &.C.C.).3XhXkXwXhX7X3X{.[.F.P d u 2.C.5 g oX[.2.g ; 7 :.8Xv.m.P.l.P.c.,XGXDXaX",
"DXSXMX[.p.M.a.a.,.r.v + + V ` N &       + u., oX{.d F.<X@X{.b.Q.|.J = 9 y u u y y , > 1.C.$.I b n.XXp X 5 9 : * j 9 / wXR.m.k.l.M.u.1XDXSXHX",
"DXDXFX}.r.r.e.r.p.a.P 9 e ( _ f 8 1 s D E u.; :X(.X o.{.8X<X{.Y.n.$.K I P K :   u ,   c :.&.@.o.0.v.~ J ! I j g / h ^ qXR.p.a.M.a.1.:XHXGXHX",
"DXHXFX|.,.r.,.y.Y.b.P &.;.q.3.C E  .8.P.^.p., oXY.@ o 9 [.:X&X:.: L.{.@X*X{.P , C.:.. X * &.0.u.j 3 I.+X{.Z.i.d.N.' ' wXE.y.r.w.r.>.,XHXHXGX",
"GXHXZX!.^ ,.a.,.M.i.g P _ 9.} G  . .8.q.g.C.= &XY.X   * XX7XoX$.* I./.T.{.OXP > F.1.. . % &.v.F.b : L.I.{.Z.g.l.s.] ^ %Xs.[ p.2.1.1.1XHXHXDX",
"GXJXcXR./ [ [ e.p.W v g k f w q H G S Y *.&., :XY.X * y Q.>X.X#.% n.L.L.n.n.b y [.w.o o 5 &.D.XX+., 0.L.0.0.0.Y G B Q Q.4.;.-.#.#.%.:XHXJXSX",
"BXDX#X+.h T R ^ W j v 3 : w f B 4 6 d d w %.9 :X{.X I q.P ! :X:.% 0.6.0.0.y v.XX:Xm.o I 0.i &.0Xw.* 0.3.0.6.I q 6 w h ^ Q l Q l W P -XKXDXgX",
"gXVXmXqX2X9XeXqXoXr.v X X J U f :   X % i c.:.8X[.: @.I 9 j :X1.; o.v v &.o.v.[.[.:.p &.n.5 o.hXv.O o.P n.g.S = X @ &.3X8X4X4X9X0XQ.:XDXSXVX",
"GXDXNX-XR.~.E.E.Z.-.j o X k Y A :     a , [.8XFX@X. n @.9 b 1X2.- o.n P 0.T.o.; O c +.P g.i o.kXv.* $.n n.n.A $ X O #.3XR.W.I.E.W.c.,XSXSXHX",
"GXGXMXXXk.R.k.R.b.-.k X X A ( e :     7 +.u.C.c.2.n b +.u.[.lXv.% o.n n 6.^.q.&.+.O.O.! :.v.{.cXv.. o.v g.3.A =   O =.2Xm.r.y.k.C.9.:XDXSXGX",
"HXGXmX#Xk.y.k.k.M.r.k X   f _ f =     * k =.  O b P c 5 :XcXjXC.5 o.n o.7.T.L.6.c n n n 5 :XvXcXv.; @.A ] 4.V #     ^ qXR.m.V.l.A.y.,XDXHXHX",
"GXGXmXXXk.k.k.y.i.p.l u k _ ( e 1 8 V U 3.n.N.-.%.7.a.y.:.T P &.;.t.g.N.U.T.L.6.>.1.u.a.Z.:.b b &.9.0.f.7.` f 6 q h [ qXy.R.W.M.c.1.-XCXDXHX",
"GXGXpX|.k.R.e.y.c.9.l ~ 9.6.] A F 4.q.J.T.^.j.s.n.I.~.~.>.j s 9.U.^.^.OX@XOXn.n.Y.^.^.{. X=.u u 0.^.^.U.U.q.H ) ' ' ^ 2Xl.y.c.C.u.>.,XDXGXHX",
"GXGXpX_.a.M.r.a.c.u.k b I 6.L L } 5.5.5.f.T.| 8.U.I.I.I.I.OXj.P.T.T.I.T.{.{.L.I.T.T.^.Y.{.T.n.I.U.8.8.8.L.| U 5.| E Q 2XN.r.p.w.w.>.-XSXGXHX",
"GXGXnX[.-.t.r.,.c.:.g g d f 6 q S B S L S H m E ` ) J.J.J.g.0.N.K.L.P.L.n.n.g.P.Y.L.L.g.g.3.C ) G ) { C H N m S E h [ <XN.6.a.,.>.>.1XGXGXHX",
"HXHXpXF.^ -.[ [ :.b s : : d f w 6 2 5 4 6 F G C w d q 6 M  .6._ D Q @.~ ;.s.0.` _ I I N J Y ) q 0 0 0 4 N H N 4 > > ^ [.i./ 9.[ K ~ -XHXGXGX",
"GXHX=X#./ W T R ! k j + X d L B = X .   + } 8.C = O X + < q.q.B @ X X X w s. .q + $ X + Y G.3.6 o     + Y | B 1   > h / n K ' Z Q W -XGXGXHX",
"GXHXyX5X2X%X4X2X@Xi.k X X A I f :   O o + 5.5.V : . . $ < K.5.B & o . o e j.| e @ O . + } J.H w   . O o *.] N :   * ^ :X>X&X@X2X%XC.-XGXHXGX",
"KXNXyX.Xy.y.k.R.M.1.P * X h U f 1   . o # 7. .F 2 . : + < J.3.B & @ o o e L.) e & o % + Y J.Y 6 % * O X 4.*.f 3 . : =.>XC.c.y.8.C.>.-XGXGXGX",
"AXAXxXR.,.,.,.r.p.1.k + X h L e = @ + + < 3.4.Z 1 & # + q J.8.B = & @ # B J.| N 1 # & & G q.} q # & # & *.*.e 1 + & Q >Xw.-.>.1.w.-.-XHXGXHX",
"BXSXxXR.[ / ,.,.>.-.K k k _ L e 8 e L *.6.g.| M V E | f.f.J.3.N S ( 4.q.J.J.} N Z [  .8.K.f.R e Z ) | 5.0.&.e q M A ^ $X7.,.1.2.:.~ #XDXSXaX",
"HXGXyXm.#./ / -.-.&.b ! %.0._ V H | 7.g.L.~.4. .q.J.L.U.^./.8. .f.K.K.U./.^.6.5.f.K.K.U.+XU.} 5.8.J.K.K.^.7.H ( *.*.I  X6.r.1.1.=.n XXCXaXuX",
"HXHXyXw.! &.Q ! ~ ^ k l D *.L M ) ) ] 6.7.j.} } G.q.f.j.f.^.) 8.q.8.H.H.K.L.U g.8.H.G.H.P.g.) f.8. . .8.f.) H } ] L _ @X;.-.:.:.#.v `.uXiXGX",
"GXHXyX1.b / ! b @.! s s 3 s q w m V f A f E C S Y Y G E R E S Y ) H G E G H A _ { G G Y U L C U E Z Z Z Z f f A A f ~ oX#.b ~ #.+.c `.].DXGX",
"GXHXzXu.j K k l W b i 3 : w f q 1 q w u w A G C m B C e Z Z ` N m V V S C E ` f M e V N Z ` U e h e e e A S e 4 8 8 Q !.~ j c j n g =XsXSXGX",
"GXHXtX=.j k j l l v i 9 3 A D f 8 h h l D 3.3.C S L L Q ( j. .C Z I Q L 3.g.3.f Z ( Q F 7.g.Y N Z Q Z D *.&.V s h l ! c.^ j c c c g XXDXDXDX",
"HXHX.Xj i k j k j b k 0 0 D L w 0 h l T L 0.4.N L _ / / [ j.3.N Q _ _ %.6.f.3.f / [ / Q 8.d.H k Q Q I D 6.*.s f h j i W c i j z z a =XHXKXHX"
};
