/* XPM */
static char *_1116_f040a201b6c74f5cc531cb190ed58dc21f78cdc418c508d311dde706f5c59f91[] = {
/* columns rows colors chars-per-pixel */
"70 70 241 2 ",
"   c #010101",
".  c #0B0200",
"X  c #050804",
"o  c #0A0905",
"O  c #03030A",
"+  c #08060A",
"@  c #0D0D0B",
"#  c #120300",
"$  c #130A01",
"%  c #1B0C03",
"&  c #190B09",
"*  c #12120D",
"=  c #1B120B",
"-  c #1D1408",
";  c #0A0C10",
":  c #151512",
">  c #1B1412",
",  c #171813",
"<  c #1A1B16",
"1  c #1C1D19",
"2  c #210D03",
"3  c #220E0B",
"4  c #26170A",
"5  c #23130C",
"6  c #251814",
"7  c #2C1C13",
"8  c #351D16",
"9  c #1F201B",
"0  c #35200F",
"q  c #22231D",
"w  c #2C2419",
"e  c #352214",
"r  c #34251C",
"t  c #3B251C",
"y  c #34291E",
"u  c #3B291A",
"i  c #252521",
"p  c #2B2B25",
"a  c #2C2D28",
"s  c #342B22",
"d  c #362B27",
"f  c #3C2C24",
"g  c #2F302A",
"h  c #343324",
"j  c #3B3226",
"k  c #34342D",
"l  c #3B332B",
"z  c #3A3A28",
"x  c #3C3A2C",
"c  c #353531",
"v  c #3B3833",
"b  c #3B3B34",
"n  c #412C1D",
"m  c #482B1B",
"M  c #4B311D",
"N  c #432E23",
"B  c #432E28",
"V  c #443224",
"C  c #4A3325",
"Z  c #4B3B26",
"A  c #43332A",
"S  c #4B352B",
"D  c #433B2D",
"F  c #4D3B2D",
"G  c #55382A",
"H  c #523C2C",
"J  c #433C33",
"K  c #463A36",
"L  c #4B3C33",
"P  c #523E34",
"I  c #5C3E33",
"U  c #3E4031",
"Y  c #59412C",
"T  c #444335",
"R  c #4B4235",
"E  c #43443B",
"W  c #4B443B",
"Q  c #494939",
"!  c #4B4A3D",
"~  c #534335",
"^  c #5B4336",
"/  c #56473B",
"(  c #5C4B3C",
")  c #6E4E34",
"_  c #664B38",
"`  c #644C3C",
"'  c #69523C",
"]  c #484741",
"[  c #4A4B42",
"{  c #544D43",
"}  c #554945",
"|  c #5B4C43",
" . c #4E5142",
".. c #535244",
"X. c #5B5345",
"o. c #595846",
"O. c #555449",
"+. c #5A564B",
"@. c #5C5B4D",
"#. c #5D5C52",
"$. c #5B5C56",
"%. c #644E42",
"&. c #655245",
"*. c #6A5443",
"=. c #6A554C",
"-. c #675949",
";. c #6C5B4C",
":. c #755947",
">. c #735C4B",
",. c #625E52",
"<. c #6A5C54",
"1. c #745E53",
"2. c #5E6255",
"3. c #62614F",
"4. c #79644C",
"5. c #646355",
"6. c #696656",
"7. c #6A6956",
"8. c #65645A",
"9. c #6A665B",
"0. c #67685A",
"q. c #6C6B5C",
"w. c #756353",
"e. c #726D5E",
"r. c #7A6858",
"t. c #6E705B",
"y. c #73725E",
"u. c #6D6C62",
"i. c #696A64",
"p. c #726E62",
"a. c #786E6C",
"s. c #6F706A",
"d. c #747364",
"f. c #787665",
"g. c #7A7966",
"h. c #767469",
"j. c #78756B",
"k. c #767968",
"l. c #7C7B6B",
"z. c #6B7373",
"x. c #7D7D71",
"c. c #777C78",
"v. c #85674D",
"b. c #846A57",
"n. c #8C7459",
"m. c #917456",
"M. c #887567",
"N. c #8D7766",
"B. c #817E6C",
"V. c #817F72",
"C. c #7F816D",
"Z. c #7E8177",
"A. c #82816E",
"S. c #97816A",
"D. c #848374",
"F. c #868779",
"G. c #8B8B7C",
"H. c #968C7C",
"J. c #91907C",
"K. c #A9927E",
"L. c #7D8985",
"P. c #7590A1",
"I. c #7DCFF8",
"U. c #898B85",
"Y. c #948E82",
"T. c #8D9188",
"R. c #949384",
"E. c #93958A",
"W. c #989888",
"Q. c #9C9B8B",
"!. c #8D9795",
"~. c #979C96",
"^. c #A29B8C",
"/. c #A99F8F",
"(. c #9CA298",
"). c #A2A18F",
"_. c #A4A293",
"`. c #A6A799",
"'. c #ABAA9D",
"]. c #B0AE9F",
"[. c #8E9DA1",
"{. c #959EA1",
"}. c #9AA4A4",
"|. c #97A8AC",
" X c #A4ABA5",
".X c #A7AAA4",
"XX c #A5ACAC",
"oX c #A9AEAC",
"OX c #B1AEA3",
"+X c #ABB1A8",
"@X c #ACB1AE",
"#X c #B3B2A4",
"$X c #B7B5A8",
"%X c #BCBBAC",
"&X c #ADB5B5",
"*X c #B8BBB4",
"=X c #C0BEAF",
"-X c #C0BEB3",
";X c #BEC2B8",
":X c #C4C2B5",
">X c #CBC8B5",
",X c #C7C7BA",
"<X c #D1D0BD",
"1X c #B5BDC0",
"2X c #B9C5C7",
"3X c #BDCFD8",
"4X c #80CEFA",
"5X c #8DD5FD",
"6X c #97DAFD",
"7X c #AADBF7",
"8X c #99E0FF",
"9X c #A5E3FF",
"0X c #ACE3FE",
"qX c #B7E1F0",
"wX c #B4E5FE",
"eX c #BBE7FE",
"rX c #BDE8FF",
"tX c #C5CBC4",
"yX c #D7D5C4",
"uX c #C3CED3",
"iX c #C6D4D9",
"pX c #D2DCDB",
"aX c #CADDE6",
"sX c #CBE1EC",
"dX c #D8E6EB",
"fX c #CAE5F8",
"gX c #C5EAFF",
"hX c #CCECFF",
"jX c #D4E9F3",
"kX c #DCECF4",
"lX c #D3EEFF",
"zX c #D9EFFD",
"xX c #D9F0F6",
"cX c #D6F0FF",
"vX c #DBF1FF",
"bX c #E4EBEE",
"nX c #E2EDF2",
"mX c #E3F4FF",
"MX c #EAF6FF",
"NX c #ECF8FE",
"BX c #F3F9FF",
/* pixels */
"mXmXNXBXBXNXBXNXMXMXMXmXMXmXmXzXmXzXmXvXvXzXzXcXwXhXcXvXmXmXmXzXzXzXcXcXcXcXcXlXvXvXcXgXhXhXcXcXcXcXcXvXvXcXcXvXvXvXvXvXvXvXmXmXwXhXrXvXvXNX",
"MXmXmXmXMXNXMXMXmXhXMXMXMXMXMXmXmXMXmXmXmXvXzXlXzXlXvXmXmXmX X!.U.!.U.Z.(. X2XlX6X0XeXeXgXeXeXhXcXcXhX5XhXcXzXcXvXvXvXmXmXmXlXlXmXmXmXNXNXmX",
"vXI.wXmXmXvXzXmXMXmXzXvXmXmXMXmXMXNXNXmXzXvXvXlXzXvXnX~.E..X#X>X<X<X:X).`.%X#X@X X;X;XjXhXvXvXhXhXhXgXgXgX9XNXNXcXvXgXvXvXvXcXcXmXmXmXmXvXMX",
"hXzXzX0XmXMXmXmXmXmXmXmXzXlXlXmXNXmXzXmXmXzXzXuX}.1X!.u.`.OX_.Q.`.#X).A.A.C.G.#X#X;XL.!.~.aXhXcXhXhXvXhXgXgXgXhXcXcXcXvXvXhXNXmXmXvXmXvXMXcX",
"zXvXvXcX5X6X6X5X5X5XmXgXzXzXhXhXmXzXzXzXvXaX2XF.E +.D._.W.).y.f.j.l.q.q.f.5.0.R._.Q.`.( 5.,XxXsX3XcXlXlXxXhXhX6XcXcXcXvXvXvXvXmXvXvXmXmXzXwX",
"cXhXhXrXwXrXeXrXfXeX5XgXhXhXhXlXhXlXzXiXuXT.E.;XY.! C.J.7.g.A.f.l.l.k.d.q.0.7.@.t.7.y.y.>X<X;X].(.lXsXhXcXvXxX8X0XhXcXvXvXcXvXvXmXmXmXvX4XzX",
"hXhXgXhXgXrXrXeXeX0XgXgXgXgXhXhXlXaXiXs.j._.#X<X'.3.U C.A.B.g.y.0.l.k.q.f.q.7.7.t.7.T J.>XJ.g.W.;X+X!.sXhXcXlX9XhXcXcXcXvXvXvXmXmXmXvXhXhXhX",
"hX0XhXhXgXeXwXrX0XeXeXhXgXgXgXzX2Xz.j.W.*X%XW.y.W.D.( y.g.f.B.f.q.g.f.y.0.7.f.3.3.! ( ).Q.C.y.d.7.k. X(.sXcXxX9XhXcXcXcXcXcXvXvXmXmXmXcXhXhX",
"gXzXhXhXhXeXeX6XwXwXeXrXhXhXmX1X .F.tX>XC.k.y.C.y.J.W.x 5.8.l.f.g.f.f.0.8.0.3.5.o.h (.%XG.q.f.C.g.l.e.`.L.3X5XcXhXhXlXlXcXlXcXvXmXmXrXlXhXhX",
"hXcXhXhXhXeXeXwX0XwXwXrXgX@Xz.u.o.o.%XF.t.C.t.7.y.W.).s x #.i.8.u.2.8.0.#.#.@.2.h h W.A.3.e.k.g.y.l.7.Q 2.!.dXzXcXcXhXhXlXlXcXcXcXhXhXlXhXhX",
"rXhXhXhXeXeXwXwXwXwXwXrX Xx.$X,XF.U C.l.A.y.5.C.C.t.W.Y.x +.8.b K k b J k T O.#.h ..].J.y.y.7.B.A.y.l.x O.+X@XpXvXvXcXcXlXlXlXzXlXhXzXlXgXhX",
"cXgXhXhXgXrXwXwXwXwXeX~.i.`.yX$XC.@. .f.l.l.C.7.5.q.V._.h v W q $   . o 6 J T k h +.`.W.A.g.6.q.g.7.Q 5.'._.#X+X3XvXxXlXlXlXcXlXlXhXlXvXlXhX",
"hXrXhXhXhXeXeXwXeX5X~.9.^.).R.l.d.5.z 7.l.p.e.6.7.X.R ..| K j 7 w f A D L K s 7 j h +.a.j.i.i.a.d.7.j _.).f.F.`. X2XcXzXlXhXzXcXvXcX9XeXhXhX",
"cXrXrXhXgXgXeXgXrX|.$.Q.'.g.e.A.p.q.@.T p.p.<.+.W J R L | <.L f F ~ ~ | 6.X.A f K K K W ] <.a.u.0.W ^.^.q.y.f.D.`.}.2XcXcXhXgXlX6XlXcXvXeXhX",
"vXgXrXhXhXgXgXhXXXO.Q.Q.A.B.t.y.p.p.d.J ,.} } L l A L L P W 7 ~ L F P P P A f L W L L J f K } } p.q.>XB.d.y.l.g.C.Q. XiXcXcXmX8XhXvXcXvXhXcX",
"cXcXcXgXgXgXhXgX$.F.,XD.7.f.y.y.p.h.i.} } s l d s d d r s f e t f r s t r t r r r d s f 8 d f j +.D.Q.l.p.d.l.k.y.k..X}.sXmX5XvXlXlXvXcXzXvX",
"cXcXcXgXgXgXhX2XO.~.`.C.0.t.s.f.h.9.6.+.s s J w 5 3 3 3 3 A A 7 4 & > = 7 A f 7 6 & > = 7 A d 7 s #.8.i.z.i.s.p.p.,.D.;XL.7XgXlXlXzXcXcXvXzX",
"zXcXcXhXlXhX3X$.U  .o.2.0.t.h.u.2.i.O.6 # L W r 3 . # O % | N t o     . 6 ( F 7 . O   # f | B 5 . q #.i.,.i.s.u.9.6.y.W.@.qXeXlXlXlXlXzXcXlX",
"zXcXcXcXlX3XT.uX .U Q @.u.2.0.u.u.[ 9 . . ~ L f @     . $ ( R s .     . 5 %.C 7   +     B %.N 5 .   p +.8.i.9.5.+.o.o.( O.U.zXzXlXlXzXlXzXcX",
"mXvXhXlXlXiXZ.pX;XC.U U o.2.! 8.@.9 X   . / ^ u >       % -.F 7 $       7 &.H 4       . f | j 6 . .   s 5.,.5.6.{ / Q.:X*Xc.jXlXlXlXzXzXcXmX",
"MXvXlXlXlXuXx.tXF.;Xk.C.E T @.! 7 o   O # I ^ N @       2 ( P f # .     8 / H e .     # N %.A 4 . . O $ e ! ,.R e.yX$Xj.V.-X{.lXlXcXvXvXmXmX",
"MXmXlXlXuX!.OXh.f.Z.$XyXD.Q R y w j K } 1.1.P n f ! X.-.4.>./ t N ~ -.<.e.;.S 8 D Q ;.w.:.*.V e C P ( X.-.J z D.#XG.J.d.j.-Xz.sXzXcXcXvXMXMX",
"mXmXzXlX2XY.&Xy.q.q.F.T.$X8.j D R Y %.=.p.N.&.( ;.' 4.4.y.N.^ %.*.;.;.w.M.M.X.` 4.' 4.4.N.r.^ %.&.;.<.&.7.{ s o.J.f.p.D.a.$XV.sXzXcXvXvXMXMX",
"mXMXzXzXdX.XG.7.f.0.q.l.Y.X.w u Q Y I ` I ;.S ~ ' ' _ ' ( 4.N _ ' ' ` ` &.=.f ` ` _ _ _ :.^ N %./ / R | | j s ! d.f.f.k.h.Y.OX@XcXcXvXNXmXmX",
"mXmXmXdXaX;XG.k.t.k.Z.l.+.j w r u u u C N f N C S C C C C j C C C C N S S N C C S B C C C N B B A B B s s r s h +.s.Z.k.0.k.<XG.aXvXvXmXmXmX",
"mXvXmXXX+X;XC.C.k.t.9.l.! r A j - - 5 - 4 V ( N 4 4 4 2 e P ( n 5 7 & 3 8 I I m > 6 > % n ` P t 3 3 & 3 A J p y E t.k.2.0.2.).Q.&XvXcXvXvXvX",
"vXmXvX}.G.).t.C.0.2.0.h.J { L r > .   . . 4.^ Z 3 O + . $ r.~ A $   + . 8 b.G 8 O O O   L 1.H 7 . + . . P } f w U q.8.2.3.7.t.#XT.2XvXvXmXvX",
"mXvXlX&X3.3.7.3.@.O.j.| j F R A >   O . # ' ' Z > O O . % w.&.N o   O . t v.Y m O O O   S 1.S 8 . . . # / } d 7 U 2.0. .o.3.o.J.j.&XvXvXmXvX",
"mXzXlXdXE.! U U ! O.#.K & j ~ y =     . # *.4.n & O   . 2 w.=.t o o     0 v.) 8 o   O   L b.^ 7 . . . . P %.N % . x O.! ! o.o.C.q.XXzXvXvXmX",
"vXzXiX~.+XpX'.U T h l l $ A P j q . . . 2 :._ H 5 . . $ 0 b.` H % . % $ m b._ m % o . % H 4.^ e # . % 2 I _ B 5 % j p T C.,X<X<X(.$.&XcXvXmX",
"vXmXdXE.k.G.(.pX2Xk.h l X.| P u 0 T ' w.M.b.*.Z H ' v.n.S.n._ m Y ' r.N.S.b.~ m Y :.m.m.S.v.G M Q -.r.r.b._ n n f l { oX:XW.F.D.x.i.&XzXNXMX",
"mXvXjXW.y.G.J.(.(.2Xx J / e.=.P ' ' w.;.M.^.>.;.b.v.m.m.S.K.4.4.n.4.n.n.W.Y.;.w.v.m.v.m./.N.;.4.r.7.4.r.N.1.I &.| R ! #XD.k.y.C.j.9.&XzXmXmX",
"mXvXbXE.e.y.h.x.s.h.d c K K A u P I ( | | 9.J | :._ :.:.:.b.A &.:.' :.*.1.<.K <.) :.) ) r.| L =.%.%.&.} =.N S / L J / OXd.d.q.j.h.8.XXBXmXmX",
"mXmXqXW.6.f.V.j.5.q.k 7 w s t n n N f B l A A S G I M G C S L S Z H G S S K A K G M Y G D S S B K d B B B N N t f y W #Xh.u.x.j.j.8.@XmXmXmX",
"mXNXkX`.e.h.D.j.u.q.x > & r A N 3 2 # 5 5 L =.A 4 3 2 2 7 ^ %.A - 2 2 5 8 =.} B 7 2 2 2 N *.` 8 5 % & 3 B P A 5 $ - ! $Xp.5.k.h.h.,.@XvXvXvX",
"mXhXvX`.e.9.0.u.u.q.j . O c R f 5 . . . # =.=.S 3 # . . % M.%.N %   . . 8 b.%.8 . . . # H w.I 8 . . . . } | A 2 . # ..%Xh.,.0.h.9.@.oXmXmXmX",
"vX4XnXE.+.5.,.#.0.2.x X . j P s >   . . # =.%.L = . . . % r.%.m $     . 8 b.I 0   O   . I :.G 8 . . . . } | f & . $ ! =Xf.5.p.q.,.{ XXvXmXmX",
"mX6XdXE.! 5.e.+.8. .j o   j L s :   . . # =.=.S =       - 1.%.S X X     r v.Y m + O     G v.I 8 .   . . K } f =   . Q $Xf.,.l.@.+.[ XXvXmXzX",
"mXcXiXZ.{ @.0...+.b s . . v / s <     . # ;.1.l >       - f.' f o X     e n.) 0 O O O   C b.^ 7 .     . } ,.d = . $ Q G.5.o.6./ ! E }.vXzXmX",
"mXvX!.! W Q ! U T z k X O K #.J *     . . M.M.R *     X = Y.M.V o     X j K.4.n O O O   X.K.;.7     .   s.p.v & . o z x T T z T T J |.MXzXmX",
"mXvXdX2XtX:X%X:X+X2.x o   . W T   O       $ B.A     O     5 H.4         . y H.#         . ` p..         . ,.K .   o ! #X:X:X%X$X,XU.XX0XmXmX",
"mXvXjX+XJ.G.R.R.C.@.h X .   % $ O         . > o .         . 6 .   . O   .   4     O       o >         X   > o   X o  .$XW.F.B.A.G.h.@XmXgXmX",
"vXvXkX_.7.5.p.h.8.0.k o O               X     X       O   .   . .   .             .     X       X   O X           o ! #Xe.6.y.B.a.9.@XmXzXlX",
"mXhXbX(.q.e.d.q.0.0.k X     . X   O         X   .   O       .   . .   .   X X     . .     X X           . O .     $  .*Xe.e.f.f.B.i.@XzXzXhX",
"vXvXkXJ.7.d.e.0.2.@.c X           O         O           o         .             .   .                             @ [ :Xl.h.p.d.p.8.@XmXvXmX",
"MXmXnXJ.3.7.,.5.t.0.b X +               +               + O   +   X     X X   X   O .   X             O   O       X ] :XV.u.q.p.6.,.XXMXmXMX",
"vXmXnXW.o.-.,.5.k.s.c           X       O   O                       O X   X       +       O               .       X [ -Xx.5.6.-.8.+.XXMXmXmX",
"cXNXnXG.Q ,.q.5.k.8.k +   O           O   O O         X O   O             X   X O   O .       O                   X ] .X6.+.p.+.#.,.oXMXMXmX",
"lXNXpXk.! ..o.,.5.Q g     O                                                                                     X X U G.O.+.o.! [ ..XXmXmXxX",
"MXmX(.Q x D J Q J z x o   O                                                                                 O     o k T Q z T J K K .XmXNXlX",
"hXhXsX2X:X*X:X%X`.,.p X O                                                                                 O     X o ..OX:X=X$X%X-XU. XlXhXlX",
"NXxXkX+XV.G.G.D.y...x @                                                                                           X Q %Xf.D.D.A.V.i.XXlXzXmX",
"mXvXkXW.d.C.h.j.d.@.k o   O                                                                                     X @ +.$X7.e.e.7.h.,.XXzXzXMX",
"mXmXjXQ.y.q.p.h.d.@.k @ O                                                                                       X X ! %XB.p.f.l.l.i.XXzXMXmX",
"mXmXkX(.d.h.k.0.6.5.c X   +                                             O                               O         X [ *Xf.d.j.l.u.@. XvXmXmX",
"MXmXjXE.f.g.,.8.7.5.k o       O                                                                                   o W '.l.e.d.p.9.+.}.zXMXmX",
"mXmXdXF.q.d.5.0.e.5.k o                                                                                           o ! $Xd.q.8.,.,.O. XzXmXMX",
"MXmXkXT...8.9.#.6...s o O     O                                                                                 X o [ #Xd.O.0.O.+.#.oXzXmXmX",
"mXNXdXC.Q !  ...@.T p                                                                                             X T J.0...,.+.T !  XmXmXMX",
"mXmX(.O.+... .[ T h h o     O X     X           O     X O   +     O X X   X O   X O       X       X       O       * k E x Q K J E K {.MXmXMX",
"MXmXpX2XuXuXiXiX2Xd.b O O       O X X X X X   X o o o X X + o o o o o o o O o o o o X + X o O X X o X o O + + X X o  .`.'.`.^.$X`.h.}.mXmXmX",
"MXgXdX(.l.k.F.U.D.,.b o O O X + X X . @ o @ @ @ @ @ @ @ * @ @ @ @ @ @ @ @ * @ @ @ @ @ * @ * o @ o o @ @ @ ; @ o o , ] '.h.9.e.6.h.$.[.mXMXmX",
"cXrXpXZ.#.,.@.5.#.@.v o O + @   @ o @ * * * = : : , < : : : , : , , , : : , : , : , , : , : : : * : : * : ; * @ @ : E OX,.{ @.} ,.{ }.mXmXmX",
"8XvXpXC...! +.2.+.+.c : @ @ @ * * * : : : , , < 1 1 1 1 1 1 1 1 1 1 1 1 1 1 1 1 1 < < 1 1 < < 1 , < , : , : , * * 9 [ _.+.,.#.#.+.E [.mXzXeX",
"mXmXpXi.! [ ! } } [ v : ; ; ; : : < < 1 9 9 9 9 i 9 i 9 i 9 i i 9 9 i 9 i 9 9 i i i 9 i i 9 i i 9 9 9 9 9 9 , , , q T W.@.@.O.2.[ b [.zXhX0X",
"MXmXuX,.E [ W ! [ ] v : ; 1 < : 1 9 9 9 9 i i a a g g g g p a a a g a a a a a g i a a i a a i i i a i i 9 i 9 i 9 p ! (.@.o.O.O.[ b P.7X0XMX",
"mXmXuX$.b [ K b ] v c < : 1 1 9 9 i i a a a g c g c c c g c g c c g c g g U g g c c U g g c g g g g g g p i p i q q ] !.U U E ! ] c {.wXBXmX",
"mXMXpX$.k b v b E v g > 9 9 9 i i a a g g g c c c b c b U U c b b b b b b b b b b c U b b b E c c c g c g g g g g q E T.[ k c b b g |.hXBXvX",
"mXMX2X[ k k k x v c g 9 9 i i p g c c c c b b b E E E E E E E E E E E E E E E E E E E E E E E E b b c U U g U g g a b z.] g c g c a {.wXmXmX",
"MXmX!.k p k l x c c c i i p p a g c c v b E E E ] [ [ [ [ ] ] [ ] [ [ [ [ ] [ ] [ ] ] ] [ ] ] E E E E U U U c U U c g b g i U U c a ~.zXBXmX"
};
