/* XPM */
static char *_5269_52f42f45e89b7add782b0aedfbc1f684fb3236c75da65028fc1eb1abb10a4b87[] = {
/* columns rows colors chars-per-pixel */
"70 70 202 2 ",
"   c #050C0F",
".  c #080C0E",
"X  c #050D10",
"o  c #0B0F12",
"O  c #071416",
"+  c #0B1215",
"@  c #061419",
"#  c #0C161B",
"$  c #051A1B",
"%  c #0D191D",
"&  c #101415",
"*  c #11171B",
"=  c #131A1D",
"-  c #191D1E",
";  c #1E201F",
":  c #061E20",
">  c #0E1B22",
",  c #131D22",
"<  c #191E23",
"1  c #131F28",
"2  c #0C2224",
"3  c #0F2429",
"4  c #152225",
"5  c #1B2225",
"6  c #15232A",
"7  c #1B252A",
"8  c #162A2A",
"9  c #1C2A2D",
"0  c #16302F",
"q  c #1A2730",
"w  c #152A31",
"e  c #1D2C32",
"r  c #1E3233",
"t  c #1D3539",
"y  c #222525",
"u  c #292826",
"i  c #21262A",
"p  c #232A2D",
"a  c #2A2C2D",
"s  c #322E2D",
"d  c #2E312F",
"f  c #232D32",
"g  c #2A2E31",
"h  c #232F38",
"j  c #233335",
"k  c #2B3335",
"l  c #233539",
"z  c #2B353A",
"x  c #243A3C",
"c  c #2B393D",
"v  c #323435",
"b  c #32363A",
"n  c #333A3C",
"m  c #3C3D3C",
"M  c #283641",
"N  c #2C3B43",
"B  c #2E3E4A",
"V  c #333D43",
"C  c #3A3E41",
"Z  c #323F49",
"A  c #274140",
"S  c #2D4244",
"D  c #2E4349",
"F  c #2E4A4A",
"G  c #344145",
"H  c #3C4244",
"J  c #3A4847",
"K  c #34434B",
"L  c #3B454B",
"P  c #344C4C",
"I  c #3B4B4D",
"U  c #35504F",
"Y  c #354552",
"T  c #394751",
"R  c #354C51",
"E  c #3B4C52",
"W  c #3E4F5A",
"Q  c #355152",
"!  c #3A5253",
"~  c #424445",
"^  c #41464A",
"/  c #424A4E",
"(  c #494B4C",
")  c #434D54",
"_  c #4C4E50",
"`  c #425355",
"'  c #4B5256",
"]  c #45535C",
"[  c #49555D",
"{  c #4D585E",
"}  c #50565B",
"|  c #555A5E",
" . c #465761",
".. c #4C5B64",
"X. c #4C5B65",
"o. c #505E66",
"O. c #585F62",
"+. c #4F6269",
"@. c #5B6265",
"#. c #566369",
"$. c #53626C",
"%. c #636A6D",
"&. c #626C71",
"*. c #6A6F71",
"=. c #6A7276",
"-. c #6B767B",
";. c #6D797F",
":. c #75797C",
">. c #6E7B81",
",. c #737D82",
"<. c #787D80",
"1. c #798184",
"2. c #7A8389",
"3. c #748B97",
"4. c #7E949F",
"5. c #52ADF6",
"6. c #73B7E7",
"7. c #5EC3FB",
"8. c #6BC7FA",
"9. c #7CC8F9",
"0. c #7BD3FF",
"q. c #78D4FC",
"w. c #828789",
"e. c #858E93",
"r. c #869196",
"t. c #8C9296",
"y. c #87959C",
"u. c #8B959B",
"i. c #929A9D",
"p. c #8D9BA3",
"a. c #929FA6",
"s. c #99A2A7",
"d. c #9BA5AB",
"f. c #96A7B2",
"g. c #9BA7B1",
"h. c #9DACB4",
"j. c #A3ADB4",
"k. c #A7B4BC",
"l. c #9ABBCA",
"z. c #A6B8C3",
"x. c #ACBBC2",
"c. c #B2BEC6",
"v. c #B3C2CA",
"b. c #BAC6CD",
"n. c #B7CCD9",
"m. c #BED1DB",
"M. c #85CAF6",
"N. c #82CEFD",
"B. c #8ED2F5",
"V. c #87D4FE",
"C. c #8CD5FD",
"Z. c #8EDAFF",
"A. c #93D4FB",
"S. c #9CD7F8",
"D. c #94DAFD",
"F. c #9CDCFE",
"G. c #B9D5E5",
"H. c #A6DBFA",
"J. c #A3DDFD",
"K. c #B8DFF7",
"L. c #9AE1FF",
"P. c #ABE1F7",
"I. c #A6E2FF",
"U. c #ACE3FD",
"Y. c #B4E5FE",
"T. c #B9E5FA",
"R. c #BBE6FE",
"E. c #BDE8FF",
"W. c #C3CDD3",
"Q. c #C4D4DD",
"!. c #CBD3D9",
"~. c #CFDBDF",
"^. c #C6D6E1",
"/. c #C3D9E4",
"(. c #CBDBE5",
"). c #C5DCE9",
"_. c #CCDEE9",
"`. c #D1DBE2",
"'. c #CCE1ED",
"]. c #D3E2ED",
"[. c #DBE4EA",
"{. c #CDE6F3",
"}. c #CCE6F5",
"|. c #C3E6FC",
" X c #C4EAFF",
".X c #CCECFF",
"XX c #D2E6F2",
"oX c #D5EAF6",
"OX c #DBEBF6",
"+X c #D3EEFE",
"@X c #D9EFFE",
"#X c #CCF1FF",
"$X c #D6F0FF",
"%X c #DCF1FF",
"&X c #E3EFF7",
"*X c #E2EFF8",
"=X c #E3F3FF",
"-X c #EAF6FF",
";X c #E2F8FF",
":X c #EEF8FF",
">X c #F0F7FE",
",X c #F3FAFF",
/* pixels */
"=X=X-X,X>X>X>X-X-X-X=X=X-X=X=X=X=X%X%X%X%X%X@X%XT..X$X%X-X=X@X@X+X+X$X$X$X$X%X+X%X%X.X X.X+X+X$X$X%X%X%X%X$XoX'.v.e.2.e.oX%X;X;XY..XE.%X%X-X",
"-X=X=X=X-X-X-X-X-X.X-X-X-X=X-X=X-X=X-X=X=X%X+X+X+X$X%X=X=X=X=X@X$XD.A.l.:.*.%X.XF.Y.E.R. XR.Y.+X$X+X.XS.z.;.v 8 & 9 ; j.%X;X$X$X=X=X;X-X-X-X",
"%X9.Y.=X=X=X@X=X-X=X@X=X=X=X=X-X-X-X-X=X%X%X%X+X+X%X=X=X%X%X@X@XG.p.g = ; ,.$X$X=X=X%X.X.X=X%X.X}.z.@.5 + & ; 9 d j v OX%X%X$X$X=X=X=X=X%X-X",
".X@X@XU.=X=X-X=X=X=X=X=X%X+X+X=X-X=X=X%X%X%X%X+X+X$XY.|.+X@XXX<.4 # < n n t.%X}..X.X.X X.X.X_.r.a - # 4 9 9 j v k = u.%X%X.X-X;X=X%X=X=X-X+X",
"%X%X%X.XZ.S.D.C.A.C.=X X@X+X+X.X=X%X%X%X%X$X$X+X.X%X@X$XoXf.b + , j G L k @.+X$X%X%X$X%X}.s.8 ; 5 4 7 g j j j j j 5 Q.%X%X%X%X;X%X=X%X=X@XY.",
"$X#X.XR.Y.E.R.E.|.E.B.|..X.X.X.X.X+X$X$X$X+X+X$X%X$X@X/.} * < < N K K L G n @X+X.X$X$Xn.H 2 ; ; 9 j k c j j j j p c {.%X%X%X%X%X=X=X=X%XV.+X",
".X.X#X+X XE.|.R.R.U. X X.X X.X.X$X.X.X.X.X.X.X@X%X$Xj.p 7 , < Z K K K E L g Q.%X$XoXp.5 % 4 ; r j g e j j j k j j k oX$X%X%X%X%X=X=X%X.X.X X",
".XP. X.X XE.Y.R.U.R.R..X X X X+X.X.X X X.X X@X%X%Xd.9 7 , 6 T Z F Y Y Z Z V 3.@X'.| - 4 ; 9 j j j j l l j r j j j 9 XX$X$X%X%X%X;X=X=X$X+X.X",
" X$X.X.X.XE.R.D.Y.R.R.E..X.X=X@X%X@X.X.X.X+X%X%Xb.p 7 % q T Z W R D Y D L L z >.b < > 7 j j r j l l j j r x j x x ; /.$XOX$X$X%X=X=XE.+X.X.X",
".X$X.X.X XR.R.Y.I.Y.Y.E. X%XY.$X%X%X%X.X.X+X$X^.j * , q Z Z Z B Y Y Y F K N f q < < i h x x j j t j t t t x r j x ; v.#X#X$X$X$X$X+X.X+X.X.X",
"R..X.X.X|.R.Y.Y.Y.Y.Y.E.+X+X+X$X@X%X$X%X+X+XoXH , 7 , M T Z Y W D B F Y K h h , , 9 h z j j j x j x t x j t j r r 8 u.#X$X#X$X$X+X.X+X+X X.X",
"#X X.X.X XE.Y.Y.Y.Y.E..X.X.X+X+X+X%X=XZ.+X$X=.< , , f T Y Y Y B Y K K Y h e , 7 f j j g j r r r t l j j r x x j j 9 ' $X$X$X$X$X+X.X$X%X.X+X",
"$XE..X.X.XE.R.R.Y.D.|..X.X+X+X+X%X+XI..X.Xv.5 4 # 7 L K Y Y Y B Y K L l h 6 5 9 j j j j j j j r j t j r r r j r j r i {.$X.X+X$X%X.XI.T..X.X",
"$XE.E..X X XE.E.E.I.Y..X+X.X+X+X+X+XI.|..X~ 5 - 7 V L Z Y B Y W K K M 7 h 1 j j j j j x x r r x j j t l x r x r j j 5 v.$X.X X+XF.+X$X%XR..X",
"%X|.E..X.X X X.X X.XE.R.+X.X+X+X$XU.R.#Xv.y 5 % f V B L W B B B L N < g % f 8 j k j j j r r r j r j j j j x j j j j 5 ;.$X$X=XL.+X%X%X$X.X%X",
"$X$X+X X X X.X.X.X+XD.P..X.X+X+X+XF..X.X@.d * 5 c K E E M W Y M e , N 7 5 l c j j j j j j j r r e f r r r r r j j d p a +X%XD.%X+X+X$X%X$X$X",
"$X%X+X X X X.X.X+X.X.XF.%X$X.X+XY.E.$X_.n < % g Z T V K M h 6 6 , V < 7 f j f j r 9 r 5 0 j p 0 9 9 9 9 0 r 0 8 p 9 p 5 Q.J.|.+X+X$X%X%X%X+X",
"$X$X$X$X+X.X.X.X.X.X.XJ.I.$X+X0.H.+X.Xy.5 = 7 f L C n h , 7 6 , h N , 7 f 7 p e 5 r f r 9 p j j 9 9 8 3 4 4 5 4 % 4 - + -.E.|.@X+X+X+X@X%X+X",
"+X%X$X.X+X.X+X+X$X.X$X$X7.V.D.@X%X+X}.n g 5 p z M f q 7 7 V N 7 f z 6 f z l g 9 5 8 ; 2 ; 2 5 5 9 j j j r r j p k 7 y d f.XX+X+X+X@X+X+X+X+X",
"=X%X+X+X+X+X+X+X%X.XE.9.5. X@X%X%X%Xx.p 5 % 4 g q < p 1 % 7 , % T ) f 1 # , 7 7 8 9 j j x j j j j j j j x j j j g 7 a (.U.%X+X$X+X+X@X+X%X=X",
"=X%X+X+X+X+X+X+X$XY.M.L.+X$X@X%X=X@X' z , 7 7 6 p i q 6 6 1 , 7 z V i 1 % 4 j j S c j f j j j j l j j r r j j j i b (.%XI.M.|.$X$X$X%X%X=X=X",
"-X-X+X+X+X.X%X%XY.F.%X$X+X+X+XXXv.p.i L O * 7 l h f 7 f z 7 6 7 h g i h f 9 p 9 i c J J S l j j l r r r x j j p 7 (.%X%X.X+X6.+X$X$X$X%X-X-X",
"-X=X+X+X%X=XR.U.|.%X%X%X%X+X/.b k p < V g h h 7 > 1 7 h z p C L z f # > , 5 8 j j 9 8 j J ` I S l j j x r j r 9 g.%X%X=X-X.X$X.X$X$X%X%X-X=X",
"-X=X$X%X=X$X|..X%X%X%X%X%X$XQ.a n g < z ] f % # > 1 < 6 1 , C h , 7 , < 9 j 7 4 5 r 9 8 f A P I I S A r r r p k =X%X%X%X=XT. X+X$X$X%X:X=X-X",
"=X=X=X=X+X.X+X+X+X$X%X=X%X.X|.2.G.>.* f N z z 7 p p f q q , z < O , 4 O j c f j j 7 4 8 3 3 r F U I U S j j ; k.+X+X+X$X%X.X+X+X%X$X%X=X=X=X",
"%X=X=X+X.X$X@X%X+X+X%X%X+X+X.X.X|.l.< f z q , , > 1 < 7 p < h * , , % % 4 c c S S x j t 0 8 3 3 c U I I J S f '.+X+X$X$X+X+X$XoX+X%X%X@X=X%X",
"=X%X%X+X$X%X%X+X+X.X=X%X X%X+X.X.X.XC H z g % < < 1 6 6 6 , f # f 9 , = % c ) I P I P J S A 0 2 2 t J ! I J J .X+X+X+X+X$X.X;X+X$X$X%X%X%X%X",
"=X=X+X+X%X+X.X+X+X=X.X|..X+X+X+X.X+X4.H i , , = < 1 f i < , p , h j e 2 % 8 I I I ! ! Q ! ! J x 4 2 0 F J J ~ %X+X.X+X+X+X.X=X+X%X$X%X%X=X=X",
"=X+X$X%X+X.X$X+X|.R.+X+X.X.X.X+X+X@X_.n g X = + > > < i 7 , 7 , r k j 8 2 $ j I ! U P P Q Q Q P S 0 $ 8 J I J %X+X%X$X$X+XU.%X$X+X%X+X%X=X=X",
"%X$X+X%X+X%X=XR.+X+X+X+X+X$X%X%X%X@X.X%.g = = 5 # # # , < 1 < , p j r x 0 $ 2 P I Q ! Q Q Q F Q Q F 9 % 9 c J $X.X.X.X$X|.Y.$X X+X%X%X%X%X%X",
"=X%X%X$X%XY.+X+X+X+X$X$X%X%X%X%X@X+XM.b.< < * p < 7 , # , q i , j j c J A 8 $ r P Q Q Q Q Q Q Q Q I P j $ 5 n oX%X+X+X.XJ.%X+X+X.X%X%X$X-X-X",
"=X=X+X.XF.+X+X+X+X$X+X+X@X%X%X%X%X@XN.E.H - - < < f < > , < q , j r P P I A 3 $ F Q Q U F U Q U ! U P J r ; = [.+X+X$X.XJ..X.X.X+X@X=X%X=X=X",
"=X%X=XK.+X+X+X+X+X+X+X+X%X%X%X%X@X@XM.*Xa.< , < i i q 7 # V 4 , j j P P I R N : t U U U Q Q Q Q ! Q P P J k   W.=X+X+X.X.XY.$X#X+X+X%X,X=X=X",
"=X=XI.@X+X.X.X.X+X+X+X%X%X@X%X@X@X+X@X.X).g < * 6 f < < , ^ 5 , 0 x I ! ! R P r 2 S Q Q Q U ! F P ! I A j J %.s.-X.X+X.X.X.XI..X.X+X%X=X=X=X",
"=X-X@X%X.X.XT..X.X.X+X%X%X%X+X@X@X+X@X|.+XC g , q 7 6 , V n 7 # r j F ! I R P F 3 0 ! U Q R ! ! P A k r.].+X%X=X%X+X+X.X+X.X.X+X+X$X=X=X=X=X",
"=X.X@X=X@X@X.X.X.X.X X%X%X+X+X+X=X@X+X|.+X^ g > 7 1 > z C 7 # 4 j x S I R Q ! P x 2 F I R R ! N 9 1.}.-X-X=X%X%X%X%X+X+X+X.X$X X$X%X=X%X%X=X",
"=X9.%X%X%X%X+X.X.X.X.X+X+X.X.X.X=X|..X|.+X~ b i * * q Z j % = j r c F ! ! U U U S 0 0 ! U I S r x.#X+X-X=X=X%X=X%X%X+X+X+X$X#X+XI.+X%X=X=X=X",
"=XJ.$X$X%X%X%X+X.X X|..X.X.X.X@X@XT.U.+X+Xg ) < + h ^ M 4 % f j j c S S S S F U U S 2 S ` J f z.%XE..X-X=X=X=X=X=X=X%X+X+X.X+X+X.XY.%X%X=X%X",
"%X$X.X+X+X%X$X+X#X X|. X.X.X.X.X.X.X.X{.z.y V # h ^ Z h $ e r l j j x r t A F U U F 0 8 / A =.$X$X.X.X-X-X-X-X-X=X=X%X+X+X$X@X%X%X$X.X%X%X=X",
"=X=X.X+X%X$X%X%X$X%X.XE..Xt..X.X.XN.Q.v g i < z ) / M > 7 l j j j j j r A F U U U U A 5 J k oX$X%X+X.X%X=X-X-X-X-X=X@X%X%X%X%X%X%X=XR.-X%X%X",
"=X%X$X.X$X%X$X.X+X+X|..XO.V .X.X|.].m g g H g  .T L q 1 e l j j j r j S R F F U U ! P 9 9 %.$X$X.XS.=X%X=X-X=X-X=X=X%X%X%X%X=X=X%X=X=XU.=X%X",
"=X%X%X$X%X$X|..X X|.n.C o =.+XH.h.n y g k 9 [ V K Z h h x j r r r j c S F t A F Q F ! j ; m..X$X.X8.=X%X=X=X=X=X-X=X=X%X%X=X=X%X=X=X=X%X|.=X",
"%X%X=X%X%X.X.X%XXX&.a , & ,.G.H z L n I n l ) E K l 1 e l e j c c x t t t t t A F P / G a {.=X%X#XI.%X=X%X=X=X=X-X=X=X=X%X%X=X%X%X=X=X=X%X+X",
"=X.X=X%XU..X%X].' ^ k 1 , h ^ ) / L 7 ' ..) T V h q q M G N c N l c N x x t t t c t % # 5 *.1.:..X.X%X%X=X=X;X-X=X=X=X%X%X=X=X=X=X=X=X=X%X.X",
"=X%X=X.X.X=X%X-./ C , , p [  .Y V f f  .X.T L Z M l N T L V J J G K E K D R W K 8 9 6 5 g - d v (.%Xi.j.=X=X!.-X=XOX@X@X+XoX%X=X=X%X=X=X=X=X",
"=X=X=X%X%X%XW.= < , , Z o. .K B e h M  .]  .B B Y Z h l K V V N K K E W  .+.+.W l 8 7 7 k k v ; s.i.v d W.w.y :.i.; @.k.%.i v.].=X=X=X=X=X-X",
"=X=X=X=X+X%XX.& f > Z  .) Y B M q : l R Y Y W Y Y M 1 6 c z p 6 e e K X.+.$. .D w q 6 5 k H H n s ~ s u a m ; v u a n 5 i 5 k a ~ t.`.-X=X=X",
"$X-X-X%X.X).+ i < p [  .Y M w q 6 q M N B  .$.W Y M > > 7 7 7 p N 3 6 D X.+.W M 6 h , , k H m ( _ ~ ~ ( ~ v m ^ H v / z g n m n v m d w.&X=X",
"+X-X=X-XK.c.> q z ] X.V h q q 7 , z h 1 Z ]  .o.W q > @ , f 7 7 h 6 q 6 ) $.T q q 1 , < 7 g z z m G C n n n c c k a 8 4 5 ; % ; - y g a O.oX",
"-X=X=X$X}.p i z Z ' Z h q q 1 1 1 f h > h Z  .X.Y 1 6 6 O % 5 5 , 1 1 > ] o.Z h q , > 6 7 4 5 g p 9 e p f p 4 5 % % ; 5 5 5 4 4 < - 5 i < 2.",
"+X.X.XT.( g C ) ^ V h 1 q 6 < , , 7 7 6 > > h Z Z N Y K 9 # = 7 j c Z i T $.T 6 q > O , , , , < 4 = g 6 O $ ; ; 5 5 - - = 5 m =.1.| k 5 o k ",
"-X@X&X%.g O.) b 7 > < 7 i < > * p g , 4 > @ 1 M o.o.T h > 4 n / G L Z h h $.] i 1 p z L ) L f , 4 H G % ; 9 2 % = p #.d.!.OX=X;X-X=X=XXXW.!.",
"=X@Xv.- ~ C g , < * 7 i < < i < o < = , , > # h o.T l 6 , c ) z k l 5 4 < ) Z f h V Z / H L C V j p 5 % ; c ,.k.^.OX@X=X-X-X,X:X,X-X=X%X=X-X",
"-X=Xs.. a y < ~ i < g p < < i i = - p p j h # e o.K 6 # 1 e f p 4 = % = > < i > > < f i 7 p h f 9 5 O C ~.$X#X$X%X%X=X=X;X-X,X-X-X-X%X@X=X=X",
"=X=X=.< < + 5 V 7 g C g i ; & ; y p ^ < + 5 # e { E f @ 1 1 O j >.k   - 5 . > * # # > , < 7 , = ; o + d %.h.oX$X%X$X=X=X-X-X-X+XZ.%X@X@X=X=X",
"b.=.v b i i i p V ^ C i 5 < < &.a.].F.g.  O # 9 { L f # @ > % J OXv.=.~.*Xu.# * * * * < < , , < = 4 k J p p '.$X$X%X%X%X-X-X:X-X%X=X@X@X-X=X",
"d.< g * , p z n V M i p i i z OX%X%XR.}., O * = p c n 9 z p # / i.=.r.=X-X-Xc.= + & = = * * - < p ; y u a Q.%X%X%X%X%X%X-X-X-X,X-X@X@X+X=X-X",
"*XV b 5 < g 7 7 < i < g ^ g i XX%X%X%X|.e.  & O % = = p j V [ L n v k m =.!.-X!.( = . i v 5 < a y k ; =.(.%X+X@X+X%X+X%X%X-X-X=X-X-X=X=X=X=X",
"=X;.^ Z z # , 7 2.c.}.XX@X@XoX@X$X%X=X X(.; . & = + % O + < p b 5 & b d ~ !.-X:X:X[.!.&X-XOXOX@X%XOX-X-X=X%X@X%X%X@X@X+X+X-X>X-X-X-X=X=X-X-X",
"-X<.Z p + C k.{.oX+X+X@X@X@X@X@X%X$X+XE.Y.].t.%.=.p.3.i + % * o - = a & :.=X=X:X:X,X>X#X-X=X%X=X=X=X%X=X=X%X%X+X+X%X$X+X+X+X+X=X-X-X=X=X=X=X",
"-Xb.i v c.+X.X$X.X.X.X+X+X@X@X@X%X%X#X=XN.R.@X+XI.F.%Xc.< & * y y = a t.OX=X=X,X:X-XE.-X=X%X%X=X%X%X%X%X%X=X=X%X%X@X%X+X+X+X.X+X=X-X=X=X=X-X",
"-X|.2.G.%X+X.X.X.X+X.X+X+X@X%X%X%X%X$X=X=XN.9.P.U.%X=X%Xk.* - = ' c.OX%X=X=X=X:X:X-X.X|.=X%X=X%X=X%X%X%X@X%X%X=X%X%X+X+X%X+X.X.X%X=XT.=X=X=X",
"+XE.=X+X=X+X+X.X.X+X+X%X%X$X%X%X%X%X%X%X-XJ.E.U.-X=X=X=X%XOX].OX%X%X=X=X=X=X=X,X-X X=X+X=X%X%X%X%X%X%X%X%X%X%X%X=X%X+X.X+X+X.X|.E.%X X=X=X=X",
"D.=X=X+X=X+X.X+X.X+X%X%X+X%X%X=X=X=X%X+XF.q.+X=X=X=X=X=X=X=X=X=X%X=X%X=X%X=X=X=X-X|.%X%X=X%X%X%X@X=X=X%X@X%X@X%X=X=X%XT.+X.XT.=X=XI.#X%X%X|.",
"-X=X-XV.%X+X+X+X+X+X+X+X+X%X%X=X=X%X%X XS.;X=X=X=X=X-X=X=X=X=X%X=X%X=X=X=X%X=X=X%X=X|.%X%X%X-X%X@X=X=X@X%X%X@X%X%X=X=X+X.X.X-X=X=X=XR.%X XU.",
"-X-X=XC.%X+X+X+X+X+X+X@X+X%X%X=X=X%X#XU.=X=X=X=X%X=X=X=X=X=X%X=X%X=X%X=X=X=X=X-X+XR.%X:X=X+X%X%X%X=X=X%X%X@X%X+X%X%X=X=X=XY.=X=X=X=X9.J.Y.=X",
"=X=X=XD.%X+X.X+X+X+X$X%X+X$X-X-X%XE.I.%X%X%X=X%X%X=X=X=X=X=X=X=X=X%X%X=X=X=X=X%X.X%X#X%X-X=X-X%X@X=X=X%X%X@X%X@X%X=X=X:X|.Y.8.%X|.K..XR.,X=X",
"=X-X-X0.%X+X+X+X+X+X%X@X@X.X%X.X$XE.:X=X=X=X%X=X%X%X%X=X=X%X=X=X%X=X%X%X%X=X=X=X$X$X-X%X=X,X+X@X=X=X%X=X@X%X$X@X=X-XE.Y.D.q.oX X=X-X%X.X,X=X",
"=X=X=XY..X+X+X+X+X+X&X5.%X$X+X+X X-X-X-X;X%X%X%X%X%X%X=X=X=X%X=X%X%X%X%X%X%X=X,XR.Y.$Xq.$X.X-X=X,X=X=X%X%X%X%X-XE.Y.R.%X=X=X%X$X;X=X%XY.=X=X",
"-X=X-X$XD.J.|.T.R.V.=X=X%X%X.X|.-X-X-X-X-X=X=X%X%X%X%X%X%X%X%X=X=X%X%X$X%X%X=X|. X=X,X%X#X X+X=X-X=X=X$X+X-X=XR.E.=X=X=X=X=X=X=X=X%X%X$X,X=X"
};
