/* XPM */
static char *_2824_d04537929f93c7b9f0ab061b95ca87309cf27428e83eb09287070c73eec3de69[] = {
/* columns rows colors chars-per-pixel */
"70 70 205 2 ",
"   c #070C0F",
".  c #060E14",
"X  c #090E11",
"o  c #061215",
"O  c #0D1316",
"+  c #041119",
"@  c #0D161B",
"#  c #0E1A1D",
"$  c #101417",
"%  c #11161A",
"&  c #121B1D",
"*  c #181D1E",
"=  c #18201E",
"-  c #21221C",
";  c #0E1B22",
":  c #141D22",
">  c #1A1E23",
",  c #141F28",
"<  c #0D2324",
"1  c #152225",
"2  c #1B2325",
"3  c #1C2927",
"4  c #152329",
"5  c #1B252B",
"6  c #152A2B",
"7  c #1D2B2D",
"8  c #1E312F",
"9  c #162731",
"0  c #1C2731",
"q  c #1D2B32",
"w  c #1E3233",
"e  c #1F3239",
"r  c #242726",
"t  c #222824",
"y  c #21262B",
"u  c #222B2D",
"i  c #2B2D2B",
"p  c #20312F",
"a  c #2C302F",
"s  c #32312C",
"d  c #232D33",
"f  c #2A2F32",
"g  c #232F38",
"h  c #233334",
"j  c #2A3335",
"k  c #253837",
"l  c #293936",
"z  c #24353A",
"x  c #2B353B",
"c  c #263A3B",
"v  c #2B3A3C",
"b  c #313330",
"n  c #323935",
"m  c #32363A",
"M  c #333B3D",
"N  c #3A3E3A",
"B  c #26403F",
"V  c #3F403B",
"C  c #263641",
"Z  c #2D3741",
"A  c #273F41",
"S  c #2C3B42",
"D  c #2C3E4A",
"F  c #333D44",
"G  c #383E42",
"H  c #323F49",
"J  c #2D4243",
"K  c #2E4349",
"L  c #2F4A4C",
"P  c #344345",
"I  c #3B4346",
"U  c #354947",
"Y  c #34434B",
"T  c #3B454B",
"R  c #344C4C",
"E  c #3A4B4D",
"W  c #36504E",
"Q  c #3B514F",
"!  c #374652",
"~  c #3B4750",
"^  c #364D52",
"/  c #3B4B52",
"(  c #3D4F5B",
")  c #365153",
"_  c #3B5253",
"`  c #3D535A",
"'  c #464845",
"]  c #41464B",
"[  c #424B4D",
"{  c #4F504F",
"}  c #424C53",
"|  c #484E54",
" . c #455055",
".. c #4C5256",
"X. c #43515A",
"o. c #4A545B",
"O. c #4F595F",
"+. c #50575A",
"@. c #52595E",
"#. c #445662",
"$. c #4C5B64",
"%. c #4B5C67",
"&. c #535C63",
"*. c #585F63",
"=. c #515F68",
"-. c #4E606B",
";. c #596366",
":. c #54636C",
">. c #5B6469",
",. c #5A6B74",
"<. c #656A69",
"1. c #626D72",
"2. c #6B7276",
"3. c #6D7478",
"4. c #6E7981",
"5. c #757E83",
"6. c #7A858A",
"7. c #7D858B",
"8. c #778994",
"9. c #6F93A7",
"0. c #52ADF6",
"q. c #73B7E7",
"w. c #5EC3FB",
"e. c #6AC7FA",
"r. c #7CC8F9",
"t. c #79D4FD",
"y. c #818C92",
"u. c #859299",
"i. c #8C949A",
"p. c #929A9E",
"a. c #8B9BA5",
"s. c #929EA5",
"d. c #95A0A3",
"f. c #9AA1A3",
"g. c #95A2AA",
"h. c #99A4AB",
"j. c #9BACB5",
"k. c #A7ABAF",
"l. c #A2ACB3",
"z. c #A2B0B6",
"x. c #A9B0B5",
"c. c #A7B1B9",
"v. c #AAB4BA",
"b. c #B5BCBD",
"n. c #9BBED0",
"m. c #A8B7C1",
"M. c #ABB9C2",
"N. c #B4BCC2",
"B. c #B5C3CC",
"V. c #B9C5CB",
"C. c #A1C6D5",
"Z. c #B7CBD7",
"A. c #BFD1DB",
"S. c #86CBF7",
"D. c #81CDFD",
"F. c #8ED2F5",
"G. c #85D5FD",
"H. c #8CD5FE",
"J. c #8DDAFF",
"K. c #95D4FD",
"L. c #94DAFE",
"P. c #9CDCFD",
"I. c #AED5EA",
"U. c #A3D7FA",
"Y. c #A3DCFD",
"T. c #A9DEF9",
"R. c #B0DFFD",
"E. c #95E0FF",
"W. c #9AE1FF",
"Q. c #A5E2FF",
"!. c #ACE3FE",
"~. c #B4E5FE",
"^. c #B8E6F9",
"/. c #BBE6FE",
"(. c #BDE8FF",
"). c #C4CDD4",
"_. c #C4D2DC",
"`. c #CAD4DC",
"'. c #C4D6E2",
"]. c #C4DBE7",
"[. c #CBDAE3",
"{. c #C9DDEA",
"}. c #D1DBE1",
"|. c #D3E3EC",
" X c #DAE5EC",
".X c #C6E5F6",
"XX c #CCE3F2",
"oX c #C3E6FD",
"OX c #C4EAFE",
"+X c #CCECFF",
"@X c #D2E6F2",
"#X c #D5E9F4",
"$X c #DCEAF3",
"%X c #D3EEFE",
"&X c #D9EFFE",
"*X c #CCF1FF",
"=X c #D6F0FF",
"-X c #DBF1FF",
";X c #E1EDF6",
":X c #E3F3FF",
">X c #EAF6FE",
",X c #E5F8FE",
"<X c #EEF8FF",
"1X c #F0F7FE",
"2X c #F3FAFF",
/* pixels */
":X:X>X<X2X1X1X>X>X>X:X:X>X:X:X-X-X:X-X-X-X-X%X-X^.+X-X-X:X:X:X=X=X=X%X%X=X=X%X%X%X-X%XOX+X%X%X%X=X-X-X=X-X&X=X-X-X:X-X-X-X-X-X,X~.+X(.-X-X<X",
">X>X:X:X>X>X>X>X>X+X>X>X>X>X>X:X>X:X>X:X:X-X&X%X%X%X-X:X:X:X-X-X%XL.J.P.%X%X-X%XP.~.(./.OX/./.+X=X%X+XL.+X%X%X=X-X-X-X:X,X:X=X*X,X:X:X<X>X:X",
"-Xr.~.:X:X-X-X:X>X:X&X:X:X:X>X:X:X<X>X:X-X-X-X%X%X-X:X:X-X-X-X%X/.+X%X%X!.%X=X=X:X:X-X+X+X:X-X+X+XOXOX(.OXQ.<X<X=X-XOX-X-X-X=X-X:X-X:X:X-X>X",
"+X&X&X!.:X:X>X:X:X:X:X:X-X%X%X:X>X:X:X-X:X-X%X%X%X=X~.oX=X&X-X%X=X%X+XQ.OX:X-X+X+X+X+X+X+X+X%X%X+X+X-X%X(.OXOX+X=X=X=X-X-X+X>X:X:X:X-X:X<X+X",
"-X:X-X=XJ.P.K.H.H.K.-XOX-X%X%X+X-X-X-X-X-X=X=X%X+X-X&X=X%X+X%X%X+XOXOXG.OX-X=X-X&X-X-X-X%XOXOXOX+X=X%X%X-X%X=XL.=X=X=X-X-X-X-X:X-X-X:X:X%X~.",
"=X+X+X^.~././.(.OX(.F.oX+X+X+X+X+X%X=X-X%X%X%X-X-X=X-X%X%X+X(.OXOX(.(.~.-X=X-X=X%X%X%X+X+X+X+XOXOX+X%X%X%X-X=XL.!.+X=X=X-X-X-X-X:X:X:X-XG.&X",
"+X+XOX%XOX(.(././.!.OXOX+XOX+X+X=X+X+X%X+X+X+X&X-X-X%X-X%X=X(./.(.(.OX+X+X%X%X#X[.%XOX+X+X+X+X+X!.OX+X%X+X=X%X!.+X=X=X=X=X-X-X-X:X:X-X*X+X+X",
"+X!.OX*XOX/.~.(.!.(./.+XOXOXOX%X+X+XOXOX+XOX&X&X-X-X-X-X%X%X%X!.+XOX~.OXA.p.| f f XX+X+X+X%X%X%X=XP.L.&X=X=X=XQ.+X%X=X=X-X-X-X-X:X>X:X%X+X+X",
"OX=X+X+X+X(./.P.~././.(.+X+X:X%X-X&X+X+X+X%X-X-X-X-X-X&X&X&X&X+X+X{.9.F > 5 m G G &XOXOX%X+X%X%X+X+XU.^.=XOXJ.=X%X+X%X=X=X=X=X=X:X:X(.=X+X+X",
"+X%X+X+XOX(./.!.Q.~.~.(.OX:X~.%X&X-X-X+X+X%X%X&X-X:X-X-X-X:X&X'.,.q @ q F T G H m .XOXOX+X%X=X%X-X=X-XL.T.^.=X-X=X+X+X+X%X%X=X=X-X+X+X+X+X+X",
"(.+X+X+X(.(.~.~.~.~.~.(.%X%X%X%X-X-X-X%X%X=X=X-X-X:X-X:X:X[.5.: ; g H H H ] } F d Z.%X+X{.B.a.7.O.T [ I I ....2.|.=X=X%X%X%X%X%X%X+X%X%XOX+X",
"%XOX+X+XOX(.~.~.~.~.(.+X+X%X%X%X%X-X:XL.%X%X%X-X-X-X&X:Xl.d 5 , Z H T ~ H H Y ~ x $.6.T h u & & = & 5 3 t r * i.-X-X-X%X%X=X%X=X%X+X&X-X%X+X",
"=XOX+X+XOXoX~././.L.OX+X+X%X%X%X-X%XQ.OX%X%X-X-X:X%X&X7.d : , H ! ~ ! Y ~ ~ S q 5 : 7 2 : = 2 a 7 p l a l i 2 A.%X-X=X%X%X+X%X%X-X%XQ./.+X+X",
"*X(.(.+X+XOX(.OX(.W.^.+X%X+X%X%X%X%X!.OX+X%X-X&X%X#X;.> ; e H H H H Y Y H d 4 5 4 : # 3 u k l l k l h 8 j u u #X%X=X-X=X=X%X+X%XP.%X=X=X/.+X",
"-XOX(.+XOXOX+X+X+X+X/./.%X+X%X%X=X!.(.+X%X%X-X-X&X>.2 : d H ! ! H ( Y d 9 q 4 ; : 7 k l h 7 p p 8 w 8 h l l P +X%X%X=X%X=X=X:XL.%X=X-X=X+X-X",
"%X%X%XOXOXOX+X+X+X+XL.T.+X+X%X%X&XL.+X%X%X&X&X-X5.2 @ j D ! ! H ! H g 0 q 1 ; 6 h h h 7 l p l l h k w k p 7 u XXT.!.+X%X+X:XL.-X%X%X&X-X=X=X",
"-X=X%XOXOXOX+X%X+X%X+XL.:X=X%X%X~.(.=X%X%X&X=XM.y > d H T ! H ! H q 0 q 1 5 w z h h h k h 8 p w w w c w p h 2 Z.%X%X-XJ.-XY.OX%X%X-X&X=X&X-X",
"%X-X=X+X%X+X+X+X+X+X+XP.Q.=X%Xt.T.+X+X+X+X%X#XM 5 y H T ! H ! H 0 j 5 : 6 z h d w h 8 p w k k h k w w c h h 3 7.%X%X%X%X!.(.oX&X%X%X%X-X=X%X",
"%X-X%X=X%X+X%X+X=X%X=X=Xw.G.K.-X&X%X%X+X+X%Xg.f : x Y Y H ! D e g d 2 5 l x h z k h h h k h h h c w w k h k h j @X&X-X-XOX-X%X%X%X%X%X%X%X%X",
":X-X%X%X%X%X%X%X=X%X(.r.0.OX&X-X&X-X%X%X%X{.f f d ] H H ! H 0 q z : 4 j h h d k h z k h k h h h w k w e h h l 3 c.:X:X-X!.&X%X=X%X=X&X=X-X:X",
">X-X%X%X%X%X%X%X=X(.S.L.=X%X&X&X:X&X%X%X%X5.x : x g y 0 0 9 j Y , 2 j C h l x h w h h h h h h h k z z z h h h t V -X-X:XQ.S.OX%X=X=X-X&X-X:X",
":X>X%X%X%X+X-X-X~.L.-X=X%X%X%X%X%X&X%X%X{.f f 2 T , C Z C ; S 4 @ y f 7 7 q q q w h h h h h h a h h h h k w p l = z.-X-XOX=Xq.%X=X=X=X-X>X>X",
">X:X%X%X-X:X(.T.OX-X-X-X-X%X+X%X%X%X&X&X4.G 0 5 F , 0 9 5 , / S d f q 5 d 7 7 k h q q h w w d q u d q h h w h p 7 l $X-X>X+X-X+X=X=X-X-X>X>X",
">X:X=X-X:X=XOX+X-X-X-X-X-X%X%X%X%Xh.1.&.y Z d , x ~ Z q ; 4 H Y q : : 1 1 1 5 1 1 1 6 5 7 7 7 7 7 j 7 w 6 8 k 8 a = l.&X:X/.OX%X=X-X-X<X:X:X",
":X:X:X:X+X+X%X&X%X%X:X-X&X%X(.+XA.: j m 2 d $./ F 0 ; , x q d x f f 2 : d z h h h q d q w d q 7 5 f 4 6 6 1 < 1 = 1 n #X:X+X%X%X-X-X=X:X:X:X",
":X-X:X%X+X-X=X-X%X%X-X:X%X+X+X+XoX8.B.m.@ d | | g 5 q , f Y Z f @ : 7 u 4 7 z M v v h h 7 w h v z l h h k 8 8 3 3 3 O h.%X%X%X%X%X-X-X-X:X-X",
"-X:X-X%X-X=X-X&X&X+X:X-X+X-X%X+X+X+X(.%XF f d X.0 @ d 0 q F 2 : 4 @ 1 7 5 u k d z S P J v h w h h h h z 8 8 l d 3 = 3.'.%X+X:X&X=X%X-X-X-X-X",
":X-X%X&X=X%X+X%X%X:X+X(.+X+X%X%X+X%XP.K.a.M o.f Z 4 q f q j . : : & 3 7 7 6 5 6 6 w v J R P c q h d h h w h l 3 = d.%X%X%X+X:X%X-X-X-X-X:X:X",
":X=X=X-X%X+X=X%X(./.%X%X+X+X%X%X%X=X=X/.;X..G # ; : ; ; : d # u # # 1 8 v l u w w 6 1 w v R E R S w w w c l 3 3 z.-X=X=X%X~.-X%X%X-X%X&X:X:X",
"-X%X%X-X%X-X:X~.%X%X%X%X%X%X-X-X-X=X+X%X%XM.5 5 : Z d 2 : 5 O u p 6 o # B E R v c h 6 6 6 w S R E U c w h 7 1 1.+X+X+X%XOX!.%XOX%X-X-X-X-X:X",
":X:X&X=X-X~.=X%X%X%X%X&X-X-X-X-X-X&XS.+XOX%X[ : 4 Z F x 7 5 # h l h 1 # 3 P E _ R T R c q 6 9 e U E ^ J v h u [.-X%X%X+XY.=X%X%X+X-X-X-X>X:X",
":X:X%X+XP.%X%X%X%X%X%X%X-X-X-X-X-X%XD.(.=X%XB.5 ; f ~ H d u & u a h h < # w E E _ ^ E R R J e 6 6 J Q E P k l >X%X%X%X+XT.+X+X%X%X&X:X-X:X:X",
":X:X>XR.%X%X%X%X%X%X%X%X&X-X-X-X-X&XS.&X+X%X%X*.: , ! Y q d # 7 8 k v h 1 < w _ W W _ W ) ) L L < < e W U T V >X:X=X=X+X+X~.=X*X%X%X-X2X:X:X",
":X:X!.&X%X+X+X+X+X%X%X&X-X-X-X&X&X&X%X+X+X%X%Xv.f ; z H 4 v 1 3 k h K _ J 6 1 B ) W W ) ) ) ) L L 9 < w  .[ h $X>X+X+X+X+X+XQ.+X+X%X-X:X:X:X",
"-X>X&X-XOX+X/.+X+X+X%X-X-X-X%X&X-X=X-XOX+X%X%X[.f g , ; q P = 1 h w U  .R c 6 < L ) L W ) L ) L ) L e # 3 J l `.-X=X+X=X+X+X+X%X%X=X>X-X:X-X",
":X+X&X&X:X&X+X+X+X+X+X-X-X%X%X%X-X&X%XOX%X%X%X`.y H ; ; T F = = 8 k R R R _ J < 6 ) ) W ) ) ) ) L ) ` c < 8 k z.-X-X=X+X=X%X%XOX%X=X,X:X:X:X",
":Xr.-X-X-X-X%X+X+X+X+X%X+X+X+X+X:X(.+XOX%X%X&Xs.y d ; Z / 5 2 # 8 w P _ E Q R J < w L ) ) ) L W ` L W _ B 7 # [ -X-X%X%X%X+X=X+XY.%X-X-X-X:X",
":XU.=X=X-X-X-X%X+XOXOX+X+X+X%X%X&X/.!.%X%X&X@Xi $ > Z ] d # # 1 8 8 J _ _ Q W R B < B ) W W W W L W W R Q U 3 2 $X:X-X%X%X%X%X%X+X(.-X-X:X:X",
":X=X+X=X%X-X=X=X+XOXOXOX+XXX+X%X+X+X+Xs.5.V.{ X y G | H : 1 1 k k k J U _ _ R W W w w B W W W W _ Q K w l E I n N.:X%X-X%X=X-X-X-X=X+X-X-X:X",
":X-X%X+X-X=X-X=X=X-X+X(.Z.2.+X+X+XF.i.i N i r m | } H 0 4 4 l h h w k J v c A R W L 8 8 W W W Q J h ;.V.;X>X<X>X:X:X-X-X-X-X-X-X-X-X(.>X-X:X",
":X-X*X%X-X%X-X+X+X%XOXZ.y <.+X+X.X[ * 2 i M t o.~ H H , , g z z k w w k e e J R ^ ) J < B Q W B l n.:X-X:X:X:X>X:X:X-X-X-X-X:X:X:X:X-X!.:X:X",
":X-X-X=X=X-XoX+X+X.Xj.u . u.+XC.[ m j x S h D X.~ Z g , 0 Z h q e k w e k K ) ) ^ W R B 6 V V 8 A.e.:X-X:X:X:X>X>X:X:X-X-X:X:X-X:X-X:X-XOX:X",
"-X-X-X-X%X+X+X&X'.&.f & & 1.8.F T [ d H $.Y X./ H C 0 0 Z Z C C z z z c K ! Y L Y _ E E 8 B B >.*XQ.-X:X:X:X:X:X>X:X:X:X-X:X:X:X:X:X:X:X-X%X",
":X+X:X:X~.+X&X|.] ..d : 2 5 } o.[ S 5 ~ ,.#.( Y C C C Z Z H Y ! R A z z z e e z J ^ _ R B 8 3 d.i.+X-X:X-X:X,X:X:X:X:X-X-X-X:X-X:X-X:X:X-XOX",
":X-X:X+X+X:X-X5.M m 5 4 S $.=.! g d z %.-.-.` ! H H Z Z H T Y Y Y ~ Y Y K D C e z z Y R } v # V s k.&X^. X-X>X:X:X-X&X&X=X=X-X-X:X:X:X:X-X:X",
":X:X:X-X-X-X}.2 u ; ; Y &.( ! S d 5 g ! ! ` ( Y H H 0 0 Z P S q z C ! %.:.-.( K e e c q 1 3 2 n - <.`.{ ' ;X:X X:X:X&X%X-X-X-X:X:X:X:X:X:X>X",
":X:X:X:X%X-X8.O u @ C :.#.D D 9 5 , C ! ! ! #.#.H H ; : 5 f d 1 h 0 q H $.,.%.( q 9 ; < 7 V h l b N V V - b.b.s f.;XN.).-X&X|.:X-X:X:X>X>X:X",
"=X>X>X-X+XoXT : q d O.X.D C 9 0 5 : D e D #.-.%.} Z : % ; : 5 5 z g 4 4 T :.%.A 9 q 4 ; 5 v T I { ' N r i b V s r V r s l.2.i [.:X:X>X>X:X:X",
"%X>X:X>XoX#X> y g } o.H d 5 5 4 : d S 4 z ! %.:.%.g : 0 : @ : 3 3 q 4 4 g ;.$.Z 0 0 ; ; 4 d x F I I 2 l G M j j I j l M j : u @.c.$X:X:X:X&X",
">X:X:X=X+Xs.y g H o.} g 5 6 5 5 # d 2 ; 5 c H H ! g Z } F @ & 1 : 4 6 6 q $.&.x 5 , , ; ; : , 0 f u f 5 d P F F I P I T Y M F [ Y l x.>X>X+X",
"%X+X+X^.N.y G ] | x d y 5 5 1 . : 3 1 5 ; ; ; q X.$.#.Y 7 . 3 j P Y T P d o.*.H 0 : : d Y ~ Z 5 ; 5 E x @ f j x f f d u u u f l G [ m h.%X%X",
":X-X:X].y ] &.] d ; > 5 > : 5 5 & : 5 4 ; ; + ; H =.} d : 5 Y T P S F h : S o.Y y g T o.X.} } } G d y 2 . ; 2 % : @ # & : : : 2 2 u x n `.:X",
">X-X&X3.> @.x > , % > 5 5 5 > 5 2 * : 2 : q 4 @ x &.H 0 : 5 h 7 3 7 5 # ; > x j 5 : 5 d d d d 5 d d * O & 2 5 2 2 2 2 y y r 2 * > O u j *.>X",
":X:X&Xj r f > x | > 0 m y y y > % 2 r u y 5 f 4 0 &.T d + : : & ; 1 # @ , O % @ : $ ; : : : , 2 : O : 2 u 1 : G y.l.V.`.}.}.).v.7...O $ > `.",
":X:X&XN $ $ > x g % m ] y : & > j ;.h.'.'.u.@ % , $.| m & : # # 3 l 3 u f y > $ % % % * > 2 : > @ 2 : f [ r ;.#X-X&X:X:X>X>X1X%XJ.-X`.*.* ).",
">X Xu.m m 5 > y f | | y y y > <.|.-XL.&X-X-X1.O : x Z m j x j H M [ u x f x > $ > : $ $ > : & > y 2 2 y * ] @X&X%X-X&X;X>X>X1X>X-X-X&X&X`.;X",
":X2.r j O * l h Z m f y 2 > y ] -X-X~.OX-X-X|.2 X & : * 3 2 t I T I 2 2 M f y.s.* $ O $ $ O X $ i j r m i.#X-X&X-X-X-X-X:X>X>X2X>X&X-X%X:X>X",
">X[.u u 5 2 2 u > y g 4.s.s.s.s.-X-X-XOX=X:X-XM.> O O 1 > # @ @ : O * y & > }.2X Xp...<.b._._._.$X>X;X:X-X=X=X-X%X-X%X-X:X:X>X:X>X>X:X:X:X:X",
">X:X@.[ v t 1 * Z l.@X&X%X%X&X&X-X-X:XOX=X:X-X-X$X'.I.~.M.>   > * 2 > * ' `.>X1X<X2X2X:X>X:X-X:X-X-X>X>X:X-X-X&X-X-X%X%X&X:X2X:X>X>X:X:X:X>X",
":X>X@.I v & T h.%X+X%X%X-X-X&X-X=X=X=X(.^.:X:X:X-X!.G.-X&XV.2 O O > b c.:X:X:X1X<X<X<X*X>X:X:X&X:X:X-X:X:X:X&X&X&X&X=X&X%X%X-X:X>X>X:X:X:X>X",
">X:Xl.m r h.+X+X+X+X+X%X%X%X-X-X-X-X*X:XD.(.%X%X!.P.-X-X-X=X[.6.5.l.$X:X:X:X>X>X<X>X(.>X:X:X:X-X:X:X-X-X-X:X:X-X-X&X%X%X&X%X%X%X:X>X-X:X:X:X",
">XoX;X+.c.%X+X+X+X+X%X%X-X-X-X-X-X-X=X:X:Xr.S.!.~.-X:X-X-X-X-X-X-X-X:X:X:X:X:X1X<X:X+X.X-X-X-X:X&X&X&X-X-X&X-X:X-X-X&X%X%X%X+X+X-X:X^.:X>X>X",
"%XoX:X%X-X=X+X+X+X%X%X-X=X-X-X-X-X-X-X&X>XY.oX!.:X:X:X:X-X:X-X-X-X-X-X:X-X:X:X2X>X+X:X%X:X-X-X-X&X:X:X&X-X-X-X-X:X-X-X+X%X%X+XoX(.:XOX:X:X:X",
"L.:X:X%X:X%X%X=X+X%X=X-X&X&X-X:X:X:X-X&XE.t.%X:X:X:X>X:X:X:X:X:X-X:X:X-X:X:X:X>X:XOX-X:X:X-X-X&X&X-X:X-X&X-X-X-X:X:X&X~.%X+X^.:X:XQ.+X-X=XOX",
":X>X:XG.-X%X%X%X%X%X%X%X%X-X:X:X-X-X-XOXU.,X:X:X:X:X>X:X:X:X:X-X-X:X-X-X:X:X:X>X-X:XOX-X:X&X>X-X&X:X:X&X-X&X-X-X-X:X:X%X+X+X>X:X:X:X(.-XOX!.",
">X:X:XH.:X%X%X%X%X%X%X&X%X-X-X:X:X-X*X!.:X-X:X-X-X:X:X:X:X:X-X:X:X-X:X:X-X:X:X>X+X(.=X>X-X=X-X-X-X:X:X-X&X-X=X&X-X-X:X:X:X~.:X:X:X:Xr.U.!.>X",
":X>X:XP.-X%X+X%X%X%X%X-X%X%X>X>X-XOXQ.-X-X:X-X:X:X-X:X:X:X:X:X:X-X:X-X:X:X:X:X-X+X-X+X:X>X:X>X-X&X:X:X-X-X-X-X&X-X:X:X<XOX~.e.-X/.R.%X/.2X:X",
":X>X:Xt.-X%X%X%X%X%X-X&X&X+X-X+X*X(.<X:X:X-X:X-X-X-X-X,X:X-X:X:X:X-X-X-X:X:X-X:X=X=X>X-X:X2X%X=X:X:X-X:X&X&X-X&X:X>X(.~.L.t.#XOX:X>X:X+X2X:X",
":X:X>X~.+X=X%X%X&X%X;X0.&X*X+X%X+X>X>X>X:X:X:X-X-X-X-X:X:X:X-X:X:X-X-X-X-X-X-X2X^.~.=Xt.%X+X>X>X2X:X:X-X-X-X-X>X(.~./.-X:X:X-X=X,X:X-X~.:X:X",
">X:X>X+XL.U.oX/./.H.:X:X-X-X=XOX>X:X>X>X:X:X:X-X-X-X-X-X-X-X:X-X:X-X-X=X=X-X>XOXOX:X2X:X%XOX+X:X>X:X:X-X%X>X:X~.(.:X:X:X:X:X:X:X-X-X-X=X2X:X"
};
