/* XPM */
static char *_1058_8fa218048a30ab9a9b53b626aae904405d3e7a0f30108fc35b60fcbf90b15b8c[] = {
/* columns rows colors chars-per-pixel */
"70 70 198 2 ",
"   c #0D0F0F",
".  c #060E11",
"X  c #090D10",
"o  c #041314",
"O  c #0C1216",
"+  c #05151A",
"@  c #0D151B",
"#  c #0D1A1E",
"$  c #141617",
"%  c #11161B",
"&  c #131A1D",
"*  c #1A1D1D",
"=  c #1C201F",
"-  c #0D1B21",
";  c #141D23",
":  c #191E23",
">  c #151F28",
",  c #0E2126",
"<  c #142225",
"1  c #1B2125",
"2  c #16232A",
"3  c #1B252B",
"4  c #16282A",
"5  c #1C2A2D",
"6  c #1D2730",
"7  c #1D2B31",
"8  c #1E3235",
"9  c #1E3539",
"0  c #202425",
"q  c #21262A",
"w  c #232A2D",
"e  c #292D2F",
"r  c #232D33",
"t  c #292E32",
"y  c #252F38",
"u  c #233335",
"i  c #2B3235",
"p  c #253439",
"a  c #2A353B",
"s  c #25393B",
"d  c #2B393D",
"f  c #323435",
"g  c #393936",
"h  c #323639",
"j  c #343A3D",
"k  c #3C3E3E",
"l  c #2B3741",
"z  c #273C41",
"x  c #2C3B41",
"c  c #333D43",
"v  c #393E43",
"b  c #353F49",
"n  c #2D4245",
"m  c #2E474C",
"M  c #334245",
"N  c #3B4245",
"B  c #35434A",
"V  c #3B454C",
"C  c #354A4D",
"Z  c #3B4B4E",
"A  c #3A4650",
"S  c #364E51",
"D  c #3C4C52",
"F  c #375255",
"G  c #3A5255",
"H  c #3D5659",
"J  c #424646",
"K  c #41464A",
"L  c #434A4E",
"P  c #4D504F",
"I  c #434C53",
"U  c #4A4E52",
"Y  c #434F5A",
"T  c #435155",
"R  c #4D5357",
"E  c #46525B",
"W  c #4C555C",
"Q  c #43595C",
"!  c #53565B",
"~  c #52585D",
"^  c #5B5F5F",
"/  c #495A61",
"(  c #4E5A63",
")  c #535C63",
"_  c #595E64",
"`  c #515F6A",
"'  c #5A6469",
"]  c #58646D",
"[  c #5D6B70",
"{  c #636768",
"}  c #62696F",
"|  c #666E72",
" . c #677176",
".. c #697378",
"X. c #6A7479",
"o. c #71767A",
"O. c #70787D",
"+. c #647781",
"@. c #747D83",
"#. c #7A8187",
"$. c #7B848B",
"%. c #7593A0",
"&. c #7BACC2",
"*. c #4DA6F5",
"=. c #5BB3F7",
"-. c #6BB9F1",
";. c #5EC3FB",
":. c #6BC7FD",
">. c #79C6F9",
",. c #7CCCF8",
"<. c #7BD3FF",
"1. c #7BD5FE",
"2. c #838D94",
"3. c #859096",
"4. c #84939A",
"5. c #8A959B",
"6. c #8E959A",
"7. c #91989C",
"8. c #8B9CA5",
"9. c #909EA2",
"0. c #8AA1A9",
"q. c #97A2A8",
"w. c #93A4AB",
"e. c #9CAAB1",
"r. c #A1A8AD",
"t. c #A4ADB2",
"y. c #A7B2B7",
"u. c #A6B3BB",
"i. c #AAB6BC",
"p. c #98B9CA",
"a. c #A1B4C0",
"s. c #ADBBC3",
"d. c #ACBDC9",
"f. c #B3BDC4",
"g. c #9AC7DC",
"h. c #ABC3CE",
"j. c #B7C1C7",
"k. c #B7C6CF",
"l. c #B8C4CC",
"z. c #BDC9CE",
"x. c #B8CAD2",
"c. c #B5CDDA",
"v. c #BDCED9",
"b. c #BFD1DA",
"n. c #84C4E5",
"m. c #87C5F7",
"M. c #84CDF6",
"N. c #81CFFB",
"B. c #8ED2F4",
"V. c #86D4FE",
"C. c #8DD5FE",
"Z. c #8DD9FE",
"A. c #95D4FD",
"S. c #94DAFE",
"D. c #9DDCFD",
"F. c #BAD7E8",
"G. c #A2D8F6",
"H. c #A3DCFD",
"J. c #A8DEFB",
"K. c #B0DFFD",
"L. c #99E0FF",
"P. c #A5E2FE",
"I. c #ABE3FE",
"U. c #B6E5FB",
"Y. c #B4E5FE",
"T. c #BBE6FE",
"R. c #BDE8FF",
"E. c #C0C7CD",
"W. c #C1CCD3",
"Q. c #C6D5DE",
"!. c #C9D4DA",
"~. c #C6D9E4",
"^. c #C8DAE6",
"/. c #CCDBE5",
"(. c #D2DDE4",
"). c #CEE0EB",
"_. c #D3E4ED",
"`. c #D9E5EF",
"'. c #C5E1F1",
"]. c #CCE4F2",
"[. c #CFE9F6",
"{. c #C2E6FD",
"}. c #C4EAFE",
"|. c #CCECFF",
" X c #D5E6F2",
".X c #D5E9F4",
"XX c #DCEBF5",
"oX c #D3EEFE",
"OX c #D9EFFD",
"+X c #D6F0FF",
"@X c #DBF1FF",
"#X c #E3EDF5",
"$X c #E3F3FF",
"%X c #EAF6FE",
"&X c #E2F8FF",
"*X c #EDF8FF",
"=X c #F1F6FC",
"-X c #F3FAFF",
/* pixels */
"$X$X%X-X-X=X-X%X%X%X$X%X$X$X$X@X$X@X$X@X@X+XOX+XT.|.+X+X%X$X$X+X+X+XoXoXOX+XOXoXOX+XoX}.|.|.OXoX+X+X+X+X+X+X+X@X@X$X@X@X@X$X@X%XY.|.R.@X@X%X",
"%X$X$X$X%X%X%X%X$X|.%X%X%X%X$X%X$X%X%X$X$X@XOXoXoXoX@X%X$X$X@XOXoXS.Z.D.|.|.i.+XD.Y.R.T.}.T.Y.oX+XoX|.S.|.+X+X+X+X@X+X%X&X$XoXoX&X$X$X%X%X&X",
"$X,.Y.$X$X@X@X@X%X%XOX@X$X$X%X%X$X%X%X$X@X@X@XoXOX+X$X$X@X@X@X+XT.|.oXoXI.v.$.@X%X$X@X|.|.$X@X|.|.}.}.}.}.P.%X%X+X+X|.+X@X@X+X+X$X$X$X$X$X&X",
"|.OXOXI.$X$X%X$X$X$X$X$X$X|.oX$X%X$X$X@X$X+X+XOXoX+XY.{.+X+X+XoX+XoXoXP.}.O.#.|.|.|.|.|.|.|.oXoX|.oX+XoX}.}.}.oX+X+X+X@X@X|.%X&X$X$X@X$X%XoX",
"+X@X@XoXZ.D.D.C.C.A.@X}.OX+XoX}.$X+X@X@X+X+X+XOX|.+XOXOXoX}.+X|.|.}.}.V.'.& $.+X+X+X+X+X+X}.}.}.|.+X+X+X+XOX|.Z.+X+X@X@X@X@X@X$X@X$X$X$XOXI.",
"+X|.|.T.Y.T.T.R.}.R.B.}.}.|.|.oX|.oXOX+X+X+X|.OX@X+X@X+XOX}.R.}.}.}.T.Y.y.O ' +XoXoX+XoX}.|.|.}.}.|.|.OX+X+X+XL.I.|.oX+X@X@X@X@X@X&X$X+XV.OX",
"|.|.|.oX}.R.R.T.T.I.|.}.}.}.}.OX+X|.|.|.|.|.|.OX@X+X@X@XOX+XT.T.T.T.}.|.! : j XX@XOX}.|.|.|.|.|.I.}.|.|.|.+XoXF.oX+X+X+X@X@X@X@X$X$X$X|.|.}.",
"|.I.}.|.}.T.Y.T.I.T.T.}.}.}.}.OX|.|.}.|.|.}.OXOX@X@X@X+X+X+XoXI.|.}.Y.c.: > q /.+X+X|.|.|.oXoXoXOXD.S.OX+X+X].4.oX|.+X+X+X@X@X@X$X$X%X|.+X|.",
"}.+X|.|.|.R.T.D.Y.T.T.T.|.|.$XOX@XOX|.|.|.OX+X@X@X@X@X+X+XOX+X|.|.}.>.@.% : : a.OXoX}.}.oXoX|.|.|.[.D.U.+X'.M q.|.|.|.+XOX+X+X+X$X$X}.+X|.|.",
"|.oX|.|.}.R.Y.Y.P.Y.Y.R.}.$XY.+X@X@X@X|.|.oXOX@X@X$X@X@X@X@X$XOX}.}.'.i ; 3 : X.oX}.}.}.}.OXOXOX+X+X@XZ.P.[ $ ).+X|.|.oXoXoX+X+X+X|.|.|.|.}.",
"R.|.|.|.}.T.Y.Y.Y.Y.Y.}.oXoX|.+X+X@X+X+XOXoX+X+X@X$X@X$X$X$X@XOXoXY.4.< ; 3 3 3 ].|.oX|.oX|.OXOX@X+X+X:.w.  g XX@X+X+X+XoX+XOXoXoX|.OXOX}.|.",
"+X}.|.|.}.R.Y.Y.Y.Y.R.}.|.|.oX+XOX+X$XS.|.OX+X+X@X@X@X@X$X$X$X$X+Xg.t 3 3 3 3 ; u.|.|.oXoXoXoX$X$X|.=.f.= w } +X@X@X+X+XoXoX+XoXoX|.+X+X+XoX",
"oXR.|.|.}.}.Y.Y.Y.S.{.|.|.|.oXoX+X+XP.}.|.OX+X@X$XOX+X$X$X$X$X$X.XI & & 5 7 2 3 ] }.}.oXOXOX|.}.oXH.Q.< 5 h 4.+X+X+XoX+X+X|.OX+X+XoXP.T.|.}.",
"oXT.R.|.|.}.R.}.R.P.U.|.oXoXoXOXOXoXP.}.|.OX+X@X+X+X@X$X$X%X$XOX..1 < 4 7 ; r x 3 ~.$X%X$X$X$X|.@X_.i = M j e.+XoX+X+XoXoX|.}.oXD.+X+X+XR.|.",
"+X}.R.|.}.}.}.|.|.|.T.T.|.|.|.OX+XI.T.|.oX+X@X@X@X@X$X$X$X$XOX%.1 q = w 2 > x V t 2.OX$XY.$XoX|.).M # M L i 0.|.+XoXoXOX+X+X$XL.|.+X@X+X|.+X",
"+XoX+X}.}.}.|.|.|.+XS.I.|.oX|.oX+XS.oX|.OXOX@X@X@X@X$X$X$X%Xp.e i # 5 - 7 p B V c w  X%X=XOX|.v.j # u L T i w.|.J.I.oX|.oX@XS.@XOXOXOX@X+X+X",
"+X+X+X}.}.}.oX|.|.oX|.D.@X+XoXoXY.R.oXoXoX+X+X+XOXOX$X$X%X(.t a > 2 2 4 p b A A Z 5 5.XX@X#X9.4 # 9 C H G s 9.+XoXoX@XZ.@XP.{.oXoXoX+X+X+X@X",
"+X+XoXoXoX}.|.|.|.|.|.D.P.+XoX<.J.|.|.|.|.oX+XOXOXOX$X$X(.a h > < 2 6 6 l B A b M Z u h.(.{ 5 * 4 m F G S 5 w.+X+XoX+X+XI.T.R.+XoXoX+X+X+XOX",
"+X+XOX+XoXoXoXoXoXoX+X+X;.V.S.@XOXOX|.|.|.oXoXOXOXOXOX XK t r ; 6 2 3 l B A A b Z N n 5 s 5 o 5 n G G S C = w.@X+X@X@X@X{.@XoX+XoXOXOXOXOXOX",
"$X$X|.oXoXoX|.oX+XoXT.,.*.|.OX+X@X@X+XOXoX|.oXoXoXOXXX) a t - 3 2 6 p A A B B A b p 4 4 # = u n S G G S C 4 3.@X@X@X&X@XI.@XoXoXoXoXOX+X+X$X",
"%X+XoXoXoXoXoX|.+XT.M.D.+XoX+X+X@X+X+XoXOXoXoXoXoX X) t q @ > 6 3 y B V A A m z r p 2 2 = 8 s C G S F G s 4 ' @X$X@X@X$XP.M.{.+X+X+X+XOX@X$X",
"%X$XoXoXoX|.@X@XY.D.@X+XoXOX+XOX+XOXoXOXoXoX|.OXOX! e > % r > > l b A b b b l 7 9 7 - 4 s n F H G S F C 9 5 Z @X@X@X@X@X|.+X-.oX+X+X@X@X%X%X",
"%X$XoXoX@X$XR.I.}.+X@X@X+XoXoX|.+X+XoXoXoX|.|.oX .e > @ > 6 6 l c V A V l 6 4 8 2 - 7 z C F H C F F C z u u 5 _.@X$X@X@X%XoX@X.X+X+X+X@X%X%X",
"%X$XOX$X$X+X{.|.@X@X@X@X+X+X|.oXoXoXoXoXoXoXOX4.q r ; > 6 6 c b A V l 6 8 9 4 - 2 s S F C H S F G C n 8 s 8 & i.@X@X@XOX$XU.R.+X@X+X@X*X$X$X",
"$X$X$X$XoX}.OX@XoXOX+X$XOX|.R.|.|.oX|.+X[.OX2.q w ; > > y y y b b r 6 l y - - s C C Z G G G F F C s 5 s s 8 u P OXoX+XoX@X}.OXoX+X+X@X$X$X$X",
"$X@X@XOX|.+X+X+XOXoX+X@XOXOX|.|.}.I.~._ i h 3 w - > t c > r y > > 6 y 6 > 7 B D S G G G S C n n 9 9 8 8 8 8 5 5 d.+XoX+XoXOXoXoXOX+X@X@X$X$X",
"$X@X@XoX+X@X+XoXOXOX$X$X|.+XOX}.|.|.I * : * ; a r b b b > y c 6 6 3 2 2 r V D n n n n n n s 9 9 5 9 s u u s u q j  X+X+X+X|.&XOXOX+X@X$X@X@X",
"$X$XoX+X+X+X|.OXoX$X}.T.}.oXoXoX|.oX[ ] ) % : % y c c a > y > 6 y > 6 p p u u p s 8 8 u 8 8 8 8 s s u 8 u u u i < } [.oX+X|.@XoX@X+X+X@X$X$X",
"$XOX+X@XOX|.+XoXT.T.oX|.|.|.oXoXoXOX.XT.f.* 3 q ; ; > : ; > > t i 7 5 r u u u r u u u u u 9 u 9 u u u u s 8 u a u & } .XoXY.@X+X+X+XOX@X$X$X",
"+XoX+X+XOX+X$XT.|.oXoXoXOX+X@X@X@XOX}.OXu.w q % - % ; : % ; I b < u d u 5 5 u i u u u u s u u u u i u i u 8 5 5 1 1 ..oX}.I.oX}.+X+X@X+X+X$X",
"$X@X+X+X+XY.+X|.oXoX+X+X+X@X$X@X+XOX>.|.~.t w > ; ; > 6 > ; v y 4 < = 8 5 4 4 = 4 5 5 5 8 u 8 5 e 5 5 4 < < - = & ~ oX|.H.+X|.+X|.+X@X+X%X%X",
"$X$XOX|.D.+XOXoX+XOXoXoX+X@X+X@X$XOXV.T.oXN 3 % ; ; > 6 l r y a i 5 4 8 4 & & , & , & # # # < , = # # # # < 8 M i ^.+X|.H.|.oX|.OXOX$X@X$X$X",
"$X$X%XK.oXoXoXoXoXoXOXOXOX$X@X@X@X+Xm.$X}.| : % % % : > 3 3 3 t 5 d 7 7 p r 7 4 = 4 4 4 4 , 4 4 4 4 u s k C G g ..+X|.|.|.U.+X|.oXOX+X-X$X$X",
"$X$XI.+XoXoX|.|.|.|.oX@X@XOX@X@X+XOXOX}.|.5.q % : ; % : % 3 3 i 2 7 r 7 u p u s s n n C C C C C C S H H G G J u j.|.+X|.|.|.L.|.|.oX@X$X$X$X",
"$X%XOXOX}.|.T.}.|.|.OX+X+X+XOXOX@X+X+X}.oXe.e % - ; ; > ; r % q u a 7 7 7 4 u u u 9 s n n C C C C C C C n n u u XX+X+X|.+X|.+X+XoX+X%X@X$X$X",
"$X|.OXOX$XOXoX|.|.|.|.@X+XOXoXoX@X+XoX{.OXe.: % % ; : : 3 t O > c r c u 2 5 4 u u 8 u 8 u 9 u s s s u s s u 4 #.@X+X|.+X|.|.+X}.+X+X$X$X$X@X",
"$XN.OXOX@X$XoX|.|.|.|.oXoX|.|.}.$X}.|.}.oXs.1 ; ; ; ; % w r - > 6 p M V a 3 4 2 8 8 9 u u u u 8 u s 8 8 9 5 5 z.@X@X+X+X+X|.+X|.H.+X@X@X@X$X",
"$XD.oXOX@X@X+XoX|.}.}.|.|.|.oXoXOXT.I.oX|.~.e * ; : ; O a 7 > r 2 ; M I Z M 2 ; , = 8 u u u u u u s 8 u s 5 5 `.&X@X+X+X+XoXoX+X|.T.+X$X$X$X",
"$X+X}.OX+X@X+X+XoX}.}.}.|.|.|.oX|.|.|.oXOX~.e : ; 3 > : c 2 2 t 4 3 2 B T Z M 8 4 , 4 5 u 9 u s 8 s 8 s s u u #X&X&X@X+X+X+X+X+X+XoX|.@X@X$X",
"$X@XoXoX+X+X+X+X+X@X}.R.|.}.|.|.|.N.|.oXOXW.: > % q > ; c ; 2 p p 6 < r a u d d 4 = # # 4 5 8 8 u u u u 5 u u #X%X&X@X+X@X@X@X@X@X$XR.%XOX$X",
"@X@X+XoXOX+X+X|.oXoX}.}.oXoX|.|.}.+XoXoXOXX.0 : # ; r p r ; > p a x 4 - 5 p 7 i s s 4 < # o = 4 5 u 7 u s e e `.%X$X$X@X@X@X$X$X$X$X@XI.$X$X",
"$X$X+X+X+X+X}.|.}.}.}.|.|.}.|.P.}.|.D..Xw.i 3 & ; a M t - + > p p D d # < 8 8 u u u u u u 5 , = $ # 1 < w 4 $ (.%X%X$X@X@X@X@X$X@X$X$X@X}.$X",
"@X@X@X@XOX|.oXOX+X|.}.}.a.|.}.R.|.[.d.v q 1 & 1 b N l - - 7 u r B D D 7 + 4 s r u s a w u i 5 u s w 5 = o q t.%X$X%X@X@X@X@X$X$X$X$X$X$X+XOX",
"$X|.$X$XI.oX+XOX+X|.}.c.f ].Z.+XF.j : v t 1 a V b p 2 - 6 a p p M z C n < + 4 s u 8 i u s i u f w w = Z i.#X$X$X$X$X$X@X@X$X$X@X$X@X$X$X@X}.",
"$X+X$X|.|.$X@XXX@XoXx.e % U.H.v.h i : ; & V L z 6 > 2 7 p u 7 p 8 8 s x B , + 4 i u u i s r u u = e s.U.@X$X$X$X$X@X@X+XOX@X@X$X$X$X$X$X$X$X",
"$X$X$X$X+X$XXX%XXX2.i & t '.8.h L v ; w I I a y 6 2 7 l p p p s 7 s z C E n , + 5 u s 7 7 i 5 q R _.|.&X$X@X$X$X$X$X+XOX+X+X+X$X$X$X$X$X$X%X",
"$X%X$X$XOX+XA.`.K j 1 & > T b W b a ; 6 / A c p 7 8 z z y p a p s z S D S H M < o 4 p s u d < [ }.U.@X@X$X$X$X$X$X$X@XOX+XOX@X$XOX$X$X%X$X$X",
"+X$X%X$X}.}.$X| T c & ; a I ) A y t r V Y x y p l p c A n V B p s n C n M F D C 5 - < 8 u 5 4 ).P.:.@X@X$X@X$X$X$X$X$X@X@X@X$X$X$X%X$X%X%X$X",
"oX%X%X$XT.$Xf.w i 3 - b ` Y A l 3 3 A I A B b b A A b l c M V c l l 9 9 m F S G A y % : r # + u.'.n.i.+X@X@X$X$X$X$X$X$Xt. XXXXX.XXX$X$X%XOX",
"%X$X%X+X}.$X) ; r @ l ( Y L l y 6 > V A B A Y A b b 7 7 c d y 3 l y 9 m F F S D Y b y - @ # ; j q.g g ]./.^ t._...! y.@.* t L j N K N q.#XoX",
"oX|.}.T.OX X: 3 > ; ( ` x l 6 > 3 6 c l b D ` / b b - , 3 3 3 7 6 6 4 z H F F G c ; - % ; 6 b I g k = { P g 0 i q 0 k w t K L v j w q & L oX",
"$XXX&X|.$Xv.% w 6 A W b l 6 6 2 ; a a 2 B Y ` ` b l - > 3 3 3 1 y 6 - 8 H F F m > > : y V V I A j f k k i t f J J L L N N i > q < 1 : 1 5.%X",
"%X@X+X@X$X5.; : b _ A r 6 > 6 > > a t # p x D ` Y 2 - + - 6 5 3 > > > > / F F 9 + 6 - 6 c b b b I N N T N a L V N j j w 3 ; 3 & : 1 R b.@X%X",
"%X$XOX@X_.w a v I v l 6 6 6 - - < w 3 # - 6 l D z 2 l 7 + - > ; r y z 6 ( Q S 9 - - @ r y 6 y l d j i d a c u r 3 q > > > > 3 3 R E.@XOX%X%X",
"$X$X@XoX) f L U l > 6 3 > > - > < < > ; + - 3 A Y Y Y l - 2 x A A A n 8 Q Q m 6 . - - - - - 2 6 5 # a ; 1 3 3 ; 1 3 % w & : _ d.S.@X@X@X$X$X",
"$X$XOX4.t R I r ; ; : 3 3 ; > 3 & : > ; - - - E ` A l , - l A b c a 6 - C Q p 6 > c b b L r - - 4 a r & 1 # & 1 > & > t @.!.%X%X+X$XOXOX$X$X",
"$X$X`.q f N r ; w - q t : q q q & & 5 q i < ; / I p > - 5 d u i 3 ; ; - 5 a 5 4 r M V I I V h > i v 1 @ 1 < * w L 2.k..X$X%X%X-X%XOXOXOX$X$X",
"%X$X/.% w ; % U v : y c 6 1 % ; q 1 < < O & w E A 6 ; 2 5 e 3 < & & $ < . + & @ @ 3 3 3 r y c l r 4 1 K $.u.^. XOXOXOX+X$X$X%X$X%X$X$X$X$X%X",
"%X%X!.q q : ; : ; l K t 1 q % t #.y.t O # ; w ) I w @ % $ >  .x.j & c & = & = # # ; ; 1 : 3 q ; & . c #X$XOX+X@X+X+XOXOXOX$X-X$X%X%X$X$X$X$X",
"#Xf.U K 1 1 y i v K v 0 q e q 2.+XOX4.. O O 1 l V y ; ; ; o $.OX$X@X&Xl.& & @ & & & ; 1 > : ; % O e j | W.$X+XOXOX+X+X+XOXOXOX$X%X%X$X%X$X%X",
"#Xl h : ; > w r r q w q q c q f OXOXk.$ O @ % % q a t r w % X._.XXOX$X$X7.& $ * O $ ; ; * : : 1 1 e J & j  X$X@X@X+XOXOX+XOX|.+X$X%X$X$X$X%X",
"=Xd.q f w : w : : t $.d.(.XX X(.$XOX.Xq X : O % - ; : y V L V i j 9.#X$X@XR   % : & $ @ % % ; q 1 * w J /.@X$X$X$X+XOX+XoX|.|.|.@X$XU.$X$X$X",
"oX{.b K c : ; : 9.].OX+XOXOX$XOXOXOX#Xa.: X O : X % % ; 0 h v w t e g 6.$XXXo.O   O & O % O $ L j ' 6._.@XOXOX$X$X@X+X}.oXOX|.{.R.@X}.$X$X$X",
"A.$XW L t : 4.].|.oX@XOXOXOXOX$X$X$X$XOXG.&.4.2.5._ ; X * % * * 0 f g 3.$X$X$X(.E.h.i.O.! @.l.@X@X$X$X+X@XOX+XOX$X$X@XY.|.|.U.$X$XP.|.$X+X}.",
"%X%Xr.f K ~.oXoXoXoXoX|.+X+X$X$X@X$X@X}.G.$X$X$X$XXXe $ $ 1 1 = 0   ! `.$X$X%X$XXX$X}.@X$X@X%X@X@X$X$XOX+X@X@X+X@X$X$XOX|.}.%X$X$X$XR.@X}.I.",
"$X$X#X+._.OXoX|.oX+XoXOX+X+X@X$X$X+XoXI.$X$X$X@X$X&Xz.0   $ = f { t.#X$X$X$X&X&XoXT.+X%X@X+X+X@X@X$X$X@X@XOXOX@X@X@X$X$X$XY.$X$X$X$X>.H.Y.%X",
"$X$X$XD.@XoXoX|.OXoXoXOXOX+X%X%X@XR.P.@X@X@X$X@X@X$X$X_.Q.!.(.XX@X$X@X$X@X$X$X@X|.@X|.$X%X$X%X@XOX$X$X@XOX@X+X@X@X$X$X*X}.Y.:.@XT.U.oXT.-X$X",
"$X=X$X,.@XoXoXOX|.oXOXOXOX|.+X|.+XR.%X&X$X$X@X$X@X@X@X$X&X$X$X$X$X@X@X@X$X$X$X$X+X+X%X+X$X*XOX@X$X$X$X@X@X@XOXOX$X%XR.Y.S.<..X}.$X%XOX|.-X$X",
"$X%X$XY.}.OXoXoXoXoX#X=.+XoXoXoX}.%X%X$X&X$X@X@X@X@X@X$X$X@X$X$X@X$X@X@X@X$X$X-XT.Y.+X1.|.oX%X$X-X$X$X$X@X@X+X%XT.Y.T.@X$X$X@X+X%X$X@XY.@X$X",
"%X$X%XoXS.H.{.T.{.C.$X$X@X@X|.R.%X%X%X%X%X$X$X@X@X@X@X@X@X$X@X@X$X@X@X+X+X@X$X}.}.$X-X$X|.}.oX$X$X$X$X+XOX%X$XT.R.$X$X$X%X$X$X$X$X@X+X+X-X$X"
};
