/* XPM */
static char *_7398_ca555dfde53138b4bb5e9a4e3d67c3a8bed9babe2b1b231c80264ab8a1111e6c[] = {
/* columns rows colors chars-per-pixel */
"70 70 203 2 ",
"   c #040A0B",
".  c #06100E",
"X  c #050E11",
"o  c #090E12",
"O  c #061215",
"+  c #0B1315",
"@  c #0F1817",
"#  c #06141A",
"$  c #0C161A",
"%  c #0D191C",
"&  c #121516",
"*  c #121619",
"=  c #121A1D",
"-  c #191C1E",
";  c #0E1B21",
":  c #131D22",
">  c #191E22",
",  c #0F2124",
"<  c #152125",
"1  c #1A2225",
"2  c #16242A",
"3  c #1B252A",
"4  c #15292B",
"5  c #1D2A2C",
"6  c #1D2730",
"7  c #1D2C32",
"8  c #1F3234",
"9  c #212426",
"0  c #282725",
"q  c #292927",
"w  c #212629",
"e  c #222A2D",
"r  c #292C2E",
"t  c #2B302E",
"y  c #232E32",
"u  c #2A2E31",
"i  c #233235",
"p  c #2B3235",
"a  c #253439",
"s  c #2C353A",
"d  c #26393B",
"f  c #2C3A3C",
"g  c #333434",
"h  c #393534",
"j  c #31363A",
"k  c #333B3D",
"l  c #3B3D3E",
"z  c #3D403F",
"x  c #2D3C42",
"c  c #2C3B45",
"v  c #343D42",
"b  c #3C3D40",
"n  c #2E4244",
"m  c #2F4D4B",
"M  c #344244",
"N  c #3A4245",
"B  c #34454B",
"V  c #3B454B",
"C  c #354B4D",
"Z  c #3B4B4D",
"A  c #2F524E",
"S  c #33504E",
"D  c #354751",
"F  c #364E51",
"G  c #3C4D51",
"H  c #355252",
"J  c #3A5253",
"K  c #3F515B",
"L  c #464846",
"P  c #42474B",
"I  c #434A4D",
"U  c #424D52",
"Y  c #484D51",
"T  c #455055",
"R  c #495255",
"E  c #44535A",
"W  c #4B555A",
"Q  c #4A5A5F",
"!  c #51575B",
"~  c #545D5E",
"^  c #595958",
"/  c #4B5A65",
"(  c #4D5C64",
")  c #525D64",
"_  c #4F6069",
"`  c #546064",
"'  c #536169",
"]  c #5B646A",
"[  c #5A696D",
"{  c #62696E",
"}  c #636D72",
"|  c #6F6F70",
" . c #647276",
".. c #6A7277",
"X. c #6E757A",
"o. c #6B7A7F",
"O. c #717678",
"+. c #54758D",
"@. c #687983",
"#. c #727C82",
"$. c #787E84",
"%. c #758185",
"&. c #7B8488",
"*. c #7C8C93",
"=. c #7B99A6",
"-. c #4DA6F5",
";. c #5BB3F7",
":. c #73B7E7",
">. c #62BCF9",
",. c #5EC3FB",
"<. c #6EC4FB",
"1. c #77C8FA",
"2. c #7CCCF9",
"3. c #7BD3FF",
"4. c #78D4FC",
"5. c #838B8E",
"6. c #848E94",
"7. c #8A9397",
"8. c #869399",
"9. c #86969B",
"0. c #8B949A",
"q. c #8595A0",
"w. c #8C9BA4",
"e. c #939EA5",
"r. c #8CA2AE",
"t. c #97A4AC",
"y. c #98A9B4",
"u. c #9EAFB9",
"i. c #9EB1BB",
"p. c #A2A9AE",
"a. c #A4AEB4",
"s. c #A3B3BC",
"d. c #A9B3B9",
"f. c #AAB5BC",
"g. c #B2B9BE",
"h. c #99B9C8",
"j. c #A3B7C5",
"k. c #AEBCC3",
"l. c #ADBFCA",
"z. c #B2BEC4",
"x. c #A3C1CF",
"c. c #B4C3CC",
"v. c #BDC6CD",
"b. c #B4C9D4",
"n. c #BACBD4",
"m. c #B5CCD9",
"M. c #BBCEDA",
"N. c #95CFEE",
"B. c #84CDF6",
"V. c #80C7F8",
"C. c #81CDFD",
"Z. c #8FD2F5",
"A. c #86D5FE",
"S. c #8CD5FD",
"D. c #8DDAFF",
"F. c #93D4FC",
"G. c #93DBFE",
"H. c #9DDCFD",
"J. c #A4D0E4",
"K. c #BCD9E8",
"L. c #A7DCF6",
"P. c #A5D6FC",
"I. c #A3DCFD",
"U. c #AADEFA",
"Y. c #B0DFFD",
"T. c #95E0FF",
"R. c #9BE0FF",
"E. c #A5E2FF",
"W. c #ACE3FE",
"Q. c #B4E5FE",
"!. c #BBE6FE",
"~. c #B5E8FF",
"^. c #BDE8FF",
"/. c #C2CED4",
"(. c #C5D5DD",
"). c #C9D2DA",
"_. c #C4D7E3",
"`. c #CDDCE6",
"'. c #CBDDE8",
"]. c #D1DDE5",
"[. c #CFE1ED",
"{. c #D2E0E6",
"}. c #D3E3ED",
"|. c #DAE5EC",
" X c #C6E2F1",
".X c #CAE3F2",
"XX c #C2E6FD",
"oX c #C4EAFF",
"OX c #CCECFF",
"+X c #D3E7F4",
"@X c #D6EAF6",
"#X c #DCEBF5",
"$X c #D3EEFF",
"%X c #D9EFFE",
"&X c #D6F0FF",
"*X c #DBF1FF",
"=X c #E1EFFB",
"-X c #E3F3FF",
";X c #EAF6FF",
":X c #E3F8FF",
">X c #EEF8FF",
",X c #F0F6FC",
"<X c #F3FAFF",
/* pixels */
"-X-X;X<X,X<X>X;X;X;X-X;X-X-X-X*X-X*X-X-X*X*X%X&X!.OX&X*X-X-X*X*X&X&X%X$X%X&X*X$X%X*XOXoXOXOX$X$X&X&X*X*X*X*X&X*X*X-X*X*X*X*X-X-XQ.OX^.*X*X;X",
";X-X-X-X;X;X;X;X-XOX;X;X;X;X-X;X-X;X-X-X*X*X%X$X$X$X*X-X-X-X-X&X$XG.D.H.OXOX*X$XH.Q.^.!.oX^.Q.$X&X%XoXG.OX$X$X&X&X*X*X-X-X:X&X&X-X-X-X;X;X;X",
"*X2.Q.-X-X-X*X-X;X;X%X*X-X-X;X;X;X;X;X-X*X*X*X$X$X*X-X-X*X*X*X$X!.OX$X$XW.&X$X&X-X-X*XOXOX-X*XOXOXoXoXoXoXE.>X>X&X*XoX*X*X*X&X&X-X-X-X:X-X;X",
"OX%X%XW.-X-X;X-X-X-X-X-X-XOX$X-X;X-X*X*X-X*X&X&X$X%XQ.XX&X%X*X$X&X$XOXE.oX-X*XOXOXOXOXOXOXOX$X$XOXOX*X$X^.oXoXOX&X&X&X*X*XOX>X-X-X*X-X*X;XOX",
"*X*X*X&XS.H.F.S.S.Z.-XoX*X&X$XOX*X*X*X*X*X&X&X%XOX*X%X&XOXOXOX&XOXOXoXA.oX*X&X&X&X*X*X*X$XOX^.oXOX&X%X%X&X$X$XG.&X&X*X&X*X*X*X-X-X*X-X-X%XQ.",
"&XOXOX~.Q.!.!.^.oX^.Z.oXoXOXOXOXOX&X&X*X%X&XOX&X*X&X&X%X$XOXoXoXoX^.!.Q.&X*X*X&X$X$X$XOXoXOXOXoXoXOXOX$X&X&X*XG.W.OX$X*X*X&X*X*X-X-X-X*XA.%X",
"OXOXOX&XoX^.^.!.!.W.oXoXoXoXOXOX&XOXOXOXOXoXoX%X*X&X*X*X$X&X!.!.^.!.oXoXoX$X&X*X*X$XOXOXOXOXOX$XW.oXOX$X$X&XOXW.OX&X&X&X*X*X*X*X-X-X*XOXoXOX",
"OXW.oXOXoX!.Q.^.W.!.!.OXoXoXoX%XOXOXoXOXOXoX%X*X*X*X*X%X%X&X$XE.OXoXQ.OXOX$X%X%X&X$XOXOXOX$XOX$X&XH.G.%X&X&X&XE.OX$X&X&X&X&X*X-X-X-X:X&XOXOX",
"oX&XOXOXOX^.Q.H.!.Q.!.!.OX$X-X%X*X%XOXOXOX$X%X*X*X*X*X*X*X*X%XOXOXoX2.OXOXOX$X$X$XOXoXoXOXOX$X$XOXOXH.!.&XoXD.&X$XOXOX&X$X&X&X*X-X-X^.&XOXOX",
"OX$XOXOXoX!.!.Q.E.Q.Q.XXoX*XW.&X*X*X*XOXOX$X%X*X*X-X*X*X*X*X*X*X^.oXOXoXOX$X&X&XOXOXoXOXOX%X%X$X%X$X*XF.I.Q.*X*X&XOXOX&X$X$X&X&X*XOXOX$XOXoX",
"!.OXOXOXoX!.Q.Q.Q.Q.~.^.$X$X&X&X%X*X&X%X$X$X&X&X*X-X*X*X*X-X*X*X&XQ.Q.OXOXOXOX&XOXOXOXOX$XOX%X%X*X$X$X>.OX*X*X-X*X*X&XOX$X$X$X%X$XOX%X%XoXOX",
"&XoXOXOXoX^.Q.Q.Q.Q.!.OXOX$XOX$X*X*X*XG.$X$X%X*X*X*X*X-X*X-X-X-X*XG.oX!.^.oXOXOXOXOXOX&X$X$X$X-X-X$X>.*X&X$X&X*X*X*X&X%X&X$X&X$XOXOX$X*X&XOX",
"$X^.OXOXOX^.!.!.Q.G.oXOXOX$X$X$X*X&XE.oXOX$X*X*X-X$X&X-X-X-X-X-X*XH.!.oX^.oXb.b.oXoXOXOX%X&XOXoX$XP.*X*X*X%X$X&X&X*X$X&X$XOX$X&X*X$XE.Q.OXoX",
"$X^.^.OXoXoX^.^.^.E.~.OX$XOX$X%X$X$XE.oXOX%X&X*X*X*X*X*X-X-X-X*XA.oXOXoXoXoX6.i.oX%X-X-X;X-X-XOX$X-X*X*X*X&X%XOX$X&X&X$X&XOXOX$XH.$X&X*X!.OX",
"*X^.!.OXOXoXoXOXOXOX^.!.$XOXOX$X&XW.!.OX$X%X*X%X*X*X-X-X-X-X*XA.Q.OXOXoXoXoX! t.$X&X*X-XQ.-XOXOX&X&X-X-X-X*XOXOX$X$X&X%X&X%X*XR.OX*X*X&XOX*X",
"&X&X&XoXoXoXOXOXOXOXZ.W.OXOX$X$X&XH.OXOX$X%X*X*X*X-X-X-X-X;XR.OX$XOX%X$XOX X& &.OXOX*X;X,X%X$X$X*X*X&X{.a.&X&XOXL.W.OX$XOX*XG.*X$X$X*X*X&X&X",
"&X*X$XoXoXoXOXOXOX$XOXH.*X$X$X%XW.^.&XOX&X%X&X&X&X*X-X-X;X%X$X$XOX&X&X&XOXs.@ o.oXoX*X#X:X*X$X*X*X*X*X&./.&X!.&X$X$X*XD.*XL.XX&X$X%X&X*X%X&X",
"&X&X&XOX$XOX$XOXOXOXOXI.E.&XOX3.L.$XOXOXOX$X&X%X*X&X-X-X-X*X$XOX$X$X&X&X&XL . N OXoXoXL.*X*X$XoX*X*Xz.k N.$X$X$X$X$X%XOXW.!.^.&X$X$X$X&X&X%X",
"&X*X&X&X$XOXOX$X$X$X&X$X,.S.G.*X&X%XOXOXOX$X$X$X%X&X*X$XoXOX$X$X$X$XOXOXb.@ * 3  XOXoXU.$XOXOX*X:XK.> X.*X&X&X*X*X*X*X-XoX*X$X&X$X$X$X%X$X%X",
"-X*XOX&X%X$XOX%X&X$X!.2.-.oX%X*X*X*X&X%X$XOX$X%X%X&X*XOX$X%XOX$XOX$X$X$XW @ 3 * j.$X$X*X*X~.#XXX1.] . c.*X&X*X*X*X*X-X*XE.%X$X%X%X$X%X&X&X-X",
";X*X$X$X$X$X$XOX&X~.B.H.$X%X&X*X*X*X&X$X$X$X$X$X%X$XOX*X*X*XXX$X$X$X$Xm.* = 1 > ' -XP.%X&XW.E.!.%.+ e [.&X*X*X*X-X*X*X-XE.B.XX&X%X&X&X&X*X-X",
"-X-X$X$X$XOX*X*XQ.H.*X&X&X$X$X$X*X$X%X$X%X$X$X$X&X$X&X*X*X;X%X$X&X%X@Xj 1 1 1 w 1 J.>.S.>X*XW.9.. 5 I &X&X*X*X*X*X*X*X*XOX$X:.$X&X&X*X*X>X;X",
";X-X$X%X*X-X^.W.oX*X*X*X&X&XOX$X$X&X$X$X%XOXOX$X%X%XW.OXW.~.$X-X-X%X#.: 2 1 6 > 1 #.*X-X&XOXt.+ 4 d  .^.&X&X&X-X-X*X*X*X-X$X*XOX&X&X*X*X;X;X",
"-X;X&X*X-X&XXXOX*X*X*X*X&X$X$X$XOX$X%XOX$X$X$X&X^.!.*X%X&X%X!.H.oXw.1 y : 1 w 3 e k (.&X^.r.= % z z [ $X&X&X&X-X*X*X-X%X-XQ.oX$X&X*X*X>X-X-X",
"-X-X-X-XOXOX%X%XOX&X*X-X%XOX!.OX$XOX$X&XOX%X&XE.-X*X*X*XY.%X*X*Xw.1 1 > 2 y : 3 v x Y _.+.= % z m z [ &X&X$X$X-X&X%X&X$X*XOX%XOX&X*X&X-X-X-X",
"-X*X-X&XOX*X&X*X%XOX*X*X%X$XOXOXoXW.OX$X$XOXI.*X$X&X*X&X%X%X%Xe.1 > e 1 1 3 2 v B V e $ : : k V C z } *X%X&XOX$XOX&X%X&X$X$X$X$X%X*X%X*X-X*X",
"*X-X*X$X&X*X&X%X&XOX-X*XoX*X$XOXOXOX!.&XoX1.*X$XOX%X&X*X%X+X{ w u > : 3 < < s c v 2 y 7 : 7 J J H n  .-X*X%X$XOX$XOX&X&X&XOX:X%X&X&X*X*X*X*X",
"-X*X$X%X&X$XOX&X%X-XOXXXOX$X$X$XOX$XH.D.E.A.%X$X$X$X%X%Xs.u w : : 1 e w < i x 6 2 a 4 2 a J n C J B ` *X*X*X:X*X$XOX$X$X$XOX*X%X%X*X*X*X-X-X",
"-X&X&X*X$XOX&X%X!.!.$XOXOXOXOX$X$X*X%XQ.-X$X$X$X$X%Xl.Y $ = ; w 9 4 < 1 5 2 2 d 8 4 7 d C H J J C C a #X*XOX*X*X&X*X&XOX$XQ.*X&X$X*X%X&X-X-X",
"*X%X$X*X&X&X*X!.OX$X&X$X%X&X*X*X*X$XOX$X%Xs.} #.#.M ; + : 3 : e > = > % 2 8 4 , 4 d B H J A H A C F 3 (.OX-X*X&XOXOXOX&XoXW.$XoX$X*X*X&X*X-X",
"-X*X*X&X*XQ.&XOX%X&X$X$X&X*X*Xz.{ I @.u.*.> e k 5 + + : : = : + = . % < < 5 d n B T C J S S A H J F 5 =.>X-X*X&X*X$XOX&XI.&XOX$X$X&X*X*X;X-X",
"*X-X%XOXH.$X%X$X&X$X&X$X*X*X*Xg q g y + e e 1 : 1 y W V y 2 ; ; % 5 i a B C C J J C S H S S A H J C 5 Q -X-X*X;X%X$X&XOXL.OXOX$X$X%X-X*X-X-X",
"-X-X-XU.$X$X$X$X$X$X%X$X%X-X%Xd.j.k.> 9 P v y ; 6 E / E 7 ; i a M C C C F F H J F H A H A F H H F C d 2 [.:X>X;X-XOX&XOXOX~.&XOXOX*X*X<X-X-X",
"-X-XW.%X$XOXOXOXOX$XOX*X*X%X%X%X%X%X/.r v v ; : 2 / D : y 4 : 5 n C J J H H F m H H H H A F A F F F 5 % 7.*X>X;X-X&XOXOXOXOXR.$X$XOX*X-X*X-X",
"-X;X%X*XOXoX!.OXOXOX%X*X*X%X%X%X%X&X*Xm.j v p ; 2 V c y # $ < < , 8 C C C m J J F F J J F F C C n d d t + (.*X-X*X&X$X&X$XOXOX$X$X%X>X*X-X*X",
"-XOX-X*X=X%XOXOXOXOXoX*X&X%X$X$X*X%X$XXX..u u 2 : v > a : $ 4 < 4 , , 4 x B B n n B n c c d a 8 d 4 d y 1 j }.*X*X*X$XOX&XOX&XoX$X&X-X-X-X-X",
"-XC.*X%X*X*X$XOXOXOXOX$X$XOXOXoX-X^.OXs.g w u 1 : v 3 < 1 + t 5 3 ; % ; % ; 4 7 i 8 a a a a i i i d i i t - 9 /.*X*X$X$X$X$X&XOXE.$X*X*X-X-X",
"-XH.$X%X&X*X*X$XOXoXoXM..XOX$X$X|.l.w.g 9 k > + k V 9 O 5 @ @ N M a 2 : ; ; ; ; ; < 2 2 e 7 y i 5 5 4 t 1 & p.-X-X*X*X%X$XOX$X$XOX!.*X*X*X*X",
"-X$XOX$X%X&X*X$XOXoXoXI j.OXOX.Xh L ^ h g P p V R i % 3 % < = y V G Z f 7 < ; ; % % % # $ $ + + O @ @ . q ).>X-X-X-X&X&X&X&X&X*X*X$XOX*X-X-X",
"*X-XOX$X%X*X&X&X%X%X#.X y.OX.XP z l b v p y I I y 2 : e > = < = f V G Z B m d 4 4 < 4 < < < < 1 4 5 < t ).>X:X>X;X-X%X*X*X*X*X*X*X-X!.;X*X*X",
"-X*X&X$X&X*X*XoX_.[ * % u.K.V V P w p ! j D U y 6 ; 7 6 2 3 % 1 < n C J G J Z C M n 8 8 d i i i i 1 t {.-X-X;X;X-X-X*X*X*X*X-X-X-X-X*XW.:X-X",
"-X*X&X&X&X&XoXM.M k : % v N T U v w s W U v c 6 8 8 8 c 7 : < 2 , 2 B C S J C Z z 8 8 d i 5 i t e e {.*X-X-X*X;X;X-X-X*X*X-X*X-X*X-X-X*XoX-X",
"-X*X*X*X&XOX.X~ W 7 : ; N ( E v u y U ) K c 7 c c B c c d 2 < 4 4 , 4 C J M A z 8 8 8 8 8 d d 8 1 h.*X-X#X-X=X;X;X;X-X*X*X*X-X-X-X-X-X-X*X%X",
"-XOX-X-XW.OX9.y c ; 6 T ( V B 7 4 7 E / c c c B D D D c x y $ < 8 ; < i n H A d 8 8 d 8 i d 8 % 8.OX}.*X-X-X:X:X-X-X-X*X*X-X-X*X-X*X-X#X*XoX",
"-X*X-XOX$X-Xy i 6 # E / K K 7 6 4 6 B c c F K F D B c 7 i i @ @ 5 5 4 , 5 B z 8 8 z i 5 d i < , ~ 9.t 8.=X-X=X;X-X*X*X*X%X*X*X*X-X*X-X-X-X-X",
"-X-X-X%X*X(.= e ; a ) E c a 7 6 ; c 8 4 D / / / B B 2 : 5 1 < @ @ d e < , < d i 8 8 i d d 4 < z z z q ^ ].| ^ #X|.f.*X&Xc.k.*X-X-X-X;X-X-X;X",
"-X-X-X-X%Xj.= 2 > E / D c ; 7 2 2 x 8 , c E _ _ B d % : 1 1 5 = @ - s 5 = < % 4 8 8 8 i 5 @ 1 Z L L q h h h q L g & ^ O.0 - 6.v.#X;X-X;X-X-X",
"*X;X;X-XOXq.+ w v ) D 6 7 : 2 ; 2 a ; ; 4 c / / c , # = 1 5 1 = @ O < s t % = + # % = < @ + 5 N L z L R g g g j g t Y j p k b r - 7.=X;X;X-X",
"OX;X;X-X^.Y > f U T c > 6 7 ; ; : 3 3 + # 6 v D 6 6 ; # 4 % , 8 s 5 , % 8 y 3 2 , + O % : 1 y y p g z f k g k N s v N N v V U U V r g =X;X*X",
";X-X;X&Xi.e z U M e w y > : ; % < 1 < = ; ; U / v E c ; , z m z Z x 2 % ; y i a = % O + % : 2 > < 5 < 5 < 2 p 2 3 3 3 2 3 > > 6 s f 3 o.>XOX",
"OXOXOXK.s V ~ z 1 : > w 3 : 2 3 = * > 2 ; ; ) ' / c a ; < z z d i i < 5 2 % 6 4 e Z T M e $ $ ; 1 e 1 1 = > % = = % % : > > : : = > 3 : n.$X",
"-X%X-X%.f J z = : + : 1 3 3 3 3 1 1 5 3 ; y ' D 7 6 ; ; 5 d i e < @ O % < $ > + p M V W U y : 6 z 5 + 1 - 4 e 5 e w 2 > > 3 > : = = &   e.-X",
";X*X@Xs e s < s I > j v w 3 = $ 1 > 1 : ; U / c 6 ; ; > e > 1   % = < < : 1 + + + y e 5 c V c e z 5 + 1 1 - 1 1 > g ] X.w.d.g.g.z.g.a.$.).;X",
"-X-X$XN . > % s y > v j 1 3 - 3 1 + + = : R R c ; # > p @.b.(.0.%...@ = : > : : < < : 3 6 2 > y % % ` o.7.s.c._.@X*X-X-X;X;X,X;X;X;X-X%X;X-X",
"-X;X'.V f > , 1 u I P u w e 3 r 1 * o ; * p v s # # # 6 x.=XOX%X-X-XO.@ > + 3 $ : : : : : : : $ @ I @X$X&X*X$X%X%X%X-X-X;X;X;X$XD.*X*X*X-X-X",
";X/.v s > , s s s v r 1 9 e r < + + * $ o ; y a y > : $ @.%X%X-X-X-X{.1 * * : $ $ : > > : : > : i I ] c.-X$X*X*X%X*X%X=X;X;X,X;X*X*X*X*X-X-X",
";X/.1 t = > 1 3 > > b 0.M.+X@X@Xa.@ . * - + = > w x u = 7.*X*X-X*X;X-X5.- & & = * + % : = > e 2 y L * X.-X*X%X*X%X*X*X*X-X;X;X<X;X*X*X%X-X-X",
";X-X%.N s i 1 < > w.+X$X%X%X%X%X*Xs.1 . @ = o $ ; p P Y R #.f.-X*X-X:X#XN * * * * 9 = + : : * : > q d.;X*X&X&X*X%X*X&X&X*X;X;X-X;X;X-X-X-X-X",
"-X;X/.p N 5 =  .'.OX$X$X$X*X%X%X*X*X#Xm.0.! w $ o * g k l g k /.-X-X-X-X=X7.g g > & + - > > q.].].#X;X;X-X%X*X%X&X*X%X$X%X-X<X-X;X;X=X-X-X;X",
"-X;X|.i z t k.&X$XOX$X$X%X&X%X*X&X&X&X!.~.;X}.r = * * = + > l r O.#X-X-X-X-X;X;X|.7.L N $.].-X=X-X-X*X-X-X*X%X%X%X&X$X%X$X%X%X-X;X;X-X-X;X-X",
";X;X-X*.9 m.$XOXOXOXOX$X$X&X*X%X*X*X$X-XC.!.%Xt.o * - 9 9 > q u O.*X-X*X-X-X-X<X<X>X!.;X-X-X*X-X*X-X*X*X*X-X-X*X*X&X$X%X&X$XOX&X-X;X-X-X-X-X",
";X^.;X!.`.$XOXOXOX$XOX$X&X*X*X*X*X*X&X-X-XC.V.Y.@.* > > 3 r 9 7.#X*X-X-X-X-X-X,X>X-XOXXX-X*X*X-X-X%X*X%X%X*X*X-X*X*X$X%X%XOXOXOX*X-XQ.-X;X;X",
"$X!.;XOX-X&X$XOXOXOX$X*X*X&X*X*X*X*X*X%X;XI.XXW.-X=X].|.#X@X#X*X*X-X-X-X-X-X-X<X;XOX-X%X-X*X*X*X*X*X*X*X%X*X*X*X-X*X$XOX$X$XOXXX^.*XoX-X-X-X",
"G.-X-X$X*X$X$X$XOX&X&X%X%X*X*X-X-X-X*X%XT.4.$X-X-X=X-X;X-X-X-X*X-X*X*X*X-X*X-X;X-X^.*X-X*X*X%X*X%X*X-X*X*X%X*X*X-X-X*X!.OXOX!.-X-XE.OX*X%XoX",
"-X;X;XA.*X$X$XOX$X%X$X$X$X*X*X-X-X*X*XoXL.:X-X-X-X-X;X-X-X-X-X*X*X-X*X*X-X-X-X;X*X-XoX*X*X*X;X*X*X-X*X*X%X*X*X%X*X-X-X*XOXOX>X*X-X-X!.*XOXE.",
"-X;X-XS.*X%X$X&XOX$X$X&X%X&X*X-X-X*X$XW.*X-X-X*X-X-X-X:X-X-X-X-X-X*X-X-X*X-X-X;XOX^.*X;X*X&X&X*X*X-X-X*X*X%X%X*X*X-X-X*X-XQ.-X-X-X-X2.P.W.>X",
"-X;X-XG.*X$XOX$X$X%X%X$XOX%X;X-X*XoXE.*X*X*X*X-X*X-X*X-X-X-X-X*X*X-X*X-X-X*X-X*XOX*XOX-X;X;X;X*X*X*X-X-X%X*X&X*X*X*X-X;XoX~.<.*X!.!.OX!.<X-X",
"-X;X;X3.*X$X$X$X$X$X&X@X*XOX*XOX$X~.>X:X-X-X-X*X*X*X*X-X*X-X-X-X-X*X*X*X-X-X-X-X&X&X;X*X;X;X$X*X-X-X-X*X*X*X$X%X-X;X^.Q.Z.4.@XoX-X;X*XOX<X-X",
"-X;X-XQ.OX%X$XOX$X$X=X;.*XOX$X$XoX>X-X-X;X*X*X*X*X*X*X-X-X*X-X*X*X*X*X*X*X-X-X<X!.Q.&X4.&XOX;X;X<X-X;X*X*X*X*X;X!.!.!.*X;X-X*X$X-X-X*XQ.*X-X",
";X-X;X$XG.I.oX!.XXA.-X;X*X*X$X!.,X-X>X;X-X-X-X-X*X*X*X*X*X-X*X-X-X*X*X*X&X*X-XoXoX-X,X*X$XoXOX-X;X-X-X&X%X;X-XQ.^.*X-X-X-X-X-X-X-X*X*X&X<X:X"
};
