/* XPM */
static char *_843_a85f6e546fac3bb808efcb6b6aeb56a12314d779348b21ce6083319546c47894[] = {
/* columns rows colors chars-per-pixel */
"70 70 207 2 ",
"   c #030D11",
".  c #0A0F17",
"X  c #071116",
"o  c #0A1215",
"O  c #07131B",
"+  c #0C151C",
"@  c #0E191D",
"#  c #17151A",
"$  c #12161C",
"%  c #121A1D",
"&  c #1A1B1D",
"*  c #2A241C",
"=  c #30291F",
"-  c #0D1720",
";  c #0D1A23",
":  c #131D23",
">  c #191E23",
",  c #131E29",
"<  c #231E24",
"1  c #152125",
"2  c #1A2225",
"3  c #15222A",
"4  c #1B252B",
"5  c #1E292D",
"6  c #1B2731",
"7  c #1D2A32",
"8  c #1A2A35",
"9  c #1F303A",
"0  c #232524",
"q  c #292926",
"w  c #21262A",
"e  c #28262A",
"r  c #222A2D",
"t  c #292C2C",
"y  c #342C22",
"u  c #312F2A",
"i  c #2F302F",
"p  c #363026",
"a  c #31302D",
"s  c #3E382F",
"d  c #232C33",
"f  c #2A2D32",
"g  c #222E39",
"h  c #2B2F38",
"j  c #263035",
"k  c #2B3335",
"l  c #26333C",
"z  c #2B353B",
"x  c #2E393D",
"c  c #333534",
"v  c #3A3935",
"b  c #32353B",
"n  c #3A363A",
"m  c #343B3D",
"M  c #3B3C3B",
"N  c #3C403F",
"B  c #4B4037",
"V  c #4C453C",
"C  c #50493F",
"Z  c #273641",
"A  c #2B3641",
"S  c #2D3B43",
"D  c #2D3E4A",
"F  c #333D44",
"G  c #323F49",
"H  c #2E414C",
"J  c #354145",
"K  c #3B4245",
"L  c #35434C",
"P  c #3A454C",
"I  c #3C484D",
"U  c #354552",
"Y  c #394651",
"T  c #364952",
"R  c #3B4A53",
"E  c #364B59",
"W  c #3B4D5A",
"Q  c #3D515C",
"!  c #394E61",
"~  c #3F5261",
"^  c #434644",
"/  c #4B4945",
"(  c #454348",
")  c #434A4D",
"_  c #4A4C4C",
"`  c #554B41",
"'  c #55524C",
"]  c #434D53",
"[  c #424F58",
"{  c #455155",
"}  c #4D5454",
"|  c #44535B",
" . c #4C555C",
".. c #4C595D",
"X. c #565756",
"o. c #53595C",
"O. c #6B635A",
"+. c #455662",
"@. c #4C5761",
"#. c #435967",
"$. c #4D5B64",
"%. c #4B5D6A",
"&. c #545E63",
"*. c #555F65",
"=. c #4D616E",
"-. c #556065",
";. c #54636B",
":. c #5B666C",
">. c #5F6B6F",
",. c #4B6071",
"<. c #536673",
"1. c #5E6B73",
"2. c #626667",
"3. c #706B62",
"4. c #676C70",
"5. c #697479",
"6. c #777B7D",
"7. c #758086",
"8. c #7B868B",
"9. c #7B868C",
"0. c #788B95",
"q. c #7C96A4",
"w. c #5BB3F7",
"e. c #6BB9F1",
"r. c #5EC3FB",
"t. c #6CC7FC",
"y. c #67CAFC",
"u. c #78CAF9",
"i. c #7BD4FE",
"p. c #84898B",
"a. c #838E94",
"s. c #8B959A",
"d. c #979997",
"f. c #929A9F",
"g. c #8D99A1",
"h. c #899DAB",
"j. c #929EA5",
"k. c #8EA1AA",
"l. c #96A2A7",
"z. c #99A4AC",
"x. c #96A8B2",
"c. c #9EABB3",
"v. c #A3ADB1",
"b. c #ADB1B2",
"n. c #AAB4BA",
"m. c #A9B7BF",
"M. c #99B8C5",
"N. c #A7BBC7",
"B. c #ACBCC4",
"V. c #B1BCC3",
"C. c #B8BEC1",
"Z. c #B5C3CB",
"A. c #BBC6CD",
"S. c #AEC8D5",
"D. c #B9CBD7",
"F. c #BECCD4",
"G. c #BDD1DC",
"H. c #84CDF6",
"J. c #80CEFA",
"K. c #8ED2F5",
"L. c #85D5FE",
"P. c #8CD5FD",
"I. c #8DDAFF",
"U. c #95D4FD",
"Y. c #93DBFE",
"T. c #9DDCFD",
"R. c #B5D6E7",
"E. c #A5DAF8",
"W. c #A3DCFD",
"Q. c #AADEFB",
"!. c #AEE5F7",
"~. c #A5E2FF",
"^. c #ABE3FE",
"/. c #B4E5FE",
"(. c #BBE6FE",
"). c #B6E9FF",
"_. c #BDE8FE",
"`. c #C3CED4",
"'. c #C3D2DC",
"]. c #C8D2D8",
"[. c #C2D5E2",
"{. c #C7D9E5",
"}. c #D2DDE4",
"|. c #CCE1ED",
" X c #D6E4EB",
".X c #D4E3ED",
"XX c #C5E0F1",
"oX c #CCE5F3",
"OX c #C2E6FD",
"+X c #C4EAFE",
"@X c #CCECFF",
"#X c #D2E6F3",
"$X c #D8E7F2",
"%X c #D4E9F6",
"&X c #DCECF5",
"*X c #D3EEFF",
"=X c #D9EFFE",
"-X c #CCF1FF",
";X c #D6F0FF",
":X c #DBF1FF",
">X c #E1EEF9",
",X c #E3F3FF",
"<X c #EAF6FF",
"1X c #E5F8FE",
"2X c #EEF8FF",
"3X c #F0F6FC",
"4X c #F2F9FF",
/* pixels */
",X,X<X4X3X4X4X<X<X<X,X<X,X,X,X:X,X:X:X:X:X:X*X:X(.@X;X:X,X,X,X:X;X;X*X*X*X;X:X*X:X:X*X+X@X@X*X*X;X:X:X:X:X;X;X:X:X,X:X:X:X:X,X1X/.@X_.:X:X2X",
"<X,X,X,X<X<X<X<X,X@X<X<X<X<X<X,X<X,X<X,X:X:X=X@X*X*X:X<X,X,X,X*X*XY.I.T.@X*X:X@XY./.(.(.+X_./.*X;X*X@XI.@X;X;X;X:X:X;X,X1X,X;X-X,X,X,X2X1X,X",
",Xu./.,X,X:X:X,X<X<X*X,X,X,X,X<X,X2X<X,X,X:X:X;X*X:X,X,X:X:X:X*X(.@X*X*X^.;X;X;X<X,X:X@X@X,X:X@X@X+X+X_.+X~.<X<X;X:X+X:X:X:X;X:X,X,X,X,X,X<X",
"@X=X=X^.,X,X<X,X,X,X,X,X=X*X*X,X<X,X,X:X:X:X:X*X*X=X/.(.;X=X:X*X*X*X*X~.+X,X:X@X@X@X@X+X@X@X*X*X@X@X:X*X+X+X+X@X;X;X;X:X:X@X<X,X,X:X,X:X,X*X",
":X:X:X-XP.W.U.P.P.P.,X+X=X*X*X@X:X:X:X:X:X;X:X*X@X:X*X;X*X@X@X*X@X@X+XL.+X:X;X:X*X:X:X:X*X@X+XOX@X;X*X*X:X*X@XY.*X*X:X:X:X:X:X,X:X:X,X,X*X/.",
";X@X@X(./.(._._.OX_.K.+X@X@X@X@X@X;X;X:X*X*X*X*X:X;X:X:X*X@X+X+X+X_.(./.:X;X:X;X*X*X@X*X+X+X@X+X+X*X@X*X*X:X:XT./.@X-X;X:X:X:X:X,X,X1X:XL.*X",
"@X@X+X*X+X_._.(._./.+X+X+X+X@X@X;X@X@X@X@X@X@X=X:X:X=X*X*X*X_.(.(._.+X@X@X*X*X:X:X*X@X@X@X@X@X*X^.+X@X*X*X;X*X^.*X*X;X;X:X:X:X:X,X,X:X@X@X@X",
"@X!.-X+X+X(./._.Q.(.(.@X+X@X+X*X@X@X+X+X@X+X=X=X:X:X:X:X*X*X*X^.@X_./.+X@X*X=X*X:X*X@X@X@X*X*X*X*XT.Y.=X*X;X-X^.@X*X;X;X;X:X:X:X,X<X,X*X@X@X",
"+X;X@X@X@X_./.T./.(.(.(.@X@X,X*X:X=X@X@X@X*X:X:X:X:X:X:X=X:X:X@X@X+Xu.*X+X*X*X*X*X@X+X+X*X@X*X*X@X@XT.(.:X_.Y.;X*X@X*X*X;X*X;X:X,X,X_.*X@X@X",
"@X@X@X@X+X_.(./.~././._.OX,X/.*X:X:X:X@X@X*X*X=X:X:X:X:X:X:X:X=X+XOX+X+X@X*X*X;X@X@X+X@X@X*X*X*X:X;X:XI.W./.:X;X;X@X@X*X*X*X;X;X;X*X@X*X@X+X",
"_.@X@X@X+X(././././.)._.*X*X*X;X*X:X:X=X*X*X;X:X:X,X:X:X,X:X:X:X;X/.(.@X@X@X*X*X*X@X@X@X*X@X=X=X:X;X;Xe.@X:X:X,X:X:X*X@X*X*X*X;X*X@X*X*X@X@X",
";X+X@X@X+X_././././._.@X@X@X*X;X:X:X:XY.*X*X=X:X:X:X,X:X,X,X,X:X:XY.+X_.+X+X@X@X@X@X@X*X*X*X@X,X,X@Xw.:X*X*X:X:X:X:X:X*X*X;X*X*X@X*X*X:X@X*X",
";X+X@X@X+X+X/.(./.Y.OX@X@X*X*X*X:X*X~.+X@X*X:X:X,X*X:X:X,X,X,X,X:XT.(.+X_.+X_.OX+X+X@X*X*X=X*X+X*XW.=X:X:X*X;X*X;X:X;X*X;X@X*X;X:X@X~.(.@X@X",
"-X_._.@X@X+X_._._.~./.@X*X@X*X*X*X*X~.+X@X*X;X:X:X:X:X,X,X,X,X,XP._.@X+X+X+X_.+X+X*X:X<X<X,X:X*X:X:X:X,X:X:X*X*X@X;X;X*X*X*X@X*XT.*X;X:X(.@X",
":X+X_.@X@X+X+X@X@X@X(.(.*X@X*X*X*X!.(.@X*X=X:X:X:X,X,X,X,X,X:XL./.@X@X+X@X+X+X+X*X*X:X,X/.,X*X@X;X*X:X,X:X:X@X@X;X*X;X*X;X;X,XT.*X:X:X;X@X:X",
"*X*X*X+X+X+X@X@X@X@XY.Q.@X*X@X*X:XY.@X*X=X*X=X:X:X`.`.,X,X1XM.A.%X@X;X;X+X+X@X@X@X*X:X,X2X=X@X*X:X:X:X:X,X;X*X@XQ.^.*X*X@X:XI.:X*X*X*X:X:X*X",
";X:X*X+X+X+X@X@X@X*X@XT.:X;X*X*X/._.;X-X*X=X*X=XC.y = ` O.3.s p B d.&Xv.d.|.-X+X+X+X:X&X1X:X-X:X:X:X:X:X,X:X_.*X*X*X:XI.:XW.OX*X=X*X:X:X;X:X",
"*X:X;X;X*X@X@X@X@X@X@XT.~.;X@Xi.Q.@X@X@Xf.2.d.d.V y = ` V * p s O.C B p * B p.@XoX+X+XE.:X:X;X+X:X:X:X(.H.*X*X*X*X*X=X@X^._._.=X*X*X*X=X*X*X",
"*X:X*X@X*X*X*X*X@X;X;X;Xr.q.Y.:X=X%X5.'./ v a / u / u / ^ t / a / s p / q X.' M q B.+X!.@X;X-X;X,X_.P.@X:X*X;X:X*X=X,X,X+X:X*X*X*X*X*X*X=X;X",
",X:X*X*X*X@X*X*X:X%X(.u...m :X:X&X..i f.m t K ' c X.K b m K o.( t M _ o.k N k t M m _ A.:X/.&X-Xt.(.:X;X:X;X:X:X,X:X:X:X^.:X*X*X*X*X=X;X;X,X",
"<X:X*X*X*X*X*X@X;X(.H.q.o I :X%X-.N N 7 N I 5 k P *.4.*.*.&.@.<.1.-...$.-.I l } m F k 0 6.!.~.!.;X*X=X:X:X:X:X:X,X:X:X,X~.H.OX=X*X;X:X:X:X<X",
"<X<X*X*X*X@X:X:X/.T.>.5 $ S [.:.I R 9 N J -...I ;.*.<.*.%.+.! #.+.Q T W I Q ..Q I k r ^ 2 V S.|.@X*X*X*X:X*X:X:X:X:X:X:X@X*Xe.*X;X;X;X:X<X,X",
",X,X*X*X:X,X_.Q.+X&.P 1 4 : G | ..l j 3 T -.-.$.+.+.#.+.E G U ! E E T ,.+.T L H I L ) J N N 2 q f.V.*XOX*X;X:X,X,X:X:X:X<X@X:X*X;X;X:X:X<X<X",
",X<X*X:X,X;X+X@Xa.{ J 3 ; S $. .N 9 8 J ;.....Q Y S W ! D E ! ,.! H ~ <.#.E Q ~ -. .F J t I I 5 0 ^ +X=X*X*X;X,X:X:X:X=X,X(.OX*X:X;X:X2X,X,X",
",X,X,X,X*X@X*X%XF F d O L *.[ Y 9 3 8 L Y S U W L U H U H ~ ,.,.E E T ~ W Q =.<.<.Q H Z 5 N H N t c }.*X;X*X*X,X;X*X;X*X:X@X%X*X:X;X:X,X,X,X",
",X:X,X=X@X*X=XB.> 5 - g ;.[ W Z 9 3 1 9 g 7 Y W R U Z H Q ;.%.T E ~ %.Q H E =.<.Q H N 8 1 5 N N M M a ^ 8.;X@X*X*X;X*X:X*X*X;X*X*X:X:X:X:X:X",
":X:X:X*X;X:X:X7.: 5 ; W $.Y A 6 6 3 7 5 4 9 | Y L l Z H | Q E G T ..=.| D U +.+.Z 8 3 8 ; 3 Z H  .^ N q 4.:X-X*X*X@X;X*X;X@X:X:X*X;X:X:X,X:X",
",X,X*X*X:X;X+X$.- d S $.L S 6 6 4 3 d 3 , 7 ] S l 8 H T U G Y R H T T T U Y U Z 8 3 3 8 3 3 9 N K K k q t l.C.:X@X*X*X*X-X@X,X;X:X:X:X:X,X,X",
",X=X*X:X*X@X*Xm 1 d @.| F 6 , d , : 2 : O : P S 8 3 P L D W %.Y T L H L U R W S 8 8 3 @ @ 1 5 2 h F m b k t a ].;X;X;X;X*X/.:X;X*X:X*X=X,X,X",
":X*X*X:X*X:XF.> z P { G g 4 6 , : $ 2 1 + X S I 9 1 L Y L R %.G P I T L U W +.Y 9 3 1 3 2 2 5 2 2 d j K t K & p.v.n.-X;XOX/.;XOX*X:X:X:X:X:X",
",X:X:X:X:X(. .j I ] l 6 , d , : # & > 2 $ X j I 8 ; H T Y G G G H U T T H L W L N ; 5 N N 1 1 1 4 > 4 r k t c 0 & N #X@XW.:X@X;X@X:X:X:X<X,X",
",X,X*X@XT.h.k o.] f $ . d > : 4 w w @ % 1 @ d R 1 1 H H W U Y W #.T H T T H L L H 1 @ 1 @ 5 k k d 1 4 2 2 k M v q q v 2 9.@X@X@X*X=X,X:X,X,X",
",X:X1X!.oXt I ) < < < & w j 5 2 1 2 2 5 > X j J 3 ; L U L U U U W T L H L T L T L S P J : ..K 2 j 5 1 % 5 % 0 k N N r > 2 $.S.*X*X*X=X4X,X<X",
",X,X!.;XG.o t q < ( n # t x 5 2 $ # o % O   F J 3 ; S P P U U U L L L T T L L L G , 3 | } { l.j % k r t 1 1 1 % 5 5 h F J F z $.[.*X=X,X,X,X",
",X<X;X:XXX% @ o # e < n _ z 1 1 > $ o + + @ J j ; 4 H Y U T U U T L H I T H N l , : w , I m 5 x N r @ 1 r 2 r 2 ; 1 1 4 h F G ) c z.<X:X:X,X",
",X@X;X;Xn.N N 2 e h b _ b 4 4 j 0 $ % X O h 6 : 3 S P I U H U T T L T L H x 9 8 6 , , h 5 j j j k @ 7.V.) 2 1 2 2 5 5 2 : : > d F k v.,X,X,X",
",XJ.:X8.k N   1 h h f h > 6 6 O 1 o o X : d @ 1 S P L L U L T T G G G A 3 3 l L 3 - , : : 4 w & 2 2 |.2X1X|.j.o.w 2 > 4 e r w > 2 k e }.,X,X",
",XT.;Xl.1 5 @ 5 < r > w 9.a.d 4 % % o 1 5 $ 1 l P T L Y R E H D G Z , 6 l T U F - : , > # o % $ o R.-X1X1X1X,X,X&X].l.*.d w w w w > 2 &.,X:X",
",X;X@X*X4.K x 3 $ , @.S.N.G h $ % 5 1 r 2 $ 7 P P P L P H D 9 8 , 8 A G R R G F - - . > 4 r > f N p.-X1X3X<X<X,X,X,X;X;X%X`.s.) 2 w 2 & .X:X",
":X,X@X*Xk.K J 2 1 c.XXh.A h : - % 1 r 2 @ 5 S I P L S l , , ; 6 A G G [ G G G G : - : + > 2 > c N o d.:X>X1X<X<X<X,X=X:X=X=X=X=X`.8.m 2 .X,X",
",X:X;X*XG.J k @ K N.0.d G b , > + f 4 : 2 h S j 6 3 ; ; ; 9 S L G ! G W I L L L 3 ; $ 4 % + % % 0 0. X:X,X,X,X<X,X,X,X:X:X,X:X,X:X,X&XR.,X:X",
",X:X;X;X;X7.k ) b G > - b h , - 5 K 2   : : ; O ; ; 6 l S P Y R G G Y Y T T T L J @ @ 1 P x.'.[.oXy.,X,X,X,X,X<X<X,X,X:X:X:X:X,X,X,X,X:X+X,X",
",X:X,X,X*X@X%X%Xa.d > b h $ , < L z 2 4 : O 4 1 7 Z S P P L H L U Y U Y H L L L T 5 m F.%X@X,X:X-X~.:X:X,X,X,X,X,X,X,X:X:X,X,X,X:X,X,X,X:X;X",
":X@X,X:X/.@X:X:X=X>.d : > 6 $ 4 w b 5 $ ; 1 d z F P Y P T P T I Y Y U G I T T R I J x 7.>X,X,X=X@X@X:X,X:X,X1X,X,X<X,X:X;X,X,X:X,X,X,X:X:X+X",
",X:X,X@X@X,X:X&X:X>.d > h d - 2 l m d : 1 4 j S L L L P U G Y G L P P Y P P H x N l 2 % s.1X,X=X*X:X:X).:X,X,X,X,X:X=X:X:X:X:X:X,X,X:X,X,X,X",
",X,X,X,X:X:X&X2X>Xk r + h l > J ] h 4 d 3 4 j j d 7 g l A D G D S S A l 9 8 3 1 @ @ @ v.<X1X=X=X:X*X@X,X,X,X,X,X,X:X:X*X;X:X:X,X,X,X,X<X,X<X",
",X,X<X:X*X:XU.,X>Xb 1 1 6 @ d x r h r + : 3 1 3 d 8 6 4 3 6 6 , 6 4 , , : 1 1 : 1 r `.<X<X,X,X*X+X/.:X:X,X,X,X,X,X,X:X:X:X:X:X,X,X,X,X,X,X,X",
":X,X,X,X@X+X,X,X.Xr % 5 j 1 S 5 + 1 l 5 @ 1 4 4 3 3 , , , , , , 4 4 , 4 4 4 2 2 2 ].<X<X,X<X,X=XQ.y.:X:X:X,X:X,X,X,X,X:X=X:X,X:X,X,X<X<X<X,X",
"*X2X,X<X_.:X,X:X[.2 1 0 j 4 7 5 : 1 2 d d > - d d w 6 3 6 6 6 , 6 6 4 4 4 d - e ].<X<X<X<X<X<X,XOXy.*X:X:X:X,X,X,X,X,X,X:X:X,X,X,X,X,X,X,X:X",
",X,X1X;X+X,X:X*X'.> % r x 5 8 5 > 4 2 > r d 4 4 F A S G S Z 8 Z 6 6 d d d d e b.<X<X4X3X<X<X<X,XOXu.@X*X*X;X;X:X:X:X:X*X:X,X:X,X,X:X2X1X<X@X",
"@X@X@X(.:X:X*X*X{.2 % 5 z 5 5 3 % 5 4 2 2 4 2 5 , z G Y G G ] G L G P G G b o.,X<X<X<X<X<X<X<X,X).T.*X;X*X*X@X*X*X:X:X:X:X=X,X,X,X:X=X*X*X*X",
"<X=X,X@X,X*X*X*XoX0 > 1 d 5 5 3 > 4 5 5 4 , , d z 6 6 A Y [ G R U L G L P f n.<X<X3X<X2X<X4X2X:X@X*X:X*X*X;X*X*X*X*X:X:X:X,X,X,X<X,X:X*X;X,X",
"1X&X=X:X,X*X*X:X%XN 1 1 l 5 4 3 1 4 6 1 4 7 6 3 6 h A g d A G G Y Y L Y K r }.<X<X<X3X4X2X<X<XT.+X*X=X=X*X<X@X*X*X=X=X,X<X<X2X2X4X3X,X:X=X<X",
",X,X*X,X:X;X*X:X-X4.% 1 j d 1 1 1 5 5 8 6 4 4 2 d , , d g h A G G Y Y I G > $X<X<X<X2X2X2X<X;XQ.*X:X:X*X<X*X*X*X:X:X,X,X<X<X4X<X<X<X:X:X<X<X",
",X,X=X*X:X;X;X:X;Xm.% % r d ; 1 ; 3 l S l 7 4 8 , 6 6 , , w d d l S G P L 4 }.<X<X<X2X2X<X:X^.*X*X=X:X=X*X:X*X*X=X:X,X,X<X<X<X*XI.:X=X:X,X,X",
"<X,X=X+X:X;X*X:X-XoXt % 1 l 1 4 - 6 F P Y P S 6 6 3 4 6 6 4 , 4 , 3 g F K 4 A.<X2X2X2X2X3X_.@X=X:X:X:X:X,X*X:X;X*X:X:X,X,X<X2X<X:X:X:X:X,X,X",
"<X,X:X).:X*X*X:X;X;X5.1 % j 5 % ; 3 S T L T L D d 6 6 4 w 4 > 4 4 6 - : d : a.<X2X2X2X4X4X+X:X:X=X<X,X<X,X=X;X=X=X:X:X:X,X<X2X4X,X:X=X=X,X,X",
",X,X,X_.,X*X*X;X;X;XD.5 % r 5 % 1 1 l L Y I L L G 6 , 6 4 6 d 4 4 4 d 4 . r V.3X2X2X2X4X4X:X,X=X:X4X<X<X:X:X;X:X*X:X*X:X:X<X<X,X<X<X,X,X,X<X",
"<X<X,X(.,X*X*X:X-X-X;X8.% 5 j 1 1 ; 5 L R T P P Y L l 4 , > 4 w 6 e , > s.&X,X<X2X3X2X<X2X,X,X,X:X:X<X<X,X:X:X=X:X=X=X*X:X,X3X1X<X<X,X,X,X,X",
"<X,X,X(.:X*X:X;X-X%X*X.X^ o 5 r : 4 4 L L L P T L L S g g w > 4 , > ) '.,X<X,X3X2X2X2X-X1X,X:X=X,X,X:X,X,X:X:X=X*X:X;X=X*X*X*X,X<X<X,X,X,X<X",
",X<X,X/.:X*X@X*X@X@X@X*X'.1 1 k 4 4 4 S L L P T U Y Y S 5 4 5 > > z.,X,X,X,X<X3X2X<X_.<X,X,X,X:X,X,X=X:X,X:X,X:X=X:X*X:X=X*X*X@X,X<X:X,X,X,X",
"<XOX,X_.,X*X@X@X@X*X@X*X;XZ.0 % r 2 5 5 T L E H U Y L Y Y 4 ,  .}.,X=X,X,X,X,X<X2X,X@X+X:X:X:X,X:X:X:X:X=X:X:X,X:X:X*X;X*X*X@X@X:X,X(.,X<X<X",
"*X_.,X*X:X*X@X@X@X@X*X:X:X:Xs.> r 5 4 1 z L T P T L F Y G h g.,X:X:X:X,X:X,X,X4X<X@X,X*X,X:X:X:X=X:X:X:X:X=X:X:X,X:X:X+X*X*X@XOX_.,X+X:X,X,X",
"Y.,X,X*X,X*X*X*X*X*X:X:X*X=X,Xj.% r 1 ; 1 J H Y P P R S S V.,X:X:X,X,X:X,X,X,X<X,XOX:X,X,X:X:X=X:X,X,X=X=X:X:X:X,X,X&X/.*X@X(.,X,X~.@X,X:X_.",
",X<X,XL.:X*X*X*X*X*X*X*X*X:X:X,XZ.w } k.2 $ L P L ) J j A.,X,X:X:X,X:X:X,X,X,X<X=X,X+X:X:X:X<X:X:X,X:X:X:X=X:X=X:X,X,X*X@X@X<X,X,X,X_.:X@X^.",
",X<X<XP.:X*X*X*X*X*X*X=X*X:X:X,X,X.XN.^.V.% 1 K K K k z.,X,X:X,X,X:X,X,X:X,X,X<X@X_.:X2X:X*X:X:X:X,X,X:X=X:X:X:X:X:X,X,X,X/.,X,X,X,Xu.E.^.<X",
",X,X,XY.:X*X@X*X*X*X*X*X*X*X<X<X:X+X~.:X:X`.2 2 P b m &X,X,X,X,X,X:X:X,X,X,X,X:X@X:X@X:X<X<X<X:X=X,X:X:X=X:X*X:X:X,X1X2X+X).t.:X(./.*X(.4X,X",
"<X<X<Xi.:X*X*X*X*X*X:X%X*X*X:X@X@X(.2X1X,X,X$X-.r k f.:X,X:X,X,X,X:X:X:X,X:X,X,X=X;X1X:X,X2X*X&X,X,X,X,X:X=X:X=X,X<X(./.Y.u.%X+X,X<X:X@X4X,X",
",X,X,X/.@X*X*X*X*X*X>Xw.*X*X*X*X@X<X1X,X,X,X:X:Xc.I F.,X,X,X:X,X:X,X:X:X:X,X1X4X(.).*Xi.*X@X<X1X4X,X,X:X:X:X:X<X(.(./.:X,X,X:X;X,X,X:X/.,X,X",
"<X<X<X@XY.E.OX_.(.P.,X<X:X:X*X_.2X,X<X2X,X,X,X,X:X#X#X:X:X:X,X:X,X:X;X=X=X:X,XOX+X,X2X,X*X+X@X,X<X,X,X:X*X<X,X/._.,X,X,X,X,X,X,X,X:X:X*X4X,X"
};
