/* XPM */
static char *_6798_7c2f3e164b17c07acfb0d36258cc49d0ecbf03554f6f3bd5717ea9c0106c5392[] = {
/* columns rows colors chars-per-pixel */
"70 70 200 2 ",
"   c #030B10",
".  c #090F13",
"X  c #071114",
"o  c #0C1316",
"O  c #061219",
"+  c #0C151B",
"@  c #0D1A1D",
"#  c #101417",
"$  c #191916",
"%  c #12171B",
"&  c #131A1D",
"*  c #1A1C1E",
"=  c #201E1F",
"-  c #0D1721",
";  c #0D1B22",
":  c #131D23",
">  c #1A1E24",
",  c #0F2125",
"<  c #152224",
"1  c #1A2225",
"2  c #15242A",
"3  c #1B252A",
"4  c #17282F",
"5  c #1D2A2D",
"6  c #1A2730",
"7  c #1D2B32",
"8  c #1E3133",
"9  c #1F3038",
"0  c #222324",
"q  c #22252A",
"w  c #222A2D",
"e  c #292D2E",
"r  c #2E302F",
"t  c #232D32",
"y  c #2A2D32",
"u  c #232F38",
"i  c #243234",
"p  c #2B3235",
"a  c #24343A",
"s  c #2B353B",
"d  c #27393B",
"f  c #2C3A3C",
"g  c #323234",
"h  c #32363A",
"j  c #333A3D",
"k  c #3A3C3E",
"l  c #403E39",
"z  c #41413F",
"x  c #263741",
"c  c #2B3741",
"v  c #2D3C42",
"b  c #333D42",
"n  c #393E42",
"m  c #333F49",
"M  c #2E4145",
"N  c #344145",
"B  c #3B4245",
"V  c #34434B",
"C  c #3B454B",
"Z  c #34494B",
"A  c #3B4A4D",
"S  c #354451",
"D  c #394753",
"F  c #3C4A53",
"G  c #3F4D58",
"H  c #3E5154",
"J  c #43454A",
"K  c #46474B",
"L  c #42494C",
"P  c #424C53",
"I  c #4A4E53",
"U  c #445257",
"Y  c #4C5254",
"T  c #45525B",
"R  c #4C545A",
"E  c #4E585F",
"W  c #535458",
"Q  c #545A5C",
"!  c #595859",
"~  c #475560",
"^  c #4A5661",
"/  c #4B5A62",
"(  c #535C63",
")  c #595F62",
"_  c #555F68",
"`  c #546165",
"'  c #5C6266",
"]  c #53646D",
"[  c #5D656A",
"{  c #4D6C7A",
"}  c #5E6C72",
"|  c #60696D",
" . c #646A6C",
".. c #636D70",
"X. c #617174",
"o. c #6A7276",
"O. c #65737A",
"+. c #6B757B",
"@. c #6D797F",
"#. c #717679",
"$. c #80807E",
"%. c #757D84",
"&. c #61818F",
"*. c #768289",
"=. c #7B8489",
"-. c #7F8A90",
";. c #7798AB",
":. c #4DA6F5",
">. c #5BB3F7",
",. c #6BB9F1",
"<. c #5EC3FB",
"1. c #6EC4FB",
"2. c #76C6FB",
"3. c #7CC6F8",
"4. c #77C9F8",
"5. c #7CCCF8",
"6. c #79D4FD",
"7. c #838C91",
"8. c #88949A",
"9. c #8A959B",
"0. c #8D9AA2",
"q. c #949EA4",
"w. c #99A1A7",
"e. c #91A1AA",
"r. c #9AA5AC",
"t. c #88A7B9",
"y. c #94A9B6",
"u. c #9DACB3",
"i. c #A2ABB0",
"p. c #A3AFB9",
"a. c #AAB1B6",
"s. c #A5B4BC",
"d. c #ADB7BD",
"f. c #8EAEC1",
"g. c #A5BBC7",
"h. c #AEBBC3",
"j. c #B4BCC1",
"k. c #ACC1CC",
"l. c #B9C1C6",
"z. c #B4C3CB",
"x. c #B9C3CC",
"c. c #ACC8D8",
"v. c #BAC7D1",
"b. c #BDCCD4",
"n. c #B5CBD8",
"m. c #BED0DB",
"M. c #96CAE3",
"N. c #84CDF6",
"B. c #81CDFD",
"V. c #8ED2F5",
"C. c #85D5FD",
"Z. c #8CD4FD",
"A. c #8DDAFF",
"S. c #95D4FD",
"D. c #93DBFE",
"F. c #9DDCFD",
"G. c #B4D6EA",
"H. c #A6DBFA",
"J. c #A3DDFD",
"K. c #B6DDF0",
"L. c #B0DFFD",
"P. c #95E0FF",
"I. c #9AE0FF",
"U. c #A6E2FE",
"Y. c #ACE3FE",
"T. c #BEE1F4",
"R. c #B4E5FE",
"E. c #BBE6FE",
"W. c #B5E8FF",
"Q. c #BDE8FF",
"!. c #C4CFD7",
"~. c #C4D0D7",
"^. c #C5D2DB",
"/. c #CBD5DD",
"(. c #D1D7DE",
"). c #CBD9E2",
"_. c #CBDDE7",
"`. c #D3DFE5",
"'. c #CCE0EC",
"]. c #D3E3EC",
"[. c #DBE5EC",
"{. c #CAE4F2",
"}. c #C2E6FD",
"|. c #C4EAFE",
" X c #CCECFF",
".X c #D7E6F1",
"XX c #D8E7F1",
"oX c #D5E9F5",
"OX c #DAEAF4",
"+X c #D3EEFF",
"@X c #D9EFFD",
"#X c #CCF1FF",
"$X c #D6F0FF",
"%X c #DCF1FF",
"&X c #E2F4F9",
"*X c #E3F3FF",
"=X c #EAF6FF",
"-X c #EEF8FF",
";X c #F0F7FE",
":X c #F3F9FF",
/* pixels */
"*X*X=X:X;X:X=X-X=X=X*X=X*X*X*X%X*X%X*X%X*X%X@X$XE. X$X%X*X*X%X%X$X$X+X+X@X$X$X+X@X%X X|. X X+X+X$X$X%X%X%X$X$X%X%X*X%X%X%X%X%X*XW. XQ.%X%X-X",
"=X*X*X*X=X-X=X=X*X X=X=X=X=X=X*X*X=X*X*X%X%X%X X+X+X%X*X*X*X*X$X+XD.A.F. X$X%X XF.R.Q.E. XW.E. X@X+X|.D. X$X$X$X%X%X%X*X*X*X$X$X*X*X&X=X=X*X",
"%X5.R.*X*X%X%X*X=X*X@X%X*X*X=X=X=X=X=X*X%X%X%X+X+X%X*X*X%X%X%X$XE. X+X+XY.@X$X%X=X*X%X X X*X%X X X|.}.}.|.U.=X=X$X%X|.%X%X%X$X$X%X*X*X*X*X*X",
" X@X@XY.*X*X=X*X*X=X*X*X%X+X X*X=X*X%X%X*X%X@X+X@X$XR.}.$X@X%X+X$X+X XU.}.*X%X X X X X|. X X+X+X X#X%X$X}.|.|.+X$X$X$X%X%X#X-X*X*X*X*X%X*X$X",
"%X*X%X$XZ.F.S.Z.S.Z.*X|.@X@X X X%X%X%X%X%X$X$X+X X$X@X+X+X X$X X X|.Q.C.|.%X$X%X$X%X%X%X$X X}.}. X$X$X$X%X+X XD.$X+X$X%X%X%X%X*X*X%X*X*X@XR.",
"$X X XW.R.W.E.Q.}.Q.V.}. X X X X X$X$X%X$X+X+X+X%X$X%X$X X X}.|.|.}.Q.R.$X$X%X$X+X+X X+X|. X X|.}. X X@X@X$X%XD.Y.#X$X%X%X$X%X%X*X*X*X%XC.@X",
" X X|.$X|.}.Q.E.W.R.|.|.|.|. X+X$X X X X X|. X@X%X$X%X%X+X$XE.W.Q.Q.|. X X$X$X%X%X$X|. X X X X XY.|. X X X$X+XY.+X$X$X$X%X%X%X%X*X*X%X X X|.",
" XY.|. X|.E.R.Q.Y.W.Q. X|.}.}.@X X X|. X|. X@X%X%X%X%X@X%X@X+XU. X}.R.|. X X@X@X$X$X X X X$X+X+X$XF.F.$X$X$X#XY.+X X$X$X$X%X%X%X*X*X*X$X X X",
"|.+X X X XQ.E.F.E.R.R.Q. X X*X@X%X@X X X X+X%X@X%X%X%X%X@X%X%X X X X4. X|.$X+X+X+X X X|. X+X X+X X XH.W.%X}.A.$X X X X$X@X+X$X$X*X*XQ.@X X X",
" X+X X X XW.E.R.U.R.R.}.|.*XR.@X%X%X$X X X+X@X$X%X%X%X%X%X%X%X%X|.Q. X|. X+X$X$X X|.|.|. X@X$X$X%X$X%XD.J.R.%X%X$X X X$X+X$X$X$X$X X X+X X|.",
"Q. X X XQ.Q.R.R.R.R.W.Q.@X X X$X@X%X$X@X@X$X$X%X%X*X%X*X*X%X%X%X$XR.W. X X X X@X+X X X X+X X@X%X%X$X$X>. X%X%X*X%X%X$X X+X+X@X+X@X#X@X+X|. X",
"$X|. X X}.Q.R.R.R.R.Q. X X+X X@X%X%X%XA. X$X@X%X%X%X%X%X*X*X*X%X%XD.|.Q.}.}. X+X X X X$X+X+X X*X&X X>.%X$X$X$X$X%X%X%X+X+X$X+X$X X X+X%X+X X",
"$X}. X X|.}.R.W.E.D.}. X X+X+X+X].h.t.8.+.[ B n h p y h n ' *.7.p.f.c.G.{.}.Q.Q.}.|. X+X+X$X+X}.+XJ.%X%X%X$X@X$X$X$X+X@X$X+X+X$X%X+XU.E. X|.",
"#XQ.Q. X X|.Q.}.Q.I.W. Xg.0.=.P 1 + u y > : : & 1 1 3 1 : & % + % : 3 1 3 b O.8.g.'.*X*X=X*X%X X%X%X*X%X%X$X+X+X+X$X$X+X+X X|.+XD.$X$X%XQ. X",
"%X}.Q. X X|.|. X X XE.R p w 3 3 : & t 7 u n t > ; : 1 3 5 w 5 5 5 3 3 7 y s y w 1 s o.h.K.*X X X+X@X%X*X*X%X X#X+X+X@X@X@X+X*XI. X%X%X$X X%X",
"$X@X+X|.|.|. X X X XM.j B w p f 3 : : ; s R b 3 a t 3 2 1 5 t w 3 1 < : : 3 i j B j s e J -.m.$X%X%X$X%X%X@X$X XH.Y.#X+X X*XA.%X+X@X$X@X%X$X",
"$X$X+X|.|.|. X X X+X X;.]...* B i & : & O m f ; @ 2 a t 3 3 1 p r i 8 5 < @ @ $ 1 w f A f B U @./.%X%X%X&X$XQ.+X+X+X%XA.%XJ.}.$X+X$X$X%X@X$X",
"$X%X@X+X+X X X X X X XJ.Y.$Xd.p w 1 o % < : b 7 ; : o 3 1 < w & 5 8 i 8 8 8 5 5 < @ < : w s. X|.%X%X%XR.N.$X+X+X+X+X@X+XY.E.Q.@X+X+X@X$X$X@X",
"@X$X$X#X+X+X+X+X X@X$X$X<.C.D._.P t w + : @ ; f 3 O : & : & w < $ < 5 r d d i i w i 5 7 5 A 8.).*XQ.Z. X%X$X$X$X$X%X%X%X}.%X$X+X+X+X+X+X@X+X",
"*X%X X$X+X X+X+X%X+XE.5.:.|.@X%XOXo.p q + > : 3 t ; < @ : 1 < 1 < < < < 0 8 i i i i 8 5 i w < < { n.%X$X%X%X%X%X*X%X*X%XY.$X@X+X+X@X@X$X$X*X",
"=X%X+X+X+X+X+X X$XW.N.F.+X@X%X@X%X@X+.t e 3 > : 5 i + 1 & : @ 1 8 0 5 < < < 5 8 d 8 i d i 8 d i 2 5 +.).%X%X%X%X%X*X%X%XU.N.}.$X$X$X%X%X%X*X",
"*X*X+X+X@X X%X%XR.D.%X$X$X$X X+X%X@X@X8.e q e t 5 e 5 < < @ @ < < 5 8 e < < < < , d i 8 i d 5 i d i 1 d 0.$X%X%X*X%X%X%X X$X,. X$X$X@X%X-X=X",
"=X*X$X+X%X*XE.Y.}.%X%X%X$X$X X+X+X+X+X+X..* 0 1 p : i : w 5 < @ o < 5 r i 8 < @ , < 8 8 d 8 d 8 8 d N N w ' ~.*X%X%X*X%X*X X%X+X+X$X%X%X=X=X",
"*X=X@X%X*X$X}. X%X%X%X%X%X+X+X+X X+X@X+X+X| 1 q * 1 5 s @ < 7 @ < < $ < i d 8 8 4 @ @ 8 d 8 8 d Z Z Z +.h.b.k.l.*X%X%X%X*XT.Q.@X%X$X%X-X*X*X",
"*X*X*X*X X X@X$X X$X%X%X@X XQ. X+X+X X$X X@X' t p < o f 5 @ i < o < < < < 8 d 8 8 8 , @ < 8 i M Z Z X.$X+X$X$X*X$X+X X$X%X X+X X$X%X%X%X*X*X",
"*X%X%X@X X@X$X%X@X+X%X*X@X+X X XQ.Y. X+X$X#XG.w B 1 1 e N < ; i < < < < < < 8 8 d d 5 5 , , 8 f H i m.%X@X$X X X$X$X+X@X$X@X+X@X@X@X%X%X*X%X",
"%X*X%X+X%X%X$X@X$X+X*X%X|.%X+X X X XQ.+X|.4.@Xe r e < i d ; < i 8 < $ 5 8 @ < d w i d 5 8 @ @ d Z t XX*X%X$X X+X X+X+X@X$X X%X%X$X$X%X%X*X%X",
"*X%X+X%X$X+X X+X+X*X|.}. X+X+X+X X+XF.D.U.V.m.0 5 w 5 N 2 @ v N Z d 8 < 8 8 $ < i N f j f i $ < f 1 XX*X%X%X=X$X+X#X+X+X X X*X$X%X$X%X%X%X*X",
"*X$X@X$X@X X$X@XQ.E.+X X Xm.#X+X+X%X@Xc.k ) k 1 0 & B d @ 1 Z F Z Z Z < < 8 8 < f A A L 5 p i < X $ OX%X%X X%X%X$X%X$X+X$XY.%X$X+X%X@X%X*X*X",
"%X$X+X%X$X$X*XR. X+X+X@Xz.) %X&X%X_.J I k e Y r 1 f N < @ d Z M Z d Z Z < 8 8 < < N L p &.^.XX).d.[ OX%X+X*X%X$X X X X$X}.R.$X|.+X%X%X$X%X%X",
"*X*X%X$X%XR.$X+X@X+X@Xm.$ ) %X%Xv.j n j q e h q q B p < < M Z 8 M 8 Z H d < @ 8 < < w | &X=XD.&X*X&X=XI.=X*X%X$X$X+X X+XJ.$X#X+X X%X%X$X=X=X",
"*X%X+X XF.+X+X+X+X+Xu.1 + ( @Xr.h L h e I h k B j 5 w 2 8 i i d 8 d d Z H d < d s s & t ).*X&XE.#X%X$XW.*X*X%X=X@X+X@X XJ. X X+X+X@X*X%X*X*X",
"*X*X*XL.+X+X@X@X{.} s 4 - c ( m Q b m 3 D S S v 9 V V v u x a t 8 d d d M M , 4 m m m q y 7.!.*X=XK.Z.@X%X=X=X=X&X$X$X X XW.#X+X+X@X$X:X*X*X",
"%X*XY.%X+X X X X%.P M ; : u T ^ C a 7 c F D D c S S S D V x m v M Z M d 9 M x 4 x D c q b 3 % %.7.$.2.@X*X%X=X=X*X X X X X XF. X X+X%X*X*X*X",
"*X=X@X%X X|.E.c.t V 4 ; m ^ ^ P c t 6 T ^ T ^ D S S S m c m F m M Z M H H H / S x u c > : n J g g l V.*Xa.oX%X*X%X$X$X$X X X X$X$X$X=X%X*X*X",
"*X X@X%X*X@XoX` t 4 + m ^ ^ D c 6 > : P S D G S m V V 7 7 v c u 8 8 8 Z ] / { ] P u 6 6 > h h y r $ 7.o.r a.%X%XOX%X+X X$X+X$X|.$X$X*X*X%X*X",
"*X5.%X@X%X%X'.@ 5 + 4 E ^ m c x 7 2 7 m c V T ~ D V x ; 7 t : 4 4 d 4 , H ] ] ~ x 6 6 6 : y n n h J r L 0  .(.Q l OX@X@X+X X$X XJ.+X%X%X*X*X",
"*XJ.+X@X@X%Xb.O w 5 Z / m c 6 6 2 2 c a a V ^ ] ~ S 9 - ; 5 : 7 7 9 4 ; x ] ] S 6 6 2 ; - q n m B k N e f l g z 0 9.9.! oX+X+X$X XE.%X%X%X%X",
"*X$X X+X%X%Xr.% 7 B U A x 6 6 > > 3 a 7 6 m T ] ^ S 6 - @ < 3 5 2 < 4 4 9 ] ~ 9 6 6 2 : > 6 u w j J N n L k j p g q = = q.%.W OX@X+X X%X*X*X",
"%X%X+X+X$X%XL 1 h A U N 6 > 6 3 - 3 7 2 - t c F / c : u 1 O < & < 6 4 8 x ] / 9 6 ; - 3 6 > > 6 5 1 p f h B j k n k g k h 0 1 ].*X*XW.=X%X%X",
"*X%X+X+X$Xq.q B I n y > > 6 > - : : 5 3 ; + - u D m L R s > @ f N A A f i X.U 7 4 ; - ; : : > 6 3 1 < & w 5 q p g j m J J s c %..X*X*XY.*X*X",
"*X%X$X@Xz.p I W n > # q u > - q : : 1 : : - : - P ( ^ V t % p B C d a t i H F t 3 7 u a u q > : < : i w & 1 < 1 3 > q y c m P P ( !.*X@X}.*X",
"*X%X%X%Xy n I h % = * > q > q q w & & 3 q 6 > - L _ m 2 : : j s w 5 3 O : p w 5 u m I ( ( P u + : B e < & @ q & : 3 : - 6 9 u m C n ^.*X@X@X",
"*X X*XXX0 q y > J n > y c q 6 - : q w B q 6 ; : V ( u > : 1 t 1 & < < & @ @ @ < : > > 7 c m n c 5 s f & q w w % % : > - - > 6 6 b s W .X%X|.",
"*X%X%X{.q 1 o % y q q n h < 1 & b %.k.oXp.  + + P ( m 2 @ @ & & j o p 5 o * < o + : 1 1 3 3 t u t 5 + / .X@X[./.j.w.%.R 6 - - > > C h 9.*X*X",
"*X*X&Xi.j i t 1 q h I K e : i 5 e. X X+X+XB + + m P C : ; & @ & e.].OX~.p o @ * + % : > > : : > : O : x.*X*X*X*X*X@X@X@X@Xj.[ > + : h I OX=X",
"*X*X@.e i X 1 p h h g w 3 3 2 : R  X X+X@X0.. - > t v t a p w 5 q.z.7.`.j.$ o * % + % : > : : : > 3 f Q 9.XX*X*X*X*X@X@X@X@X@Xv.n % 0 > ).*X",
"$X=Xi.q e < 1 5 > q y T 0.g.k.g.n. X X@X*X_.> o + + & 1 3 f N P B r r Y #.& @ & & & : % : : > 6 3 3 B y > d.*X*X*X%X*X*X@X@X*X*X@X=.% $ ~.*X",
"+X-X&X[ J p q 1 & ( k.|.|.|.|.}. X|.+X$X%X%Xu.& # # . % * o q f y > 0 n h | K % # . > $ % * . & : $ * n ^.%X*X*X*X*X%X*X%X%X*X*X*X%Xx.0 [.%X",
"*X*X=X+.B j & B p. X X|.|. X|. X X X@X@X%X%X%XXX~.!.~.o.# & & @ * * 1 0 1 (.&Xq.| | n # . o 0 q.y.;.n.oX+X$X$X%X%X%X%X%X%X*X%X*X*X%X:X&X-X X",
"+X X Xy.h 1 8.+X$X X X|.|.|. X#XU. X@X@X$X%X%X*X%X*X=X&XP % # > 1 * * K j.:X*X*X=X=X=X(.a.d.[.*XQ.D.+X@X X$X X+X$X$X%X%X@X%X*X*X*X%X@X+X X+X",
"*X@X*X{.h e.+X@X$X+X X X X|. X|.|.|.+X$X%X%X%X*X*X*X*X*XK.C * & z 7.!.*X*X*X*X=X=X=X=X=X:X:X-X*X X X@X@X$X$X@X+X$X+X@X%X%X*X*X*X=X*X%X@X@X&X",
"=X%X%X%XOX$X+X%X@X+X X X X X X X#XW.@X%X%X%X%X*X%X*X*X@XU.@X].].*X*X*X*X*X*X*X&X=X=X;X;X-X=X-XF.}.%X@X@X X=X X+X@X@X@X*X=X=X-X-X:X-X*X%X@X=X",
"*X*X@X%X%X$X+X%X+X+X X X X$X+X@X%XY.$X$X%X%X*X%X*X*X*X XF.@X%X%X*X*X=X*X*X=X=X=X=X=X-X;X-X=X$XH.+X%X%X@X=X$X X+X%X%X*X*X=X=X:X=X=X=X%X@X=X*X",
"*X*X@X$X%X$X$X%X+X X X+X+X+X+X$X%X|.$X$X%X%X%X*X*X*X*X XR.*X|.@X*X*X*X*X=X*X=X=X=X=X=X;X=X@XY.+X@X$X%X@X$X%X+X@X@X$X*X*X=X=X=X+XA.%X@X%X*X*X",
"=X*X@X}.%X$X@X$X$X+X+X+X+X@X$X%X%X%XD.$X%X%X%X%X%X*X*XY. X%X%X*X*X*X*X=X*X=X=X=X=X-X;X;X;XQ. X@X$X%X%X%X*X X%X%X@X%X@X*X*X=X-X=X%X%X%X@X=X*X",
"=X*X%XW.%X+X@X%X@X X+X+X$X$X%X%X%X%XR.|.%X%X%X*X%X*X%XU.%X%X%X*X*X*X*X*X*X=X*X=X=X:X-X:X:X|.%X%X%X=X=X=X*X%X%X@X$X%X$X%X*X=X=X:X*X@X@X@X*X=X",
"*X*X*XQ.%X+X+X$X$X$X+X@X%X@X$X@X%X%X%X}.$X*X%X*X*X%X%XR.*X%X%X*X*X*X*X*X=X*X=X;X-X-X-X:X:X%X*X%X%X;X*X*X%X$X$X%X@X%X@X$X%X=X=X*X=X=X*X*X*X*X",
"=X=X*XE.*X+X$X%X+X+X$X+X@X%X$X%X%X%X*X|.$X*X%X%X%X%XY.Y.*X*X%X%X@X*X*X*X*X*X*X:X-X;X-X=X=X*X%X%X%X*X=X=X*X@X@X$X@X$X@X$X@X*X:X*X=X=X*X*X*X=X",
"=X*X*XQ.%X+X%X$X X X+X+X@X$X$X@X%X$X+XQ.W.*X*X*X%XY.C.%X%X%X%X$X*X*X*X*X*X*X*X:X;X-X-X#X=X&X*X%X%X*X%X*X*X*X%X@X@X$X$X@X@X@X%X*X=X=X*X*X*X=X",
"*X=X*XR.%X$X X+X X X X+X+X$X@X$X%X%X#X*XB.W.@X XY.D.*X%X%X$X%X%X%X*X*X%X*X*X*X:X-X=XQ.=X*X*X*X%X*X*X@X%X%X%X*X%X%X$X@X@X$X+X X$X*X=X%X*X=X*X",
"=X}.*XQ.%X+X X X X+X X+X$X%X%X%X%X%X$X*X*XB.3.Y.W.%X*X%X%X%X%X%X%X%X*X*X*X*X*X:X-X*X X|.%X%X%X*X%X%X%X%X%X@X*X*X%X%X+X@X+X X X X%X*XE.*X*X*X",
"+X}.*X X%X$X+X X X+X+X%X$X%X%X%X%X%X%X@X;XJ.Q.R.*X*X*X*X*X%X*X%X%X*X%X*X*X%X*X-X=X X*X+X*X%X%X%X@X%X%X%X%X%X%X%X*X%X%X|.+X+X X}.Q.%X|.*X*X*X",
"P.*X*X@X*X+X X+X+X X%X$X@X%X%X*X*X%X*X%XD.6.$X*X*X*X=X*X*X%X*X%X*X%X*X%X*X*X*X=X*X}.%X*X*X%X%X@X%X*X*X@X@X%X@X%X*X*X@XR.+X XE.*X*XU.#X%X%X|.",
"*X*X*XC.%X+X+X X+X+X+X X@X$X%X*X*X*X%X|.J.*X*X*X*X*X=X*X*X*X*X%X%X*X%X%X*X*X*X=X%X*X|.%X%X%X-X%X%X*X%X%X%X%X@X%X%X*X*X@X X X=X*X*X*XQ.%X XY.",
"=X=X=XZ.*X@X+X+X+X+X@X@X$X%X%X*X%X%X$XU.&X%X*X%X%X*X*X*X*X*X*X*X%X*X*X*X*X*X*X=X XQ.%X=X%X$X%X@X%X*X*X%X%X@X%X@X%X*X*X%X*XR.*X*X*X*X2.H.Y.=X",
"*X*X=XD.%X+X X+X@X+X@X@X X$X=X=X%XQ.U.%X%X*X*X%X*X%X*X*X*X*X%X*X*X%X%X*X%X*X*X$X X*X X%X*X=X=X%X@X*X%X%X%X@X$X@X%X%X&X-X}.R.1.%XE.R.+XE.:X*X",
"*X=X*X6.%X+X+X+X X+X@XoX@X X%X X#XQ.=X*X*X*X%X%X%X%X%X*X*X%X*X*X%X*X%X%X*X*X*X*X%X$X&X%X*X-X@X%X*X*X*X*X%X%X%X@X*X=XQ.R.D.6.oX|.*X=X@X X:X%X",
"*X=X*XR. X@X+X X+X+X&X>.%X X+X+X X=X&X*X*X*X%X*X%X%X%X*X*X%X%X*X%X%X%X%X%X*X%X:XW.R.@X6. X+X=X*X:X*X*X*X%X%X%X=XQ.R.E.%X*X*X*X$X*X*X%XR.*X*X",
"=X*X=X+XD.J.}.E.}.C.*X*X%X%X+XQ.=X=X=X-X=X*X*X%X%X%X%X%X%X*X%X*X*X%X%X$X%X%X&X|.|.*X-X*X X|.+X*X*X*X*X$X+X=X*XR.Q.*X*X*X*X*X*X*X*X%X%X%X:X*X"
};
