/* XPM */
static char *_5084_5a54cbeed5317266398d7fcacf51edf097c8b45a590616ae2c18f3163033296d[] = {
/* columns rows colors chars-per-pixel */
"70 70 192 2 ",
"   c #060B0F",
".  c #0B0D0D",
"X  c #050B11",
"o  c #0A0E12",
"O  c #0C1215",
"+  c #061118",
"@  c #0C151C",
"#  c #0D181D",
"$  c #111416",
"%  c #181713",
"&  c #1D1A16",
"*  c #12161B",
"=  c #14191D",
"-  c #1A1C1D",
";  c #221E1A",
":  c #25211B",
">  c #2C251F",
",  c #0D1721",
"<  c #0E1A22",
"1  c #141C23",
"2  c #191E23",
"3  c #141F28",
"4  c #162025",
"5  c #1B2126",
"6  c #162229",
"7  c #1B242B",
"8  c #1E282E",
"9  c #1C2731",
"0  c #1D2A32",
"q  c #232423",
"w  c #2A2826",
"e  c #21262B",
"r  c #232A2D",
"t  c #2B2C2C",
"y  c #2E302F",
"u  c #34312D",
"i  c #232C34",
"p  c #292E32",
"a  c #232F38",
"s  c #243036",
"d  c #2C3235",
"f  c #26333B",
"g  c #2B343B",
"h  c #2E383F",
"j  c #343434",
"k  c #32363A",
"l  c #33393D",
"z  c #3A3A3A",
"x  c #443A32",
"c  c #43413F",
"v  c #2D3741",
"b  c #2C3A42",
"n  c #2A3A45",
"m  c #333C43",
"M  c #3A3F43",
"N  c #333F48",
"B  c #374047",
"V  c #3C4145",
"C  c #34434C",
"Z  c #3C454B",
"A  c #3D484F",
"S  c #374652",
"D  c #394752",
"F  c #374851",
"G  c #3B4A52",
"H  c #404244",
"J  c #4C4641",
"K  c #414549",
"L  c #44494C",
"P  c #4A4B4C",
"I  c #55524E",
"U  c #434D54",
"Y  c #4A4E52",
"T  c #434F58",
"R  c #465156",
"E  c #4B5154",
"W  c #45515A",
"Q  c #4A535B",
"!  c #52595D",
"~  c #4D5B63",
"^  c #4F5D68",
"/  c #535C64",
"(  c #525F68",
")  c #55626B",
"_  c #5D656B",
"`  c #5B656C",
"'  c #576975",
"]  c #5A6872",
"[  c #616466",
"{  c #636F75",
"}  c #686F71",
"|  c #6A7275",
" . c #64727A",
".. c #6C757B",
"X. c #787C7E",
"o. c #6C7982",
"O. c #747E82",
"+. c #738089",
"@. c #7D858A",
"#. c #4DA6F5",
"$. c #4FB2F6",
"%. c #59B6F9",
"&. c #79BBE5",
"*. c #62BCF9",
"=. c #6CC8FC",
"-. c #76C6FB",
";. c #7CCAF8",
":. c #7BD3FF",
">. c #79D4FC",
",. c #80878E",
"<. c #838C92",
"1. c #888F93",
"2. c #8C959C",
"3. c #93999A",
"4. c #949EA5",
"5. c #8EA1A9",
"6. c #95A3AC",
"7. c #9AA4AC",
"8. c #9DA8AE",
"9. c #88ABBF",
"0. c #9AA8B0",
"q. c #9EB4BE",
"w. c #ACADAF",
"e. c #A6B3BA",
"r. c #AAB4BB",
"t. c #B9BCBD",
"y. c #8DB5CD",
"u. c #91B3C5",
"i. c #A5BBC7",
"p. c #ADBCC4",
"a. c #B4BDC4",
"s. c #BABFC2",
"d. c #B0BEC8",
"f. c #AEC2CF",
"g. c #B5C3CC",
"h. c #BAC4CB",
"j. c #B8C9D5",
"k. c #BED2DD",
"l. c #85CBF5",
"z. c #81CDFD",
"x. c #8ED2F5",
"c. c #85D4FE",
"v. c #8CD4FD",
"b. c #8EDAFF",
"n. c #99D7FE",
"m. c #93DBFE",
"M. c #9DDCFD",
"N. c #B9D7E8",
"B. c #A4DBF7",
"V. c #A5D6FC",
"C. c #A3DDFD",
"Z. c #AADEFA",
"A. c #B0DFFD",
"S. c #9BE0FF",
"D. c #A5E2FF",
"F. c #ACE3FE",
"G. c #B4E5FE",
"H. c #BBE6FE",
"J. c #B6E9FF",
"K. c #BDE8FF",
"L. c #C8CED3",
"P. c #CDD4D7",
"I. c #C4D2DB",
"U. c #CAD5DC",
"Y. c #CADAE3",
"T. c #CBDEEB",
"R. c #D1DDE4",
"E. c #D2DFE8",
"W. c #CDE1ED",
"Q. c #D3E4EF",
"!. c #DAE1E8",
"~. c #CDE3F1",
"^. c #CBE7F6",
"/. c #C3E6FD",
"(. c #C4EAFF",
"). c #CCECFF",
"_. c #D3E6F2",
"`. c #D5EAF6",
"'. c #DDEBF4",
"]. c #D0E7FA",
"[. c #D3EEFF",
"{. c #D9EFFE",
"}. c #CCF1FF",
"|. c #D6F0FF",
" X c #DCF1FF",
".X c #E3EDF4",
"XX c #E3F3FF",
"oX c #EAF6FE",
"OX c #E4F8FE",
"+X c #EEF8FF",
"@X c #F0F6FC",
"#X c #F2F9FF",
/* pixels */
"XXXX+X#X@X#X+X+XoXoXXXoXXXXXXX XXX XXX XXX{.{.|.H.).|.|.XXoX X|.|.|.[.[.{.|.|.[.|. X[.(.).).[.[.|.|.|. X|.|.|.XX XXXXX|. X XXXXXG.).K. X XoX",
"oXXXXXXXoXoXoXoXoX).oXoXoXoXoXXXXXoXoX XXX|.|.).{.[. XoXXXXXXX{.[.m.b.M.).[.|.|.n.G.K.H.(.H.G.[.|.|.).m.).|.|.|.|.|. XXXXXOX|.|.XXXXXXoXoXOX",
" X;.G.XXXX{.{.XXoXXX{. XXXXXoXoXoXoXoXXX X X X{.[.|.XXXX X X X{.H.).[.[.G.|.|.|.oXXX X).).XX X).).(././.(.D.oX+X|. X).|.XX|.|.|.XXXXXXXXXXOX",
").{.{.F.XXoXoXXXXXXXXXXX X[.).XXoXXX XXXXX|.{.[.|.{.G./.|.|.|.[.|.[.).D./.XX|.).).).).).).).[.[.).). X|./.(.(.).|.|.|. X X).oXXXXX XXXXXOX`.",
"|.XX X|.b.M.n.v.v.x.XX(.{.{.).).XX|. X X|.|.|.{.).|.{.|.[.).}.[.).)./.c.(. X|.|.|.|.|.|.|.).(./.}.{.[.|.|.[.).m.}.|. X X X X XXX XXXXXXX{.F.",
"|.).).J.G.H.H.K.(.K.x.(.).).).).).[.{.|.|.[.[.|. X|. X|.[.)./.(.(./.J.G.|.|. X|.[.[.|.[.(.(.)././.).[.[.|.|. XS.G.).|.|. X|. X XXXXX X Xc.{.",
").).(.`.(.K.K.H.H.G.(.(.(.(.).[.|.).).).[.).).{. X X X|.[.[.H.K.K.H.(.).).[.|. X|.{.).).).}.).[.F.(.).|.[.|.).D.).[.|.|. X X X XXXXX X).).).",
").F.(.}.(.H.G.K.Z.H.K.(.).(.K.{.).).(.(.).(.{.{. X|. X{.{.{.[.D.)./.G.(.).[.{.{.|.[.).).).[.[.).|.n.m.|.{.|.|.D.[.[.|.|.|. X X XXXXXOX|.).).",
"(.|.).).)./.G.n.G.G.G.K.).).XX{. X{.).).).[.|. X X X X X X|.{.[.).).-.}.).).[.[.[.).).(.).).|.[.).).M.H.|./.m.|.).).).|.{.|.|.|.XXXX/.|.).).",
").}.).).(.K.J.G.D.G.G./.(.XXG.{.|. X X).).{.{. X|.XX X X X X X|.K./.).(.).[.{.|.).(.(.(.).|.|.|.{.{. Xb.C.G.|.|.|.).).[.[.[.|.|.|.).).}.).).",
"K.).).)./.K.G.G.G.G.G.K.[.[.).|.{. X|.|.[.[.|.|. XXX X XXXXXXX|.|.J.J.).).}.|.|.[.).).).[.).{.{.|.{.`.*.). XXXXX X|.{.[.[.|.{.[.[.).{.{.(.).",
"[.(.).).(.K.G.G.J.G.K.).).[.).|.{.|.oXm.[.[.{.|. X X X XXXXX XXX|.m./.K./.(.(.}.).).).|.[.|.].XXXX).*. X|.|.|.|. X X|.|.[.[.|.[.).).{.|.).[.",
"|.K.).).).K.G.H.H.m.(.).).[.[.[.|.|.D.(.).{.|. XXX{.|.XXXXXXXXXX XC.H.(.K././././.(.).[.{.|.).(.[.C.{. X X{.[.|.|.|.|.[.[.).{.|. X[.D.H.).).",
"}./.K.).(.(.K./.K.D.J.).[.).[.{.{.[.D.(.).{.|. X|. X|.XXXXoXXX Xv.K.).(.(./.J.(.).|. XoXXXXXXX).|.XX XXXXX|.{.).[.|.|.{.|.).(.[.M.[.|.|.H.).",
"|./.K.).(.).(.).(.).K.J.[.).).[.{.D.J.).{.|.|. X X XXXXXXXXX|.c.G.(.).(.)././.).).[. XXXJ.oX).).{.|. XXX X|.[.).[.[.|.[.[.[.XXS.).|. X|.).|.",
"|.{.[.(.(.(.).).).[.x.F.).).[.[.{.m.[.).{.{.{. X XXXXXXXXXXXD.).).[.|.{.(.}.).(.).[. XXX@X{.).{. X|.{. XXX|.[.).Z.D.).[.[.XXm.|.{.{. X|.|.|.",
"|.|.[.(.(.).).).).[.).M.XX).[.[.G.K.|.|.[.|.|.|. X XoXXXoX{.[.[.[.|.|.|.).).).(.(.(.{.{.XX X[.|. X X X|.XX|.K.[.[.[.|.b. XC./.{.[.{.|.|.|.|.",
"|. X[.[.[.).).).).).).M.D.|.[.:.B.).).).).[.|.{.|.|.XXoX X{.[.).[.).{.{.|.[.(.).).).(.Z.|. X[.). X XXXJ.l.{.[.[.[.[.{.[.F.K.K.{.[.[.[.|.|.{.",
"|.|.|.|.[.).).[.[.{.|.[.=.c.9.1.| 3.^.].[.).[.{.|.|.|.`./.[.).[.[.).).).).).[.).(.(./.Z.[.[.}.|.XX/.v.). X{.|.|.{. X XXX(. X[.|.[.[.{.{.{.{.",
"XX X[.[.[.[.[.[.|.^.N.l.#.(.t 2 * - ! E _ ..6.d.W.W.'.}.[.{.).[.).|.[.).).|.[.|.K.[.{. X|.G.'./.=.K.|.{. X|. X X X XXX|.D.|.[.[.{.[.{.|.|.XX",
"oX|.[.[.{.[.[.)./ e * t 4.4.- q o 2 k d r B m r f B L O.h.{.(.].[.[.[.).[.).|.|.(.XXV.{.|.F.D.G.{.[.{.|.|.|. XXX XXX|.XXD.l./.|.{.|.|. X{.oX",
"oXXX[.[.[.). X|.o.' Y . $ $   & * O 1 e 7 3 i g 8 6 4 8 r Y g.[.|.{.).[.).).{.|.C.D.*.v.+X XF. X[.).|.|. X|.|. XXX X X X).{.&.[.|.|.|. XoXoX",
"oXXX[.{. XXXK.Z./.|.{.7.$ o - o o @ 1 3 s 7 s 7 s 0 0 i 9 7 k ..U.|.). X|.G.F.F.|. X|.OX|.).|.|.[.[.[./.{.|.|.XX X X X XoX[.|.).|.|.|. XoXXX",
"oXXX{. XXX|.(.). XXX{. Xh.$ . * 1 1 + # 4 8 s B a 0 0 0 g h a 2 7 ..N.m.G.).XX{.|. X X{./.J.XXXX XXX/.|.[.|.|.XXXX X X{.XXG./.[. X|. XoXXXoX",
"XXXXXXXX`.).|.|.{.|. XXX{.f.* o 1 7 1 1 O 7 s h C C 0 0 0 0 N M j 1 = 5.[.{.{.).{.|. X{.$.XXXXXXoXXX X|.[.|.|.XX|.[.[.[. X).[.).|. X XoXXXoX",
"XX X X{.).|.|.|.[.[.|. X{.[.k.e o 7 9 5 5 O r r b C C n 0 3 a m V p = * .._.{.|.[.{.oX|.F.XXXXoXXXXXXX X|.|.).[.[.|.|.|.{.[.[.[.{.|. X|.XX|.",
" XXX X[.|. X|.{.{.[.XXXX).|.{.N.2 o 2 q e 5 * g f n F C n 0 0 7 m e 7 5 o Y I.|.|. XoXG.XXoXoXoXoXOXXXXX|.{.|.).).).|.[.[.).OX{.|.|. X X X X",
"XX X{.|.|.[.).[.[.XX(./.).].[.[.d.2 o q : q q O 0 0 C F S N i 1 1 e 5 7 i o p r.XX X).m.XXXXXXXXXXXXXXXX X XoX|.[.[.[.[.[.).XX|. X|.{.XXXXXX",
"XX|.|.|.{.).|.{.K.G.[.).).[.[.[.].d.. & ; ; ; & 6 0 0 S f a s 8 < 1 6 5 1 5 5 $ e.XXZ.m.XXXX XXXXXXXXXXX X). X|.|.|.|.|.[.G. X|.[.|.{. XXXXX",
"|.|.{.|.{.|.XXJ.).{.[.[.[.{. X XXX].<.; > ; ; w 8 6 9 N 0 6 8 0 5 1 1 5 e 7 5 5 O i.%.c.=.[. XXXXXXXXX X[.XX X|.).).).|./.F.|.(.{. X|.|. X X",
"XXXX|.|.|.G.[.).[.[.|.e.k. X X X7.O.y.c x x J u V 4 8 f a 6 3 6 9 , @ 6 e 7 2 2 o.u.oXXX X+Xm.XXXXXXXXS.oXXX X|.|.{.[.).C.|.).|.).|.XX|.oXoX",
"XXXX{.).M.|.{.[.{.[.W.7 j.{. Xr.p / y.j > I J z ! 4 6 0 n 9 6 0 7 7 1 , 2 5 - 2 V <.R.XX XXXXXH.(. X{.G.XXXX XoX{.[.[.).Z.).).).[.{.XX|.XXXX",
"oX XoXA.[.[.{.[.}.W.! O 0. Xe.d R l R V L r g R A 7 6 a i 7 8 7 7 7 7 * @ 2 1 2 V r q a.oX X XXXoXF.x.{.|.oXoXoXXX[.|.).).J.).[.[.{.|.#XXXoX",
"{.oXD.|.[.).).).j.R = @  .@.N W m f h G ~ R F B f n f 0 9 8 7 7 e 7 2 1 1 1 2 r l t k t [ R..XXX X{.-.{.oX|.+XoXoX).).).).).S.).).[.|.XXXXXX",
"XXoX{. X).(.K.j.! l - 1 6 N ( C g 7 f ! ) R n a n F n 4 6 0 8 7 5 7 0 7 1 + @ p A K j j q % E '.r.|.c.XXXX[.XXXX X|.|.|.[.).).{.|.|.oX XXXXX",
"XX]. X XXX|.]. .! e 1 0 W ^ D m 0 8 G ~ ~ ~ F C F A h 6 8 7 4 8 7 5 7 7 5 1 1 h V A t e V P j j w r.).oXXXXX X|. X|.[.).|.).|.(.|.|.XXXX XXX",
"XXl. X|.XX{.p.p g 5 i T / A m a 4 7 T G S W C C F b f f 8 4 4 e 7 7 7 3 1 @ @ f Z m g 5 d E l M & P Y.3.w.XXXXoXXX|.{.{.[.[.|.).C.[.|.XX XXX",
"XXM.|.|.|.|.O.7 7 @ N ) T N a 3 0 7 C C G W G F F 8 8 s 4 4 7 7 7 6 6 6 a 9 @ 3 b 0 1 5 p V k t z j w q I XXXXOXXX X|.{.[.).[.[.).H. X XXX X",
" X{.).[.{.{.b 1 9 3 ) U N 9 9 9 < a 0 f F ' ' F C 6 # 3 1 5 r 5 7 < @ f ^ ^ 0 3 6 7 0 5 7 B V V K K P t w L.s.s.XXXX{.|.|.|.|.|.{.[.). XXXXX",
"XXXX}.[.|._.1 7 7 C ~ C a 0 5 7 < v , v S ~ ' F n 3 @ 4 4 = 5 e 3 < < b ] ~ 0 9 6 0 , 5 7 i l V K z k j H w u u !.XX X|. X|. XXXXXXXJ.+X|. X",
"XX|.|.[.|.W.1 8 f ~ G f 6 8 r 1 6 8 # < 0 C ~ F 6 6 < # 1 * 2 5 1 1 7 U ) G 0 9 9 + 3 6 0 6 i i m B V V Y z j q w.P.XX{. X{.XXXXXXXX XF.XXXX",
"XXXX|.|.|.6.# g R A b 0 0 7 @ @ , 6 7 < < 3 C C b b b 3 O * 5 2 e C i G ` C 6 0 < 0 0 , 1 6 7 7 9 0 m N V k j y q t X. XXXXX XXXXXXXXX X/.XX",
" X X X XW.e Z Q A 7 5 7 1 7 6 8 4 = 4 # + < F ^ ~ G m 4 # # * * 2 N 7 G Q m 9 1 , 6 7 9 0 7 * 3 9 3 9 i k B K V z & [ Q.'. XXXXXXX XXXXX|.|.",
"XX).XXXX .k E V 5 # 4 7 5 7 6 3 7 # 4 5 6 < F ) Z a 4 @ e - O - p 7 O p m i i i v v a 7 O 6 i 7 + 3 3 5 i h M V k V ; q c XXXX XXXXX XXX X).",
"XX XOXN.- P L 5 4 5 5 8 s 4 4 8 - 8 5 1 < # U Q 0 7 1 1 t 7 * o * = 7 * 2 = 1 h A U Q Q i 1 1 # 0 i 1 = 3 3 i h U B k 2 L  X|.XXXXXXXX XXXXX",
"XXXXXXh.$ p e 2 E y - l h 8 5 + e <.+.O + 6 / W f < 1 7 5 * . o * O 5 * = 1 @ 1 5 i h G A i e B d e 5 7 5 1 5 a d m M k k Q.{.XX XXXXXoXXXoX",
"XXoXXXI.% 5 . & > 4 l L r 4 0 5 e.}.T.5 X 5 A R d @ + * * O . | h._ o = r 7 1 @ 1 5 7 5 d d p p d . t t 3 2 3 < 0 b b U Y {  XXXXXoXXXoXXXXX",
"|.XXoX8.d p q t y Z L y 5 8 1 5 ) }.).K @ @ 5 h k 8 5 @ 5 - 2 R.XX.Xd $ * = 1 = 5 , 6 5 7 2 r 1 % ^ '._.4.p 3 3 < 7 h Z U N h.XXXXXXXXoXoXXX",
"[.oX,.l i * 2 p g t r e d ] 5.q.i.).[.2.o * O 5 e e l h 7 l i 0.I.XX7.* - * * * 2 O 7 2 O 1 1 o 7 l.`.`.|.Q.@.2 - = 5 d U A ` XXXX XXXXXXX X",
"oXXX2.t p * i 3 1 7 N 6.^.(.(.).).).{.~.K   O   * 1 5 V Y U N t ! P.L.* = * 2 O = = , 2 7 1 2 k V T k.[.[.|.|.a.e 5 1 r h W v Y.oX|.#XXXoX`.",
"[.).^. .H l i 4 , +.~.(.(.(.(.).D.).{.|.[.r.2.2.N o O 1 p i 7 r M j } O.- $ $ 2 O 2 o * r 7 7 e V * _ ].).|.).[.Q.Z 2 1 a T n 0.XX|.{.{.}.[.",
"XX|.XX6.V l 1 Z f.[.).).(.(.).)./.).{.|. X XXXXXY.t O = = - 1 2 t t 8.XXh.d = $ = 1 2 e O o 7 r d 6.`.{.[.|.{.[.[.W.E = 1 m U <.+XXX X{.|.XX",
"oX X|.I.Z l o.'.{.[.).).).).).[.|.J.[.|. X X XXXXX4.o * - = e - - 1.XXXXXX.XU.a.Y & = * K t..XB./. X|.{.[.oX).[.].{._.V = a K | #X#XXX|. XoX",
"oXXX{. X<.! `. X[.[.).).|.).[.[.XXF.[.|. X XXX X XXX@.m C E ,.p.R.XXoXXXXXXXoXoX@XE.R.E.+XoX[.B.{.|.{.{.oX[.).{.{.XXXXU.d 1 m E oXoX X{.oXXX",
"XXXX{.|. X`.|.|.[.).).[.[.{.|.|. X(.|.[.|. X XXXXXXX{.).H.XX). XoXXXoXXXXXoXoXoX@XoX@X@XoX|.G.[.{. X{.{.|. X[.{.{.|.XXXX4.  e / m. X{.{.XXoX",
"oXXX{./. X{.{.|.[.|.[.[.[.{.|.|.|.|.M.|. X X X XXXXXXXF.).{.{.XXXXXXXXXXoXXXoXoX+XoX@X@X+XH.). X|.|.XX XXX[.|.|.{. X{.XX.Xk * ,. X X|.{.oXXX",
"oX X|.J.{.[.|. X|.[.[.[.|.{. X X X XG.).|.|. XXXXX X|.D. X X|.XXXXXXXXXXXXoXXXoX+X+X+X#X#X/. X|.|.oXoXXXoX{.|.{.{.|.|.XXXXa.M P.XX{.{.{.XXXX",
"oXoXoXK.XX[.{. X{.[.[.|.|.|.|.{. X X X/.|.XX XXXXXXX XG.XX XXXXX XXXXXXXoXXXoX#X+X+X+X#X#XXXXX X X@XoXoX X X|. X{. X{.|.XXoXoXXXoXoXXXXXXXXX",
"oXoXXXH. X{. X|.).|.|.[.{.|.|. X|.XXXX(.|.XX X X X XF.F.XXOXXX XXXXXXXXXXXXXXX#X+X+X+XoXoX XXX XXX XoXoXXX{.|.|. X|.{.{.{.XX@XXXoXoXXX{.XXoX",
"XXXXoXJ. X[.|.|.).).[.[.{.|.{. X|.|.[.J.J.oXXXXX|.F.c.XX|.|. X|. XXXXXXXXXXXXX+X#X+X+X}.oXXX XXXXXXX{.XXXXXX{.{.{.|.|.|.|.{.|.XXoXoXoXoXoXXX",
"XXoXXXH.|.|.[.).[.).).[.{.|.|. X|. X|.XXz.H.|.).F.M. XXX X|. X X XXXXX XXXXXoX#X+XoXK.oXXXXXXX X XXX|.XXXX{.XX X X|.[.{.[.|.).|.XXoXXXoXXXoX",
"oXK.XXH. X[.).).).).).{.|.|. X X X X|.XXXXz.l.F.G. XXX|. X|. X X X XXXXXXXXXXX+X+XXX)./. X X XXXXX{.|.{. X XXXXXXX|.[.{.{.).).).{.XXG.XXXXXX",
"{.K.oX).XX[.).[.).).[. X X X X X X X X|.oXC.K.F.XXXXXXXXXX XXX X X XXXXXXXXXXX#XoX).XX{.XX XXX X{. XXX{. X{. X XXX X{.).{.].).K.H. X(.XXXXXX",
"m.{.oX[. X[.[.).[.[. X|.{.|. XXXXXXXXX{.m.>.{.XXXXXXoXXXXX XXX XXXXX X XXX XXXoXXX/. X XXX X|.{. XXXXX|.{. X{.{.XXXX XG.}.).H.XXoXD.}.XX|./.",
"XXXXXXc. X[.[.).[.[.[.).|.|.XXXX XXX X(.V.OXXXXXXXXXOXXXXXXXXXXX{.XX X XXXXXXXoX{.XX/. X XXXoX X XXXXX{.|.{.|. X XXXXX{.).).oXXXXXXXK. X).D.",
"oXoXoXv. X{.[.[.).[.|.{.|. X XXXXX X|.D.XXXX XXXXX XXXXXXXXXXX XXX XXXXXXX XoXoX).K. X+X X|.|. X{.XXXX|. X X X{. X XXXXXXXG.XXoXXXXX-.V.F.oX",
"oXXXXXm. X|.).[.[.{.[.{.[.|.oXoX X(.D. X X XXX X XXXXXXXXXXXXXXX XXX XXXXXXXoX|.). X). XoXXXoX X{.XXXXXX{. X{. X XXXoXoX/.G.=.|.H.G.).H.#XXX",
"XXoXoX:. X).[.{.[.[.{.'.{.).|.).|.J.oXXXXXXX XXX X X XXXXXXXXX XXXXX{.XXXX X XXX X|.oX|.XX+X{. XXXXXXX X X X|.{.XXXXH.G.m.>.`./.XXoX{.[.#XXX",
"oXXXoXG.).|.|.}.].[.XX%.|.|.).[.(.oXXXXXOXoX X X X X XXX X XXX XXX X|. X XXXXX#XJ.J.{.>.).[.oXXX#XXXXX X X X|.oXK.G.H.{.XXoXXX|.oXXX XG.XXXX",
"oXXXoX).m.V./.H./.v.XXXX X|.[.K.oXoX+XoXoX XXX X X|. X X XXX XXXXX X|.|.|. XOX(./.oX#X X).(.[.XXoXXXXX|.{.oXXXH.K. XXXoXXXXXXXXXXX X|.|.#XOX"
};
