/* XPM */
static char *_3042_7471c8036370c6dc5d444699c1e0e0ef15a0f36b146ead8d6f94cc9e41f93482[] = {
/* columns rows colors chars-per-pixel */
"70 70 201 2 ",
"   c #060C0F",
".  c #080C0E",
"X  c #0C100F",
"o  c #050F13",
"O  c #0C1216",
"+  c #0C161B",
"@  c #0D191D",
"#  c #111416",
"$  c #171917",
"%  c #11161A",
"&  c #131A1E",
"*  c #1A1B1D",
"=  c #29221B",
"-  c #0E1B22",
";  c #0E1F29",
":  c #131D23",
">  c #191E22",
",  c #171D29",
"<  c #1C1F28",
"1  c #152125",
"2  c #1B2225",
"3  c #162329",
"4  c #1B252B",
"5  c #1E292D",
"6  c #1D2631",
"7  c #1D2A33",
"8  c #192A37",
"9  c #222425",
"0  c #272927",
"q  c #22252B",
"w  c #222A2D",
"e  c #2A2D2B",
"r  c #332A25",
"t  c #342E2A",
"y  c #393026",
"u  c #34322D",
"i  c #3B332B",
"p  c #232C32",
"a  c #292E32",
"s  c #263135",
"d  c #2B3235",
"f  c #2F3837",
"g  c #26333C",
"h  c #2B343A",
"j  c #2D393D",
"k  c #333334",
"l  c #3A3734",
"z  c #3D3C36",
"x  c #32353B",
"c  c #343A3C",
"v  c #3B3C3C",
"b  c #443B34",
"n  c #423E3A",
"m  c #3A403E",
"M  c #4B423A",
"N  c #293742",
"B  c #2D3A42",
"V  c #2B3C4B",
"C  c #333D42",
"Z  c #3A3E43",
"A  c #353F48",
"S  c #2C404F",
"D  c #354145",
"F  c #3B4244",
"G  c #36424A",
"H  c #3B444B",
"J  c #3D494D",
"K  c #334553",
"L  c #3A4650",
"P  c #344957",
"I  c #3B4B55",
"U  c #384C5B",
"Y  c #424343",
"T  c #494642",
"R  c #4B4841",
"E  c #43464A",
"W  c #43494D",
"Q  c #4B4D4C",
"!  c #53534B",
"~  c #5E564F",
"^  c #434D53",
"/  c #4A4D52",
"(  c #434E59",
")  c #455155",
"_  c #4A5254",
"`  c #44525B",
"'  c #4B545C",
"]  c #4F595D",
"[  c #515352",
"{  c #5A5856",
"}  c #525A5E",
"|  c #625A55",
" . c #66625C",
".. c #445664",
"X. c #4E5962",
"o. c #525D63",
"O. c #585F66",
"+. c #546066",
"@. c #566267",
"#. c #59656B",
"$. c #626361",
"%. c #66686B",
"&. c #726A60",
"*. c #6A6F72",
"=. c #6B7277",
"-. c #6B777C",
";. c #727577",
":. c #787675",
">. c #7A7A7C",
",. c #8A837B",
"<. c #777F82",
"1. c #6F848C",
"2. c #75828B",
"3. c #7C858B",
"4. c #6B8490",
"5. c #788D99",
"6. c #4DA6F5",
"7. c #5BB3F7",
"8. c #6BB9F1",
"9. c #5EC3FB",
"0. c #6BC8FD",
"q. c #79C9F9",
"w. c #7BD3FF",
"e. c #78D4FD",
"r. c #828385",
"t. c #898988",
"y. c #868D91",
"u. c #88939B",
"i. c #96989A",
"p. c #A19D97",
"a. c #899CA9",
"s. c #999EA3",
"d. c #96A2A8",
"f. c #9DA5AB",
"g. c #9FAAB3",
"h. c #A6A6A4",
"j. c #A5ADB1",
"k. c #ABB5BB",
"l. c #B7B9BC",
"z. c #C0B9B2",
"x. c #C9C3BD",
"c. c #ACBAC3",
"v. c #B1BEC6",
"b. c #B5C3CD",
"n. c #BBC3C8",
"m. c #BCC8CF",
"M. c #BBCAD4",
"N. c #B6CDDB",
"B. c #BECED8",
"V. c #83C7F1",
"C. c #84CDF6",
"Z. c #81CDFD",
"A. c #8ED2F5",
"S. c #85D5FE",
"D. c #8BD5FD",
"F. c #8DDAFF",
"G. c #93D4FC",
"H. c #93DBFE",
"J. c #9CDCFD",
"K. c #B5D6E7",
"L. c #A5D8FA",
"P. c #A3DDFD",
"I. c #AADEFB",
"U. c #B0DFF9",
"Y. c #95E0FF",
"T. c #9BE0FF",
"R. c #A5E2FF",
"E. c #ACE3FE",
"W. c #B4E5FE",
"Q. c #BBE6FE",
"!. c #B6E8FF",
"~. c #BDE8FF",
"^. c #C5C9CC",
"/. c #C2CDD3",
"(. c #CECED0",
"). c #C5D1D9",
"_. c #D1D8DB",
"`. c #C4D7E3",
"'. c #CBDAE2",
"]. c #D1DDE4",
"[. c #D2DFE8",
"{. c #CFE0E9",
"}. c #DAE6EC",
"|. c #C4E4F7",
" X c #CDE4F3",
".X c #C2E6FD",
"XX c #C4EAFE",
"oX c #CCECFF",
"OX c #D5EAF4",
"+X c #DBEBF5",
"@X c #D3EEFF",
"#X c #D9EFFE",
"$X c #CCF1FF",
"%X c #D6F0FF",
"&X c #DBF1FF",
"*X c #E3F3FF",
"=X c #EAF6FF",
"-X c #E5F8FE",
";X c #EEF8FF",
":X c #F0F6FC",
">X c #F3F9FF",
/* pixels */
"*X*X=X>X>X>X=X=X=X=X*X*X=X*X*X*X*X&X&X&X&X&X#X#XW.oX%X%X*X*X*X%X%X#X#X@X#X%X%X%X#X&X@XXXoXoX@X@X%X%X%X%X&X%X%X*X&X*X*X%X&X&X*X*XW.XXXX&X&X=X",
"=X*X*X*X=X=X=X=X=XoX=X=X=X*X=X*X*X=X=X*X*X&X#X@X%X#X&X*X*X*X*X#XoXH.F.J.oXoX&X@XJ.W.Q.Q.XX~.W.@X%X#XoXH.XX%X%X%X%X%X%X=X*X*X%X%X*X*X*X;X=X*X",
"*Xq.W.*X*X#X#X*X=X*X#X*X*X*X*X=X=X=X=X*X&X&X&X@X%X%X*X*X&X&X%X#XQ.oX%X@XW.%X%X%X*X*X&X@XoX*X&XoXoXXXXXXXXXR.=X=X%X&XXX%X&X&X%X%X*X*X*X-X*X*X",
"oX#X#XE.*X=X*X*X*X*X*X*X*XoX@X*X=X*X&X*X&X&X%X#X#X%XW..X%X%X&X@X%X@XoXR.XX*X%XoXoXoXoXXXoXoX@X@XoX@X%X@XXXXXXX@X%X%X%X*X&XoX=X*X*X&X*X&X-X@X",
"%X*X&X$XD.J.J.D.D.G.*XXX#X#X@XXX*X%X&X&X%X%X%X#XoX%X#X%X@XXXoX@XoXXXXXS.XX&X#X%X%X%X%X%X#XXX~.XXoX#X@X#X#XoXoXH.%X%X%X&X&X&X&X-X&X&X*X*X#XE.",
"%XoXoXQ.W.Q.Q.~.XX~.A.XXXXoXoX@XoX@X#X%X#X@X@X#X&X%X%X#X#XoXXXXXXXXX~.W.%X%X%X%X@X@X#X@XXXoXoXXXXXoX@X@X%X%X&XH.W.oX%X%X&X&X&X&X*X*X*X&XS.#X",
"oXoXXX@XXX~..XQ.Q.E.XXXXXXXXXX@X%XoXoXoXoXXXoX#X&X%X&X&X@X%X~.Q.~.~.XXXXXX@X#X&X%X%XoXoXoXoXoX@XE.XXoX@X@X%X@XE.@X@X%X%X%X&X&X&X*X-X&XoXoXoX",
"oXE.XX$XXX~.W.Q.I.~..XXXXXXXXX#XoXXXoXXXoXoX#X&X&X&X&X#X#X%X@XR.oX.XW.XX@X@X#X#X%X#XoXoXoX@XoX@X@XJ.H.#X%X%X$XE.@XoX%X%X%X&X&X&X*X*X*X%X@XXX",
"XX%XoXoXoX~.Q.J.W.Q.Q.~.XX@X*X@X&X#XoXoXoX#X%X&X&X&X&X&X#X#X%XoXoXXXq.oXXX@X@X@X%XoXoXXXoX@XoX@XoXoXP.Q.%XXXH.%XoXoXoX%X#X%X%X%X*X*XXX#XoXoX",
"oX%XoXoXXX~.Q.E.R.W.W.~.XX*XW.#X&X&X&XoXoX@X#X#X&X&X&X&X&X&X*X%XXX~.XXXX@XoX@X@XoXXXXXXXoX#X%X#X%X%X&XY.I.W.%X%X#X@XoX@X@X@X%X%X%XoXoXoXoXXX",
"Q.XXoXoXXXQ.W.W.W.W.!.XX@X@XoX#X#X&X%X%X@XoX%X&X&X*X%X*X*X*X*X#X%XW.~.XXoX@XoX#X@XoXoXoX@XoX#X#X&X%X#X7.oX%X&X*X%X%X%X@X@X%X#X@X@XoX#X#XXXoX",
"oX$XoXoXXXQ.W.W.W.W.~.XXoX@XoX@X%X&X*XH.@X#X%X%X&X&X*X&X&X*X&X*X&XH.XXXXXXXXXXoXoXoXoX@X@X@XoX*X*X@X7.&X#X%X%X%X%X&X&X%X@X@X%X@XoXoX#X%X@X@X",
"%X~.oXoXXXXXQ.Q.Q.H.XXoXoX@X@X@X%X%XR.XXoX#X%X&X*X#X%X*X*X*X*X*X%XP.~.XX.X~.XXXXXXXXoXoX#X%X@XXXoXL.%X*X%X%X#X@X%X%X@X%X#XoX@X%X&X@XR.Q.oXXX",
"$XXXXXXXoXXX~..X~.T.!.oX@XoX@X@X%X@XE..XoX#X%X#X%X&X%X*X*X*X*X&XS.XXoXXXXXXX.XXXXX@X*X*X=X*X&XoX%X*X*X&X*X%X#X@X@X%X%X@X@XoXoX@XJ.@X%X%X~.oX",
"%XXX~.XXXXXXXXoXXXoX~.Q.@XoX@X@X%XE.Q.oX#X%X&X&X&X&X*X*X*X*X%XS.W.XX@XXXXXXXXXXX@X#X%X*XW.*X@XoX%X#X&X*X&X&XoXoX#X@X@X#X%X%X&XT.@X%X%X%X@X#X",
"#X#X#XXXXXXXoXoXoX@XA.E.oXoX@X@X%XH.oXoX#X#X&X%X&X*X*X*X*X=XR.oX@XoX%X@XXXoXoXXXoX@X&X=X:X#XoX#X&X&X%X%X&X%X%XoXI.E.oX@X@X&XH.&X@X#X&X%X%X#X",
"%X%X%XXXXXoXoXoXoX@XoXH.*X@X@X#XE.~.@X$X#X#X%X%X%X&X*X*X=X#X@X@X@X%X#X%XoXXXoXXXXXXX&X#X*X*X@X*X&X&X&X%X=X#XQ.@X@XoX&XF.&XI..X#X@X#X%X%X%X%X",
"#X%X%XoX@XXX@XoXoXoXoXP.R.%X@Xw.I.@XoXoXXX#X#X#X&X#X*X=X*X#X@XoX@XoX#X#X#X@XXXoXoXXXXXL.%X%X@XXX&X&X&XQ.C.#XoX#X@X#X%XoXE.~.Q.#X@X@X@X%X%X#X",
"#X%X%X@X@XoXoX@X@X@X%X%X9.D.H.%X#X#XoXoXoX@X@X@X%X&X#X@XXX@XoX#X@XoXoXoX@XoX@XoXXXXXXXI.@X@XoX%X*X~.D.oX&X%X#X#X%X&X&X*XXX%XoX%X@X@X#X#X#X#X",
"*X&X@X@X#X@XoX#X%X@XQ.q.6.XX#X&X&X%X%X#X@X@X@X@X%X/.$.h.].#Xl.~ p._.@XoXoX#X@X#X~.#X#X&X%XW.+XXX0.~.&X%X%X%X%X&X*X&X*X%XE.%X#X%X@X#X#X%X%X*X",
"=X%X@X@X@X@X@XoX#X!.C.J.@X#X#X#X*X%X%X#X@X X%X#XOXi y = b ~ b i y M ,.x.| | z.}.XX*XL.#X#XE.R.W.#X@X@X#X%X%X&X*X*X&X&X*XE.C..X%X%X%X%X#X&X*X",
"=X*X@X@X@XoX*X%XW.J.&X%XB.#X@X@X#Xb.s.@Xb.u {  .~ = r b ~ b r t M &.i i y = T { x.h.V.G.=X&XE.#X@X@X@X#X%X&X%X&X*X&X&X&XXX#X8.@X%X%X&X&X=X=X",
"=X*X@X@X%X*X~.I.XX%X%X#X^ `.@XoX`.k E @Xy.m e ! l R b b T n k n l z u z R u { T t * t.^.#XoX%X#X@X@X@X~.#X%X%X*X&X&X&X&X=X@X&X@X%X%X%X&X=X=X",
"=X*X#X*X*X%XXXoX#X*X&Xu.  c.@X XZ E _ B.<.0 u ! v v [ Z k Z / / v v l [ [ a v k u v u z t.n.*X*X&X*XXX#X@X#X%X*X*X&X&X%X*XW.|.@X&X%X&X;X*X*X",
"*X*X*X*X@XXX#X%X#X%Xv.% : a.|.X.x Z k ' c Q f e m _ @.#.X.( G L ' o.@.] } ] ^ C W Z Y k < Q (.*X=X*X&X%X%X%X%X*X#X@X%X@X&XXX@X@X%X&X&X*X*X=X",
"&X*X&X#X@X%X%X#X@Xd.h 4 O C o.A , < q k a _ } W ] +.#.' N N P ..` ..U U I ' ' ^ / H x a E q k >.d.*X*X*X%X%XoXoXoX%X@X%X#X@X@X@X#X%X&X%X*X&X",
"*X&X&X@X%X%X%X%Xc.Z Z : : 6 ' ' h 4 4 p s f D g m I G 8 8 V U P ..U P S G U ( G H A L W F g x > $ i._.*X%X%X%XoXoXoX%X%X%XoX-X#X#X%X&X*X&X&X",
"*X&X@X#X%X@XoX#X<.X.5 : g X.X.G 4 4 < h ] C h g ; 7 8 7 N V V P P S S S K P P G N g p A W q Z _ m 9 d :.&X*X=X%X@X@X@X@X@XoX&X#X&X%X%X&X*X*X",
"*X#X%X%X%XoX%XM.< j - , X.' L G 4 p @ @ D : : p B 8 3 7 g N g 7 8 8 g 8 ; - ; ; ; 6 A H A p g ^ v k 0 $.*XoX&X%X%X%X%X%X@XE.&X%X@X#X#X&X*X*X",
"%X@X%X%X#X&X&X5.< 5 + A O.` B 8 , q 3 1 g 5 4 : 1 s s 1 @ @ 1 2 - ; 3 3 7 7 g h g A L B g 4 5 L x e e 0 { >.).%XoXoXoX%X.XW.%XXX#X&X%X%X%X*X",
"*X&X%X%X%XW.%XO.: 4 : X.` B N , 4 7 5 1 4 p h q 1 4 * 1 2 % X 2 4 w d j C H J H 4 B g 7 6 : 4 p F F Q Y k * :.%X%X@X@XoXP.%XoX%XoX%X*X%X=X=X",
"*X*X#XoXP.@X@Xj , 6 B X.K g 8 ; 3 s s 5 : p p h 5 2 2 * & # $ % + s F F E F A H q : 3 4 3 4 ; 5 x c Q x T * T =X@X#X%XoXP.oX@XoX@X#X*X%X*X*X",
"*X*X=XU.@X@X@X4 < h X./ g 4 6 1 1 p s 5 4 & 7 h B p < 4 4 < : - % O : 5 p F x ^ f @ 2 1 1 - 3 1 5 s D m s m 5 ! p.N.OX$X$X!.$X$X@X#X%X>X*X*X",
"*X*XE.%X@XoX`.: a A H C j 5 3 1 1 4 f 5 4 1 4 p h h a 4 < 4 4 , : : - : + : : 4 s @ 1 : p 1 @ 5 5 ; s D m ..D 5 e $.$X$X$X$XJ.$XoX@X&X*X*X*X",
"*X=X#X&XXXoX2.q J / c : : < 1 @ 1 1 s s 4 4 1 3 q B B p 4 4 6 6 4 5 1 4 : - : % + +   5 J D D 3 - 3 5 3 m m j m 2  .OX$XoX$X X@X@X%X=X*X*X*X",
"*XoX&X&X&X'.q / ' w : % < 5 q 4 1 1 5 f 3 5 3 1 , q h C p 4 < 6 4 6 4 4 4 4 5 : @ o + 1 3 m D I J 1 @ ; 5 j J s m $ m :.%X$XOX$X@X%X*X&X*X&X",
"*XC.&X#X#X*.Z } k > q * < a 2 4 1 5 1 m 4 4 5 3 : : q C C a 6 < 4 6 4 , q p 4 : 7 H D 4 @ @ 1 s D J s - @ ; m m E k 9 [ @X@X$X@XP.#X%X*X&X*X",
"#XP.#X@X+X9 a k * x E > e F a 2 1 s 3 D 6 1 5 4 3 : , 6 B A N 4 6 3 5 4 g h < - 5 m ^ o.I s -.J 5 m m 7 ; @ 3 m ^ c q Y '.%X@X@XoX~.&X&X*X&X",
"&X%XXX#X#XZ O > * q q q Z Z 2 2 4 p p f f : 6 4 4 4 : : q C A N 6 3 6 g A p 4 + 1 3 8 m I m _ -.@ @ s m m ; @ 3 g / / > q ,.#X%X%X@XoX&X*X*X",
"*X*XoX@X#XX.a > > q a E W a w 5 3 4 s 7 A 1 5 3 4 5 < - : p A L A N 4 g C , < : @ ; 1 5 s J s 1 D m 5 1 J j ; ; 6 j J a # t.&X&X&X*X~.=X#X#X",
"*X&X$X@Xg.D p : a B x x q p : : 1 1 j 5 m 8 3 3 4 4 4 < - - 6 C H A B G h : , - , : : w 1 5 j p f 5 + s 4 A B @ 3 6 C f & %.*X*X#X*X*XE.*X*X",
"*X&X%Xb.h d & & , q < < ( ` : > 5 w s s j s 3 5 4 4 4 6 < : : 6 B H H H q + , : + : : : + 1 2 1 & & c OXc.5 B j - 3 w D W w [.*X*X*X*X&X~.*X",
"&X&X*X*X2.h d p 6 < 5 +.`.N.< 1 p s 5 f s B 5 5 4 4 4 6 4 < ; : 3 h A J h % % + % - > : 2 * O & . +.#X*X*X_.H f h + 2 j W k %.&X*X*X*X*X%X@X",
"*XoX*X&XU.#.^ x > q a.XX.XoXN : 1 f 1 p 5 m s 4 4 4 4 4 4 q 4 < : : 6 C a : - : O O % - > 1 1 w f o.{.&X*X&X_.5 p p : 5 j W d [.*X#X*X*X*XoX",
"*X%X*XoXoX3.F p s M.oXoXXX!.1.& : p 5 1 4 s j 5 5 4 4 4 4 4 6 6 5 : @ 1 < + % > < % & % % 2 q 2 ) s Y K.&X*X*X/.e s 2 @ s F p ;.*X*X*X*X&X=X",
"*X*X*X*X%Xm.F F ).*XoXoXXXXXK.5 1 4 s : 1 5 D j 4 4 6 4 4 4 < 6 5 4 : & % O O O > & q a : . % a f ) u.+X*X*X-X*Xm.2 5 : 1 B B Z *X*X*X*X*X=X",
"*X*X*X*X#X#X4.v.*X%XXXXXXXXXXXo.& : p 4 : - s D p 4 < 6 6 4 , 6 < q q 2 > % O # % & # , * E c. X|.!.&X&X*X*X-X-X-Xd.4 5 - 6 A q n.*X*X*X*X=X",
"%X=X=X*XXX.X*X*X&X$XXXXX$XXX$XN.s 1 s s + @ 1 B A p 4 4 4 4 , p 2 2 2 * > & * F ^./.h.j.].*X=X#XR.0.%X&X&X&X*X&X-X&XE 1 1 4 p 6 r.*X=X*X=X*X",
"@X=X*X=XQ.&X=X%X#XoXoXXXXXXXXXXXy.+ 1 f 2 @ @ 5 D D s 3 , p , q 9 * * ;.^.=X=X=X=X>X=X=X=X=X=X*X.X0.$X%X%X%X*X*X*X*X}.4 q * 1 w %.*X*X*X*X%X",
"=X*X*X%XoX*X%X@X#XoXXXoXoXXXXXoX|.H 2 w p @ 1 @ s K m 7 6 p 6 , > @.'.=X*X*X=X=X=X=X=X>X=X=X=X*XXXq.$X%X#X%X%X&X&X*X&Xc.% 2 2 2 ;.&X>X=X=XoX",
"@XoXoXQ.%X%X@X@X@XoXoXXXXXXXXX$XP.b.1 & f s : 1 ; m K D 4 < < : %.*X*X-X=X=X*X*X=X=X=X=X=X=X=X*XQ.J.@X@XoX%XoX#X#X%X%X#X=.# % # *.&X#X#X@XoX",
"=X#X*XoX*X@X@X#X@X@XoXXXXXXXoXoXXXXX-.O 4 d 1 + ; 3 D J C N : ' *X*X*X*X*X*X*X*X=X=X=X>X=X;X;X&XoX%X%X@X@X%X@X@X@X@X%X*XOX2 O # ;.*X&X#X%X=X",
"=X%X%X*X*X@X%X%X#X@XoXoXoXoX@XoX%XQ.{.D > w q J s + w m J H p M.*X*X*X=X*X*X*X=X=X=X>X=X;X=X;XJ..X%X&X#X@X=XoX@X#X#X#X*X=X^.O . ^.=X=X%X#X=X",
"*X*X@X&X&X@X#X&X@X@XoXoX%XoX@X@X&XE.$Xk.w > J '.B.5 @ s D C } %X*X&X*X*X*X*X=X=X=X=X=X>X;X=X%XI.%X%X%X#X=X@XoX#X#X#X*X*X=X=Xv.i.=X=X#X#X=X=X",
"*X*X#X%X&X%X%X&X@XoX@X@X@X#X%X#X&XXX%X@X%.# Q &X-Xn.m 1 a c 2.&X*X*X=X*X=X=X*X=X=X=X=X>X=X#XW.@XOX&X&X%X%X&X@X#X#X%X*X*X=X=X=X@XF.&X#X&X*X*X",
"=X*X#X.X&X%X@X%X@X%XoX@X@X#X%X%X&X&XH.%X{.0 d #X&X-Xg.s 2 a u.*X*X*X*X=X*X=X=X=X>X;X=X>X;XQ.oX#X%X%X*X&X*X@X%X%X#X%X#X*X=X=X=X=X&X&X#X#X=X*X",
"*X*X%X!.%X@X#X&X%X@X@X@X%X%X&X&X&X&X!.XX#Xn.X _.&X*X&Xa.a $ 3.*X*X*X*X*X=X*X=X=X;X;X;X>X>X.X&X&X#X=X*X=X*X&X%X#X%X&X%X*X*X=X=X>X*X#X#X#X*X=X",
"=X=X*X~.*X@X#X&X#X@X@X@X%X%X#X%X&X&X%XXX%X*Xd.k.*X&X&XE.f.1 E *X*X*X*X*X*X=X=X=X;X;X>X>X>X&X*X&X#X>X=X=X*X&X%X&X#X&X%X%X*X*X=X*X=X=X*X*X*X*X",
"=X*X*XQ.&X#X%X%XoX%X%X%X#X&X&X&X%X*X*XXX%X*X&X#X&X&XW.E.*Xf.2 M.#X*X*X*X*X*X=X=X=X:X;X=X;X*X*X&X&X*X=X=X*X#X%X%X#X&X#X@X@X=X>X*X=X=X*X*X*X*X",
"*X=X*XQ.&X@X%X%XoXoXoX#X#X%X%X#X%X%X%X~.Q.-X*X*X&XE.S.&X&X%Xs.3.*X*X*X&X*X*X*X>X;X;X;X$X-X*X&X&X*X*X&X*X*X&X#X#X#X%X%X#X#X@X#X*X=X=X*X*X*X=X",
"=X=X*XW.%X%X@X@XoXoXoX@X@X%X&X#X%X%X@X*XZ.~.#XoXE.H.*X&X&X%X&X#X&X*X*X&X*X*X=X;X;X=X~.=X*X*X*X&X&X*X#X&X*X#X*X&X&X%X@X#X#X@XoX@X*X=X*X*X*X*X",
"=X~.*X~.%X@XoXoXoXoX@X#X%X%X&X&X&X&X%X*X*XZ.q.E.!.&X*X&X&X%X&X&X&X&X*X*X*X*X*X;X;X*XoXXX&X&X&X*X&X&X&X%X&X#X*X*X*X&X%X#X#XoXoXoX#X*XW.*X=X*X",
"@X.X*X@X*X%X@XoXoX@X#X%X&X%X&X&X&X&X&X&X=XP.~.W.*X*X*X*X*X&X*X&X&X&X*X*X*X*X*X>X=XoX*X@X*X&X*X&X#X&X*X#X&X&X#X*X*X&X%XXX@X@XoX.X~.*XXX&X*X*X",
"H.*X*X@X&X#XoX@XoX@X%X#X#X&X&X*X*X*X*X#XH.e.@X*X*X*X=X*X*X&X*X&X*X*X&X&X*X&X*X=X*X|.&X*X*X&X&X%X#X*X*X#X%X#X#X#X*X*X#XW.@XoXQ.*X*XR.$X*X%XXX",
"*X=X*XD.&X@X@X@X@X@X@XoX#X%X&X*X*X*X&XXXJ.-X*X*X*X*X-X*X*X*X*X&X&X*X*X*X*X&X*X=X#X*XXX&X&X*X=X&X&X*X&X&X#X#X&X#X&X*X*X#XXXoX=X*X*X*XQ.%XXXE.",
"=X*X=XD.&X%XoX@X@X@X@X#X#X%X&X*X*X%X%XR.*X*X*X*X*X&X*X*X*X*X*X*X&X*X#X*X*X*X*X=XoX~.%X=X&X%X#X%X#X*X*X#X%X&X#X&X&X&X*X*X*XW.*X*X*X*Xq.L.W.=X",
"*X=X*XH.%X@X%XoX@X#X@X#X@X#X=X=X&X~.R.&X&X&X*X&X&X*X&X*X*X*X*X&X*X&X&X*X*X*X*X#XoX&XoX*X=X-X=X&X&X*X*X*X&X#X%X&X&X*X*X=XXXW.0.#X|.W.oXQ.>X*X",
"*X=X*Xw.*X@X@X#X@X@X#X+X#XoX%XoX%X~.=X*X*X*X&X*X&X&X*X*X&X*X*X*X&X*X&X*X&X*X*X*X%X%X=X&X*X:X@X&X*X*X*X&X#X&X%X#X*X=X~.W.H.e.OXXX*X=X#X@X>X*X",
"*X*X*XW.XX%X@X%X@X@X*X7.#X@X@X@XXX=X=X*X*X*X&X&X&X&X&X*X*X&X*X&X&X*X%X&X&X*X*X>XQ.!.@Xe.@X@X=X*X>X*X*X&X*X%X%X>X~.W.Q.&X*X*X&X#X=X*X&XW.*X*X",
"=X=X=X$XH.L..XQ.Q.D.*X*X&X%X@X~.=X=X;X=X*X&X*X*X&X&X%X&X&X*X&X*X*X&X%X%X%X%X=XXXXX*X;X*XoX.X@X*X=X*X*X#X#X=X*XW.~.*X*X*X*X*X*X*X*X&X%X%X>X*X"
};
