/* XPM */
static char *_7252_5245358742bd4b5de3b3049df7ad9289fb185edc22889aea4ace3a64c4304a20[] = {
/* columns rows colors chars-per-pixel */
"70 70 216 2 ",
"   c #050502",
".  c #080404",
"X  c #0B0A06",
"o  c #0D0C0A",
"O  c #110E0B",
"+  c #14110D",
"@  c #020717",
"#  c #0A1015",
"$  c #151413",
"%  c #191713",
"&  c #1B1916",
"*  c #1A141A",
"=  c #1D1D1B",
"-  c #211E1A",
";  c #291D19",
":  c #1E211F",
">  c #23221E",
",  c #080F22",
"<  c #0B1327",
"1  c #151A25",
"2  c #271E29",
"3  c #1E2226",
"4  c #1A2334",
"5  c #242322",
"6  c #292621",
"7  c #2D2A26",
"8  c #2C2C2A",
"9  c #342B26",
"0  c #312D2A",
"q  c #34312D",
"w  c #3B302E",
"e  c #2B2F36",
"r  c #2B3237",
"t  c #343533",
"y  c #393532",
"u  c #3C3A35",
"i  c #33373A",
"p  c #3C3C3A",
"a  c #432E29",
"s  c #433C37",
"d  c #423E3C",
"f  c #3F413F",
"g  c #44423D",
"h  c #49453F",
"j  c #3A3E43",
"k  c #2E3E56",
"l  c #413C42",
"z  c #3C4143",
"x  c #3F454B",
"c  c #2D4159",
"v  c #394356",
"b  c #444543",
"n  c #494542",
"m  c #4E4B44",
"M  c #464748",
"N  c #46494A",
"B  c #4C4C4C",
"V  c #514E47",
"C  c #55514D",
"Z  c #59534E",
"A  c #4C4D51",
"S  c #545255",
"D  c #5A5651",
"F  c #5D5A55",
"G  c #5D5B5B",
"H  c #625E5A",
"J  c #63615E",
"K  c #68635F",
"L  c #7C635D",
"P  c #505A69",
"I  c #4C5C76",
"U  c #4C616E",
"Y  c #5E696E",
"T  c #5A6376",
"R  c #6A6662",
"E  c #6C6964",
"W  c #656769",
"Q  c #716D65",
"!  c #786967",
"~  c #736D69",
"^  c #78736D",
"/  c #646B70",
"(  c #6F7078",
")  c #727475",
"_  c #7C7875",
"`  c #7C7B7B",
"'  c #806A6A",
"]  c #857B77",
"[  c #8F7872",
"{  c #82807C",
"}  c #8C887D",
"|  c #A2857E",
" . c #6F7C82",
".. c #807F80",
"X. c #6F8591",
"o. c #748791",
"O. c #7BA7BD",
"+. c #4DA6F5",
"@. c #5BB3F7",
"#. c #6BB9F1",
"$. c #5EC3FB",
"%. c #6AC8FC",
"&. c #79C7F8",
"*. c #79D4FD",
"=. c #868583",
"-. c #8C8A87",
";. c #858B8D",
":. c #8D8C8D",
">. c #948E89",
",. c #9C958D",
"<. c #868C90",
"1. c #8A8E91",
"2. c #8A9093",
"3. c #8D949A",
"4. c #989797",
"5. c #9D9A96",
"6. c #9E9C9C",
"7. c #A28982",
"8. c #A29C95",
"9. c #A19E9B",
"0. c #A5A29D",
"q. c #929EA3",
"w. c #99A0A5",
"e. c #9CA4AB",
"r. c #85A2B0",
"t. c #AAA5A2",
"y. c #A8A7A4",
"u. c #A3AAAF",
"i. c #ACACAB",
"p. c #B2AAA4",
"a. c #B2ADAA",
"s. c #B5B2AD",
"d. c #BAB2AE",
"f. c #A7ADB4",
"g. c #AAB3B8",
"h. c #B5B4B3",
"j. c #BBB6B3",
"k. c #BEBBBA",
"l. c #C0B3AD",
"z. c #C3BEBA",
"x. c #C4C2BC",
"c. c #CAC3BF",
"v. c #9BB3C0",
"b. c #A4B9C4",
"n. c #B3BDC3",
"m. c #B4C2C8",
"M. c #B8CBD5",
"N. c #BCCDD8",
"B. c #87C5F7",
"V. c #84CEF6",
"C. c #82CEFD",
"Z. c #8ED2F5",
"A. c #86D4FD",
"S. c #8CD4FD",
"D. c #8DD9FE",
"F. c #95D4FD",
"G. c #94DAFE",
"H. c #9CDCFD",
"J. c #B6D8E9",
"K. c #AAD6F1",
"L. c #A6D8F9",
"P. c #A3DDFD",
"I. c #ABDEF9",
"U. c #9AE0FF",
"Y. c #A5E2FE",
"T. c #ACE3FE",
"R. c #B6E1F6",
"E. c #B4E5FE",
"W. c #BBE6FE",
"Q. c #B6E8FF",
"!. c #BDE8FF",
"~. c #CAC4C2",
"^. c #CAC9C7",
"/. c #D2CBC4",
"(. c #D2CDCB",
"). c #D3D1CB",
"_. c #DAD4CE",
"`. c #C4CDD2",
"'. c #C5CFD6",
"]. c #CBD0D6",
"[. c #C6D4DB",
"{. c #C5D4DD",
"}. c #CBD6DD",
"|. c #CDD8DF",
" X c #DBD9D4",
".X c #D6D8D9",
"XX c #D1D9DF",
"oX c #E3E0DE",
"OX c #C5D5E1",
"+X c #CCD7E0",
"@X c #CDD9E2",
"#X c #CADBE6",
"$X c #D2DBE2",
"%X c #D6DFE5",
"&X c #CEE1ED",
"*X c #DDE2E7",
"=X c #D4E2EB",
"-X c #CCE3F2",
";X c #CBE8F7",
":X c #C2E6FD",
">X c #C4EAFE",
",X c #CCECFF",
"<X c #D6E8F3",
"1X c #D3EEFF",
"2X c #D9EFFE",
"3X c #CCF1FF",
"4X c #D6F0FF",
"5X c #DBF1FF",
"6X c #E4E6E8",
"7X c #E4EFF9",
"8X c #E3F3FF",
"9X c #EAF6FF",
"0X c #E5F8FE",
"qX c #EEF8FF",
"wX c #F0F6FC",
"eX c #F2F9FF",
/* pixels */
"8X8X9XeXeXeX9XqX9X9X9X8X8X8X8X8X8X5X8X5X5X2X2X4XW.,X4X4X9X8X5X4X4X4X2X1X2X4X2X1X2X5X1X>X,X,X2X1X4X4X4X5X4X4X4X5X8X5X8X4X5X8X5X0XE.,X!.5X5X9X",
"9X8X8X8X9XqX9X9X8X,X9X9X9X9X9X8X8X9X9X8X8X5X4X,X2X1X5X9X8X8X8X4X2XG.D.H.,X3X4X1XH.E.W.W.>X!.E.1X4X1X,XG.,X1X2X4X4X5X5X8X8X8X4X3X8X8X0X9X9X0X",
"8X&.E.8X8X5X5X8X9X8X2X5X8X8X8X9X8X9X9X8X5X5X5X2X1X4X8X8X5X5X5X1XW.,X1X1XT.4X4X4X8X8X5X1X,X8X5X,X,X>X>X>X>XY.9XqX4X5X>X4X8X5X4X4X8X8X8X8X8X8X",
",X2X2XT.8X9X8X8X8X9X8X8X8X,X1X8X9X8X8X8X8X4X2X1X4X2XE.:X4X4X4X1X4X1X,XY.>X8X5X,X,X,X,X>X,X,X1X1X,X,X5X,X>X>X>X,X4X4X4X8X5X,X9X8X8X5X8X8X8X1X",
"4X8X5X3XD.H.F.S.F.S.5X>X2X2X1X>X8X5X5X5X4X4X2X2X,X4X2X4X1X>X1X1X1X>X>XA.>X5X4X5X4X4X4X4X4X>X>X>X4X4X2X1X4X1X,XG.1X4X4X5X5X5X5X8X8X5X8X8X2XE.",
"4X,X,X!.E.W.W.!.>X!.Z.>X>X,X,X1X>X1X4X4X4X4X,X2X5X4X4X2X2X,X!.>X>X!.!.E.4X4X5X4X1X1X4X1X>X,X,X>X!.,X,X1X4X4X4XH.E.,X2X4X4X5X5X8X8X8X8X4XA.4X",
",X,X3X1X>X:X:XW.W.T.>X,X>X>X>X1X4X,X,X1X,X,X,X2X5X4X5X5X1X4XW.W.W.W.>X>X>X1X2X4X4X2X>X,X,X,X,X,XT.>X,X1X1X4X1XT.,X4X2X4X5X5X5X5X0X8X5X,X,X,X",
",XT.>X>X>XW.E.W.T.W.:X>X>X>X>X2X,X,X>X>X,X>X2X5X5X5X5X2X4X4X1XT.,X>XE.>X1X2X2X2X4X2X1X,X,X1X1X1X2XH.G.2X4X4X3XT.,X1X4X4X4X4X5X5X8X8X8X1X1X>X",
">X4X,X,X,X!.W.H.E.W.W.W.,X,X8X2X5X2X,X,X,X2X4X5X5X5X5X2X5X4X2X1X,X,X&.,X>X4X1X4X4X,X>X>X1X1X,X,X,X,XH.W.4X>XD.4X,X,X1X4X4X1X4X4X8X8X>X4X,X,X",
",X4X,X,X>XW.W.T.Y.E.E.:X>X8XT.2X5X5X5X,X,X1X2X2X5X5X8X4X5X5X5X4X>X!.>X>X1X,X4X,X,X,X>X,X>X2X2X2X4X4X5XD.P.E.4X2X4X1X,X,X1X1X4X4X4X,X,X,X1X>X",
"W.,X,X,X>XW.E.E.T.E.E.>X2X1X4X4X2X5X4X4X2X1X4X5X5X8X5X8X8X8X5X5X4XE.W.,X,X,X,X4X1X,X,X,X1X,X2X2X5X4X4X#.,X5X8X8X4X4X4X1X,X1X2X4X1X,X2X2X>X,X",
"3X>X,X,X>XW.E.E.Q.E.!.>X,X,X,X4X4X4X8XG.,X4X4X4X5X5X5X5X8X8X8X5X4XG.>X!.>X>X,X1X,X,X,X4X1X1X,X8X8X1X@.5X2X4X4X4X5X5X5X2X4X4X2X1X,X,X2X4X1X,X",
"4X!.,X,X>X>XW.W.W.G.>X,X,X,X1X2X4X2XY.>X,X2X5X5X8X2X4X8X8X8X8X8X4XO.X.O.R.:X>X!.!.>X,X,X4X2X1X>X1XP.2X8X5X4X2X1X4X4X1X4X4X,X1X4X5X1XY.W.,X>X",
"4X!.!.,X,X>XW.>XW.U.Q.3X,X1X1X2X1X4XY.>X,X2X4X5X2X4X4X8X8X9X8X5XS.o.z x J.>X!.>X>X2X8X9X8X8X5X1X4X5X8X5X5X5X4X1X1X4X4X1X2X,X>X1XH.1X4X4X!.,X",
"4X>X!.,X>X>X>X,X>X,X!.W.,X,X,X1X4XT.W.,X1X2X4X5X5X5X8X8X8X0X4XA.X.z z i Y v.>X>X1X1X5X8XQ.8X1X,X2X2X2X8X5X4X,X,X2X1X1X2X4X4X8XU.,X4X4X5X,X4X",
"4X2X1X>X>X>X,X,X,X4XZ.T.1X4X,X1X4XH.,X,X1X2X2X5X5X8X8X8X8X8XY.b.% u i t 5 N 3X>X>X2X5X8XwX2X,X4X5X5X4X5X8X4X4X,XI.Y.,X1X1X5XG.5X2X2X5X4X5X4X",
"4X4X4X>X>X>X1X,X1X,X,XH.5X4X1X2XE.W.4X,X4X4X4X4X5X5X8X8X9X2X,Xe.$ g f b = z ,X>X>X,X5X5X8X5X1X5X5X5X5X4X8X4XW.2X1X,X4XD.5XP.>X2X1X2X4X4X4X4X",
"2X4X1X1X1X>X,X,X,X,X,XP.Y.4X1X*.I.,X,X,X,X1X2X2X4X5X8X9X8X2XN./ 7 q 6 q 8 z b.;X>X>X:XL.4X5X1X>X5X5X5XW.V.2X1X1X2X1X4X1XT.W.!.2X1X1X1X4X4X2X",
"4X4X4X1X1X,X1X1X4X,X4X3X$.A.G.4X2X2X,X,X,X1X1X2X4X4X4X1X:Xm.o t u 0 q 7 t 8 %  .,X>X>XI.1X1X,X4X8X>XS.,X5X2X4X4X2X5X5X8X>X5X1X2X1X1X2X2X2X2X",
"8X5X1X1X1X1X1X1X4X1X:X&.+.,X4X5X5X4X4X2X1X,X1X1X4X4X5X,Xq.W i 8 7 6 6 q 8 u 5 p o.&X1X5X5XE.5X>X%.W.4X4X5X4X5X5X5X5X8X4XT.4X1X1X1X2X2X4X4X8X",
"9X4X1X1X2X1X1X,X4XW.V.H.2X4X2X2X8X4X4X1X2X1X1X1X4X4X,X+Xt : 7 7 q 7 7 q 6 8 q 3 o f.L.2X4XY.Y.R.2X1X2X4X4X4X5X8X5X8X5X5XY.V.:X2X2X4X4X5X8X8X",
"9X8X1X1X1X,X5X4XE.H.5X4X4X4X,X1X4X1X2X1X1X1X,X2X&Xz f 8 $ $ : q 7 7 7 0 7 7 7 : X 3 e r 4.5XT.5X,X1X1X2X4X5X4X5X8X5X5X5X,X1X#.,X4X4X4X5X9X9X",
"9X8X1X1X5X8X!.T.>X5X5X5X4X1X1X1X2X1X1X1X1X1X,X1XM.O 5 : % & % > q 9 0 7 q 6 % : % % $ X / ,X2X2X4X1X1X!.2X4X4X8X5X5X5X8X9X,X5X1X2X4X5X5X9X9X",
"9X8X2X8X8X4X:X,X5X5X5X5X4X1X,X1X,X1X1X1X1X1X1X4Xb.$ e u t 5 o % > > > > 5 > o + u q t # G E.8X8X8X5X>X2X1X2X4X8X8X5X5X5X8XR.:X2X4X4X5X9X8X8X",
"8X8X8X8X,X,X2X4X2X2X4X8X2X1XW.,X1X,X1X4X1X1X4XY.m.$ V R H h 6 % % % & & % + 7 9 H J H 2 U 5X8X8X8X8X8X4X1X1X1X8X4X4X4X1X5X>X2X,X4X4X5X8X8X8X",
"8X5X5X2X,X5X4X4X1X1X4X5X2X1X,X,X>XT.,X1X4X,XP.5Xm.& J { _ F 0 > % + + + + & q h E _ ` 0 Y 0X8X9X8X8X8X5X4X4X,X1X4X4X1X4X1X2X4X2X2X5X5X5X8X8X",
"5X5X5X1X4X5X4X4X2X1X8X8X>X5X1X,X,X,XW.4X>X&.5X,Xn.% F R J C q 0 > 6 6 7 7 9 7 h R R R > W 9X9X0X9X8X8X8X5X2X,X1X,X,X4X4X4X,X5X4X4X4X5X5X5X4X",
"8X8X1X2X5X4X>X1X1X8X>X:X>X1X1X1X,X,XH.G.Y.A.4X1Xn.o b D Z m g w w 9 0 q 0 y y h C D D = W 8X9X8X8X8X8X8X5X5XqX4X,X4X1X1X4X,X8X4X4X2X5X8X8X8X",
"8X4X4X4X2X,X4X2XW.W.1X,X,X1X1X1X1X4X2XW.8X4X1X1Xn.o 6 g g g n g f 7 6 7 q g h h g s y O W 5X8X8X8X8X8X8X2X,X5X4X1X5X4X4X1XE.5X4X2X4X2X4X8X8X",
"5X4X2X4X4X4X8XW.1X1X1X1X1X4X5X5X5X4X>X2X2X,X1Xg./ = u Z Z D D Z h q 7 7 h D H Z C Z V 6 i w.=X5X0X8X8X5X,X8X5X2X,X,X,X4X:XT.4X>X2X5X4X4X4X8X",
"8X5X4X4X4XE.1X,X1X1X2X1X4X5X8X5X5X2X&.,X>X1X&X5 + 0 F E E K V ~ Q f 9 9 h Q h R ~ E J u : X r.5X5X8X8XU.9X8X5X4X5X1X1X,XP.5X,X4X,X4X8X4XqX8X",
"8X8X2X,XP.2X1X4X1X1X1X4X4X5X4X5X8X2XA.W.,X1X-X5 9 F >.0.0.Q ; D ^ h h h Q ^ 9 h 5.t.5.R b   h.W.>X5X2XW.0X0X5X9X2X1X4X,XP.,X,X,X1X2X8X5X8X8X",
"8X8X9XT.1X1X1X1X1X4X2X2X2X8X4X5X4X4XB.8X>X1X-X5 q E 8.x.j.] 9 ! } h V V _ { g C s.d.s.} h O i.5X0XQ.Z.4X4X9X9X9X8X3X4X,X,XQ.4X,X1X2X4XeX8X8X",
"8X8XI.2X1X,X,X1X,X,X1X4X5X5X5X4X4X2X2X>X>X1X-X5 q R d._.d.p.8.,.} Q m F { 5.,.0.x.c.c.{ f X g.0X5X4X&.4X9X4XqX9X9X1X1X,X,X,XU.,X,X1X5X8X8X8X",
"8X9X2X2X,X>XW.>X,X,X2X5X4X5X2X2X5X4X5X>X1X2X-X5 g >.c._.a.a.p.d.p.} } } 6.h.i.i.s.x.).0.Q X g.5X0X5XA.5X5X2X5X8X5X2X,X,X1X,X,X4X1X1X9X5X8X5X",
"8X,X2X8X8X2X1X>X,X,X>X5X4X2X1X2X5X2X,X>X1X2X=Xi F i.c.).d.a.z.~.x.p.9.0.h.~.~.k.p.x. Xs.{ > b.5X4X;X>XqX9X8X5X2X5X4X4X1X1X1X,X,X2X4X8X8X8X8X",
"8XC.2X2X8X5X1X,X,X,X,X4X1X,X,X>X8X!.1X>X1X2X2Xn.` d y. Xz.(.(.~.l.s a 9 -.(.~.~.x._._.D C f.=X4X4X3X,X9X8X8X8X8X8X4X2X2X1X,X4X,XY.1X4X8X5X8X",
"8XH.2X2X4X5X5X1X,X>X>X>X,X,X1X1X2XW.T.1X,X1X2X#X;.. -.j.(.(.~.j.7.a 9 ; ^ d.~._./.x.0.> z [.<X4X4X>X1X9X8X8X8X8X8X5X4X2X1X1X1X4X,XW.5X5X8X8X",
"8X2X>X1X2X5X4X4X,X>X>X>X>X1X,X,X,X,X,X1X2X2X2X#X;.o O d l.(.(...! | | | [ L l.~.c.^ % X B N.<X4X4X>X1X9X9X9X9X9X8X8X4X4X4X4X4X4X5X1X,X5X5X8X",
"5X5X1X1X4X4X5X4X4X5X>X>X,X,X,X,X,XC.,X1X2X2X<X+X1.  $ y ( ] ..! ' [ | } ' ! ' ] ] m - X z '.&X4X5X1X,X5X8X9X9X9X9X8X5X2X5X4X5X8X5X8X!.9X4X8X",
"8X5X1X1X4X4X5X>X1X,X>X>X1X,X,X,X>X4X1X1X2X&X{.OX<.  0 q o $ * S ' ' [ L ' ! 2 O o 2 y O M N.{.OX<XG.8X4X0X8X8X9X8X8X8X4X5X8X5X8X8X8X5XT.8X8X",
"8X5X4X4X4X4X:X1X>X>X>X1X,X,X,XY.>X,XH.,X1X&X{.+X2.X : 6 . e W l 2 2 2 2 2 e W A . - 7 o M N.OX#X,X%.8X8X8X8X8X9X9X8X8X4X5X8X5X8X5X8X8X5X>X8X",
"8X5X5X5X2X,X1X2X5X,X>X>X>X,X>X!.,X1X>X1X4X&XOXOX:.  % > 5 M ( i < < < < , < P T 3 1 * X M N.|.#X1XY.5X8X8X8X8X8X9X8X8X8X4X8X8X8X8X8X8X8X4X2X",
"8X,X8X8XT.,X5X5X4X,X>X>X>X,XD.2X>X,X1X1X4X&X|.XX;.X : u :.G - j T I I I I P 2 k 3.Y 8 o b '.@X@X>X,X4X8X5X8X8X8X8X8X8X5X2X8X8X5X5X8X8X8X5X>X",
"8X5X8X>X1X8X5X<X5X2X>X,X>XQ.Y.2X>X,X,X1X5X=X$X|.;.  : f 9...A x k k c k v v l  .y.Y - . b ].+X#X5X5X5XW.8X8X8X8X8X5X5X4X2X5X5X8X5X8X8X8X5X8X",
"8X8X8X8X4X5X5XeX8X8X,X,X>X>XW.>X,X>X,X4X4X=X|.{.2.X : g -.i..XA @ , , , @ 4 f.^.4.F 7 + B ].|.{.<X5X,X0X5X8X8X8X8X8X2X2X4X4X4X8X8X8X8X8X8X9X",
"8X8X8X8X2X2XF.9X8X4X>X>X>X,X>X>X>X,X,X4X5X=X{.OX;.X > N 6.i.k.M 1 1.u.w.A * a.l.9.Q y X g '.|.#X>XE.5X5X8X8X8X8X8X8X5X2X2X5X8X8X8X8X8X9X8X8X",
"4X9X9X8X>X:X8X8X5X,X>X>X>X>X,X!.,X,X3X4X5X=X|.@X2.  u F 6.y.6.A A `.$XXX:.w ..t.p.! m + M ].$X#XI.%.2X5X5X8X5X8X8X8X8X5X5X2X8X5X8X8X9X9X9X8X",
"1X9X9X8XW.5X8X4X1X,X,X>X>X,X>X>X,X>X1X4X4X=X#X|.;.o h ^ s.{ > 6.`.}.|.XX`.k.h h s.>.D & M ].$X$X;X%.1X4X4X5X8X8X8X8X8X5X5X2X8X8X8X8X8X8X8X4X",
"9X8X9X4X,X8X5X2X1X1X>X,X>X>X>X,X,X,X2X2X5X=X{.|.2.o b =.z.^ - u.XX|.XX|.XX`.f f x.4.E $ l }.$X@X;X&.4X,X1X4X4X5X5X5X8X5X8X8X5X8X8X4XeX0X9X1X",
"1X,X>XW.4X4X1X1X1X,X,X>X>X>X>X3XP.1X2X2X5X=X+X|.;.X R 5.).=.& e.$X|..X|.$X].f f ).y.{ 7 B ]..X$X!.H.,X4X1X1X,X1X2X4X4X4X2X2X8X8X8X5X2X2X1X1X",
"9X2X8X,X8X1X1X2X2X,X,X,X,X>X,X>X>X>X4X4X5X=X|.+X2.O ` s. X{ % f.|.|.|.|.|.N.f g ).x.4.7 M ].%X}.;X,X5X4X1X1X2X1X4X2X4X5X8X8X8X8X9X8X5X2X2X8X",
"0X5X4X5X8X2X2X4X4X1X,X,X,X,X,X,X4XW.3X4X8X<X@X|.;.$ :.).6X] % e.@X|.|.$X|.`.f g .X Xj.t M ].%XK.>X5X4X2X1X9X,X1X2X2X5X8X8X9XeXqXeXwX8X5X5X9X",
"8X8X2X5X4X4X4X4X1X1X,X,X,X4X1X4X5XT.4X4X5X5X5X|.;.% 6.oXoX=.% f.@X|.XX|.XX].q g _..X^.p M }.=XI.2X5X2X2X9X1X1X2X4X5X8X8X9X9XeX9X9X9X5X4X9X8X",
"8X8X2X2X5X4X4X5X4X,X1X1X,X2X4X2X5X>X1X,X5X5X8X$Xe.B =.h.i.` S g.@XXX$X}.XX`.) J 0.h.6.F ) '.R.1X2X5X4X2X1X5X1X4X4X4X8X8X9X9X9X1XD.5X4X5X8X8X",
"9X8X2X:X5X4X2X4X4X1X,X1X2X2X4X4X4X5XH.2X5X5X5X@X|.`.G O + ) N.|.+X}.}.%XXXXX|.u.: + 8 g.$XN.;X4X4X4X8X5X8X1X4X4X2X5X2X8X8X9XqX9X5X5X5X2X9X8X",
"9X8X5XQ.2X1X4X5X2X,X1X2X4X4X4X5X5X5XW.>X4X4X8X2X&X[.w.( o.g.|.|.}.}.|.XX$XXXXX`.:.=.2.`.*X;X5X5X4X9X9X8X8X4X2X5X5X2X4X5X0X9X9XeX9X5X2X2X8X8X",
"8X8X8X!.5X2X2X4X2X4X1X1X4X4X5X2X4X8X5X>X4X8X5X8X2X|.&XJ.XX{.|.@X+X$X|.}.$X@XXX.X%X*X*X.X6X8X8X5X5XwX9X9X8X5X4X4X2X4X1X4X5X9X9X8X9X9X8X8X8X8X",
"9X9X8XW.8X1X4X5X,X,X4X4X2X4X2X4X4X5X8X>X4X5X5X5X0X2XE.E.=XXX}.}.}.}.}.@X}.XX|.XX.X7XwX9X9X5X8X5X8X5X9X9X8X2X2X4X5X5X2X1X2X8XeX8X9X9X8X8X8X9X",
"9X8X8X!.5X1X4X1X4X,X1X1X2X4X2X5X4X4X4XW.W.9X8X8X5XT.A.5X=X$X=X#X=X=X*X=X=X=X=X6X6X7XqX3X9X8X5X8X8X8X5X8X8X8X2X2X2X5X2X2X2X2X2X8X9X9X8X8X8X9X",
"8X9X8XE.4X4X1X1X,X,X,X1X2X4X5X4X4X5X1X8XC.W.2X1XT.H.4X5X5X5X4X5X5X8X5X8X8X8X9XwXeX9X!.9X8X8X5X8X5X8X2X5X8X8X8X5X5X4X2X4X2X1X,X4X8X9X8X8X8X8X",
"9X:X8X!.5X1X,X,X,X,X1X2X4X4X5X5X5X5X4X8X8XC.&.T.E.5X8X5X5X5X5X5X5X5X8X8X8X8X8XeXqX8X,X>X5X5X5X8X8X2X5X4X2X5X5X8X8X4X2X4X1X,X,X,X5X8XR.8X9X9X",
"1X>X8X1X5X4X,X,X,X1X2X4X4X4X5X5X5X5X4X4X9XP.W.T.8X0X8X8X5X5X5X8X5X8X8X8X8X8X8XeX9X,X8X2X8X5X8X5X2X5X8X2X5X2X5X5X8X5X4X,X2X1X,X:XW.5X>X5X8X8X",
"G.8X8X1X8X1X1X4X,X1X4X5X2X2X8X8X8X8X8X2XH.*.2X8X8X8X9X8X8X8X8X5X8X5X5X8X5X8X8X8X8X:X4X8X8X5X4X2X5X8X8X4X5X2X4X2X8X8X4XR.,X,XW.8X8XT.,X8X4X>X",
"8X9X8XS.5X1X1X,X1X2X1X,X4X4X8X8X5X8X5X>XH.8X8X8X8X8X9X8X8X8X8X5X8X5X8X8X8X8X8X9X2X8X:X5X5X8X9X5X5X8X8X2X4X5X2X5X4X8X8X2X>X,X9X8X8X8X!.5X>XT.",
"9X8X9XS.8X4X1X1X,X1X1X4X4X5X5X8X8X4X3XT.8X8X8X8X5X8X8X8X8X8X5X8X5X5X5X8X8X5X8X9X1XW.4X9X4X2X4X5X2X8X8X4X5X2X4X2X8X5X8X8X8XE.8X8X8X8X&.L.E.9X",
"8X9X8XG.5X1X3X1X1X2X1X1X1X1X9X9X5X>XY.5X5X5X8X5X5X8X8X8X8X8X8X8X5X8X8X8X8X8X8X2X,X8X,X8X9X9X9X5X2X8X8X8X2X5X5X2X8X5X8XqX>XE.%.5X:XE.,XW.eX8X",
"8X9X8X*.5X1X1X1X1X2X4X2X2X1X4X,X1X!.9X8X8X8X5X8X5X5X5X8X8X5X8X8X8X5X5X5X8X5X8X8X4X4X8X5X8X9X2X2X8X8X8X5X5X5X4X2X8X9X!.E.G.*.<X>X8X9X8X>XeX5X",
"8X9X8XQ.>X4X2X,X2X1X7X@.4X4X1X1X>X9X9X8X0X8X5X5X5X5X4X8X8X5X5X8X5X5X5X5X5X8X8XeXW.Q.4X*.1X,X9X0XeX8X8X8X5X5X4XwXW.W.W.4X8X8X5X4X8X8X8XE.8X8X",
"9X8X9X,XG.L.:X>X:XC.8X8X8X4X,X!.9X9X9X9X9X8X8X5X5X5X5X5X5X8X8X5X8X5X2X4X2X5X0X>X>X8XeX5X4X>X,X8X9X8X8X4X2X9X5XW.!.8X8X8X8X8X8X8X8X5X4X4XeX8X"
};
