/* XPM */
static char *_7248_dbfc5c80f84779f166962cd036f944aff76cc99cf3360c03e744563edaeaae8f[] = {
/* columns rows colors chars-per-pixel */
"70 70 57 1 ",
"  c #4DA6F5",
". c #4FB2F6",
"X c #56B3F7",
"o c #57BDFC",
"O c #73B7E7",
"+ c #62BCF9",
"@ c #5EC2FB",
"# c #6BC6FB",
"$ c #67CAFC",
"% c #6CCBFD",
"& c #7FC2F6",
"* c #75C6FB",
"= c #7CC6F8",
"- c #75CAF8",
"; c #7CCCF8",
": c #76D2FB",
"> c #7CD3FE",
", c #7ED9FF",
"< c #87C5F7",
"1 c #84CDF6",
"2 c #82CEFD",
"3 c #8ED2F5",
"4 c #85D4FE",
"5 c #8CD4FD",
"6 c #8DD9FE",
"7 c #93D4FC",
"8 c #99D7FE",
"9 c #94DAFD",
"0 c #9DDCFD",
"q c #A7DCF6",
"w c #A5D6FC",
"e c #A3DDFD",
"r c #AADEFB",
"t c #95E0FF",
"y c #9BE0FF",
"u c #A5E1FE",
"i c #ACE3FE",
"p c #B4E5FE",
"a c #BBE6FE",
"s c #B6E8FF",
"d c #BDE8FF",
"f c #C2E6FD",
"g c #C4EAFE",
"h c #CCECFF",
"j c #DBEDF6",
"k c #D3EEFF",
"l c #D9EFFE",
"z c #CCF1FF",
"x c #D6F0FF",
"c c #DBF1FF",
"v c #E0EFFE",
"b c #E3F4FF",
"n c #EAF6FF",
"m c #E4F8FE",
"M c #EEF8FF",
"N c #F0F6FC",
"B c #F2F9FF",
/* pixels */
"bbnBNBBnnnnbbbbcbcbcblllphxcbbccxllklcchxckghhkkxxccccxccccccccmphdccn",
"nbbbnnnnbhnnnnbnbnbbccchlkcbbbbxh960hhcx0pdagdpkxlh6hxxxcccmbmxxbbmnnb",
"c;pbbccbnbccbbnnnnnbccclkcbbcccxahxkilzcbbchhbchhgffguMMxcgcccxxbbbmbn",
"hllibnbbbbbbckhbnbccbcxkkxpfxlckxkhufbchhhhhhhkkhzcxffghxxxcchnbbcbcbk",
"ccch608575bgllhhbccccxxlhclxhhzkhhd4gcxxxcxcxhfghxxxxkh9xkxcccccccbbli",
"xhhapaadfd3fhhhkhklxxxhxcxclkhfggddpxccxkkkhghhgfhhkxcc9phkcccccbbbc4l",
"hhzkgfdaaigggggkxhhhhhhjcxcckxaaddfhgkxcckghhhhhighxhxkihxkxxccmbbchhh",
"highgapdiddhggflhhgghgllcccllxkuhdphhkllcxhhhkkhx08xxxzihkkxccccbbmxhh",
"fxhhhda0paaahhblclhhhkxccccccclhhg-xgxkxkhhghkkkkh0acf6xhhhxxkxcbbdkhh",
"zxhhgaaiuppdgbpkccchhkllcbccccccgfgfhkkxhggghkklkkc7epccxkkhkkxxchhkhg",
"ahhhfdppppsdkkhxlcxckkxccbcccbblxpahhhkxkhhhkhllckk+zccbcxlkkxklkhllhh",
"xghzgdppppdhhhkxxcb6kkxccccbcbcbc9gdfghzhhhxlhkbbk+ckkxxccxkkkxkhhkchk",
"zfhhgfpaa9fhhkkkcxuhhkccbkxcbbbbcydgdfdffghklxhgkwccclkkcxxkkhlxckuphg",
"kddhhgdfdyshkhkkxhufhlxclccbbbbc5dhggfdggxcnbbbhlcbcccxkhxxlxhgk0kxcah",
"cfdhhgghhhfakhkkxiahkxccccbbbbc4phhghffgkkcbpbkhxxcbcchhlkxkkkbyhccxhc",
"xxkggghhhz3ihhkkl0hhllccccbbbnyhkhxkghhhhkcbNchlccxcbxxhruhkkb6ckkccxx",
"xclfgghhhkh0cxklidxzkllxlcbbnbkkkxxxhhhghglvbchcccccbxdkkkc6ceflklxccl",
"xxxhkhhhhhheuxh>qkhhhkklcccbcckhkhllkhhhggfqccxhccca1kkkkklkiddlkkkxxk",
"lxxxkhkkkkxx@48xxkhhhhkllxckfkkkkhhhhkzhhgfihkhcbd3hclxxlcccfckkkklkll",
"bchxkxhlxka- gccbcxllkkkxxchxkhkhkxhhkxxakkccpjf%acxlccbccbcixlkkkllxb",
"nckkkkxhxs10klclccxkkkkllkhcccgkxkkhhkhcgbwkkiuplkkxccccbccbu1fxkxcxcb",
"bbklkhccp0cxxxhlcklkkkkkckxcbblkxlhkhkkjuuo7McicxhlxcxcccccchxOkxxccMn",
"nbkkcbdifcccxkkhkkkklhhhklphipkbbchcxpiixccbxhcxklxdkxcbcbccnhxhlxccnn",
"nbxcbxfhcccccxkhkkkkkkkcadxxckp0dhd9phbkccccdsbbccfxkkxcccccbafkxxcMbb",
"bbbbhhkkkkbclhdhhxhxhlxubcccpxccf9dhkklhxcjc.bbbnbcxkxxbxlkxchkkxcccbb",
"cbclhxcckkcblkhhfihkxgulkxcxcxlcxccccllckkbxibbnbbbckxhkhxkxlkkklxccbc",
"cbckxcxxkkbcgckhhhaxh=ckklxcclxcccbmbbccccNibMnnbmbbcxkhxhxxkhmklxcbbc",
"bckxckhklbhahkkkhk06u4kxkklxcxcxcbbnbbbcmvh8bcbbnbbbccbchkkkkhbkcxlccb",
"bxxxlhxlapkkhhhkkcxsbkkhkkkxllccbbnnnbnmbvr8cbcbbbbcjhcckcxkkicxkclxbb",
"clkclxbahlkkkccccxhxlhkkkklxlxbbnnnnnnnbnpo4#lcbbbbchbcxhhhkfpxfkccxcc",
"bbcxxplhlkkklccccl&hgkkkllkcbbbbnnnnMBBnp0bbmn9bbbbynbbxckkkexxkhcccMb",
"bckh0xkkkkkxcccccx4akkklllcbbnMnnnBnnnng7bbbbcbagclpmbcnkkkhuhhhklbcbb",
"bcnrkkkkhlklcccccc<chkkklcnnnnMMBBBnnnbebhbbbbbcbi5ccbnnbkkhhpzkklcBbb",
"bbilkhhhhhklclclcxcgghklcbnnnMMBBBBBBbabbclccbbcbl=lncMmnhhhhkyhhkcbbc",
"bnlbhhahhhkcccllcxcfkkklcbbnnBMNBnBBnlebbbbcbbcbbc4bcxcbcxkxkhhlkxncbb",
"bhlcllhhhhhcxkkkcxkfklkcbbbnnnMBBBnnc>accbcccbcblghbnbcjcckhhkkgkcbbcb",
"b;cccckhhhhxkhhhbdhfkkxxbbbbnnnMMBnb9bMhbccclccclhhMbbcbcclkxhxhuxcccb",
"vekllcckhgfhhhkkxaixkkccccbbbnnbnnbcnbcccclccclxxdkbbbbbbcxkkkkxhaccbc",
"clhklcxkzggghhhzhhhxklcccccbbbnbnblbbbnbblxlklxxxhhnnMnnbblxlcxcchhccb",
"bbhkxxccxchdhhhhh4hkkxxcbbccbbbbccbnbbbbbccxckkxbhhbbnbnnbccxcccbcancb",
"bcxkxxchkhhhhhhhfckkllkcbbccccbccknbbbnbbbcbkkkxk9bcmbnnbbcccbcbcbbibc",
"bcxxxcfhggghhhhudh0hkkkcbbcxcccccbbnnnbnnmbbhhhkh$bccbbbnbbccccbbbbcfb",
"cccclhhlcggffhhahhgkcxkxbclxxxxlcbnbnbbnbbbbkkbckqcbbbbbnbbbccbbcbbbck",
"bhbbihccczgggh5xhhkkxccbcbbccccxbbnnbnnbnnbbbbblghccbbbbbbbccbbcbbbcch",
"bcbhkbcjckhhhsulghhlccbcbbbbcccxbbnbnnnnnbbnbbccxccabbbbbclcxccccbbbbb",
"bbbcccjnbbhhfgsghhhxkccccbnnbccbbbbnbnbnnnnbnnclckhccbbbbcclcxcbbbbbbn",
"bbbblc8bbxfggghfghkhcbcxbbbnbbbcbbbbnnnnnbnnnbbkgpcbbbbbbbclcccbbbbnbb",
"xnnchfbbczggghgahhhxccccbbbbbclcbbmbnbmnnnnMnvnje$cccbcbbbbclcbcbbnbnb",
"kMbndcbxkhggghgghgkcccccbbbbbcfbbbbbbnMbnnnnnnnbf#xxcccbbbbcccbbbcbbbc",
"bbbxgbclkkhgggghhhxxcccbbbbbbpbbbbnnnnbnnnBnnnnbf-zxjkcccccccbbbbcBmnh",
"khhacxkkkhhhgggzehlcccccbbnbf*cbbbbbnnmbnnnBnnnba0kkkkhkxxccllcbbclkkk",
"blbhbhkllhhhhghgggkxcccbcbbbplccbbbbbbbnnnnMnBMbhhcxkxkhxkxcbbbbnbclxb",
"nccccxkclkhhhhhkzaxxcbbccbbcuccccbbbbbbbnnnBMnn0fcclknkkkllbnnBMBBbcln",
"bbxccxxckkhhzkkkcixxcccbbbbh8lccbbnbbnnnnBBnMnxqxxllmkkkccbbbnBnnnclnb",
"bvcxcxxckkhkkkllcgxhcccbbbbhpbgcbbbbnbnnnnnBncphxcckkckklcbbnnnk6clcbb",
"nbjfcxxcxhkkklxxcc0lxccccbbizccbbbbnbnnnnBnBnazlcxccbklckllbnnnnccclbn",
"nbcscklcxkklxcxlccsgcccbcbcucccbbbmbbnbnMMMBBgcccnnnbcclccccbnMBncllbb",
"bbbdckkclkkxxlcccccfxbccbccpbccbbbbbnbnBMMMBBcbccBbbcxlckckcbbMbnbbbbb",
"nnbaclcxhhxklxlxcccgxcbbcciibbcclcbbbbbBMMNbMbbbccMnblclllkklbNbnnbvnn",
"bbbackxxkhkxlxlccxxdsmbcxp4ccclcbbbbbbnnBMNzbbccbbcbbclllcckkkxbnnbnbb",
"nbbackhxhhhkklxccchb2alki0ccclcxcbbbbbbBMndMbbbcbbccbcbcclklckkhbnbbbn",
"nfbdckhhhkhkxcccccxbb2=ipcbccccccccbbbbnMbhfcccbclclclcbcckkkkkhcbpbbb",
"xfbhbkkhhkkcccccccccnedibbbbbcbccbcbcbbBnhbkbccclccclclbbcchkkhfdcgbbb",
"tbbxclhkhkcxlcccbbcxy:lbbbmbcbbcbcbcbbbnbfcbbcclcbblclclbbjpkhpbbuzccf",
"bbb4ckkkkkkhlccbccchebbbbbbbbbbccbccbbbncbgccjMccbbcllclcbblhhnbbbdlhi",
"bnn4bkkhkkkllxcbbczubcbccbbbbbbbcbbbcbbnhacnbkxclbbclclccbbcbpbbbb*ein",
"bnb9ckkkkkllhknncdubcbcbcbbbbbbcbccbbcbchchbnbMclbbclcclccbMfp#caphaBb",
"nbn>ckkkkkljlkchxdnbbcbccccbbcbbcbccbbbbcxbcbMkcbbcbccxlbnap9:jgbnbhBb",
"nbbphlhkkkvXlxhkgnbbbmbcccccbbcbcccccbbBapx,hknbBbbccccMdpacbbbxbbcpbb",
"nbnk9efaf4bbcckdnnMnbbbcccccccbcbccxccbgfmNczfkbbbbllbmpfcbbbbbbbcxlBb"
};
