/* XPM */
static char *_5273_aa9c33345a64ab3393f63ccd581b3ac9643e0e3086735ac138cedccc170d411b[] = {
/* columns rows colors chars-per-pixel */
"70 70 211 2 ",
"   c #050302",
".  c #090603",
"X  c #0B0B05",
"o  c #0D0C0B",
"O  c #120E0C",
"+  c #0B110D",
"@  c #13120D",
"#  c #0E111D",
"$  c #151513",
"%  c #181815",
"&  c #1C1A16",
"*  c #1C1C1C",
"=  c #211C17",
"-  c #221E1C",
";  c #25221D",
":  c #28251F",
">  c #1A1C26",
",  c #221F26",
"<  c #1F222C",
"1  c #1B2235",
"2  c #242323",
"3  c #2A2622",
"4  c #2C2925",
"5  c #25252A",
"6  c #272A2A",
"7  c #2C2C2B",
"8  c #312A25",
"9  c #322D2A",
"0  c #34312D",
"q  c #3A332C",
"w  c #262936",
"e  c #2C2D34",
"r  c #2C3137",
"t  c #353434",
"y  c #3A3633",
"u  c #3C3935",
"i  c #36373C",
"p  c #3B3D3C",
"a  c #41372D",
"s  c #413B35",
"d  c #433F3A",
"f  c #3D423F",
"g  c #45413D",
"h  c #48433C",
"j  c #253044",
"k  c #363B47",
"l  c #3C3C42",
"z  c #403F45",
"x  c #3D4145",
"c  c #3E4452",
"v  c #444343",
"b  c #4A4642",
"n  c #4C4A45",
"m  c #454749",
"M  c #4D4C4C",
"N  c #534A43",
"B  c #514E49",
"V  c #55524C",
"C  c #5C544C",
"Z  c #494C59",
"A  c #4C5358",
"S  c #545452",
"D  c #5B5652",
"F  c #5C5955",
"G  c #565859",
"H  c #5C5D5B",
"J  c #615D56",
"K  c #625D5A",
"L  c #5E605E",
"P  c #66625D",
"I  c #69645E",
"U  c #494E67",
"Y  c #5C5E63",
"T  c #525D71",
"R  c #5D6162",
"E  c #5B6567",
"W  c #596677",
"Q  c #636463",
"!  c #6A6663",
"~  c #6C6A65",
"^  c #656A6A",
"/  c #6C6D6A",
"(  c #716864",
")  c #726E6B",
"_  c #6F716F",
"`  c #75726D",
"'  c #7C756F",
"]  c #686A76",
"[  c #6E7578",
"{  c #747574",
"}  c #797571",
"|  c #7D7974",
" . c #73797C",
".. c #7C7C7D",
"X. c #837E78",
"o. c #86817E",
"O. c #88827B",
"+. c #5C7381",
"@. c #6A6C89",
"#. c #697089",
"$. c #7A7E82",
"%. c #837F85",
"&. c #7C8285",
"*. c #7C8489",
"=. c #4EACF6",
"-. c #59B6F9",
";. c #67BAF3",
":. c #5EC3FB",
">. c #6CC8FC",
",. c #7AC9F9",
"<. c #79D4FD",
"1. c #878887",
"2. c #928C88",
"3. c #95928D",
"4. c #9D978F",
"5. c #888E94",
"6. c #8B9396",
"7. c #8D959A",
"8. c #9A9591",
"9. c #9E9B96",
"0. c #979899",
"q. c #A49B97",
"w. c #A49D99",
"e. c #A6A29D",
"r. c #AAA59C",
"t. c #9A9EA3",
"y. c #9DA6AA",
"u. c #A6A4A1",
"i. c #ADABA4",
"p. c #A4A7A9",
"a. c #ACACAB",
"s. c #B3ACA9",
"d. c #B5B2AD",
"f. c #BAB2AF",
"g. c #A7AAB7",
"h. c #B1AFB0",
"j. c #ABB4B9",
"k. c #ABB5BC",
"l. c #B4B4B4",
"z. c #B8B7B7",
"x. c #BDB9B4",
"c. c #C2BBB4",
"v. c #C1BCB8",
"b. c #C8C2BC",
"n. c #AAABC3",
"m. c #ADBBC1",
"M. c #B1BCC3",
"N. c #B8C3C9",
"B. c #A8C8D5",
"V. c #B5C9D4",
"C. c #BACCD5",
"Z. c #83CDF9",
"A. c #85D5FE",
"S. c #8BD4FD",
"D. c #8DD8FC",
"F. c #94D5FD",
"G. c #94DAFD",
"H. c #9CDCFD",
"J. c #A7DAF9",
"K. c #A3DDFD",
"L. c #B2DEF8",
"P. c #98E0FF",
"I. c #A5E2FE",
"U. c #ACE3FE",
"Y. c #B4E5FE",
"T. c #BBE6FE",
"R. c #B6E8FF",
"E. c #BDE8FF",
"W. c #CBC5C2",
"Q. c #C7C9C9",
"!. c #D3CCC8",
"~. c #D4D1CC",
"^. c #DBD4CC",
"/. c #C2CDD3",
"(. c #CAD1D6",
"). c #C3D4DC",
"_. c #CBD6DC",
"`. c #CDD9DF",
"'. c #DBDAD7",
"]. c #D3DADE",
"[. c #E4DDD8",
"{. c #E7E0DA",
"}. c #ECE5DE",
"|. c #CCD9E1",
" X c #C9DAE5",
".X c #D3DBE1",
"XX c #D8DFE3",
"oX c #CDE1EC",
"OX c #D3E3EC",
"+X c #DAE4EA",
"@X c #CBE4F3",
"#X c #C2E6FD",
"$X c #C4EAFF",
"%X c #CCECFF",
"&X c #D3E6F2",
"*X c #DDE7F0",
"=X c #D5EAF4",
"-X c #DCECF5",
";X c #D3EEFF",
":X c #D9EFFD",
">X c #CCF1FF",
",X c #D6F0FF",
"<X c #DBF1FF",
"1X c #F0EAE5",
"2X c #E2EEF7",
"3X c #E3F3FF",
"4X c #EAF6FE",
"5X c #E4F8FE",
"6X c #EEF8FF",
"7X c #F0F6FC",
"8X c #F3FAFF",
/* pixels */
"3X3X4X8X8X8X8X4X4X4X3X4X3X3X3X<X3X<X3X3X<X<X:X,XT.%X,X<X3X3X<X<X,X;X,X,X:X<X<X%X,X<X;X$X%X%X;X;X,X,X<X<X<X,X,X<X<X<X<X<X<X<X5X3XY.%XE.<X<X4X",
"4X3X3X3X4X4X4X4X3X%X4X4X4X4X4X3X3X4X3X3X<X<X:X%X;X,X<X3X3X3X3X,X,XG.D.H.%X%X<X,XH.Y.T.T.$XE.Y.;X,X:X$XG.%X;X:X,X<X<X<X5X3X3X,X>X3X3X5X4X4X3X",
"<X,.Y.3X3X:X:X3X4X3X:X3X3X3X4X4X3X4X4X3X<X<X<X,X;X<X3X3X<X<X<X;XT.%X;X;XU.:X>X<X3X3X<X%X%X3X<X%X%X$X$X$X$XI.6X6X,X<X$X<X3X<X,X,X3X3X3X3X3X3X",
">X:X:XU.3X4X3X3X3X3X3X3X<X;X%X3X4X3X3X<X3X<X,X:X;X,XY.#X,X:X<X;X;X;X%XI.$X3X<X%X%X%X%X%X%X%X;X;X%X%X<X;X$X$X$X%X,X,X,X<X<X%X4X3X3X<X3X3X5X:X",
"<X3X<X>XD.H.H.S.S.F.<X$X:X:X%X%X3X<X<X<X<X,X,X:X%X<X:X,X;X%X%X,X%X%XE.A.$X<X,X<X,X<X<X<X;X%XE.$X%X,X:X,X,X;X%XG.,X:X,X<X<X<X<X3X<X3X3X3X:XU.",
";X%X%XE.Y.T.T.E.#XT.F.$X%X%X%X;X%X;X,X,X:X,X%X,X<X,X:X,X;X$X$X$X$XT.E.Y.,X,X,X:X;X;X;X%X$X%X%X$X$X%X%X;X,X<X<XG.U.%X;X,X<X,X<X<X3X5X<X<XA.<X",
"%X%X$X;X$X#XT.T.T.U.$X$X$X$X$X;X,X%X%X%X%X$X%X:X<X,X<X<X;X,XT.T.T.T.$X%X%X;X,X<X,X;X%X%X%X%X%X;XU.$X%X;X%X,X;XU.%X,X,X,X,X<X<X3X3X3X<X%X%X%X",
"%XU.%X$X$XT.Y.E.U.T.T.%X$X$X$X:X%X%X$X%X%X$X:X:X<X<X<X:X<X,X;XI.%X$XY.$X%X;X:X:X,X:X%X%X%X;X%X;X,XH.G.:X,X,X>XU.%X;X,X,X<X<X<X<X5X3X3X,X%X%X",
"$X,X%X%X%XT.Y.H.Y.T.T.T.%X%X3X:X<X<X%X%X%X;X,X<X<X<X<X<X<X<X<X%X%X%X,.%X%X%X;X,X:X%X%X$X%X%X,X;X%X%XH.T.,XE.G.,X;X%X%X,X,X,X,X,X<X3X$X,X%X%X",
"%X,X%X%X$XE.T.Y.I.Y.Y.E.$X3XY.;X,X<X<X%X%X;X:X<X<X<X<X<X<X<X<X<X$XE.$X$X%X;X,X;X%X$X$X$X%X:X,X,X,X,X<XD.K.Y.<X,X,X%X%X%X;X:X,X,X,X,X%X%X%X%X",
"T.$X%X%X$XT.Y.Y.Y.Y.T.E.;X,X%X,X:X<X,X,X;X;X,X,X<X3X<X<X3X<X<X<X,XY.T.$X%X%X%X:X;X%X%X%X;X%X:X:X<X:X:X;.%X<X<X3X<X,X,X,X;X;X:X;X:X$X:X:X$X%X",
">X%X%X%X$XE.Y.Y.U.Y.E.%X%X%X;X,X:X<X3XG.;X;X:X<X<X<X3X<X3X3X3X<X<XG.$X$XE.$X%X;X%X%X%X,X;X;X%X3X3X%X-.<X:X,X,X<X<X<X<X;X;X,X;X,X%X%X;X<X;X%X",
",XE.%X%X$X$XY.Y.Y.G.#X%X%X;X;X;X,X:XI.$X%X;X<X<X3X;X<X<X3X3X<X3X<XH.T.$X$XT.$XT.$X$X%X%X:X:X;X$X;XK.:X<X<X:X;X;X,X,X,X:X,X;X;X,X<X>XU.Y.%X$X",
",XE.E.%X$X$XE.$X#XI.R.%X%X;X;X:X:X;XI.$X%X:X,X:X<X<X<X3X3X5X3X3XS.E.%X$X$X$XT.$X%X;X3X4X3X3X<X%X<X<X<X3X<X<X,X;X%X,X,X;X;X%X$X;XH.;X;X<XT.%X",
"<X$XE.%X$X%X$X%X$X%XT.T.,X%X%X;X;XU.E.>X;X:X<X<X<X<X3X3X5X5X<XD.Y.%X%X$X%X$X$X$X%X;X<X3XY.3X%X%X,X:X<X3X<X<X;X>X,X;X,X:X,X,X3XH.%X<X<X,X%X<X",
":X;X;X$X$X$X%X%X%X,XD.U.%X%X;X;X:XG.*.^ [ oX<X<X<X<X3X3Xy.{ W [ /.%X,X;X$X%X$X%X%X;X<X3X7X<X;X:X<X<X<X<X3X;X;X%XJ.U.%X;X>X<XG.<X;X:X,X<X,X,X",
",X,X,X$X$X$X%X%X%X;X%XH.<X,X;X;XY.T.f   * m.=X<X<X<X3X+XL % $ X 7 =X<X,X%X%X%X$X$X$X<X:X3X<X%X<X<X<X<X<X3X,XT.;X;X%X<XD.<XK.$X:X;X,X,X,X<X:X",
":X,X,X%X;X%X%X%X%X%X%XK.I.,X%X<.I. Xf : S f R -X<X<Xj.0 P ` B 0 7  X;X;X,X%X%X%X%X$X$XJ.<X<X,X$X<X<X<XY.Z.:X;X:X:X;X:X;XI.E.E.:X;X;X:X,X,X;X",
":X,X,X,X;X;X;X;X;X;X,X>X:.S.F.:X,XoXg 7 ^ g M k.C.N._ o F _ ~ 0 2 @X%X%X%X,X%X%X$X%XE.L.>X;X%X<X3XE.S.%X<X,X:X<X,X<X<X3X$X<X%X,X;X;X;X;X,X:X",
"3X<X%X,X;X%X;X;X,X;X#X,.=.$X<X<X<X&Xf 7 } / H * + @   o b I ` u 6  X,X,X%X%X;X,XT.;X;X<X<XT.-X#X>.Y.<X<X,X,X<X<X<X3X<X<XI.,X:X,X;X:X:X:X<X3X",
"4X<X;X;X;X;X;X%X,XT.Z.H.;X:X<X:X<X=Xf 7 ~ J n 4 ; : - ; 0 h F 0 6  X,X,X;X;X%X<X$X3XJ.:X,XU.I.T.:X;X;X<X,X<X<X<X3X<X<X3XI.Z.$X:X,X,X<X<X<X4X",
"3X3X;X;X;X%X<X<XY.G.<X,X,X,X%X;X<X&Xt 4 H B h f u 7 7 9 y g n : 6 ).,X%X%X%X:X,XK.P.-.F.4X<XU.,X%X,X;X:X<X,X<X<X3X<X<X<X%X;X;.;X,X,X,X<X4X3X",
"4X3X;X:X<X3XE.U.$X<X<X<X,X;X%X;X>XOXt 7 ~ S V B h b n n D n u 9 - 7 *.<X<XY.U.U.,X<X<X5X,X%X<X,X,X;X;XE.;X,X<X3X<X<X:X<X3X;X:X;X,X,X<X<X4X4X",
"4X3X:X<X3X,X#X%X<X<X<X<X<X,X;X%XoXN.H V ` ! S B h g B I I ) V u 4 X R H.R.%X<X;X<X<X<X<X$XY.3X3X<X3X$X:X;X;X,X3X<X<X3X:X3XY.#X:X,X<X<X6X3X3X",
"3X3X3X3X%X%X:X,X;X:X<X<X:X%XE.%X&.0 i.i.2.} P B g b V P 2.3.X.C 7 X E $X;X,X,X%X;X,X<X,X=.3X3X3X4X3X<X;X,X,X,X3X,X:X;X;X3X%X;X;X,X,X<X3X3X3X",
"3X<X3X,X%X<X<X:X;X;X<X<X:X;X%X@X .: d.1.g N D g V I h 9 8.c.f.O.f 6 i 6._.,X,X<X,X:X3X<XY.5X3X4X3X3X3X3X;X,X%X;X;X,X,X,X;X;X;X;X:X,X<X<X3X<X",
"<X3X<X;X<X,X,X,X,X;X3X<X%X,X;X@X .4 v.o.& 0 V N P O.h : r.^.[.3.n 7 * + p.3X<X<X<X<X4XY.<X4X4X4X4X3X3X3X<X,X%X%X%X%X,X,X;X%X5X:X:X,X<X<X<X<X",
"3X<X;X:X,X;X%X;X:X3X$X#X%X;X%X@X&.3 l.r.( P J I O.b.i.e.c.^.1X^.i.n *   p.3X3X<X3X<X%XG.3X3X5X3X3X3X3X3X<X<X4X,X;X%X;X;X;X%X<X;X<X<X<X<X3X3X",
"3X,X,X,X:X$X,X:XT.T.;X%X%X%X;X@X .6 s.l.q.| ' 3.r.b.b.!.b.[.1X[.h.m > . y.3X5X4X3X2XL.G.<X3X<X3X3X3X3X<X:X%X<X<X:X:X,X>X;XY.<X,X,X,X:X<X3X3X",
"<X:X,X<X,X<X3XT.%X,X;X;X:X,X:X:X$.2 q.x.W.d.i.b.b.^.^.^.[.}.1X[.M.M >   g.4X4X3X4XY.-.A.>.,X<X3X3X5X3X3X;X5X<X,X%X%X;X,X$XU.,X#X;X<X<X,X<X<X",
"3X<X<X,X<XY.,X%X;X;X:X,X,X<X<X=X&.- } ` J D ! c.^.^.^.^.}.}.}.c.%.z 5 t  .k.g./.L.H.3X3X5X4XF.3X3X3X3XP.4X3X<X,X,X;X%X;XK.,X;X;X%X<X<X,X4X4X",
"<X3X:X%XH.,X;X;X;X,X,X;X<X<X<X:X*.- D y .   = v.}.^.^.^.}.}.{.4.S e e Y z o o A J.3X3X3X3X3X5XT.$X<X:XY.3X3X<X4X:X;X:X%XK.%X;X%X;X:X3X<X3X3X",
"3X<X3XL.;X;X;X;X%X:X;X:X<X<X<X<X&X).k 6 v d K b.[.!.!.v.!.v.4.! z 1 k $.Y e e t H Y Q ^ Q Q Q ^ |.L.S.:X<X4X4X4X3X,X;X%X%XR.,X%X%X<X<X8X3X3X",
"3X3XU.:X;X%X%X%X%X%X;X<X<X:X<X,X,X=X*.M n F | W.!.W.s.8.w.2.( M e e z ] Y l e 9 $ O O O O O O O p.&XZ.:X3X<X4X4X5X%X%X%X%X%XH.>X%X;X<X3X3X3X",
"3X4X:X<X%X%XT.%X%X%X;X<X<X<X:X:X<X,X<XN.$ ` i.u.s.w.K 7 e i w w 1 U Y e , 5 9 9 d u u u i y y y 5 p +.N.3X;X<X3X<X:X%X,X%X;X%X,X;X:X4X<X<X3X",
"3X%X:X3X:X:X%X%X%X%X%X<X,X;X;X;X<X,X>XV.% n ! ! Q / l < 5 r c Z Z z z , 5 5 3 5 0 y q y y 9 9 7 8 * p 0.3X3X3X:X<X<X;X;X,X%X,X$X,X,X3X3X3X3X",
"3XZ.<X:X<X<X;X%X%X%X%X,X;X%X%X%X5XE.%XV.w 5 > 5 < w > 1 1 j T @.$.z , * 5 - = 3 4 4 4 8 8 3 3 - 7 9 O ! 3X3X3X3X<X<X;X;X;X%X,X%XI.;X<X<X<X3X",
"3XK.:X;X,X<X<X;X%X$X$X%X%X%X%X:X,XT.U.V.> w U U U U U U U U +.U l 5 5 - - 4 3 - : : : 4 3 ; - ; = 9 = a .._.3X3X3X<X<X:X;X;X;X;X%XT.<X<X3X<X",
"<X,X$X,X<X:X,X,X%X$X$X$X%X%X%X%X%X%X%XC.# U @.@.@.@.#.#.T W T k 5 - - - - 3 3 ; : ; ; : 3 - - - 3 - - =   t.4X2X3X3X,X,X:X,X<X<X<X;X%X<X3X3X",
"3X3X%X;X,X,X<X,X,X<X%XE.%X%X%X%X%XZ.%XC.# T g.n.n.n.n.n.@.Z w 5 * 2 - ; - ; = ; : : : 4 4 3 ; - 3 8 : = - 8 y t &.3X<X<X,X<X<X<X<X3XT.4X<X<X",
"3X<X,X%X,X<X<X$X;X;X$X%X%X%X%X%X$X<X;XN.$ [ l.l.z.M.p.8.] m 5 3 - 3 - q u q q u g f h h 0 4 ; 3 a N K S u 5 o $ v N.&X<X<X3X<X3X3X3X3XU.3X<X",
"3X<X,X,X<X,X$X%X$X$X$X%X%X%X%XI.$X%XH.V.$ _ d.z.f.s.q.X.J D 8 - 8 4 8 b n D J P ` ) ~ C h 8 : 3 D O.w.w.K d 2 & - o y.<X<X<X<X3X<X3X3X<XE.4X",
"<X<X3X3X:X%X;X:X<X$X$X$X$X%X$XE.%X%X$X@XC.*.B e.f.c.q.2.N q 3 a d K | q.u.l.i.d.i.i.4.' K u 9 4 J ' N D 8.X.S i *   y.<X<X<X3X3X3X3X3X3X<X;X",
"3X%X3X<XU.%X<X:X<X%X$X$X$X%XD.:X$X%X;X;X<X6.* 9.f.q.q.q.C a a N ) ) 1.h.W.~.b.W.v.d.4.O.} d 9 4 J ) = 8 9.1.H 6 > p g.<X<X3X3X<X<X3X3X3X<X%X",
"3X<X3X%X%X3X<X-X<X:X$X%X%XR.I.:X$X%X%X,X,X5.< 0.1.8 } s.r.4.( O.4.a $ ; 3 3 3 2 ; * & F ` b u s ` 8.3 . - ; $ + G +X:X<X<X,X<X<X<X3X3X3X<X3X",
"3X3X3X<X<X<X-X6X3X3X%X%X$X$XY.%X%X%X%X,X,X5.> 9.... v 2.f.d.O.o.) ! L Q H G 2   : *   t V B b g D ( L K Q Y Y H 7.:X:X:X<X:X<X3X3X3X3X3X3X4X",
"3X3X3X3X:X:XH.3X3X,X$X$X$X$X%XT.$X%X%X%X,X7.& 9.| X X ; O.i.e.S - p.(._._.Q.Q & _ V X X @ b K P y 2 j.|.|.)._._.OX<X<X:X<X<X<X3X3X3X3X4X4X3X",
",X4X4X<X%X#X3X3X<X%X$X$X$X$X%XT.%X%X>X,X<X1.; 9.X..   @ 8.z.0.M $ g._..X_.(.Y & o.G X   o V / | 9 > k.|._.|.|.*X3X3X3X<X<X<X3X<X3X3X4X4X3X3X",
";X4X3X4XE.<X3X,X;X%X%X$X$X$X$X$X%X$X;X,X:X6.- e.o.  % 3 o.a.3.n % g.|..X_./.Q 6 o.J X $ 2 n { 8.n > k.|.). XOX3X3X3X<X3X<X<X3X3X3X3X3X3X3X<X",
"4X3X3X,X$X3X<X,X;X;X%X$X$X$X$X%X%X%X:X:X:X7.= a.2.. ..z.S g u.S * N.+X+Xg.v / 3.u.~ @  .a.u V x.K * k. X).&X<X<X<X<X<X<X<X3X3X3X<X<X6X5X4X%X",
";X%X%XT.<X<X;X;X;X%X%X$X$X$X$X>XI.%X,X&X X6.M W.2.% 0.(.f 0 i.F * N.*X+Xl.G ) 1.1.` S l.N.y h !.R * M. XC.;X%X;X:X,X,X<X<X:X<X3X3X<X:X;X;X:X",
"4X,X3X%X<X;X;X:X;X;X%X%X$X$X%X%X$X$X,XN.r 2.'.XX9.X 7.).f t a.F * k..X].`./.Y O X ~ (.].Q.u g Q.^ * k. X X=X:X;X:X;X<X<X<X3X3X3X6X3X<X:X,X3X",
"5X:X,X<X<X,X;X<X,X;X%X%X%X%X%X%X,XT.>X).5.$./ _ { *.*.1._ 1.~.^ * M..X.X.X|.p.1.6.a.].a.1./ 3.'.~ * m.oX=X5X%X;X:X:X:X3X4X4X6X6X6X6X3X<X:X4X",
"4X3X:X<X<X,X;X<X:X%X%X;X;X;X;X:X<XU.,X@X).E + X ^ `.$.< i.[.!.{ 7 k..X.X_._..X.X].].].$.; i.{.~.R 6 m.oX5X,X%X;X:X<X3X3X4X4X8X4X6X4X<X:X4X4X",
"3X3X:X:X<X,X,X<X,X%X;X%X;X;X,X:X,X$X,X>X=X).j.j.N._.C.y.R f f ..M.(.|.|..X.X]._.XX].].Q.g.H u p *.m.).oX;X:X:X:X,X<X3X3X4X4X4X;XD.<X:X<X3X3X",
"4X3X:X#X<X,X,X<X,X;X%X;X:X;X<X,X<X<XH.,X,X&XoX=X.X X|.B.E f x t.|..X_.|..X]._.XX_.].XXXX_.E f n y. X`.OX5X;X:X:X:X<X:X3X3X4X8X4X<X<X<X:X4X3X",
"4X3X<XR.<X%X,X<X:X%X;X;X,X:X,X<X<X<XR.$X:X<X<X<X,X`._.B././.C._.|.|.|.|.|.|.]..X].].].XX].V.C.C.).`.2X3X3X<X:X<X:X,X<X<X3X4X4X8X4X:X:X:X3X3X",
"3X3X3XE.<X;X:X,X,X,X;X;X<X<X,X:X<X<X<X$X,X3X<X3X-X=X=XY. X X|._._.|.|.|._..X_.].].'.].XX+X=X-X+X+X8X4X4X<X,X,X<X:X<X,X,X<X4X4X3X4X3X3X3X3X4X",
"4X4X3XT.3X:X<X<X;X%X,X,X:X,X<X,X<X<X3X$X<X3X<X<X3X<XU.U.+X|. X_.|.|.|.|.|.|..X.X].+X].+X+X<X3X3X<X<X4X4X3X<X<X:X,X<X:X;X:X3X8X3X4X4X3X3X3X3X",
"3X3X3XT.<X;X<X,X%X%X;X:X:X,X:X<X,X,X,XE.Y.3X3X3X<XU.A.<X<X<X<X:X2X-X-X2X-X2X2X7X4X6X8X>X4X5X<X<X3X3X<X3X3X<X:X:X:X,X,X:X,X:X,X3X4X4X3X4X3X4X",
"4X4X3XR.<X,X%X%X%X%X%X;X;X,X,X<X<X<X>X3XZ.T.<X;XU.H.<X<X:X<X,X<X<X3X3X3X3X3X3X8X6X6XE.4X3X3X3X<X<X3X<X<X<X3X3X<X<X<X:X;X:X,X;X%X3X4X3X3X4X3X",
"4X#X3XE.<X;X%X%X%X;X%X;X,X<X<X<X<X<X,X3X3XZ.,.U.R.<X3X<X<X<X<X<X3X<X<X<X3X3X3X7X6X3X%X#X<X<X<X3X<X<X:X<X<X<X<X3X<X,X;X:X;X%X%X%X<X3XY.3X3X3X",
";X$X3X%X3X;X;X%X%X;X;X<X<X,X<X<X<X<X<X:X4XK.E.U.3X3X3X3X3X<X<X<X<X<X3X3X3X3X3X8X4X%X3X;X3X<X<X<X:X<X<X<X<X:X<X<X3X<X<X%X;X:X%X#XE.<X$X3X3X3X",
"G.3X3X,X<X:X%X;X;X%X<X,X:X<X<X3X3X<X<X:XP.<.;X3X3X3X4X3X3X3X3X3X<X3X3X:X3X:X3X4X3X#X<X3X3X<X<X<X:X3X3X<X:X<X<X:X3X3X<XY.%X%XT.3X3XI.>X<X<X$X",
"3X4X4XA.<X;X;X;X;X;X;X%X:X<X3X3X<X<X<X$XK.3X3X3X3X3X4X3X3X3X3X<X3X<X3X3X3X<X3X4X<X3X#X<X<X<X4X<X<X3X3X:X<X:X<X<X<X3X3X<X%X%X4X3X3X3XT.<X$XU.",
"4X3X4XS.<X:X;X%X;X:X;X:X;X:X<X3X3X<X>XU.3X3X<X3X<X3X3X3X3X3X3X3X<X3X<X3X3X3X3X4X%XE.,X4X<X;X<X<X:X3X3X<X:X<X<X:X<X<X3X<X3XY.3X3X3X3X,.J.U.4X",
"3X4X3XG.<X;X;X%X;X:X;X;X%X:X4X3X<XE.I.<X<X<X3X<X<X<X3X3X3X3X<X3X3X<X3X3X3X3X3X<X%X3X%X3X4X4X4X<X<X3X3X<X,X:X:X,X<X3X3X4X$XY.>.<XT.Y.;XT.8X3X",
"3X4X3X<.<X;X;X,X;X;X:X:X<X%X<X%X,XT.6X5X3X3X<X3X<X3X<X3X<X3X3X3X<X<X<X<X3X<X3X3X,X,X5X<X3X4X:X:X3X3X3X<X<X<X<X:X3X4XE.Y.G.<.=X#X3X4X<X%X8X3X",
"3X4X3XY.%X:X;X%X;X;X2X-.<X%X;X;X$X4X4X3X5X3X<X<X<X<X<X3X3X3X<X3X<X<X<X<X<X3X3X8XT.R.:X<.%X;X4X5X8X3X3X<X<X<X<X6XT.T.T.<X3X3X<X<X3X3X<XY.3X3X",
"4X3X4X;XG.K.$XT.#XA.3X3X<X<X;XT.4X4X4X4X3X3X3X3X<X<X<X<X<X=X X_.OX<X<X,X,X<X3X#X$X3X8X<X%X$X;X3X3X3X3X<X:X3X3XY.E.3X3X3X3X3X3X3X3X<X<X,X8X3X"
};
