/* XPM */
static char *_0739_4311a7dfe7478df7085ce3614f554ef90c821839f7b223f11f2f006175e80157[] = {
/* columns rows colors chars-per-pixel */
"70 70 214 2 ",
"   c #040301",
".  c #0A0603",
"X  c #0B0A05",
"o  c #050609",
"O  c #0D0D0A",
"+  c #110E0B",
"@  c #12120D",
"#  c #0D0E12",
"$  c #151513",
"%  c #191716",
"&  c #1C1A15",
"*  c #1C1C1B",
"=  c #211E1A",
"-  c #1E201A",
";  c #242017",
":  c #25211D",
">  c #29241E",
",  c #1B1B22",
"<  c #231E22",
"1  c #1B2128",
"2  c #1B2233",
"3  c #242323",
"4  c #2A2622",
"5  c #2C2925",
"6  c #25252B",
"7  c #29272C",
"8  c #25292B",
"9  c #2B2B2A",
"0  c #302B27",
"q  c #312D2A",
"w  c #2E322F",
"e  c #35322D",
"r  c #39362E",
"t  c #2C2D32",
"y  c #252838",
"u  c #343432",
"i  c #3A3632",
"p  c #3C3934",
"a  c #35383A",
"s  c #3C3C3B",
"d  c #413B35",
"f  c #423E3A",
"g  c #3F413F",
"h  c #45423D",
"j  c #49463F",
"k  c #283040",
"l  c #3C3D43",
"z  c #393B49",
"x  c #3C4144",
"c  c #444341",
"v  c #4A4543",
"b  c #4D4A45",
"n  c #45474E",
"m  c #4C4B4A",
"M  c #524E49",
"N  c #55514C",
"B  c #5B564F",
"V  c #494C57",
"C  c #4D5052",
"Z  c #555452",
"A  c #595651",
"S  c #5D5955",
"D  c #595458",
"F  c #55595A",
"G  c #5C5C5B",
"H  c #605551",
"J  c #615C55",
"K  c #625D5A",
"L  c #67645E",
"P  c #444B66",
"I  c #495168",
"U  c #565C64",
"Y  c #575C77",
"T  c #5D6262",
"R  c #596469",
"E  c #5F6874",
"W  c #646563",
"Q  c #696663",
"!  c #6D6966",
"~  c #62646A",
"^  c #666B69",
"/  c #6E6D6A",
"(  c #726D68",
")  c #74716D",
"_  c #79746F",
"`  c #676D72",
"'  c #687275",
"]  c #7A7573",
"[  c #7C7B75",
"{  c #737879",
"}  c #7B7C7C",
"|  c #807C76",
" . c #827D7B",
".. c #85837E",
"X. c #686D89",
"o. c #757982",
"O. c #6F7391",
"+. c #7C8385",
"@. c #7B8A92",
"#. c #56AEF6",
"$. c #6BB9F1",
"%. c #5EC3FB",
"&. c #6CC8FC",
"*. c #7AC8F8",
"=. c #79D4FD",
"-. c #8D8A84",
";. c #868888",
":. c #928D86",
">. c #928D8A",
",. c #95928D",
"<. c #9C958F",
"1. c #838E92",
"2. c #889298",
"3. c #959591",
"4. c #9A9795",
"5. c #9A9998",
"6. c #A39C98",
"7. c #A7A29A",
"8. c #A5A29C",
"9. c #909BA0",
"0. c #A39DA1",
"q. c #9BA6AC",
"w. c #90A9B5",
"e. c #ACA6A2",
"r. c #AEAAA5",
"t. c #A6A9AA",
"y. c #B3AEA8",
"u. c #AFB1A6",
"i. c #B6B1AB",
"p. c #B9B5AC",
"a. c #A6A9B6",
"s. c #A9B0B3",
"d. c #A8B3BA",
"f. c #AEB9BF",
"g. c #B5B3B2",
"h. c #B7B7B7",
"j. c #BCB9B4",
"k. c #C3BCB4",
"l. c #C3BCB8",
"z. c #C6C1BA",
"x. c #CAC3BC",
"c. c #94B5C8",
"v. c #AAADC3",
"b. c #ADBBC3",
"n. c #B4BDC3",
"m. c #BAC4CB",
"M. c #AACCDE",
"N. c #BBCCD5",
"B. c #B8CCD7",
"V. c #BDD2DD",
"C. c #9ACCE7",
"Z. c #83CCFA",
"A. c #85D5FD",
"S. c #8CD5FD",
"D. c #8ED8FD",
"F. c #95D4FD",
"G. c #93DBFE",
"H. c #9DDCFD",
"J. c #BED4E1",
"K. c #BAD7E7",
"L. c #A3DDFD",
"P. c #A8DCF8",
"I. c #9AE0FF",
"U. c #A5E2FE",
"Y. c #ACE3FE",
"T. c #B4E5FE",
"R. c #BBE6FE",
"E. c #B5E8FF",
"W. c #BDE8FF",
"Q. c #C9C9C8",
"!. c #D4CDC7",
"~. c #D7D0C8",
"^. c #DAD3CA",
"/. c #C4CDD5",
"(. c #C6D0D6",
"). c #CAD2D6",
"_. c #C3D3DC",
"`. c #CBD6DC",
"'. c #CED8DE",
"]. c #DAD9D6",
"[. c #D2DADF",
"{. c #E1DBD3",
"}. c #E6E2D9",
"|. c #ECE4DD",
" X c #CCD9E1",
".X c #C8D9E5",
"XX c #D2DCE2",
"oX c #D8DFE2",
"OX c #CBE1ED",
"+X c #D4E2EB",
"@X c #DBE6EC",
"#X c #C5E3F4",
"$X c #CAE4F3",
"%X c #C3E6FC",
"&X c #C4EAFE",
"*X c #CCECFF",
"=X c #D2E6F1",
"-X c #D6E9F5",
";X c #DCEBF4",
":X c #D3EEFF",
">X c #D9EFFE",
",X c #CCF1FF",
"<X c #D6F0FF",
"1X c #DBF1FF",
"2X c #EDE7E2",
"3X c #F2EDE6",
"4X c #E2EEF3",
"5X c #E0EFFE",
"6X c #E7F2F7",
"7X c #E3F3FF",
"8X c #EAF6FF",
"9X c #EEF8FF",
"0X c #F0F6FC",
"qX c #F3FAFF",
/* pixels */
"7X7X8XqX0XqX9X8X8X8X8X7X7X7X7X7X7X1X7X7X1X1X>X>XT.*X<X1X7X7X7X<X<X<X<X:X<X<X1X:X<X1X*X&X*X:X:X:X<X<X1X1X1X>X>X1X1X1X1X1X1X1X7X7XE.*XW.<X1X9X",
"8X7X7X7X8X8X8X8X7X*X8X8X8X8X7X7X7X8X7X7X1X1X>X:X<X:X1X7X7X1X7X<X:XG.D.H.*X:X1X*XH.T.W.R.&XR.R.*X<X<X&XG.*X:X:X<X1X1X1X7X7X7X<X,X7X7X7X9X8X6X",
"7X*.T.7X7X7X1X7X8X7X>X1X7X7X8X8X8X8X8X7X1X1X1X<X:X1X7X7X1X1X1X>XR.*X:X:XY.<X<X<X8X7X1X*X*X7X1X*X*X&X&X&X&XU.8X9X<X1X&X1X1X1X1X<X7X7X7X7X1X7X",
"*X>X>XY.7X7X8X7X7X8X7X7X7X*X:X7X8X7X1X1X7X1X<X:X>X<XT.%X<X>X1X:X<X:X*XU.&X7X1X*X*X*X*X&X*X*X:X:X*X*X1X:X&X&X&X:X<X<X<X1X1X,X9X7X7X1X7X1X8X<X",
"<X7X1X<XS.H.F.S.S.F.1X&X1X1X*X*X1X1X1X1X1X<X<X:X*X<X>X>X*X*X*X:X*X*X&XA.&X1X<X1X<X1X1X1X:X*XW.&X*X<X<X>X<X:X*XG.<X<X<X1X1X1X1X7X7X1X7X7X>XY.",
"<X*X,XE.T.R.R.W.%XR.D.%X&X*X*X*X*X<X<X1X>X<X*X>X1X<X1X<X:X*X&X&X&XW.R.T.1X<X1X:X:X:X:X*X&X*X*X&X&X*X*X>X<X1X<XI.Y.*X<X<X1X<X1X1X7X7X7X1XA.>X",
"*X*X&X-X&XW.W.R.R.Y.*X&X&X&X*X:X<X*X*X*X*X&X*X>X1X1X<X>X:X:XW.W.R.R.&X*X*X:X>X1X1X:X*X*X*X*X*X:XY.&X*X*X*X<X*XU.*X<X<X<X<X1X1X7X7X7X1X*X*X&X",
"*XY.,X&X&XR.T.W.P.W.W.&X&X&X&X>X*X*X&X*X*X&X>X1X1X1X1X1X<X<X:XU.*X&XT.&X*X*X>X>X<X:X*X*X*X:X*X:X>XH.G.>X<X<X<XY.*X<X<X<X1X1X1X1X7X7X7X:X:X*X",
"&X<X*X*X*XW.T.H.R.R.R.R.*X*X7X>X<X1X*X*X*X:X>X1X1X1X1X1X1X1X1X*X*X&X*.,X&X:X:X<X>X*X*X&X*X*X:X:X<X*XH.E.<X&XD.<X*X*X*X<X<X>X<X<X7X7XW.<X*X*X",
"*X:X*X*X&XW.R.T.U.T.T.W.&X7XT.:X1X1X1X*X*X:X:X>X1X1X1X1X1X1X1X<XW.&X*X&X*X:X:X:X*X&X&X&X*X>X>X:X<X<X1XD.L.T.1X1X<X:X*X<X:X:X<X<X<X*X*X:X*X&X",
"W.*X*X*X%XR.T.T.Y.T.R.W.:X:X*X<X>X1X<X>X:X:X<X1X1X7X1X7X7X1X7X1X<XT.T.*X*X*X:X>X:X*X*X*X:X*X>X>X1X<X<X$.*X1X1X7X1X<X<X*X:X:X>X:X:X*X>X>X*X*X",
"*X&X*X*X&XW.T.T.E.T.W.*X*X*X:X<X>X1X7XG.:X:X>X1X1X1X1X1X7X7X1X7X1XG.&X%XW.&X*X*X*X*X*X<X:X:X:X7X7X*X#.1X>X<X<X1X1X1X1X:X:X<X:X<X:X*X:X1X*X:X",
"<XW.*X*X&X&XT.R.T.G.%X*X*X:X:X:X<X<XU.&X*X:X1X1X7X>X<X1X7X7X7X7X<XH.W.&XW.%XW.&X&X&X*X:X>X>X*X&X:XL.1X1X1X>X:X<X<X1X:X<X<X*X>X<X1X*XU.R.*X*X",
"<XW.W.*X*X&XW.W.W.U.E.*X:X*X:X>X>X<XU.&X*X>X<X1X1X1X1X7X7X7X7X1XS.W.*X&X&X&XW.&X&X:X1X8X7X7X7X*X1X1X7X1X1X>X<X*X:X<X<X:X:X*X&X:XH.:X<X<XR.*X",
"1X&XW.*X*X&X&X*X*X*XR.R.<X*X*X>X<XY.R.*X>X<X1X1X1X1X7X7X8X7X1XA.T.*X*X&X*X&X&X*X:X:X1X7XT.7X:X*X>X>X1X7X7X1X<X*X:X:X<X>X<X<X7XI.*X1X1X<X*X<X",
"<X:X:X&X&X&X*X*X*X*XD.Y.*X*X<X*X<XG.*X*X>X>X1X1X1X1X7X7X7X7XH.:X:X*X<X:X#X@.' ' ` q.1X7X0X>X*X<X+X} ` 2.>X<X:X*XP.U.*X:X*X7XD.1X:X>X<X>X1X<X",
"<X1X<X&X&X&X*X*X*X:X*XH.1X<X:X:XT.W.<X:X:X>X<X<X<X1X7X7X8X>X*X:X*X<X<X<XOX8 X $ $ R +X4X7X1X:X>Xn.=   c ;X<XR.:X:X*X1XD.1XL.&X>X:X:X<X<X1X>X",
">X<X<X*X:X*X*X*X*X*X*XH.U.<X*X=.P.*X*X*X*X:X:X>X>X1X7X7X7X1X:X*X:X*X>X>XOX5 8 C / / 9 w.1X1X>X~ i Z 9 u C.>X*X>X:X>X<X:XY.R.W.>X:X>X>X<X<X:X",
">X<X<X<X:X:X:X:X<X:X<X,X%.A.F.>X1X:X*X*X*X:X:X<X>X<X1X:X&X:X:X:X<X:X*X*X.X8 u W / G X E N.N.d.m v L 5 x -X<X>X<X<X1X1X1X&X1X*X<X:X:X>X:X>X<X",
"7X1X*X:X:X*X:X:X<X:X%X*.#.&X>X1X1X1X1X:X:X*X:X>X<X<X1X*X:X:X*X:X*X:X<X,X.X8 g [ L v O . O O = N !  .e c -X1X1X7X7X1X7X1XU.>X>X<X:X:X>X<X<X7X",
"8X1X:X:X:X:X:X*X<XE.Z.H.:X>X1X<X1X<X<X>X>X:X:X:X>X:X*X1X1X1X&X:X:X:X*X:XOX3 w A c r - & = > 0 M H Q 5 p -X>X1X1X7X1X1X7XU.Z.&X>X<X<X1X>X7X7X",
"8X7X:X:X:X*X1X1XT.H.1X<X<X<X*X>X1X>X:X:X:X:X*X>X>X:X>X1X1X8X>X*X<X>X:X:XV.9 4 b p e r e r r i j N K 0 l ;X>X1X1X1X1X1X1X*X:X$.:X<X<X1X1X8X7X",
"7X8X>X:X1X7XW.Y.&X1X1X1X<X>X:X*X:X<X:X:X:X*X*X:X:X>XT.*XT.T.>X7X1X<X*X+.e - e r N B j j j f M M N ! 4 u =X>X>X7X7X1X1X1X6X:X<X:X:X<X1X1X9X7X",
"8X7X<X1X7X<X%X*X1X1X1X1X<X:X:X*X*X:X:X:X:X:X:X1XR.W.<X>X<X:XT.I.&X*XW.R X ; g N ! ! L N f m M H ! ( A K m.$X>X1X1X1X1X1X7XT.%X>X<X<X1X9X8X7X",
"7X7X7X7X*X*X>X<X*X<X1X1X>X*X%X*X:X*X:X<X:X:X<XU.7X1X1X<XT.1X1X1X&XG.W.T X w J | :.:.L H f b v L _ >.r.e.8 1.:X7X<X>X:X<X1X*X:X*X<X1X1X7X7X7X",
"1X7X1X>X*X1X1X>X>X:X1X7X:X:X*X*X&XY.*X:X:X&XL.1X:X<X1X1X<X1X>X>X<X_.2.g 5 r [ p.k.6.q d ( M v K N s >.i.5 { :X:X*X<X<X<X:X>X>X:X:X1X1X1X1X1X",
"1X7X1X:X1X<X<X<X>X*X7X1X&X1X:X*X*X*XR.<X*X*.1X:X*X>X<X>X>X<X1X<X1Xs.  & 5 M 7.}.^.7.> j :.K m m q $ ;.j.9 { <X*X<X*X<X:X<X*X1X1X<X<X1X1X7X1X",
"7X1X:X>X<X:X*X:X:X7X*XW.*X:X:X:X*X:XH.D.U.A.<X:X:X:X>X1X1X1X<X1X1Xq.  - j 7.!.}.^.k.7.e.k.-.! D ! ! r.y.8 } 6X>X*X:X:X:X*X*X7X<X1X1X1X1X7X7X",
"7X<X<X1X>X*X>X>XW.R.:X*X*X*X*X:X:X1X>XT.7X:X*X:X>X:X:X<X>X>X1X1X7Xq.# , j j.{.3X{.x.~.x.l.i.,._ | 6.p.e.5 +.1X1X<X<X<X*X:XY.1X<X<X<X>X1X7X7X",
"1X<X:X1X:X<X7XT.:X:X:X:X>X<X1X1X1X<X*X:X>X*X:X:X:X:X>X1X>X<X1X7X7Xa.o % C g.}.3X|.{.{.^.!.x.x.r.i.Q.l.6.3 } 1X:X:X*X*X<X%XT.<X&X>X1X<X<X1X1X",
"7X7X1X<X1XT.<X:X:X:X>X:X<X1X1X1X1X>X*.:X&X>X:X:X>X>X:X1X7X7X/.a.v.{ y 7 x } j.|.|.|.~.^.{.^.k.L N H ! ] * +.1X<X<X:X:X:XL.<X<X:X*X1X1X<X8X8X",
"7X1X:X*XH.:X:X:X:X:X:X>X1X1X1X1X1X<XA.R.:X*X:X>X<X>X1X7X7X6XZ o # z ~ a 7 F 5.}.|.2X^.^.^.{.k.4   + i D : ;.1X8X>X>X<X*XL.*X*X*X:X>X7X1X7X7X",
"8X7X8XY.:X:X:X:X:X:X>X:X1X1X1X1X1X1XZ.1X&Xb.F T R ~ ^ ~ W D u t y ~ o.a 7 a / 4.j.!.z.Q.!.}.l.H j v 5 l _.6X8X8X7X:X:X*X*XE.<X*X:X>X<XqX7X7X",
"5X5XU.>X:X*X*X*X*X:X*X1X1X>X1X1X>X>XOXK.K.9.% + O @ + O $ * 9 p a ~ ` n u t V ! 3.5.,.r.!.!.k. .K m V ;.6X1X8X8X8X*X*X*X*X*XI.*X*X:X1X7X7X7X",
"7X8X>X>X*X*XR.*X*X*X>X1X1X<X>X>X1X*Xd.' t 8 u u p s p i i q 0 5 6 7 t V V 7 6 a a u 9 W 6.r.y.7.^ , c.1X7X:X1X7X1X:X:X<X*X*X:X:X:X>X8X7X7X7X",
"7X*X7X>X>X>X*X*X*X*X&X1X1X:X:X:X1X-X1.l - : 9 u u e u i f i 0 > < 6 7 z n V n l 2 1 % z W W ^ / m - B.7X7X7X7X1X1X1X:X*X:X:X<X&X:X<X7X1X1X7X",
"7XZ.1X1X1X1X:X*X*X*X*X:X:X*X*X*X7XR.F @ w e = : 4 0 q 5 0 > = = 3 < * 1 z o.o.Y k 2 2 k k 2 2 , 3 * _.8X7X7X7X1X1X1X>X:X:X:X,X:XU.:X1X7X7X7X",
"7XH.:X>X<X1X1X:X*X&X&X*X*X*X:X:Xm.E 9 & > > : = = 4 5 4 > 0 > > < * 3 6 7 z V E I P P I P P I V l % B.8X7X7X7X7X7X1X<X:X:X:X:X:X*XR.1X1X1X1X",
"7X<X*X:X<X1X<X<X*X&X&X&X*X#X#X#X2.  : 5 : : 5 & > > : = ; > > = 4 > = < , 6 z Y Y Y X.X.X.O.X.X.n # B.8X8X8X8X8X7X7X1X>X>X<X>X1X1X,X*X1X7X7X",
"7X1X*X:X<X1X1X1X<X1X&XW.#X' 8 w 9 = & : 5 4 = 4 : 0 0 4 > > = = = : = 6 , , y y P X.v.v.v.v.a.a.~ % B.1X7X8X8X8X8X7X>X1X<X1X1X1X7X1XR.9X1X1X",
"7X1X,X>X>X1X<X*X:X*X*XK.b.x % o 4 f N Z N f : > 4 d d b f d d d r 0 e ; > 5 8 8 V ~ 5.s.i.j.i.j.) O (.1X7X7X8X7X7X7X1X1X1X1X7X7X7X1X7XY.7X7X",
"7X1X1X<X<X<X%X*X&X&X&X2.# 3 - 8 h S 6.y. .N 0 : 0 f B ! _ ( K N B B j r > > : 4 b K | >.p.y.p.y.] $ (.1X7X7X7X7X8X7X7X1X1X7X1X7X7X7X7X1X&X7X",
"1X1X1X1X>X*X*X>X1X&XW.@.  $ a m  .4.A v [ A 5 5 d K | ,.e.y.y.k.u.7.7.( J j h 5 r B -.6.k.k.7.H +.M.<X7X7X7X7X9X8X8X7X1X1X1X7X7X7X1X7X7X1X<X",
"7X*X7X7XY.*X1X1X1X,X&Xd.t 3 u G >.5.5 % [ B 5 e f ) :.>.p.k.l.l.~.z.k..._ L j g d B <.e.6.y.6.% 2.*X1X7X7X1X7X7X7X7X7X1X1X7X7X1X7X7X7X1X1X&X",
"7X1X7X*X:X7X1X-X1X:X*X*XK.V   $ % & + 9 >._ i f b ) J = & > 5 > > > : & p 4.-.! ,.6.g.[ 0 ..6.* 2.1X1XE.1X7X7X7X7X1X1X>X1X1X1X1X7X7X1X7X1X7X",
"7X7X7X7X1X1X;X9X7X7X*X*X#X@.U R T G U G ! K v c b N i . = : X : G T T F K ) ....7.i.-.j o  .0.< 2.:X*X7X7X7X7X7X7X1X>X>X<X1X1X7X7X7X7X8X7X9X",
"7X7X7X7X>X1XF.8X7X<X&X&X&XK.B.B.V.V.V.d.5 5 Q S b @   X B ( - S (.(.'.).t.- M 7.k.-.& X + [ 4.: 2.R.1X1X7X7X7X7X7X7X1X1X1X1X1X7X7X7X7X7X7X7X",
"1X7X7X7X&X&X7X7X1X,X&X&X&X#X#XK.J.V..Xb.% s ] ! N O . . A ..$ T (.'.'.'.s.& C 5.y.,.@   X | 8.$ @.&.<X1X1X7X1X7X7X7X7X1X>X1X7X1X7X7X8X8X8X7X",
":X9X7X9XW.1X7X1X:X*X&X&X*X&X*XK.V.V._.n.- j 3.) N - O O K ..5 T m.`.`.[.s.% m 4.8.-.4 % O [ 8.- 1.&.<X>X1X1X1X7X7X7X7X1X1X1X7X7X7X1X7X7X7X1X",
"7X7X7X<X&X7X1X:X>X*X*X&X&X&X&X:X$XV..Xb.& K z.Z a s.+.  ( 8.3.) s s.@X@Xm.* N 5.m m h.} . 3.u.- @.=.*X:X:X:X1X1X1X1X1X1X1X7X7X7X7X1XqX7X8X<X",
"*X*X*XR.1X1X<X*X:X*X*X&X&X&X&X,XY.(.`.f.- W !.g e m.s.G W ;...) F f.@X@Xm.3 G r.i c `.5.O ,.j.N 2.C.:X<X<X<X*X>X<X<X1X1X>X1X1X7X7X1X1X:X*X:X",
"8X>X7X*X1X:X:X>X:X:X*X*X&X&X*X*X&XJ.V.f.3 W Q.h r m.`.(.~ O $ T /.`.XXXXf.$ D i.9 h ).5.X 4.2X].:.e N.>X*X<X>X*X<X:X>X1X7X1X7X8X8X7X1X:X<X6X",
"6X1X<X1X1X<X:X1X<X*X*X*X*X*X:X*X<X#XOXf.& L ].,./ } s.'.w.+.1.q.`.XXXXXXf.: ) Q.>.[ ;.;.;.[ ) ) { +.'.<X*X9X:X:X>X1X>X7X8X8XqX9X9XqX7X1X1X8X",
"7X7X>X1X1X<X>X1X>X:X*X*X<X*X:X:X1XY.=Xf.w ^ !.].j.- { V.C.'._..X'.`.`.XXh.9 / ].].t.4 o.).^ @ o ^ _.=X<X9X,X*X:X>X1X7X7X7X8XqX8X9X8X1X>X8X7X",
"7X7X1X>X1X<X<X1X:X:X:X:X:X:X<X>X1X&X-X.Xb.;.g p F s.m.V.M.'.V.'.'.`.'.XX).f.+.g g T s.Q.XXm.w.s.N.-X<X1X:X1X:X>X<X1X7X7X8X8X8X:XD.1X1X1X7X7X",
"8X7X>X&X1X<X>X<X<X*X*X:X:X>X1X<X<X1XU.6X;Xb.m h ^ (.'.M._.).'..XXX`.XX`.[.oX9.x g / `.XXXXK.OX+X=X1X1X1X7X:X1X<X>X>X>X7X7X8X9X8X1X1X>X>X8X7X",
"8X7X1XE.1X:X>X1X<X:X:X>X<X<X1X>X1X1XE.&X1X;X+X`.(.'._.M. X X X X X`.`.'.[.'.`.).).).].[.oX#X1X<X1X8X8X7X7X<X1X1X1X>X<X1X7X8X8XqX8X1X>X>X7X7X",
"7X7X7XW.1X:X:X<X>X:X:X:X<X1X1X<X1X1X1X&X<X7X7X7X7X4X;XK.XX X X'. X`.'.[.XXXX[.+XoX@X4X6X6X1X7X1X1X0X8X8X1X<X>X>X<X<X>X<X1X8X8X7X8X8X7X7X7X7X",
"8X8X7XW.7X:X<X1X*X*X<X>X>X1X>X1X1X1X7X&X1X1X1X1X1X7XW.&X7X4X;X;X4X4X4X4X4X4X4X6X6X4X9X7X0X7X1X1X1X1X8X8X7X>X>X1X1X>X>X:X>X7XqX7X8X8X5X7X7X8X",
"8X7X7XW.1X:X1X<X:X*X:X:X:X<X<X>X<X<X<XR.E.9X7X7X1XY.A.1X1X1X1X1X5X5X7X7X6X7X7X0X9X9X0X,X6X7X7X1X7X7X1X7X7X7X>X>X>X1X<X>X<X>X1X7X8X8X7X7X8X7X",
"8X8X5XR.1X<X:X*X:X*X*X:X:X<X1X>X1X1X,X7XZ.W.1X*XY.H.1X1X1X<X1X1X1X7X7X7X7X7X7X9X9X9XR.9X7X7X7X1X7X7X>X1X7X7X7X1X1X<X>X>X:X<X*X:X7X8X7X7X7X8X",
"8XW.7XR.1X:X*X*X*X*X*X:X<X1X1X1X7X1X<X7X7XZ.*.Y.T.1X7X1X1X1X1X1X1X1X1X7X7X7X7XqX9X7X*X%X1X1X1X7X1X1X1X1X>X1X1X7X7X<X:X>X>X*X*X*X1X7XR.7X7X7X",
":X&X7X*X7X:X*X:X*X*X:X1X1X<X1X1X1X1X1X>X8XL.W.Y.7X7X7X7X1X7X1X1X1X7X1X7X7X1X7X9X9X*X7X:X7X1X1X1X>X7X1X1X1X<X1X1X7X1X<X*X:X:X*X%XW.1X&X7X7X7X",
"G.7X7X<X1X:X:X*X:X:X1X<X>X1X1X7X1X7X1X>XI.=.<X7X7X8X7X7X7X7X7X7X1X7X7X1X7X7X7X8X7X%X1X7X7X1X1X>X>X1X7X1X>X1X>X>X7X7X1XT.*X*XR.7X7XU.,X1X1X&X",
"7X8X7XS.1X:X:X:X:X:X:X*X<X1X1X7X7X1X1X&XL.7X7X7X7X7X9X7X7X7X1X7X1X7X7X7X7X1X1X9X1X7X%X1X1X1X8X1X1X7X1X1X>X>X1X>X1X7X7X>X*X*X8X7X7X7XR.1X&XY.",
"8X7X7XS.1X<X<X*X:X:X>X:X>X1X1X7X7X1X,XY.1X7X7X7X1X7X7X7X7X7X7X1X1X7X1X7X7X7X7X9X*XR.<X9X1X>X1X1X>X7X7X1X1X1X>X1X7X1X1X7X7XT.7X7X7X7X*.P.Y.8X",
"7X8X7XH.1X:X:X*X:X:X>X<X*X<X8X8X1XW.U.1X1X1X1X7X1X7X7X7X7X7X7X7X7X1X1X7X1X7X7X1X*X1X,X7X8X8X8X1X1X1X7X1X>X1X1X>X7X1X7X8X&XT.&.1XR.T.:XR.qX7X",
"7X8X7X=.1X:X:X<X:X>X<X>X>X*X1X*X<XR.9X7X7X7X7X1X1X1X1X7X7X7X7X1X1X7X1X1X7X7X7X7X1X<X6X1X7X8X>X1X7X7X7X7X1X1X<X>X1X9XW.R.G.=.-X%X7X8X>X*XqX7X",
"8X7X8XT.*X>X:X*X:X:X4X#.>X:X*X:X&X9X8X7X7X7X1X1X1X1X1X1X1X1X7X7X1X7X1X1X1X1X7XqXE.T.<X=.:X*X8X7XqX7X7X1X1X1X1X9XW.R.T.1X7X7X1X1X7X7X1XT.7X7X",
"8X7X8X*XG.L.&XR.%XA.7X7X1X1X:XW.6X7X8XqX7X7X7X7X1X1X1X1X1X7X7X1X7X1X<X<X1X1X6X&X&X7X9X7X,X&X:X7X7X7X7X1X>X7X7XT.W.7X7X7X7X7X7X7X7X1X1X<XqX7X"
};
