/* XPM */
static char *_b02da2d1dd947e0eba8bd238ea908efeQHlCbmNW9UAMQgV[] = {
/* columns rows colors chars-per-pixel */
"66 66 216 2 ",
"   c #000100",
".  c #000906",
"X  c #020B0B",
"o  c #030E13",
"O  c #051417",
"+  c #0A1616",
"@  c #06161B",
"#  c #0A171B",
"$  c #07181D",
"%  c #0B1A1D",
"&  c #101E1E",
"*  c #091720",
"=  c #071A21",
"-  c #0A1B20",
";  c #0A1A21",
":  c #0D1A21",
">  c #0A1D20",
",  c #0B1D22",
"<  c #091D21",
"1  c #0C1C20",
"2  c #0C1D22",
"3  c #0E1D22",
"4  c #0E1E22",
"5  c #0D1E25",
"6  c #0C1C22",
"7  c #071720",
"8  c #101E23",
"9  c #0D2025",
"0  c #0E2125",
"q  c #0E2229",
"w  c #112125",
"e  c #112125",
"r  c #12232A",
"t  c #24343C",
"y  c #22383D",
"u  c #233C42",
"i  c #2C4344",
"p  c #2D464A",
"a  c #2F4849",
"s  c #334744",
"d  c #3E4745",
"f  c #344A46",
"g  c #3C4B46",
"h  c #314749",
"j  c #344C4B",
"k  c #3C4D4C",
"l  c #384749",
"z  c #3B524D",
"x  c #35504F",
"c  c #364D51",
"v  c #3A4F51",
"b  c #375052",
"n  c #3C5453",
"m  c #3D5855",
"M  c #3D5658",
"N  c #3E595A",
"B  c #424B46",
"V  c #444E4C",
"C  c #404744",
"Z  c #44524D",
"A  c #4D554D",
"S  c #4B594F",
"D  c #445A4D",
"F  c #52584E",
"G  c #435553",
"H  c #4C5653",
"J  c #435A55",
"K  c #4C5B55",
"L  c #43565A",
"P  c #4A575B",
"I  c #445B5B",
"U  c #4C5D5B",
"Y  c #525653",
"T  c #535C55",
"R  c #5A5D54",
"E  c #545E5A",
"W  c #5A5F5A",
"Q  c #525659",
"!  c #4B6157",
"~  c #46605D",
"^  c #4D635D",
"/  c #4E685D",
"(  c #526156",
")  c #5B6257",
"_  c #53635D",
"`  c #5B645D",
"'  c #546A5E",
"]  c #5C6A5D",
"[  c #62665D",
"{  c #636A5E",
"}  c #6B6E5C",
"|  c #6F735F",
" . c #455E61",
".. c #4B5E61",
"X. c #535F63",
"o. c #595F61",
"O. c #476262",
"+. c #4D6463",
"@. c #4D6865",
"#. c #4D6569",
"$. c #4E6A69",
"%. c #536563",
"&. c #5C6562",
"*. c #546A64",
"=. c #5C6B64",
"-. c #546669",
";. c #5A636A",
":. c #556B6B",
">. c #5B6D6B",
",. c #5C7166",
"<. c #56716C",
"1. c #5D726C",
"2. c #5E786C",
"3. c #566E71",
"4. c #5B6E71",
"5. c #567171",
"6. c #5D7272",
"7. c #5D7976",
"8. c #5F797C",
"9. c #5D7578",
"0. c #626663",
"q. c #646B64",
"w. c #6B6D65",
"e. c #62666C",
"r. c #656D6A",
"t. c #6A6E6B",
"y. c #736F6B",
"u. c #647166",
"i. c #6C7266",
"p. c #63736C",
"a. c #6C726B",
"s. c #65786E",
"d. c #6C796E",
"f. c #737364",
"g. c #7C7667",
"h. c #747865",
"j. c #72746D",
"k. c #7C746C",
"l. c #74796E",
"z. c #7C7B6A",
"x. c #7B7A67",
"c. c #666D72",
"v. c #6B6E71",
"b. c #637473",
"n. c #6D7472",
"m. c #657A74",
"M. c #6C7B74",
"N. c #637579",
"B. c #657B7A",
"V. c #6D7C7C",
"C. c #737572",
"Z. c #797574",
"A. c #747A74",
"S. c #7B7C74",
"D. c #71767A",
"F. c #757D7A",
"G. c #7B7C7A",
"H. c #817D6D",
"J. c #837C74",
"K. c #877D78",
"L. c #6D817B",
"P. c #6A8076",
"I. c #738176",
"U. c #7E8175",
"Y. c #74837D",
"T. c #7C837D",
"R. c #75897F",
"E. c #7D8971",
"W. c #82816D",
"Q. c #8A8274",
"!. c #82837C",
"~. c #8A857D",
"^. c #8C897C",
"/. c #888977",
"(. c #918A7D",
"). c #95857C",
"_. c #6C7E80",
"`. c #757E82",
"'. c #7B7E82",
"]. c #6E8482",
"[. c #6F8884",
"{. c #748482",
"}. c #7D8483",
"|. c #7C8A85",
" X c #7D8B8A",
".X c #748886",
"XX c #7E9793",
"oX c #838583",
"OX c #828A84",
"+X c #8A8B82",
"@X c #848B89",
"#X c #8A8D8A",
"$X c #84868B",
"%X c #938B83",
"&X c #9B8985",
"*X c #86918C",
"=X c #8B928C",
"-X c #8F9087",
";X c #939085",
":X c #9B9386",
">X c #93948D",
",X c #9C948A",
"<X c #93988C",
"1X c #9F9889",
"2X c #8C9492",
"3X c #809291",
"4X c #939693",
"5X c #909A95",
"6X c #989E96",
"7X c #A2968B",
"8X c #A49A8D",
"9X c #A19E97",
"0X c #99A097",
"qX c #A9A39C",
"wX c #B2B1A3",
"eX c #AAA6A2",
/* pixels */
"% O % % 2 2 2 , , - - , , - # # , - # - - * @ @ @ , 5 , - @ @ @ @ @ * @ @ @ # # 2 % 5 2 % 2 % 2 2 + # % 2 % 2 % 2 2 2 5 % - , , , - ",
"[ 2 + 2 % % # - 9 # - # @ @ O O $ $ @ @ @ @ $ @ @ @ @ @ @ @ @ - - @ @ $ @ $ - - # @ @ # # % # # + @ O w w 8 2 % % % # 9 5 # - @ # O ",
"R q.# O 2 # $ # 9 w 2 % + + + % , # @ - = @ @ O @ $ $ # , - - # , % # @ # # # # # , , % 2 2 + + % 2 - r 5 , , , , # @ 2 9 w % % + % ",
"W H r.r o 2 @ $ 5 , $ @ @ @ @ @ @ , # # $ @ @ O @ @ @ @ @ @ @ @ @ @ O @ O O O @ O O - % % - % % % # + # # # - , 2 - @ - 9 % $ O % # ",
"T K Z j.8 X # O # , , % # @ # # , , $ = - @ $ $ $ @ $ @ @ @ @ @ O O O @ @ @ @ @ @ @ # + % % % % % + @ 2 2 # % 2 - # O O - , % 2 % % ",
"W Y E H f.r   % % # # 2 # - - # # # # + @ @ O O O + @ @ # , # # - 2 - # 2 , 2 % 8 8 r % % % % % 2 # w # # * # - @ @ O 2 % # 2 2 % 2 ",
"` H 0.H T j.t   % # % % % # + % 2 # + # # + # # # O @ @ # # # # # 2 5 % % + 2 2 2 e r w 2 5 2 # + # 2 % @ # # # @ + O + % - # 2 % % ",
"` k &.Z A H S.t . & & % # + + % 2 # # # + % % 2 2 % % % % 2 % % + + % + % + + + + + # 2 8 e 8 8 2 2 5 5 # @ @ @ @ @ O % @ $ # 2 % # ",
"=.I %.K =.n.r.0.t . 5 2 5 5 e r w 8 e 8 8 8 e 8 8 8 8 8 8 8 e 8 2 2 2 # # # # # @ % 2 2 2 # # 2 # # # w 8 8 2 2 % 2 8 @ 5 9 9 5 2 2 ",
"K b N i L ` %.C 1.y                                                                                               # % % 5 r 2 % 2 % ",
"] L n p I ` K g j _ -.:.-.+.%.^ n.-.` a.a.A.u.u.p.A.A.A.n.1.s.=.F.b.V.q.0.a.t.q.a.w.r.t.t.t.0.t.` t.j.4...*.%.:.b.X # 2 # 8 , = 2 2 ",
"( I G b M W E V z G 1.b.1.b.p.1.A.V.A.j.!.+XU.!.!.!.l.~.<XT.T.a.G.F.L.S.j.j.G.a.G.j.l.S.A.j.j.A.A.j.S.r.*._ *.>.M.X 2 % # % - , 2 2 ",
"J I G j M ` E Z n v %.*.*.*.*.*.T.m.A.G.S.S.j.S.S.S.a.~.~.!.A.a.G.T.{.T.!.A.r.e.v.r.w.+X#Xt.` t.!.w.C.;.N._ 1.4.p.X % # @ # # , % % ",
"N I G a M U Z Z z f >.:.*.K m.=.F.Y.n.A.S.!.A.A.j.a.C.a.a.{ A.S.S.!.a.Y.=.b.b.m.>.,.E.J.K.q.r.S.j.+X>X=.! *.m.%. X. # @ # # # , % % ",
"n M n h L U K K n k >.m.p.M.>.>.A.u.A.A.A.j.j.S.j.j.C.a.a.A.A.G.S.a.G.0XT.}.A.OXOX=XwXu.M.F.F.A.T.T.#X=Xn.n.n.M.9X  , - $ % @ # 2 + ",
"b n n j L E K H z L ] u.M.V.b.p.a.' a.A.C.A.S.j.a.S.S.S.A.!.A.j.A.[ S.W./.S.A.j.i.i.+X*.I 1.>.*.%.*.b.#XA.a.A.!.8X. # , $ % O @ % @ ",
"L n J h n U W K K K T a.a.C.A.G.n.=.` j.j.C.f.j.l.l.S.S.j.A.t.j.A.j.+XA.[ q.` l.l.[ <X_ ~ U :.U +.J $.t.j.Z.j.S.:XX # % @ 2 @ # 8 % ",
"G n L i G X._ Z *.U t.r.Y W a.0.r.` ` r.j.j.j.j.j.a.S.j.S.C.q.t.a.i.A.w.q.r.a.j.C.+XA.U I 6.-.N.b.+.6.}.G.oX#X!.7XX # 5 5 , % 2 q 9 ",
"M I ~ h n P B k G g F.T W &.q.r.F.r.n.j.w.A.a.j.a.a.j.C.S.t.q.0.w.j.j.w.` q.j.k.J.S.OX>.6..X4.:.:.4.B.G.C.C.a.S.1X. + - - @ # @ , # ",
"n ..L c n n G H ` k A.q.` i.q.a.T.=.r.q.j.A.t.C.t.i.A.C.i.r.r.a.a.q.T.0.F a.w.f.g.{ M.J >.>.6.U %.>.6.Y.` i.q.w.8X. + = - - # # - 2 ",
"n I L c n M G T ` f S.!.a.A.M.a.=Xq.) n.C.A.a.r.n.t.u.q.i.r.&.A.q.W F.a.T T } | } ) n.^ *.b.b.1.b. X*.=.F.W 0.q.7XX @ , - , # - - 2 ",
"J G I v G I U W &.G k.~.C.i.A.) u.a.T q.p.=.=.u.u.q.a.r.i.r.` q.` ` F.C.W [ j.a.i.i.u.^ n J *.{.>.Z *..XM.r.r.F.,X. $ = # * # - , - ",
"L G I c G L G T ` G F.*XF.u.F.OX#X@XOXY.Y.Y.L.V.1._ T.>XT.}.}.2XF.#X}.C.t.r.A.F.OXT.M.^ +.b.*.%.*.*.U @XT.A.A.Y.<X. O = $ @ # @ - # ",
"I n M p n z G T W G Y.b.b.%.U *.F.&.o.G J K G U :.! ( _ J G J U H ) u.e.o.&.n.G.A.i.F.>.;.1.>.>.b.1.%.T.A.r.u.*.+X  O = @ O # @ $ # ",
"^ j n j b x G T W K C.F.A.r.A.F.G.}.n.:.>.m.V.>.<.*.b.' %.%.b.b.n.n.a.e.F.'.F.A.T ) i.` &.*.%.*.b.b.^ A.F.&.W C.qXX + $ @ @ # O @ - ",
"+.n I M U n G T W U S.f.S.j.%Xj.n.D.v.*.b.{.M.6.<.*.' *.>...*.%.=.a.n.V.o.v.&.p.W T d.&.` U *.b.>.b.*.n.q.q.A.C.,X  O $ @ @ @ # - 5 ",
"G v c j n f Z W W L ).Q.!.p.M.>.1.b.b.b.B.b.>.^ +.%.>.*.^ :.*.%.v.=.n.*.b.>.1.R.M.1.R.*.:.n %.B.e.'.=.#X@XA.!.S.8X. $ - = % @ , 2 w ",
"z n p n n z K W W z G.a.n.6.b.b.b.m.b.>.m.V.>.+.:.>.>.*.>.>.>.>.r.e.&.1.1.>.>.M.V.1.Y.%.b.*.*.b.>.p.J @XC.r.T.~.:X  @ @ @ $ @ , 8 2 ",
"n M h M n f H W &.g `...:.N.N.>.>.>.6.U *.b.>.*.6.6.*.%.>.>.1.*.&.o.Q >.>.b.1.1.=.' R.%.U 6.*.*.U J L F.r.` i.i.(.. @ @ @ , - , 2 - ",
"J M b n M j G E ` s *X*X|.R.|.|.*X{.R.|.V.s.M.m.=.m.L.Y.V.{.F.@XF.F.`.{. XB.F.F.=X4X6XI.OX5X6X0X2X X XY.' a.C.q.^.X , @ @ 5 $ $ % % ",
"U n M M N z G H W G *.^ ! _ _ _ ^ _ *._ %.>.1.>.m.Y.^ ^ ^ +.*.%.^ b.L.>.>.^ _ =.' =.' _ =.1.u.=.u.M.*XV.=.n.a.j.;XX - @ @ 2 # @ # # ",
"I n I N I z H H W U :.:.:.-.>.-.-.-...-.>.-.-...4.>.6.6.-.#.5.8.:.B.B.b.b.*.,.M.M.6.*.z ^ *.,.M.u.s.R.p._ ` a.i.,X. # @ 7 , - @ # + ",
"J z I n M Z G T W H ..B.3.+.:.+.I ....+.:.6.#.O.O.#.:.:.3.:.8.8.6.m.m.*.6.:.%.p.m.Y.*.^ *.r.r.c.1.u.{.m.=.n.a.j.%X  # @ @ 2 , @ # # ",
"G z M M I G Z T &.H $.+.#.O.+.+.L n I ..:.4.O.I 7.$.@.:.5.@.B.<.$.b.s.6.1.6.^ m.1.m.b.*.%.e.c.v.>.1.M.M.=.A.C.!.:X. 2 O @ , # @ % + ",
"^ I U O.I G K Y E ! ..3.+.I #.4.$.M -.:.%.>.5.$.:.O.5.7.5.@.$.:.#.V.p.>.>.m.b.%.1.>.b.%.U &.n.n.m.=.=.s.p.C.a.A.(.X , O @ # $ = 2 % ",
"n n I j I G K ` *.f 6.6.*.-.#.#.#.>.:.:.:.:.$.O.#.:.+.*.:.6.:.6.@.b.%.*.*.,.1.s.,.p..X*.=.C.n.r.b.M.b.,._ &.r.i.~.X , @ @ # $ @ % 2 ",
"k k G n I L d A ) f #.1.*.6.6.%.*.m.1.V.:.:.*.+.6.V.=.=.F.|.Y.@X.X3X:.1.*.*.1.p.=.1.XXB.{.@X@XOXF.F.'.*.b.r.A.A.-XX 2 @ @ # $ @ % 2 ",
"G G k n G L C A U Z O.*.%.%.*.>.>.*.*.N.>.%.4.3.:.4.:.f I ~ N O.*.6.6.m.! / =.=.p.{.V.^ J *.1.*.*.*.b.L._ F.}.q.^.X 2 @ @ # = @ % % ",
"U G f n b U H H U F 6.%._ *.*.m.b.B.6.>.N.N.B.6.N.6.#. .O._ b.V.6.1.1.=.m.%.^ K F.*X@X6.$.4.6.b.1.1.V.2. XY.F.r.~.. 2 @ @ - = $ 2 % ",
"I K V z J U T Y P A N.n.`.V.V.1.1.L.,.*.p.V.{.^ >.6.#.$.+.:.B.B.1.b.V.r.C.&.E o.e.T. XN.N.b.b.V.b.V. Xm.1.n.q.) %Xo % $ @ 2 , # % 2 ",
"I U H n U G T W U T 6.r.r.6.>.>.*.1.P.b.m.V.b.6.%.:.-.+.-.N.6.6.>.%.V.a.r.q.q.a.G.T.R.6.-.V.V.B.V.b. XY.u.n.a.` %XX 2 $ @ # , , + 2 ",
"m ^ &.J U k S W L A >.`.=.*.%.U / 1.R.B.b.m.6.m.>.b.#.+.>.>.>.N.*.%.{.oXn.r.A.T.a.A.|.4.:.m.1.V.L.M.5XT.A.y.t.=.~.o 8 @ O , # 2 + 2 ",
"^ %.>.I U S Z *.) A 1.1.>.-.;...>.:.:.$Xr.&.B.>.#.6.N.:.*.*.6.6./ ,.m.) ] i.q.Y.M.u.p.*.1.q.r.a.n.C.<X>.F.j.q.{.~.O 8 $ @ , O 5 + % ",
"%._ I M z J z U ` H :.m.{.L.1.1.,.,.1.b.b.>.=.,.1.*.4.:.b.1.:.:.%.m.m.' u.Y.d.U.!.T.*Xm.=.r.A.A.A.A.qXb.=.w.t.t.&XO w % 2 2 # w 2 # ",
"U z v j z l s i ` g N.B.B.B.B.7.1.B.].1.b.b.6.6.1.+.+.:.6.6.>.>.*.m.m.U ^ 6.,.@.B.m.5X|.p.A.n.A.T.T.eXV.b.r.a.a.%XX # % % 2 # 2 + + ",
"` H I G I j G M T g OXb.:.$.@.6.:.#.>.-.+.6.>...+.:.*.*.1.,.,.%.1.*.1.+.L U I #.#.:.Y._ %.A.a.r.a.S.S.=.^ =.A.n.;Xo % & 2 8 % 2 # @ ",
"` H I K U j n n H Z i.M.5.5.:.:.:.6.>.B.6.>.b.6.6.*.6.:.*.1.1.1.1.1.^ >.-.-.-.N.*.>.M.B.b.A.n.C.j.A.!.*.( &.A.t.S.X & & % % % % % @ ",
"T K I P ^ M G M T k T.*.7.7.O.#.:.:.-.*.4.-.#.:.B.6.1.J *.*.:.6.6.:.1.-.-.N.N.:.4.>.V.>.b.C.A.&.j.G.#XE E t.` =.!.o 8 % 2 + 2 % 2 # ",
"` E I G I M n v W g |.p.<.@.@.O.#.O.:.+.*.:.>.6.V.{.*.-.4.6.b.N.*.>.{.*.>.6.6.B.:.:.B._.b.C.A.M.A.l.!.r.r.Z.j.C.;XX 2 % 2 % % 2 2 + ",
"` *.I G U L M n ` d M.M.>.$.I #.N.9.:.:.*.6.6.*.m..X..6.-.b.>.>.*.V.V.>.>.b.m.L.m.6.5.{.V.A.n.u.q.=.l.F.r.j.G.a.%X. % # 2 2 + % # # ",
"[ r...G ^ v k M W V p.p.m.N.-.:.>.*.:.^ :.<.B..XB.>.I O.%.4.V.V.p.b.1.^ >.>.>.p.6.U =.r.t.T.n.F.a.q.) 4XB ` Z.r.!.X 2 O # 2 + + + # ",
") r.*.J %.G U *.W G d.F.b.V.`.F.`.V.D.>.*.>.b.B..XB.*.:.+.4.B.b.%.B.{.b.V.m. X#X`.|.5Xq.n.n.F.F.T.F.T.@X}.0.oXF.,Xo 5 2 # 5 % % % - ",
"g v J z G 0._ W k c w.[ u.] ' =.A.oXp.` Y w.q.M.Y.{.>.*.:.6.b.6.*.<.@XY.u.b.=.b.d.A.oX=.A.u.n.` M.R.m.! D s.n.n.+X  @ 9 # r r % , # ",
"A H U G Z G G E k v [ w.A.F.i.0.a.0.q.t.t.Z.F.G.oXF.>.<.6.V.*.*.].B.}.a.q.a.r.p.M.=.a.A.r.r.n.n.M.s.M.L.1.a.T.C.;X. # 2 - 2 w % % # ",
"W A U K H U V &.z b w.A.S.j.r.a.F.F.n.t.C.A.j.!.G.n.U 6.:.:.6.B.m.[.}.a.C.a.t.j.Z.a.A.a.` q.p.a.1.,.M.s.^ p.n.q.+XX # % - , 8 % % # ",
"W K G E Y E K ` G h &.j.C.C.a.F.G.q.r.a.` t.e.n.A.oX4.5.6.m.F.A.m.R.{.oXA.t.A.n.Y.A.d.F.'.G.a.m.*.>.*.D.e.c.r.q.l.  5 2 2 5 2 % % # ",
"T K G T H _ E ` h b l.i.] ) =.] a.[ ` ' =.=.` *._ ( [ { [ ` _ &.W ` r.) A R { { { [ ] Z G ! ^ ^ %.^ ^ d.u.` ` u.T.U   w 2 , 2 2 % % ",
"` Y &.H W _ &.W K ).k.i.a.,.a.u.p.p.=.%.*.1.*.^ ^ ! ( K K U ^ ^ ` ` &.*.*.>.=.u.%._ u.( U J ^ *.%.*.U A.a.=.a.a.j.^.H   8 - % 2 % % ",
"&.V 0.Z H H &.W d.*.*.@.#.+.%.+.U U ^ U %.%.+.! %.*.@.*.+.#.:.:.%.1.1.*.>.%._ ,.,.1.=.K _ =.u.u.=.u.M.p.K ` q.q.w.w.W.Z   - # 2 % # ",
"0.G &.Z K E *.q.=.n I ^ J L I I L L I O.O.O.I I O.^ ^ ^ @.@.@.:.*.1._ ^ ^ ' / ' ' >.1.^ _ q.r.q.*.*.=.' _ =.r.w.q.q.) /.k   2 2 % # ",
"` M O.G _ a.g.a.b.<.%.&.*.%.' ' ' ,.,.>.>.>.1.%.%.*.I n I %.*.>.%.*.p.0.] T T [ i.A.F.*.+.*.>.1.>.>.V.p.u.t.=.) 0.Z.j.n.L. .  q 2 0 ",
") M M u G f.` ' ^ ^ =.,.<.:.@.+.%.*.1.>.*.*.*.^ ^ ! ^ +.*.%.^ ^ ^ ' *.K U *.%.*.1.u.M.=.' q.q.r.a.A.%X=.' ` &.q.q.0.) *.I d.*.  8 % ",
") I j v j.r.a.A.A.p.p.=.%.O.N ~ #.O.O.~ ~ O.*.:.6.1.^ I ^ *.*.-.%.*.*.U +.*.:.<.#.+.1.>.p.i.r.q.w.q.f.=.T [ w.q.q.i.a.A.i.s.A.1.  w ",
"K M U S.r.0.` 0.q.) R [ i.q.[ [ a.r.` ) W q.r.a.d.r.U ^ +.:.:.*.*.7.F.i.r.0.q.r.u.r.a.0.0.q.q.=.,.=.,.1.^ &.a.q.q.` ` i.` ) R l.l.  ",
"m ..=.E E E T ) ] &.0.r.q.&.q.i.r.` ` ( ( *.&.r.a.A.>.%._ %.r.b.' p.p.U ( &.q.i.t.u.i.=.` 0.=.=.' _ &.=.*.*.E W U T T ` =.0.r.r.a.i.",
"=.q.=.=.*._ =.s.I.s.' =.' _ =.=.U.d.f.z.H.Q.W.W.H.W.H.Q.W.x.z.h.z.l.l.h.f.h.j.j.l.f.x.z.x.i.w.j.g.g.H.u.=.' =.=._ ' u.M.I.,.=.=.^ u."
};
